<svg width="44" height="45" viewBox="0 0 44 45" fill="none" xmlns="http://www.w3.org/2000/svg">
<path d="M26.0382 10.1738H17.1402C13.1938 10.1738 10 13.3739 10 17.315V26.2142C10 30.161 13.1996 33.3553 17.1402 33.3553H26.0382C29.9846 33.3553 33.1784 30.1553 33.1784 26.2142V17.3207C33.1784 13.3738 29.9846 10.1738 26.0382 10.1738ZM30.9553 25.3639C30.9553 28.5524 28.3704 31.1377 25.1823 31.1377H17.9961C14.808 31.1377 12.2231 28.5524 12.2231 25.3639V18.171C12.2231 14.9825 14.808 12.3972 17.9961 12.3972H25.188C28.3761 12.3972 30.9611 14.9825 30.9611 18.171V25.3639H30.9553Z" fill="black"/>
<path d="M21.9031 15.7012C18.5312 15.7012 15.7969 18.4358 15.7969 21.8082C15.7969 25.1806 18.5312 27.9153 21.9031 27.9153C25.275 27.9153 28.0093 25.1806 28.0093 21.8082C28.0093 18.4358 25.275 15.7012 21.9031 15.7012ZM21.9031 25.4851C19.8754 25.4851 18.2267 23.842 18.2267 21.814C18.2267 19.7859 19.8696 18.1371 21.9031 18.1371C23.9309 18.1371 25.5737 19.7802 25.5737 21.814C25.5737 23.8362 23.9309 25.4851 21.9031 25.4851Z" fill="black"/>
<path d="M27.5842 14.0508C26.7283 14.0508 26.0332 14.7459 26.0332 15.602C26.0332 16.458 26.7283 17.1531 27.5842 17.1531C28.4401 17.1531 29.1351 16.458 29.1351 15.602C29.1351 14.7459 28.4401 14.0508 27.5842 14.0508Z" fill="black"/>
<path d="M37.1634 35.7483C36.5603 35.9264 36.2271 36.5985 35.9399 37.1156C35.6814 37.5867 35.1816 38.1382 35.1816 38.6897C35.1816 38.8678 35.3655 39.0115 35.5378 38.9598C36.072 38.8104 36.4684 38.1842 36.8532 37.8107C37.2783 37.3971 37.847 36.8915 37.8585 36.2711C37.87 35.9264 37.5024 35.6448 37.1634 35.7483Z" fill="black"/>
<path d="M43.6078 23.6782C46.2157 13.1417 35.3302 2.48451 25.427 0.61161C19.9813 -0.416763 14.3174 0.559904 9.67598 3.58757C5.68941 6.18436 1.61092 10.7977 1.10542 15.681C1.09393 15.7902 1.12841 15.8764 1.17437 15.951C-1.96779 24.0114 1.45583 34.1458 8.34329 39.2647C15.1733 44.3376 26.4035 46.1128 33.6643 40.8158C34.279 40.3677 33.7677 39.4772 33.0669 39.8047C32.8027 39.9254 32.5384 40.046 32.2799 40.1666C32.1478 39.9368 31.8721 39.7875 31.5274 39.9541C26.6907 42.2464 19.9756 41.0859 15.1963 39.3853C14.6563 39.1957 14.2887 40.0517 14.8057 40.3045C17.3504 41.5397 20.1192 42.2636 22.9569 42.413C24.1402 42.4762 25.3293 42.436 26.5126 42.3096C24.7089 42.7634 22.8477 42.9703 20.843 42.7922C16.7702 42.4245 13.1743 40.9078 9.8081 38.6557C5.86174 36.0187 3.16765 32.8072 1.89241 28.2111C0.783752 24.2297 0.726294 20.0358 1.94984 16.0947C2.00154 16.0544 2.05324 16.0085 2.08196 15.9453C2.2945 15.5431 2.5013 15.1467 2.70809 14.7561C1.49604 17.8756 1.13989 21.3342 1.6856 24.6319C2.71384 30.8883 6.24086 35.019 11.428 38.4144C12.0484 38.8223 12.6745 37.7767 12.0139 37.4262C7.40697 34.9846 3.75356 29.4291 2.97808 24.3504C2.12217 18.7432 4.16141 13.4806 7.49887 9.0167C7.78608 8.63752 7.18293 8.21813 6.8555 8.52262C6.30979 9.03393 5.8043 9.58546 5.33326 10.1657C6.09726 9.0167 6.95315 7.93662 7.98139 6.93122C7.74587 7.32764 8.125 7.92513 8.59604 7.62064C9.80809 6.84505 10.9799 6.01775 12.2379 5.30536C13.1341 4.79979 14.0876 4.39763 15.0067 3.93228C15.1561 3.97824 15.3284 3.98973 15.5295 3.93802C22.2044 2.24322 28.8506 2.97285 34.0492 7.85044C34.2502 8.04003 34.4972 7.95385 34.6236 7.7815C34.5777 8.02279 34.7098 8.31005 35.0315 8.31005C35.5944 8.31005 35.5944 7.44254 35.0315 7.44254C34.8706 7.44254 34.7615 7.51148 34.6926 7.61489C34.704 7.51722 34.6811 7.41381 34.5892 7.31614C32.8544 5.48346 30.6658 3.95526 28.2589 2.88667C35.29 5.46048 41.1377 11.7571 41.9821 19.0247C41.4594 16.7036 40.4886 14.4573 39.0697 12.4293C38.7079 11.918 37.9094 12.3603 38.2138 12.9234C40.1037 16.3819 40.9941 20.1622 41.1205 24.0804C41.2526 28.1709 39.6614 31.6639 37.4843 35.0363C37.2603 35.381 37.7773 35.8004 38.0587 35.5131C38.1909 35.5821 38.3517 35.5821 38.4896 35.4557C41.6317 32.5257 43.9294 28.1364 43.6193 23.7414C43.6193 23.7184 43.6078 23.7012 43.6078 23.6782Z" fill="black"/>
<path d="M13.0815 38.9307C12.9436 39.2525 13.1274 39.5742 13.4491 39.6833C13.6846 39.7638 13.8972 39.8442 14.1442 39.8787C14.5693 39.9304 14.7301 39.3501 14.4716 39.0916C14.305 38.9193 14.081 38.7986 13.8799 38.6665C13.5985 38.4711 13.2078 38.6377 13.0815 38.9307Z" fill="black"/>
</svg>
