<svg width="44" height="45" viewBox="0 0 44 45" fill="none" xmlns="http://www.w3.org/2000/svg">
<path d="M43.6078 23.7778C46.2157 13.1957 35.3302 2.49238 25.427 0.611367C19.9813 -0.421459 14.3174 0.559433 9.67598 3.60021C5.68941 6.20824 1.61092 10.8415 1.10542 15.746C1.09393 15.8556 1.12841 15.9422 1.17437 16.0172C-1.96779 24.1125 1.45583 34.2907 8.34329 39.4318C15.1733 44.5266 26.4035 46.3096 33.6643 40.9897C34.279 40.5396 33.7677 39.6452 33.0669 39.9741C32.8027 40.0953 32.5384 40.2165 32.2799 40.3376C32.1478 40.1068 31.8721 39.9568 31.5274 40.1242C26.6907 42.4264 19.9756 41.2608 15.1963 39.5529C14.6563 39.3625 14.2887 40.2222 14.8057 40.4761C17.3504 41.7167 20.1192 42.4437 22.9569 42.5937C24.1402 42.6572 25.3293 42.6168 26.5126 42.4898C24.7089 42.9457 22.8477 43.1534 20.843 42.9745C16.7702 42.6052 13.1743 41.082 9.8081 38.8201C5.86174 36.1717 3.16765 32.9463 1.89241 28.3303C0.783752 24.3317 0.726294 20.1197 1.94984 16.1615C2.00154 16.1211 2.05324 16.0749 2.08196 16.0114C2.2945 15.6075 2.5013 15.2094 2.70809 14.817C1.49604 17.9501 1.13989 21.4237 1.6856 24.7356C2.71384 31.0191 6.24086 35.1677 11.428 38.5778C12.0484 38.9875 12.6745 37.9373 12.0139 37.5854C7.40697 35.1331 3.75356 29.5536 2.97808 24.4529C2.12217 18.8214 4.16141 13.5361 7.49887 9.05284C7.78608 8.67202 7.18293 8.25081 6.8555 8.55661C6.30979 9.07014 5.8043 9.62407 5.33326 10.2068C6.09726 9.05284 6.95315 7.96808 7.98139 6.95834C7.74587 7.35647 8.125 7.95655 8.59604 7.65074C9.80809 6.8718 10.9799 6.04092 12.2379 5.32544C13.1341 4.81769 14.0876 4.41378 15.0067 3.94641C15.1561 3.99257 15.3284 4.00412 15.5295 3.95219C22.2044 2.25004 28.8506 2.98283 34.0492 7.88154C34.2502 8.07195 34.4972 7.9854 34.6236 7.8123C34.5777 8.05464 34.7098 8.34313 35.0315 8.34313C35.5944 8.34313 35.5944 7.47186 35.0315 7.47186C34.8706 7.47186 34.7615 7.54111 34.6926 7.64497C34.704 7.54688 34.6811 7.44302 34.5892 7.34493C32.8544 5.50431 30.6658 3.96949 28.2589 2.89627C35.29 5.48122 41.1377 11.8051 41.9821 19.1041C41.4594 16.7731 40.4886 14.517 39.0697 12.4802C38.7079 11.9667 37.9094 12.411 38.2138 12.9764C40.1037 16.4499 40.9941 20.2466 41.1205 24.1817C41.2526 28.2899 39.6614 31.7981 37.4843 35.1851C37.2603 35.5313 37.7773 35.9525 38.0587 35.664C38.1909 35.7332 38.3517 35.7332 38.4896 35.6063C41.6317 32.6636 43.9294 28.2553 43.6193 23.8413C43.6193 23.8182 43.6078 23.8009 43.6078 23.7778Z" fill="black"/>
<path d="M22.7889 29.2148C22.7889 29.2148 23.2889 29.2148 23.4889 28.9148C23.6889 28.7148 23.6889 28.3148 23.6889 28.3148C23.6889 28.3148 23.6889 26.3148 24.5889 26.0148C25.4889 25.7148 26.6889 27.9148 27.8889 28.7148C28.7889 29.3148 29.5889 29.2148 29.5889 29.2148H32.8889C32.8889 29.2148 34.5889 29.1148 33.7889 27.7148C33.6889 27.6148 33.2889 26.7148 31.2889 24.9148C29.1889 23.0148 29.4889 23.3148 31.9889 20.0148C33.4889 18.0148 34.0889 16.8148 33.9889 16.2148C33.7889 15.7148 32.6889 15.8148 32.6889 15.8148H28.8889C28.8889 15.8148 28.5889 15.8148 28.3889 15.9148C28.1889 16.0148 28.0889 16.3148 28.0889 16.3148C28.0889 16.3148 27.4889 17.9148 26.6889 19.2148C24.9889 22.0148 24.3889 22.1148 24.0889 22.0148C23.4889 21.6148 23.5889 20.4148 23.5889 19.5148C23.5889 16.8148 23.9889 15.7148 22.7889 15.4148C22.3889 15.3148 22.0889 15.2148 20.9889 15.2148C19.6889 15.2148 18.4889 15.2148 17.8889 15.5148C17.4889 15.7148 17.0889 16.2148 17.2889 16.2148C17.4889 16.2148 18.0889 16.3148 18.3889 16.7148C18.7889 17.2148 18.7889 18.4148 18.7889 18.4148C18.7889 18.4148 18.9889 21.6148 18.2889 22.0148C17.7889 22.3148 17.0889 21.7148 15.5889 19.2148C14.7889 17.9148 14.2889 16.5148 14.2889 16.5148C14.2889 16.5148 14.1889 16.2148 13.9889 16.1148C13.7889 15.9148 13.3889 15.9148 13.3889 15.9148H9.7889C9.7889 15.9148 9.28889 15.9148 9.08889 16.1148C8.88889 16.3148 9.08889 16.7148 9.08889 16.7148C9.08889 16.7148 11.8889 23.1148 15.0889 26.4148C17.9889 29.4148 21.2889 29.2148 21.2889 29.2148H22.7889Z" fill="black"/>
</svg>
