<svg width="192" height="48" viewBox="0 0 192 48" fill="none" xmlns="http://www.w3.org/2000/svg">
<path d="M17.2793 39.0139H38.1977V43.3531H17.2793V39.0139ZM168.556 25.0843L175.151 17.8075H170.236L164.831 23.8555V17.8075H160.914V33.1003H164.85V26.6587L170.63 33.1003H175.679L168.556 25.0843ZM40.5017 26.0923C40.3961 28.9723 40.0313 29.5195 38.4377 29.5195V33.1099H39.0329C43.0361 33.1099 43.9865 31.0459 44.1305 26.4475L44.3033 21.3595H47.9993V33.1003H51.9161V17.8075H40.7705L40.5017 26.0923ZM23.5001 28.7227H31.7561L33.1289 33.1003H37.7081L31.5353 14.7067C30.9401 12.9307 30.2489 11.5195 27.8873 11.5195C25.5257 11.5195 24.8057 12.9307 24.1721 14.7067L17.7017 33.1003H22.0025L23.5001 28.7227ZM27.6857 16.3195H27.7913L30.5561 25.0363H24.7385L27.6857 16.3195ZM119.183 19.9771H114.815V15.6571H124.953V11.8171H110.706V33.1003H119.183C123.878 33.1003 126.575 30.7579 126.575 26.4763C126.575 22.4155 123.839 19.9771 119.183 19.9771ZM118.982 29.2507H114.815V23.7211H118.982C121.151 23.7211 122.37 24.6811 122.37 26.4859C122.37 28.2907 121.151 29.2507 118.982 29.2507ZM80.2457 17.4523V11.7883H76.3385V17.4523C74.2869 17.52 72.346 18.3992 70.9419 19.8967C69.538 21.3943 68.7858 23.3878 68.8505 25.4395C68.7806 27.4955 69.5302 29.495 70.9345 30.9982C72.3387 32.5016 74.2826 33.3854 76.3385 33.4555V39.2155H80.2553V33.4555C81.2737 33.422 82.2755 33.1881 83.2033 32.7668C84.1311 32.3457 84.9667 31.7456 85.6623 31.001C86.3578 30.2563 86.8997 29.3819 87.2568 28.4275C87.6139 27.4732 87.7792 26.4578 87.7433 25.4395C87.7844 24.4206 87.622 23.4037 87.266 22.4482C86.9098 21.4926 86.3669 20.6175 85.669 19.874C84.9711 19.1306 84.1321 18.5335 83.201 18.1177C82.2698 17.7019 81.2652 17.4758 80.2457 17.4523ZM76.3481 29.7595C75.3115 29.6457 74.3612 29.1289 73.7021 28.3208C73.043 27.5127 72.7279 26.4779 72.8249 25.4395C72.7404 24.4038 73.06 23.3755 73.7168 22.5703C74.3736 21.7649 75.3166 21.2451 76.3481 21.1195V29.7595ZM80.2649 29.7595V21.1195C81.2964 21.2451 82.2394 21.7649 82.8962 22.5703C83.553 23.3755 83.8726 24.4038 83.7881 25.4395C83.88 26.4768 83.5631 27.5089 82.9049 28.316C82.2468 29.123 81.2995 29.641 80.2649 29.7595ZM102.422 28.4059V23.2507C102.422 19.4875 100.031 17.1355 96.0185 17.1355C92.0057 17.1355 89.6633 19.6315 89.4713 22.2331H93.4361C93.5705 21.6763 94.1657 20.6875 96.0089 20.6875C96.3535 20.6432 96.703 20.6795 97.0303 20.7937C97.3587 20.9079 97.6553 21.0968 97.8972 21.3455C98.1391 21.5942 98.3206 21.8958 98.4262 22.2264C98.5318 22.5571 98.5587 22.9078 98.5049 23.2507H94.6649C91.1897 23.2507 89.1257 25.0843 89.1257 28.1179C89.0986 28.8419 89.2238 29.5634 89.4932 30.2359C89.7627 30.9084 90.1703 31.5167 90.6897 32.0217C91.2091 32.5266 91.8288 32.9169 92.5086 33.1672C93.1884 33.4175 93.9132 33.5222 94.6361 33.4747C95.4522 33.5176 96.2662 33.3588 97.0063 33.0122C97.7465 32.6655 98.3897 32.142 98.8793 31.4875C99.198 32.0266 99.6627 32.4641 100.22 32.7495C100.777 33.0351 101.404 33.1567 102.028 33.1003H103.382V29.5675C102.719 29.5675 102.422 29.2507 102.422 28.4059ZM98.5049 27.4459C98.5212 27.8241 98.4569 28.2014 98.3158 28.5528C98.1756 28.9043 97.9625 29.222 97.6908 29.4851C97.4182 29.7481 97.0937 29.9505 96.7375 30.0789C96.3814 30.2073 96.0022 30.2587 95.6249 30.2299C94.2137 30.2299 93.1001 29.7211 93.1001 28.1947C93.1001 26.6683 94.3385 26.4475 95.3849 26.4475H98.5049V27.4459ZM61.6697 22.4539H58.8569V17.8075H54.9401V33.1003H61.7369C65.9897 33.1003 67.4969 30.3355 67.4969 27.7243C67.5161 24.3547 65.4041 22.4539 61.6697 22.4539ZM61.3817 29.7595H58.8569V25.9195H61.3817C62.7353 25.9195 63.5513 26.5339 63.5513 27.8395C63.5513 29.1451 62.7737 29.7595 61.3817 29.7595ZM141.522 28.4059V23.2507C141.522 19.4875 139.132 17.1355 135.119 17.1355C131.106 17.1355 128.764 19.6315 128.572 22.2331H132.537C132.671 21.6763 133.267 20.6875 135.11 20.6875C135.454 20.6432 135.804 20.6795 136.131 20.7937C136.459 20.9079 136.756 21.0968 136.998 21.3455C137.24 21.5942 137.421 21.8958 137.527 22.2264C137.633 22.5571 137.659 22.9078 137.606 23.2507H133.766C130.29 23.2507 128.227 25.0843 128.227 28.1179C128.2 28.8419 128.324 29.5634 128.594 30.2359C128.863 30.9084 129.271 31.5167 129.79 32.0217C130.31 32.5266 130.93 32.9169 131.61 33.1672C132.289 33.4175 133.014 33.5222 133.737 33.4747C134.561 33.5257 135.384 33.3708 136.134 33.0239C136.883 32.677 137.534 32.149 138.028 31.4875C138.342 32.0172 138.798 32.4487 139.344 32.7336C139.89 33.0185 140.505 33.1455 141.119 33.1003H142.473V29.5675C141.791 29.5675 141.522 29.2507 141.522 28.4059ZM137.625 27.4459C137.639 27.8237 137.574 28.2002 137.433 28.551C137.292 28.9018 137.079 29.2189 136.807 29.4816C136.535 29.7443 136.211 29.9467 135.856 30.0758C135.5 30.2047 135.122 30.2572 134.745 30.2299C133.334 30.2299 132.22 29.7211 132.22 28.1947C132.22 26.6683 133.458 26.4475 134.505 26.4475H137.625V27.4459ZM154.031 23.5003H148.626V17.8075H144.71V33.1099H148.626V27.0811H154.031V33.1003H157.948V17.8075H154.031V23.5003Z" fill="#EF3124"/>
</svg>
