<svg width="165" height="36" viewBox="0 0 165 36" fill="none" xmlns="http://www.w3.org/2000/svg">
<path fill-rule="evenodd" clip-rule="evenodd" d="M17.6921 0.720703C8.15352 0.720703 0.400391 8.47101 0.400391 18.0101C0.400391 27.5295 8.15352 35.2807 17.6921 35.2807C27.2091 35.2807 34.9604 27.5295 34.9604 18.0101C34.9604 8.47101 27.2091 0.720703 17.6921 0.720703ZM17.6921 34.4163C8.63352 34.4163 1.2643 27.0532 1.2643 18.0101C1.2643 8.9482 8.6307 1.58508 17.6921 1.58508C26.7352 1.58508 34.0965 8.95195 34.0965 18.0101C34.0965 27.0513 26.7324 34.4163 17.6921 34.4163ZM68.4559 14.9557C68.4559 16.0545 67.4354 16.4154 66.8766 16.4154H65.3991V19.6113H66.7979C67.9768 19.6113 68.5145 20.171 68.5145 21.011C68.5145 21.6082 68.0766 22.4304 66.9573 22.4304C66.2977 22.4304 65.6391 22.392 64.6599 21.9691L64.5995 25.0704C64.9196 25.2448 65.2234 25.3835 65.5281 25.4923C66.2316 25.7426 66.9423 25.8345 67.876 25.8476C70.3941 25.8476 72.3516 24.2895 72.3516 21.4704C72.3516 19.1904 70.9923 18.2145 69.9746 17.891V17.7523C71.0316 17.3107 72.1126 16.1745 72.1126 14.2948C72.1126 12.357 70.854 10.3779 68.0143 10.3779C67.426 10.3713 66.8391 10.4116 66.2588 10.497C65.8351 10.5598 65.4146 10.646 64.9998 10.7566L65.0391 13.9966C65.7793 13.6366 66.5377 13.5757 66.9362 13.5757C67.2779 13.5757 68.4559 13.6573 68.4559 14.9557ZM100.86 25.7285C104.955 25.7285 106.331 21.8885 106.331 18.072C106.331 14.2563 104.955 10.4173 100.86 10.4173C96.7642 10.4173 95.3874 14.2563 95.3874 18.072C95.3874 21.8885 96.7642 25.7276 100.86 25.7285ZM100.86 22.1088C99.6385 22.1088 99.0221 20.6913 99.0221 18.072C99.0221 15.4526 99.6385 14.0341 100.86 14.0341C102.08 14.0341 102.696 15.4526 102.696 18.072C102.696 20.6913 102.08 22.1088 100.86 22.1088ZM110.929 10.6376H107.993V25.5476H111.448V16.4529L113.523 19.0507L115.6 16.4529V25.5476H119.059V10.6366H116.143L113.523 14.1551L110.929 10.6376ZM121.396 25.5476H125.511C126.409 25.5476 130.147 25.167 130.165 20.6482C130.165 16.856 127.27 16.1941 125.392 16.1941H124.772V14.216H129.347V10.6376H121.396V25.5476ZM124.772 22.5495V19.1716H125.272C125.484 19.1716 125.866 19.1773 126.191 19.3816C126.508 19.5813 126.771 19.9704 126.771 20.7298C126.771 22.2916 125.69 22.5495 125.272 22.5495H124.772ZM142.593 10.6376H145.969V16.0141H148.387V10.6376H151.761V25.5485H148.387V19.572H145.969V25.5485H142.593V10.6376ZM154.038 10.6376H157.435L157.415 15.9945H158.154L160.092 10.6376H163.767L161.13 17.7148L164.148 25.5485H160.171L158.215 19.5513H157.415L157.435 25.5476H154.038V10.6376ZM134.342 25.5673H130.826L133.802 10.6582H138.158L141.114 25.5673H137.599L137.178 22.9891H134.763L134.342 25.5673ZM136.619 19.7107L135.979 15.1732L135.32 19.7107H136.619ZM88.832 25.5476H85.3759V10.6366H89.9926C93.2471 10.6366 94.4663 13.6741 94.4663 15.5923C94.4663 17.5535 93.4065 20.6323 89.9926 20.6323H88.832V25.5476ZM89.6518 13.9151H88.832L88.8329 17.352H89.6518C90.0915 17.352 90.9315 17.2329 90.9315 15.6335C90.9315 14.3951 90.4313 13.9151 89.6518 13.9151ZM73.9688 10.6376H83.3977V25.5466H79.9412V14.2348H77.4259V25.5476H73.9688V10.6376ZM53.2946 25.5476H56.7891L57.2298 22.9676H59.6471L60.0657 25.5476H63.5598L60.6029 10.6366H56.2496L53.2946 25.5476ZM58.427 15.1338L59.0874 19.691H57.7674L58.427 15.1338ZM53.6907 10.6376H46.6023V25.5466H50.116V14.3529H53.6907V10.6376ZM22.5952 7.14633C19.8605 5.92664 14.7648 5.8057 10.5905 7.66476C11.1282 7.28039 11.7038 6.95414 12.309 6.68883C13.6234 6.07664 15.743 5.4832 18.3849 5.4832C18.5096 5.4832 18.6343 5.48414 18.7595 5.48695C21.0184 5.52727 23.6963 6.30727 25.3332 7.92633C25.4973 8.12602 25.6206 8.3257 25.7063 8.50945C25.7663 8.63789 25.8081 8.75789 25.8324 8.8657C27.1313 9.5257 27.8898 10.1445 28.3084 10.8645C28.4898 11.2432 28.5493 11.6416 28.4677 12.102C28.8938 12.341 29.2632 12.6691 29.5506 13.0648C29.6424 13.2204 29.724 13.3854 29.7873 13.5513C29.8463 13.7051 29.889 13.8588 29.9087 14.0051C29.9673 14.4016 30.0066 14.861 29.5871 15.402C30.0268 15.6223 30.3849 16.2391 30.428 16.5016C30.6479 17.4776 30.0066 18.4376 29.1887 19.1791C28.2287 20.0173 26.1109 21.0166 24.3924 21.4573C21.0001 22.316 17.9809 22.677 15.5855 23.1176C16.6637 23.3763 18.121 23.7176 20.4999 23.7176C25.5915 23.7176 30.0873 21.3166 30.0873 21.3166C30.0873 21.3166 29.9884 21.6185 29.8866 21.8988C26.6513 23.8563 21.5185 24.6748 19.3191 24.5745C17.1015 24.4732 15.2246 24.1348 13.3862 23.5741C12.8246 23.7326 12.2715 23.9191 11.7291 24.1348C14.5276 25.4135 16.6435 25.6948 19.0215 25.8729C21.4566 26.0548 25.4945 25.4726 28.8873 24.237C28.7279 24.3982 28.6482 24.6363 28.4898 24.776C27.332 25.3882 25.3163 26.0004 23.5501 26.3641C22.6637 26.547 21.8401 26.6679 21.219 26.6941C19.3796 26.7748 17.1427 26.6941 15.1843 26.3332C13.5062 25.9957 12.1257 25.4726 10.6885 24.836C10.4312 25.0329 10.3112 25.2757 10.2488 25.556C15.8659 28.4932 21.0966 28.5513 27.0727 26.6941L26.5313 27.2145C19.9585 29.8929 14.8243 28.8523 10.847 26.9332L10.6791 26.861C10.5905 26.8226 10.5029 26.7813 10.4312 26.7335C10.8113 27.3738 13.8451 29.592 17.2416 29.8723C19.5812 30.072 22.4368 29.6716 24.1341 28.9938L23.1357 29.5123C22.3159 29.9126 20.139 30.8341 17.1005 30.6326C13.0463 30.3513 10.7682 28.5523 9.74867 27.6148C9.26961 27.1723 9.05164 26.6745 8.91055 26.0548C8.24586 25.7079 7.75883 25.3498 7.35992 24.8913C7.20711 24.7151 7.06695 24.5248 6.93477 24.3148C6.65445 23.8957 6.71211 23.397 6.77164 22.9741L6.89633 22.6188C6.45383 22.2954 5.99492 21.956 5.81539 21.6185C5.4132 20.8985 5.65695 20.2779 5.93539 19.7979C5.69445 19.5185 5.47367 19.2391 5.37805 18.9598C5.25664 18.6401 5.23789 18.3166 5.27398 17.9585C5.35555 17.3604 5.67523 16.8026 6.09477 16.3207C6.97227 15.3007 8.37383 14.502 10.748 13.7229C13.0876 12.941 14.0274 12.821 15.7852 12.4198C16.5666 12.2388 17.4062 12.1038 18.2593 11.966C19.652 11.742 21.0812 11.5113 22.3562 11.0651C16.6224 10.0666 10.6702 10.9845 5.81539 14.3191L6.13414 13.3807C10.4888 10.5438 15.3043 8.8657 23.4545 10.2851C23.8941 10.0245 24.1534 9.76383 24.2752 9.24539C22.2362 8.50664 20.0199 8.24695 17.1638 8.28539C14.6054 8.36695 9.98867 9.32226 7.51555 10.7866L8.27117 9.84539C9.98867 8.82258 14.4835 7.4857 17.8627 7.4257C20.2379 7.36664 21.4566 7.50539 24.2945 8.2657C24.0502 7.82133 23.5318 7.58133 22.7677 7.22602L22.5952 7.14633ZM26.9499 11.3051C26.8721 10.7454 26.2327 10.2054 25.6721 9.84539C25.5924 10.1257 25.2957 10.4651 25.0941 10.6854C25.7134 10.8466 26.3527 11.0829 26.9499 11.3051ZM24.2157 11.4832C23.8135 11.8038 23.3565 12.0823 22.6749 12.3448C23.2796 12.4507 23.8027 12.5923 24.3057 12.7423C24.7355 12.8698 25.1509 13.0029 25.5915 13.1229C25.6013 13.1276 25.6126 13.1295 25.6234 13.1285C25.8315 13.1285 26.5159 12.4957 26.634 12.3223C25.9506 12.0223 25.1115 11.7213 24.2157 11.4832ZM28.4898 14.4213C28.7481 13.9216 28.5887 13.602 28.051 13.1416C27.8302 13.4041 27.5902 13.6216 27.331 13.8213C27.7496 14.021 28.1316 14.1626 28.4898 14.4213ZM19.5015 13.3638C16.8643 13.6835 13.9459 14.2404 11.4498 14.981L11.3166 15.0213C10.0777 15.3982 5.39305 16.8195 6.8157 18.7788C6.83024 18.7788 7.71852 17.5535 11.0687 16.5795C13.2582 15.9363 15.503 15.5276 17.783 15.1123C19.831 14.7391 21.9076 14.3604 23.9968 13.8026C22.2779 13.3451 21.3155 13.1416 19.5015 13.3638ZM22.3576 15.7816C20.9396 16.1407 17.5018 16.6404 13.8076 17.4391C12.6479 17.6988 9.47023 18.4376 7.91211 19.7576C8.11461 19.9245 8.28336 20.0313 8.45305 20.1251C8.65133 20.2348 8.85149 20.3266 9.1093 20.4776C9.74867 20.0566 10.629 19.6573 11.9298 19.316C14.183 18.7179 15.8851 18.4601 17.9223 18.1226C19.9402 17.817 23.7549 17.0182 25.8516 16.2588C26.3448 16.092 26.8065 15.8838 27.196 15.642C27.361 15.5398 27.5134 15.432 27.6498 15.3185C27.5096 15.161 26.1512 14.502 26.1109 14.5629C25.2746 14.9613 24.0756 15.3598 22.3576 15.7816ZM17.4404 19.8007C15.9123 20.0538 14.4399 20.2976 12.886 20.6791C12.1871 20.8563 11.468 21.0776 10.8113 21.356C11.468 21.6963 12.188 21.9973 12.9062 22.2776C14.3443 21.8576 15.0268 21.6776 17.1005 21.3382C17.9002 21.1957 20.3377 20.757 22.0951 20.4007C25.2746 19.7182 29.9288 18.2388 28.6904 16.3207C28.6285 16.3732 28.5666 16.421 28.5048 16.4688C28.4265 16.5307 28.3487 16.5926 28.2709 16.661C27.331 17.3763 25.8324 17.9585 23.776 18.4995C21.3901 19.1454 19.3707 19.4801 17.4404 19.8007ZM7.84133 21.4535C7.90133 21.4076 7.95992 21.3616 8.01289 21.3166C7.75555 21.1835 7.56242 21.0673 7.36602 20.9435L7.07305 20.756C7.00274 20.9163 7.0257 21.0823 7.10023 21.2332C7.19539 21.4254 7.37492 21.5941 7.55305 21.6963C7.6393 21.6101 7.74195 21.5304 7.84133 21.4535ZM11.2674 22.856C10.6885 22.5963 10.0702 22.3385 9.47023 22.0582C9.19086 22.2382 8.93258 22.4163 8.73195 22.5963C9.21102 22.8766 9.6718 23.1345 10.1518 23.3979C10.5048 23.1804 10.8784 22.9985 11.2674 22.856ZM8.93258 24.716C8.99024 24.5145 9.09195 24.356 9.23211 24.1563C8.89039 23.9735 8.55149 23.7954 8.21258 23.5741C8.19055 23.9557 8.43242 24.2951 8.93258 24.716Z" fill="#476BF0"/>
</svg>
