<svg width="192" height="48" viewBox="0 0 192 48" fill="none" xmlns="http://www.w3.org/2000/svg">
<path d="M24 26.4293C24 30.9605 26.544 35.5205 32.2272 35.5205C37.9104 35.5205 40.4544 30.9605 40.4544 26.4293C40.4544 23.3381 39.408 19.7765 37.6704 16.9061C35.9808 14.1317 33.9456 12.4805 32.2272 12.4805C30.5088 12.4805 28.4736 14.1317 26.7936 16.9061C25.0464 19.7861 24 23.3381 24 26.4293ZM82.4256 19.2677H76.6656V13.7189H94.3584V19.2773H88.5984V34.2917H82.4256V19.2677ZM107.52 19.2677H116.573V13.7189H107.52C99.2064 13.7189 94.7616 17.8565 94.7616 24.0005C94.7616 30.1541 99.2064 34.2821 107.52 34.2821H116.573V28.7237H107.52C103.67 28.7237 101.136 27.3509 101.136 23.9909C101.136 20.6405 103.67 19.2677 107.52 19.2677ZM60.816 25.9973L64.1088 13.7189H75.0144V34.2917H68.8416V17.5397L64.3584 34.2821H57.2832L52.8 17.5493V34.2821H46.6272V13.7189H57.5328L60.816 25.9973ZM131.942 19.6805H129.763V21.6965H131.942C132.49 21.6965 132.826 21.4085 132.826 20.8901V20.5157C132.816 19.9781 132.538 19.6805 131.942 19.6805ZM132.49 24.0005H126.854V13.7189H135.139V16.1765H129.754V17.5205H132.48C134.765 17.5205 135.869 18.6533 135.869 20.6501C135.878 22.7525 134.774 24.0005 132.49 24.0005ZM142.579 19.7957H140.285L141.437 15.9941L142.579 19.7957ZM146.995 24.0005L143.818 13.7189H139.498L136.32 24.0005H139.037L139.622 22.0325H143.261L143.856 24.0005H146.995ZM154.339 24.0005V20.0165H151.018V24.0005H148.042V13.7189H151.018V17.4917H154.339V13.7189H157.325V24.0005H154.339ZM162.614 17.4821H162.096V13.7189H159.12V24.0005H162.096V20.0165H162.528L165.283 24.0005H168.73L165.005 18.6149L168.432 13.7093H165.283L162.614 17.4821Z" fill="#E30600"/>
</svg>
