<svg width="192" height="48" viewBox="0 0 192 48" fill="none" xmlns="http://www.w3.org/2000/svg">
<path d="M32.6393 8.64062C24.1453 8.64062 17.2793 15.5066 17.2793 24.0006C17.2793 32.4946 24.1453 39.3606 32.6393 39.3606C41.1333 39.3606 47.9993 32.4946 47.9993 24.0006C47.9993 15.5066 41.1333 8.64062 32.6393 8.64062ZM30.5158 30.5127L29.3833 33.8395C25.1363 32.4239 22.3049 28.3892 22.3049 23.8591C22.3049 19.3289 25.1363 15.365 29.454 13.8786L30.5866 17.2054C27.7552 18.1256 25.9149 20.8154 25.9149 23.7883C25.7733 26.9027 27.6845 29.5925 30.5158 30.5127ZM35.7538 33.9103L34.692 30.5127C37.5941 29.5925 39.5053 26.9027 39.5053 23.8591C39.5053 20.8154 37.5941 18.1964 34.7628 17.2762L35.8953 13.8786C40.2131 15.2943 43.1152 19.3289 43.1152 23.8591C43.1152 28.5308 40.1423 32.5654 35.7538 33.9103Z" fill="#00BEF0"/>
<path d="M173.287 26.7612L174.986 28.814C173.216 30.6543 171.022 31.1498 169.252 31.1498C167.554 31.1498 166.35 30.8667 165.288 30.3712C163.023 29.2387 161.891 26.9736 161.891 24.213C161.891 20.0368 164.722 16.9223 168.898 16.9223C173.57 16.9223 175.835 20.3907 175.481 24.9209H164.864C164.935 26.0534 165.572 27.1152 166.492 27.6814C167.27 28.1769 168.191 28.3893 169.394 28.3893C170.739 28.3893 172.084 27.9646 173.287 26.7612ZM164.935 22.4435H172.438C172.225 20.8154 170.88 19.3998 168.757 19.3998C166.563 19.3998 165.218 20.957 164.935 22.4435ZM93.6557 30.7251H97.478L91.4614 23.7176L97.4072 17.1347H93.6557L89.1256 22.3727H87.7807V17.1347H84.8785V30.6543H87.7807V25.2748H89.1256L93.6557 30.7251ZM106.114 19.6121C103.636 19.6121 102.008 21.5233 102.008 23.9299C102.008 26.3365 103.636 28.2477 106.114 28.2477C108.591 28.2477 110.148 26.4073 110.148 23.9299C110.219 21.5941 108.662 19.6121 106.114 19.6121ZM106.609 16.8516C110.431 16.8516 113.263 19.8245 113.263 23.9299C113.263 27.9646 110.502 31.079 106.609 31.079C104.769 31.079 103.282 30.442 102.22 29.3094V36.3878H99.2476V17.2055H102.15V18.8335C103.282 17.4886 104.769 16.8516 106.609 16.8516ZM145.186 17.2055H133.082V19.8952H137.683V30.7251H140.656V19.8952H145.257V17.2055H145.186ZM82.8258 17.2055H70.6511V19.8952H75.252V30.7251H78.2249V19.8952H82.8258V17.2055ZM67.1119 24.0007C67.1119 21.4525 65.3423 19.6121 62.8649 19.6121C60.4583 19.6121 58.6179 21.4525 58.6179 24.0007C58.6179 26.5489 60.3875 28.3893 62.8649 28.3893C65.2715 28.3893 67.1119 26.5489 67.1119 24.0007ZM55.5742 24.0007C55.5742 19.966 58.6887 16.9223 62.8649 16.9223C66.9703 16.9223 70.1556 19.966 70.1556 24.0007C70.1556 28.0353 67.0411 31.1498 62.8649 31.1498C58.7595 31.079 55.5742 28.0353 55.5742 24.0007ZM159.555 17.2055V30.7251H156.653V22.0188L149.575 30.7251H147.239V17.2055H150.141V25.9118L157.219 17.2055H159.555ZM131.029 30.7251H128.127V17.2055H131.029V30.7251ZM123.526 26.1242C123.526 24.9209 122.677 24.0715 121.544 24.0715H118.571V28.2477H121.544C122.677 28.2477 123.526 27.3275 123.526 26.1242ZM126.428 26.1242C126.428 28.814 124.446 30.7251 121.615 30.7251H115.669V17.2055H118.571V21.5941H121.898C124.73 21.5941 126.428 23.4344 126.428 26.1242Z" fill="black"/>
</svg>
