<svg width="192" height="48" viewBox="0 0 192 48" fill="none" xmlns="http://www.w3.org/2000/svg">
<path d="M54.3359 10.8009H61.4399C63.0132 10.7904 64.5277 11.3982 65.6571 12.4936C66.7866 13.5889 67.4406 15.0841 67.4783 16.6569C67.4631 18.2457 66.8193 19.764 65.6876 20.8793C64.5561 21.9947 63.0288 22.6166 61.4399 22.6089H57.0239V27.4089H54.3359V10.8009ZM61.1807 20.0841C61.6441 20.1034 62.1067 20.0293 62.5409 19.8661C62.975 19.7029 63.3718 19.4541 63.7077 19.1342C64.0436 18.8144 64.3118 18.4302 64.4961 18.0047C64.6805 17.5791 64.7773 17.1207 64.7807 16.6569C64.7841 16.1911 64.6919 15.7297 64.5099 15.3008C64.328 14.8721 64.0601 14.4851 63.7226 14.164C63.3853 13.8428 62.9856 13.5942 62.5485 13.4335C62.1113 13.2728 61.6458 13.2035 61.1807 13.2297H57.0335V20.0745L61.1807 20.0841ZM68.2943 21.3417C68.2555 20.5105 68.3891 19.6801 68.6868 18.9031C68.9845 18.126 69.4399 17.419 70.0243 16.8265C70.6086 16.234 71.3092 15.769 72.0821 15.4606C72.855 15.1522 73.6834 15.0071 74.5151 15.0345C78.3551 15.0345 80.2751 18.2793 80.2751 21.5241V22.1577H71.0399C71.4047 24.2313 73.1999 25.4025 75.6383 25.4025C76.9927 25.3935 78.3194 25.0187 79.4783 24.3177V26.5737C78.1565 27.3969 76.6183 27.8049 75.0623 27.7449C71.2703 27.7353 68.2943 25.2201 68.2943 21.3417ZM77.5775 20.0841C77.5667 19.6861 77.4758 19.2942 77.3103 18.932C77.1449 18.5698 76.9081 18.2447 76.6143 17.976C76.3204 17.7072 75.9755 17.5004 75.6 17.3677C75.2245 17.2351 74.8262 17.1794 74.4287 17.2041C73.6066 17.151 72.7966 17.4233 72.1734 17.962C71.5503 18.5009 71.1638 19.263 71.0975 20.0841H77.5775ZM82.6175 15.3033H85.3247V19.9881H91.4495V15.3033H94.1567V27.3801H91.4495V22.3305H85.3247V27.3801H82.6175V15.3033ZM96.4031 21.3417C96.3638 20.5105 96.4982 19.6801 96.7958 18.9031C97.0934 18.126 97.5484 17.419 98.1331 16.8265C98.7177 16.234 99.4185 15.769 100.191 15.4606C100.964 15.1522 101.793 15.0071 102.624 15.0345C106.464 15.0345 108.384 18.2793 108.384 21.5241V22.1577H99.1007C99.4655 24.2313 101.261 25.4025 103.699 25.4025C105.054 25.3935 106.38 25.0187 107.539 24.3177V26.5737C106.217 27.3969 104.679 27.8049 103.123 27.7449C99.3791 27.7353 96.4031 25.2201 96.4031 21.3417ZM105.686 20.0841C105.676 19.6861 105.585 19.2942 105.419 18.932C105.253 18.5698 105.017 18.2447 104.723 17.976C104.43 17.7072 104.084 17.5004 103.709 17.3677C103.333 17.2351 102.935 17.1794 102.538 17.2041C101.716 17.151 100.906 17.4233 100.283 17.962C99.6595 18.5009 99.2726 19.263 99.2063 20.0841H105.686ZM109.92 21.3417C109.915 20.4891 110.084 19.6445 110.416 18.8593C110.748 18.0742 111.237 17.3649 111.852 16.7747C112.468 16.1846 113.196 15.7259 113.995 15.4267C114.793 15.1275 115.644 14.9941 116.496 15.0345C117.744 15.0033 118.98 15.2803 120.096 15.8409V18.0969C119.097 17.567 117.982 17.2901 116.851 17.2905C116.298 17.2607 115.745 17.343 115.226 17.5326C114.706 17.7222 114.229 18.0151 113.826 18.3937C113.422 18.7722 113.099 19.2286 112.877 19.7353C112.654 20.2418 112.537 20.7884 112.531 21.3417C112.53 21.8971 112.643 22.4469 112.863 22.9567C113.083 23.4667 113.406 23.9258 113.811 24.3057C114.216 24.6857 114.695 24.9782 115.218 25.1653C115.741 25.3523 116.297 25.4298 116.851 25.3929C118.058 25.4393 119.251 25.1252 120.278 24.4905V26.7465C119.103 27.3944 117.78 27.7253 116.438 27.7065C115.589 27.7323 114.742 27.5865 113.949 27.2778C113.157 26.9689 112.435 26.5036 111.826 25.9095C111.218 25.3153 110.736 24.6047 110.408 23.8198C110.08 23.035 109.914 22.1922 109.92 21.3417ZM121.632 21.3417C121.627 20.4891 121.796 19.6445 122.128 18.8593C122.46 18.0742 122.949 17.3649 123.564 16.7747C124.18 16.1846 124.908 15.7259 125.707 15.4267C126.505 15.1275 127.356 14.9941 128.208 15.0345C129.456 15.0033 130.692 15.2803 131.808 15.8409V18.0969C130.809 17.567 129.694 17.2901 128.563 17.2905C128.01 17.2607 127.457 17.343 126.938 17.5326C126.418 17.7222 125.941 18.0151 125.538 18.3937C125.134 18.7722 124.811 19.2286 124.589 19.7353C124.366 20.2418 124.249 20.7884 124.243 21.3417C124.242 21.8971 124.355 22.4469 124.575 22.9567C124.795 23.4667 125.118 23.9258 125.523 24.3057C125.928 24.6857 126.407 24.9782 126.93 25.1653C127.453 25.3523 128.009 25.4298 128.563 25.3929C129.77 25.4393 130.963 25.1252 131.99 24.4905V26.7465C130.815 27.3944 129.492 27.7253 128.15 27.7065C127.303 27.7244 126.459 27.5731 125.671 27.2615C124.882 26.9498 124.162 26.4841 123.556 25.8916C122.949 25.299 122.466 24.5915 122.136 23.8103C121.806 23.0291 121.634 22.1899 121.632 21.3417ZM146.765 25.1241V27.1017C146.299 27.37 145.765 27.4968 145.229 27.4665C144.677 27.511 144.126 27.366 143.666 27.0553C143.207 26.7447 142.868 26.2871 142.704 25.7577C142.15 26.3774 141.468 26.8699 140.706 27.2014C139.944 27.5328 139.119 27.6953 138.288 27.6777C135.763 27.6777 133.786 26.2377 133.786 23.6265C133.786 21.0153 135.763 20.1129 138.384 20.1129H142.531V19.9305C142.531 17.8569 140.822 17.3193 139.018 17.3193C137.685 17.3523 136.382 17.7258 135.235 18.4041V16.0329C136.606 15.3563 138.123 15.0266 139.651 15.0729C142.896 15.0729 145.238 16.6089 145.238 19.6713V24.1737C145.222 24.314 145.235 24.4561 145.275 24.5915C145.315 24.7269 145.381 24.8529 145.471 24.9622C145.56 25.0713 145.671 25.1615 145.796 25.2272C145.921 25.293 146.057 25.333 146.198 25.3449C146.405 25.3273 146.602 25.2506 146.765 25.1241ZM142.349 22.1481H139.2C137.491 22.1481 136.32 22.5129 136.32 23.6841C136.32 25.0377 137.491 25.4889 138.931 25.4889C139.57 25.4888 140.201 25.3614 140.79 25.1141C141.378 24.8669 141.912 24.5047 142.358 24.0489L142.349 22.1481ZM148.656 15.3033H151.363V19.9881H157.44V15.3033H160.147V27.3801H157.44V22.3305H151.315V27.3801H148.608L148.656 15.3033ZM162.442 21.3417C162.437 20.4891 162.606 19.6445 162.938 18.8593C163.27 18.0742 163.759 17.3649 164.374 16.7747C164.989 16.1846 165.718 15.7259 166.517 15.4267C167.315 15.1275 168.166 14.9941 169.018 15.0345C170.266 15.0033 171.502 15.2803 172.618 15.8409V18.0969C171.618 17.567 170.504 17.2901 169.373 17.2905C168.82 17.2607 168.267 17.343 167.747 17.5326C167.227 17.7222 166.751 18.0151 166.348 18.3937C165.944 18.7722 165.621 19.2286 165.398 19.7353C165.176 20.2418 165.058 20.7884 165.053 21.3417C165.052 21.8971 165.164 22.4469 165.385 22.9567C165.605 23.4667 165.927 23.9258 166.332 24.3057C166.738 24.6857 167.217 24.9782 167.74 25.1653C168.263 25.3523 168.819 25.4298 169.373 25.3929C170.579 25.4393 171.773 25.1252 172.8 24.4905V26.7465C171.625 27.3944 170.302 27.7253 168.96 27.7065C168.11 27.7323 167.264 27.5865 166.471 27.2778C165.679 26.9689 164.957 26.5036 164.348 25.9095C163.739 25.3153 163.258 24.6047 162.929 23.8198C162.602 23.035 162.436 22.1922 162.442 21.3417ZM54.3359 33.8697H55.5935V36.2121L57.7535 33.8697H59.2895L56.7647 36.5769L59.7407 39.8217H58.2047L55.6799 37.1049V39.8121H54.3359V33.8697ZM61.3631 33.8697H63.9743C64.2354 33.827 64.5025 33.8415 64.7573 33.9122C65.0122 33.983 65.2485 34.1084 65.4501 34.2796C65.6517 34.4508 65.8136 34.6638 65.9247 34.9039C66.0357 35.1439 66.0933 35.4052 66.0933 35.6697C66.0933 35.9342 66.0357 36.1955 65.9247 36.4355C65.8136 36.6756 65.6517 36.8886 65.4501 37.0599C65.2485 37.2311 65.0122 37.3564 64.7573 37.4272C64.5025 37.4979 64.2354 37.5124 63.9743 37.4697H62.6207V39.8121H61.3631V33.8697ZM63.8879 36.3945C64.4255 36.3945 64.7903 36.1257 64.7903 35.6745C64.7903 35.2233 64.4255 34.9545 63.8879 34.9545H62.6207V36.3945H63.8879ZM67.8431 33.8697H72.1631V34.9449H69.0143V36.1161H71.5391V37.2009H69.0143V38.7369H72.3455V39.8217H67.8431V33.8697ZM73.9775 38.7273H74.5151C75.16 37.556 75.4407 36.219 75.3215 34.8873V33.9849H79.4687V38.8521H80.2751V41.1945H79.1039V39.9945H75.0527V41.1657H73.9199V38.7273H73.9775ZM78.2975 38.7273V34.9449H76.5887C76.6428 36.236 76.427 37.5242 75.9551 38.7273H78.2975ZM82.1759 33.8697H83.4335V37.7097L86.3135 33.8697H87.3599V39.8121H86.2271V35.9721L83.1647 39.8121H82.2047L82.1759 33.8697ZM94.0799 33.8697V34.9449H92.1599V39.8121H90.9119V34.9449H88.9919V33.8697H94.0799Z" fill="#323E48"/>
<path d="M23.0392 33.8695H19.1992V17.1943C19.2144 14.4518 20.3105 11.8258 22.2498 9.88653C24.1891 7.94724 26.8151 6.85106 29.5576 6.83594H42.3544V17.1079C42.3544 19.8552 41.2631 22.4899 39.3205 24.4325C37.378 26.375 34.7433 27.4663 31.996 27.4663H25.5064L26.9464 23.6263H31.9C32.7565 23.6314 33.6056 23.4662 34.3976 23.1402C35.1897 22.8142 35.9091 22.334 36.5139 21.7274C37.1187 21.1208 37.5968 20.4001 37.9205 19.607C38.2441 18.814 38.4069 17.9644 38.3992 17.1079V10.7143H29.4712C28.618 10.7105 27.7723 10.8758 26.9833 11.2006C26.1942 11.5253 25.4772 12.0032 24.8739 12.6066C24.2705 13.21 23.7926 13.9269 23.4679 14.716C23.1431 15.505 22.9778 16.3506 22.9816 17.2039V33.8695H23.0392Z" fill="url(#paint0_radial_2171_15359)"/>
<defs>
<radialGradient id="paint0_radial_2171_15359" cx="0" cy="0" r="1" gradientUnits="userSpaceOnUse" gradientTransform="translate(19.9768 32.7751) scale(22.416 22.416)">
<stop stop-color="#D6005E"/>
<stop offset="1" stop-color="#E3448A"/>
</radialGradient>
</defs>
</svg>
