<svg width="192" height="48" viewBox="0 0 192 48" fill="none" xmlns="http://www.w3.org/2000/svg">
<path d="M11.833 31.3906C7.77696 31.3906 4.47264 28.1362 4.47264 24.1406C4.47264 20.1451 7.776 16.8897 11.831 16.8897H12.2918V12.4805H11.832C5.31072 12.4805 0 17.7134 0 24.1397C0 30.6082 5.31072 35.8411 11.833 35.8411H12.2928V31.3925H11.833V31.3906Z" fill="#FF4B5F"/>
<path fill-rule="evenodd" clip-rule="evenodd" d="M14.2167 18.7848V12.7285C19.653 13.7991 23.7082 18.496 23.7082 24.1398C23.7082 29.8266 19.6512 34.5216 14.2167 35.5529V29.4966H11.8329C8.82328 29.4966 6.39844 27.106 6.39844 24.1416C6.39844 21.1754 8.82328 18.7848 11.8341 18.7848H14.2167ZM37.0465 29.4123C38.2791 29.416 39.4741 28.9941 40.4323 28.2179L42.3138 30.0741C40.9343 31.3079 39.0949 32.0504 37.0465 32.0504C32.614 32.0504 29.0602 28.4654 29.0602 24.1398C29.0602 19.8141 32.614 16.2704 37.0465 16.2704C39.0375 16.2648 40.9594 16.9998 42.4397 18.331L40.5581 20.1835C39.5876 19.3304 38.3386 18.8616 37.0465 18.8673C34.0763 18.8673 31.6943 21.2148 31.6943 24.1398C31.6943 27.0648 34.0772 29.4123 37.0465 29.4123ZM119.626 23.8923L125.521 16.8891H127.862V31.3904H125.521V20.926L119.626 27.7641L113.647 20.761V31.3923H111.263V16.8891H113.647V16.9716L113.688 16.8891L119.626 23.8923ZM52.1817 32.0091C56.5718 32.0091 60.168 28.5066 60.168 24.1398C60.168 19.8141 56.5718 16.2704 52.1817 16.2704C47.7916 16.2704 44.1966 19.8141 44.1966 24.1398C44.1966 28.4654 47.7504 32.0091 52.1817 32.0091ZM52.1405 18.8673C55.1098 18.8673 57.4924 21.2148 57.4924 24.1398C57.4924 27.0648 55.1098 29.4123 52.1405 29.4123C49.1712 29.4123 46.7885 27.0648 46.7885 24.1398C46.7885 21.2148 49.1712 18.8673 52.1405 18.8673ZM100.852 32.0091C105.242 32.0091 108.838 28.5066 108.838 24.1398C108.838 19.8141 105.283 16.2704 100.852 16.2704C96.4617 16.2704 92.8657 19.8141 92.8657 24.1398C92.8657 28.4654 96.4195 32.0091 100.852 32.0091ZM100.852 18.8673C103.821 18.8673 106.204 21.2148 106.204 24.1398C106.204 27.0648 103.778 29.4123 100.852 29.4123C97.8825 29.4123 95.4998 27.0648 95.4998 24.1398C95.4998 21.2148 97.8825 18.8673 100.852 18.8673ZM89.6034 16.8891H92.8242L85.5485 24.181L92.7398 31.3923H89.5622L83.4989 25.3341H81.0748V31.3923H78.7334V16.8891H81.0748V22.9866H83.542L89.6034 16.8891ZM188.825 16.8891H192.001L184.767 24.181L191.917 31.3923H188.74L182.72 25.3341H180.252V31.3923H177.911V16.8891H180.252V22.9866H182.72L188.825 16.8891ZM159.974 31.3904H157.38L155.961 28.261H148.35L146.929 31.3923H144.337L150.817 16.8891H153.492L159.974 31.3904ZM152.155 19.8554L149.396 25.9529H154.915L152.155 19.8554ZM74.3845 24.1398C75.2372 24.9235 75.7228 26.0298 75.7228 27.1885C75.7228 29.4948 73.8412 31.3923 71.4989 31.4335H62.8868V16.8891H71.4989C73.8248 16.8854 75.7151 18.766 75.7228 21.091C75.7228 22.2854 75.1786 23.3579 74.3845 24.1398ZM71.4577 19.2385H65.2695V22.9435H71.4577C72.503 22.9435 73.3383 22.1204 73.3383 21.091C73.3383 20.0598 72.503 19.2385 71.4577 19.2385ZM65.2695 29.0841H71.4577C72.5039 29.0841 73.3392 28.2179 73.3805 27.1904C73.3805 26.701 73.1756 26.2416 72.8419 25.9023C72.5013 25.5573 72.0267 25.336 71.4989 25.336H65.2695V29.0841ZM172.601 22.9866V16.9304H174.985V31.3491H172.601V25.3323H164.03V31.3491H161.648V16.9304H164.03V22.9866H172.601ZM139.234 22.9866C141.576 22.9866 143.5 24.8804 143.5 27.1885C143.5 29.4948 141.577 31.3923 139.234 31.4316H130.663V16.8891H142.078V19.2366H133.046V22.9866H139.234ZM133.047 29.0841H139.236C140.281 29.0841 141.117 28.2179 141.117 27.1904C141.117 26.2004 140.281 25.336 139.236 25.336H133.047V29.0841Z" fill="#003791"/>
</svg>
