<svg width="81" height="80" viewBox="0 0 81 80" fill="none" xmlns="http://www.w3.org/2000/svg">
<g clip-path="url(#clip0_2171_15696)">
<path d="M71.8038 26.5753L72.639 23.9315L69.8759 24.0172C69.6425 24.0172 67.9456 23.9695 66.2994 22.7893C66.4221 22.8012 66.5447 22.8179 66.67 22.8179C68.3643 22.8179 70.0035 21.8088 70.6605 20.3669L71.8495 17.7613C70.3597 17.7802 68.9974 17.5946 68.9974 17.5946C68.9854 17.5924 67.9119 17.4566 66.67 16.2026C65.7794 15.3032 64.6771 14.8273 63.4833 14.8273C62.961 14.8273 62.4941 14.92 62.0921 15.0461C62.1547 14.8344 62.2148 14.6202 62.2485 14.3989C62.6288 11.9599 61.0404 10.0991 61.0404 10.1014L58.9631 7.55762L57.6756 10.5463C57.6708 10.5559 57.3457 11.2554 56.7634 11.5981C56.5876 10.7201 56.1568 9.73252 55.235 8.7879C53.4972 7.00793 51.3815 6.7438 50.2745 6.7438C49.7619 6.7438 49.396 6.79848 49.3069 6.8128L46.7989 7.30058C46.9434 6.74612 47.2515 5.78242 47.8147 4.91391L49.1987 2.78183L45.7158 3.17443L44.6063 0.844779L42.4594 1.93938L40.4737 0L38.493 1.93938L36.3387 0.844779L35.2316 3.17443L31.7513 2.78183L33.1376 4.91391C33.7008 5.78242 34.0089 6.7438 34.1509 7.29826L31.7586 6.83188L31.6767 6.81756C31.5563 6.79848 31.1929 6.7438 30.6778 6.7438C29.5708 6.7438 27.4551 7.01026 25.722 8.7879C24.7978 9.73019 24.367 10.7201 24.1889 11.5981C23.6113 11.2602 23.2887 10.5702 23.2887 10.5702L21.9988 7.56472L19.8878 10.1251C19.6304 10.4559 18.3572 12.2049 18.7037 14.4036C18.7398 14.6226 18.7977 14.8368 18.8602 15.0486C18.4607 14.9225 17.9937 14.8295 17.4714 14.8295C16.2777 14.8295 15.1752 15.3055 14.2824 16.2049C13.0451 17.4544 11.9765 17.5946 11.9862 17.5946C11.9862 17.5946 10.8573 17.7946 9.10993 17.7636L10.2918 20.3693C10.9488 21.8136 12.5903 22.8202 14.2824 22.8202C14.4098 22.8202 14.5326 22.8036 14.6578 22.7916C13.0163 23.972 11.3195 24.0196 11.1149 24.0219L8.29883 23.9315L9.15087 26.5729C9.57929 27.934 11.0114 30.1899 13.7552 30.4326C13.4567 31.67 12.7949 33.0549 11.3412 33.6521L9.24483 34.5063L10.388 36.4742C11.033 37.5355 12.5471 38.7778 14.7036 38.7778C15.1704 38.7754 15.6204 38.7301 16.0538 38.6398C16.1645 39.1252 16.304 39.6106 16.4677 40.0913C17.1104 41.9807 16.5567 43.2989 16.5496 43.3133L15.5146 45.4572L17.8252 46.0592C17.854 46.0688 18.5521 46.2568 19.4257 46.2568C19.8229 46.2568 20.2008 46.2163 20.5571 46.1329C20.8266 46.0712 21.0841 45.9879 21.332 45.888C21.6304 46.4186 21.9939 46.9016 22.4176 47.3348C23.8977 48.8362 25.9941 49.5978 28.6513 49.5978H28.6609L30.5576 49.5739L26.6392 51.1825L29.6141 52.6031C30.6946 53.1243 31.9776 53.7406 33.282 54.2116L32.9114 55.2159L33.9367 55.6776C34.0281 55.718 35.9993 56.5913 39.2775 56.7769C39.2775 56.7769 40.0693 56.8126 40.5051 56.8126C40.9407 56.8126 41.7229 56.7745 41.7229 56.7745C44.9793 56.5841 46.9361 55.7203 47.0276 55.6776L48.0553 55.2135L47.6799 54.2069C49.023 53.7215 50.3515 53.0815 51.3864 52.5816L54.3059 51.1801L50.3996 49.5692L52.3035 49.5929C54.963 49.5929 57.0618 48.8315 58.5396 47.3275C58.9609 46.8969 59.3243 46.4138 59.6251 45.8832C59.8731 45.9832 60.133 46.0665 60.4026 46.1282C60.7563 46.2115 61.1342 46.252 61.5314 46.252C62.3906 46.252 63.0958 46.064 63.1151 46.0592L65.4352 45.4525L64.4243 43.3489C64.4003 43.2941 63.8468 41.9782 64.4893 40.0866C64.653 39.6034 64.7902 39.118 64.901 38.6349C65.3366 38.7254 65.7915 38.7729 66.2608 38.7729C69.007 38.7729 70.3236 36.8622 70.5788 36.4481L71.7099 34.5016L69.6136 33.6498C68.1574 33.0525 67.4979 31.6652 67.202 30.4301C69.9072 30.2018 71.361 27.9459 71.8038 26.5753ZM34.3339 8.20959L34.305 8.2168L34.329 8.18585L34.3339 8.20959Z" fill="white"/>
<path d="M40.4782 8.09375C38.259 8.09607 36.5958 8.81471 36.2324 9.65949L40.4782 11.3157L44.7239 9.65949C44.3629 8.81471 42.6998 8.09607 40.4782 8.09375Z" fill="white"/>
<path d="M40.5203 51.9372H40.5156H40.4794H40.4386H40.4362C39.0907 51.9467 37.2398 51.6731 36.3468 51.416L35.2734 54.2881C35.981 54.538 38.3783 55.014 40.4794 55.014C42.5757 55.014 44.9755 54.5357 45.6807 54.2881L44.6097 51.416C43.7142 51.6753 41.8658 51.9467 40.5203 51.9372Z" fill="white"/>
<path d="M48.6434 49.082C47.8442 49.5294 46.0608 50.2005 45.0234 50.5123L45.8947 52.8846C47.5001 52.4516 48.8239 51.9447 49.9189 51.4021L48.1114 50.8072L48.6434 49.082Z" fill="white"/>
<path d="M32.3127 49.082L32.847 50.8072L31.0371 51.4021C32.1297 51.9447 33.4607 52.4516 35.0589 52.8846L35.9302 50.5123C34.8977 50.2005 33.1118 49.5271 32.3127 49.082Z" fill="white"/>
<path d="M40.4761 5.34691C42.1488 5.34691 43.7903 5.74196 45.0516 6.43688C45.1671 6.05369 45.3283 5.58964 45.5475 5.10431L45.0709 5.16132L44.5702 5.21369L44.3584 4.76395L43.7207 3.43139L42.5581 4.03111L42.1055 4.25953L41.7445 3.90731L40.4809 2.66992L39.2198 3.90731L38.8587 4.25953L38.4062 4.03111L37.2366 3.43139L36.6059 4.76395L36.3893 5.21369L35.8886 5.16132L35.4121 5.10431C35.6312 5.59209 35.79 6.05369 35.9079 6.43688C37.1715 5.74196 38.8082 5.34691 40.4761 5.34691Z" fill="white"/>
<path d="M66.017 20.7479C66.2335 20.8217 66.455 20.855 66.674 20.855C67.6199 20.855 68.5345 20.2505 68.8498 19.558C68.8498 19.558 67.1144 19.4533 65.2492 17.5806C64.6546 16.9738 64.0265 16.793 63.4873 16.793C62.6497 16.793 62.0215 17.2307 62.0215 17.2307C64.2743 18.4159 64.7341 20.3196 66.017 20.7479Z" fill="white"/>
<path d="M14.2808 20.855C14.4998 20.855 14.7213 20.8217 14.9331 20.7479C16.2208 20.3196 16.6829 18.4159 18.9357 17.2307C18.9357 17.2307 18.305 16.793 17.4722 16.793C16.9308 16.793 16.3025 16.9738 15.7057 17.5806C13.8427 19.4533 12.1074 19.558 12.1074 19.558C12.4178 20.2505 13.3348 20.855 14.2808 20.855Z" fill="white"/>
<path d="M66.6263 28.4834C66.6649 28.4857 66.6986 28.4857 66.7394 28.4857C69.1006 28.4857 69.9021 25.9849 69.9021 25.9849H69.8563C69.4231 25.9849 65.9115 25.8849 63.43 22.7652C61.7957 20.714 60.4576 18.9103 57.8124 18.2012L57.5525 18.1559L57.4947 17.8943C57.4225 17.4944 57.6992 17.1209 58.3275 16.7164C61.9763 14.3534 59.4997 11.3408 59.4997 11.3408C59.4997 11.3408 58.4576 13.7513 56.1251 13.7513C56.0699 13.7513 56.0097 13.749 55.9519 13.749C55.6871 13.7347 55.432 13.7252 55.1745 13.6705L54.7436 13.5872C54.7436 13.5872 55.4081 11.8001 53.805 10.1581C52.5967 8.91843 51.1262 8.70898 50.2766 8.70898C49.8482 8.70898 49.5762 8.7638 49.5762 8.7638C50.3824 9.80603 50.9649 11.5336 50.0335 12.5996C49.2296 13.5158 47.2656 13.561 47.2656 14.9269C47.2656 15.5051 47.8119 16.181 48.794 16.7877C51.7471 18.6271 54.6787 21.0663 55.8966 24.3357C57.4202 28.4144 55.704 31.1199 53.2538 32.6714C53.2538 32.6714 54.0217 33.371 55.136 33.4591C55.3623 33.4805 55.5837 33.49 55.7907 33.49C58.1422 33.49 59.3577 32.4002 59.3577 32.4002C59.3577 32.4002 59.1578 33.9064 57.9328 35.3057C56.804 36.5977 55.3214 37.3569 53.0613 37.3901C53.0613 37.3901 52.9891 38.4277 53.9903 39.3247C54.6306 39.8911 56.1108 40.0767 56.1108 40.0767C56.1108 40.0767 53.3405 40.6311 53.0348 44.6765C52.8687 46.868 52.3031 47.6294 52.3031 47.6294H52.3536C58.7824 47.6294 58.6163 42.1779 58.6163 42.1779C58.6163 42.1779 59.064 43.7912 60.8572 44.2124C61.0737 44.2696 61.3048 44.291 61.5262 44.291C62.1039 44.291 62.6045 44.1577 62.6045 44.1577C62.6045 44.1577 61.6658 42.1993 62.5972 39.4604C63.3698 37.1879 63.2446 35.5031 63.2446 35.5031C63.2446 35.5031 64.1113 36.7976 66.2582 36.8096H66.2798C68.0681 36.8096 68.8478 35.4698 68.8478 35.4698C64.5613 33.7113 64.9849 28.0337 64.9849 28.0337C64.9849 28.0337 65.5409 28.443 66.6263 28.4834ZM65.3362 34.4132C63.5937 33.5638 62.4914 31.3079 62.2241 30.4941C61.9355 34.9677 59.7259 38.0731 57.1434 41.0619C55.8028 42.611 55.3357 44.1172 55.3357 44.1172C55.3357 44.1172 55.5934 42.4111 56.7534 41.0213C59.1628 38.1587 61.4515 34.5965 61.6225 30.4774C61.7404 27.6029 60.9919 25.271 59.8245 23.3506C60.4768 25.3518 60.3854 27.8029 58.1687 30.0896C58.1687 30.0896 62.5804 24.8617 56.4118 19.5029C53.9423 17.4634 51.2417 16.2047 49.8506 15.3123C54.8761 16.9329 57.3287 15.1481 57.3287 15.1481C55.7233 16.5236 53.6462 16.4998 52.3586 16.3023C52.7075 16.4713 53.0709 16.6473 53.4632 16.8544C57.6993 19.1292 61.507 22.8723 62.1567 28.0574V28.017C63.1436 33.1069 65.3362 34.4132 65.3362 34.4132Z" fill="white"/>
<path d="M24.8422 40.0767C24.8422 40.0767 26.3223 39.8934 26.9626 39.3247C27.9613 38.4277 27.8917 37.3901 27.8917 37.3901C25.6291 37.3593 24.149 36.5977 23.0129 35.308C21.7975 33.9089 21.5953 32.4025 21.5953 32.4025C21.5953 32.4025 22.8107 33.4924 25.1598 33.4924C25.3717 33.4924 25.5907 33.4829 25.8169 33.4614C26.9313 33.3734 27.7014 32.6738 27.7014 32.6738C25.2513 31.1224 23.5328 28.4144 25.054 24.3357C26.2743 21.0686 29.2034 18.6271 32.1565 16.7877C33.1386 16.181 33.6849 15.5074 33.6849 14.9269C33.6849 13.561 31.7234 13.5158 30.9195 12.5996C29.988 11.5336 30.5728 9.80358 31.3767 8.7638C31.3767 8.7638 31.1096 8.70898 30.6787 8.70898C29.8315 8.70898 28.3609 8.91843 27.1527 10.1581C25.5449 11.8001 26.2116 13.5872 26.2116 13.5872L25.7808 13.6705C25.5233 13.7252 25.2657 13.7347 25.0033 13.749C24.9433 13.749 24.8902 13.7513 24.8325 13.7513C22.4954 13.7513 21.458 11.3433 21.458 11.3433C21.458 11.3433 18.9813 14.3557 22.6279 16.7186C23.256 17.1232 23.5303 17.4969 23.4582 17.8966L23.4004 18.1584L23.1356 18.2036C20.4954 18.9126 19.1548 20.7165 17.5205 22.7677C15.0438 25.8825 11.537 25.9849 11.099 25.9849H11.0508C11.0508 25.9849 11.8523 28.4857 14.2134 28.4857C14.2519 28.4857 14.2856 28.4857 14.3265 28.4834C15.4121 28.4452 15.9705 28.0337 15.9705 28.0337C15.9705 28.0337 16.3892 33.709 12.1074 35.4698C12.1074 35.4698 12.8873 36.8096 14.6755 36.8096H14.6972C16.8465 36.7976 17.7106 35.5031 17.7106 35.5031C17.7106 35.5031 17.5854 37.1879 18.3556 39.4604C19.2871 42.1993 18.3533 44.1577 18.3533 44.1577C18.3533 44.1577 18.8538 44.291 19.4291 44.291C19.6529 44.291 19.8817 44.2696 20.0958 44.2124C21.8864 43.7912 22.3366 42.1779 22.3366 42.1779C22.3366 42.1779 22.1728 47.6294 28.6016 47.6294H28.6474C28.6474 47.6294 28.0842 46.868 27.9205 44.6765C27.6124 40.6311 24.8422 40.0767 24.8422 40.0767ZM23.8096 41.0619C21.227 38.0731 19.02 34.9677 18.7286 30.4941C18.4616 31.3054 17.3639 33.5638 15.6215 34.4132C15.6215 34.4132 17.8117 33.1069 18.796 28.017V28.0574C19.4484 22.8747 23.2536 19.1292 27.4921 16.8544C27.8796 16.6449 28.2477 16.4689 28.5944 16.3023C27.3067 16.4998 25.2297 16.5236 23.6243 15.1481C23.6243 15.1481 26.0769 16.9329 31.0999 15.3123C29.7088 16.2047 27.0107 17.4634 24.5412 19.5029C18.3701 24.8617 22.7843 30.0896 22.7843 30.0896C20.5651 27.8004 20.4761 25.3518 21.1284 23.3506C19.9586 25.2732 19.2124 27.6029 19.3329 30.4774C19.5013 34.5965 21.7902 38.1587 24.1948 41.0213C25.3571 42.4087 25.6195 44.1172 25.6195 44.1172C25.6195 44.1172 25.1477 42.611 23.8096 41.0619Z" fill="white"/>
<path d="M35.7244 20.1452C35.8302 20.257 35.9337 20.3784 36.0324 20.4998C36.0565 20.5284 36.0782 20.5545 36.102 20.5878C36.1936 20.7092 36.2876 20.8377 36.3765 20.9686C36.3958 20.9947 36.4151 21.0257 36.4367 21.0566C36.545 21.2184 36.6461 21.385 36.7472 21.5563C37.6739 23.1389 39.1589 24.0834 40.4755 24.0859C41.7944 24.0834 43.2746 23.1389 44.2061 21.5563C44.3095 21.3803 44.413 21.209 44.5213 21.0494C44.5382 21.0257 44.555 21.0043 44.5694 20.9804C44.661 20.8449 44.7572 20.7116 44.8583 20.5831C44.88 20.5545 44.8992 20.5307 44.9184 20.507C45.022 20.3809 45.1278 20.257 45.2361 20.1429C45.2555 20.1238 45.2698 20.1072 45.2867 20.0929C45.7584 19.6146 46.3218 19.2505 47.0582 19.0483L46.7309 18.8603H46.7115L45.4071 18.1106L44.0665 17.3516L40.485 19.279L40.4755 19.2719L40.4682 19.279L36.8844 17.3516L35.5462 18.1083L34.2393 18.8579H34.2249L33.8926 19.0458C34.6315 19.2482 35.1924 19.6074 35.6665 20.0858C35.6882 20.1049 35.7026 20.1263 35.7244 20.1452ZM39.0266 19.9905H40.5429H42.0567V21.0185C41.7005 20.5878 41.0073 20.6759 41.0073 20.6759V22.1584C41.0073 22.1584 41.0338 22.8865 41.2914 23.2031H40.5429H39.7919C40.0541 22.8889 40.0783 22.1584 40.0783 22.1584V20.6759C40.0783 20.6759 39.3876 20.5878 39.0266 21.0185V19.9905Z" fill="white"/>
<path d="M40.1661 17.9969V11.979L36.291 10.6797L37.314 16.5122L40.1661 17.9969ZM39.3333 13.4568V14.4228L39.1456 14.3371C39.1359 14.3301 38.8615 14.2681 38.3802 13.8922C37.5858 13.283 37.5715 12.7215 37.5715 12.7215L39.3333 13.4568Z" fill="white"/>
<path d="M43.6435 16.5122L44.6617 10.6797L40.7891 11.979V17.9969L43.6435 16.5122ZM41.6218 13.4568L43.3835 12.7239C43.3835 12.7239 43.3691 13.2854 42.5725 13.8946C42.0935 14.2706 41.8166 14.3323 41.8071 14.3396L41.6193 14.4253V13.4568H41.6218Z" fill="white"/>
<path d="M34.6871 31.9484C35.0649 32.084 35.5223 32.1127 35.7558 32.1127C35.7654 32.084 35.7774 32.0484 35.7895 32.0056C35.8111 31.9365 35.8303 31.8699 35.8448 31.7938C35.9098 31.4606 35.9339 31.0823 35.9386 30.8396C35.7798 30.7419 35.556 30.5683 35.4307 30.3089C35.2864 30.0091 35.0818 29.8711 34.7809 29.8711C34.3911 29.8711 33.9723 30.1019 33.7942 30.2113C33.6522 31.0418 34.2707 31.7962 34.6871 31.9484Z" fill="white"/>
<path d="M43.2583 28.7559C42.5386 29.5292 41.1306 30.8761 41.0607 30.945L40.9765 31.0307L36.5263 30.9616C36.5238 31.3973 36.4517 31.7684 36.3818 32.0396C36.3698 32.0849 36.3578 32.1326 36.3457 32.1801L41.6407 33.1201C42.192 32.7392 43.7083 31.6446 44.2955 31.2163C43.8671 30.5976 43.8263 29.8648 43.9226 29.3483C43.6433 29.1699 43.4291 28.9701 43.2583 28.7559Z" fill="white"/>
<path d="M43.8606 23.4621C42.8353 24.4688 41.8508 24.84 40.9724 24.9257C40.8136 24.9423 40.6523 24.9518 40.4886 24.9518H40.4766H40.4669C40.3032 24.9518 40.1396 24.9423 39.9807 24.9257C39.8267 24.9114 39.6655 24.8875 39.5041 24.8519C39.4464 25.078 39.3741 25.5515 39.5813 25.9988C39.7666 26.4058 40.1444 26.7079 40.6956 26.9079L40.8809 26.9793L40.8833 27.1767C40.8833 27.2363 40.9266 28.5164 42.3394 28.871C42.5705 28.6354 42.7799 28.4237 42.934 28.2477C42.6451 27.5766 42.7967 26.8912 43.2155 26.5558C43.1963 26.6271 43.0135 28.3071 44.3757 28.9305L44.5994 29.0353L44.5321 29.2707C44.5105 29.3423 44.0556 30.9674 45.7042 31.5718L45.9956 31.6813L45.8655 31.9621C45.8366 32.024 45.1892 33.4993 46.7126 34.3368H50.0173V31.7432C48.8429 31.6005 48.3446 30.6675 48.2171 30.006C47.6705 29.9133 47.2471 29.6801 46.9582 29.2993C46.265 28.3975 46.862 27.5718 46.8692 27.5265C46.8667 27.5338 46.8692 28.4141 47.4178 28.9567C47.6899 29.2184 48.0124 29.4206 48.501 29.4659L48.7416 29.4873L48.7634 29.73C48.7682 29.7824 48.9006 30.9723 50.0198 31.1601L50.0173 25.8633C50.0173 25.0423 50.2604 24.2165 50.5517 23.4551H43.8606V23.4621Z" fill="white"/>
<path d="M34.9679 25.8894L34.8789 29.2636L35.2664 29.3208L36.2146 26.0845L35.7332 25.0898L34.9679 25.8894Z" fill="white"/>
<path d="M45.4229 41.3642C45.4519 41.3642 45.4856 41.369 45.5169 41.3761C46.1065 41.5427 46.2559 43.6461 47.2908 43.8342C47.3917 43.8557 47.4856 43.8604 47.5675 43.8604C47.8659 43.8604 48.044 43.7342 48.2366 43.5106C48.2366 43.5106 47.7167 42.7015 47.3268 42.1566C46.8093 41.4427 46.4074 40.579 45.4446 40.579C45.4229 40.579 45.3941 40.5789 45.3701 40.5813C45.0523 40.598 44.8575 40.7504 44.8575 40.7504C44.4675 40.5075 44.104 40.4242 43.7743 40.4242C43.1702 40.4242 42.7008 40.6979 42.4674 40.6979H42.4577L40.306 40.4885C39.9691 40.4575 39.7043 40.1221 39.6081 39.9912C39.5839 39.9554 39.5719 39.934 39.5719 39.934C39.5719 39.877 39.5719 39.8174 39.5671 39.7651C39.4949 38.0257 38.1327 37.2808 37.6488 37.2689C37.6488 37.2689 37.7066 36.9382 37.5743 36.8121L37.1001 37.3807L35.5428 36.6074L36.6523 37.89L35.7113 38.9346C35.5934 39.0537 35.6078 39.2154 35.656 39.282L36.0627 39.6366L36.5777 39.3272C36.6043 39.3082 36.6501 39.3034 36.7077 39.3034C36.8497 39.3034 37.0639 39.3392 37.2565 39.3392C37.4659 39.3392 37.6488 39.2939 37.6706 39.0988C37.6055 39.7437 37.0014 40.8645 37.3986 41.745L37.6922 42.4088L35.7908 42.1375L34.9002 43.6247C34.6259 44.1198 34.5824 44.6552 34.8472 44.9454L35.1794 45.3572C35.1794 45.3572 35.6464 44.8669 35.7522 44.5458L35.6006 44.3815C35.473 44.2434 35.4802 44.1198 35.5573 43.9699L36.1156 43.0537L38.3612 43.5772L38.4791 43.3774C38.6309 43.1274 38.8499 43.0513 39.0906 43.0513C39.1892 43.0513 39.2903 43.0632 39.3962 43.0799C39.8126 43.1608 40.4986 43.2702 41.1845 43.2702C41.9379 43.2702 42.6839 43.1369 43.0811 42.6968C43.8946 43.8889 45.5433 44.0793 45.4133 44.6838L44.9802 46.7254C45.2666 46.7135 45.5433 46.6945 45.8057 46.6587L46.2172 44.5338C46.2629 44.3031 46.3063 43.9913 46.3063 43.9913C46.1475 43.8319 45.7624 43.494 45.5457 43.0846C45.2545 42.5326 45.4133 42.2446 45.1414 41.526C45.1511 41.5307 45.2329 41.3642 45.4229 41.3642ZM37.023 38.3801C36.9124 38.3778 36.8329 38.2849 36.8377 38.1755C36.8474 38.0708 36.9365 37.9875 37.0448 37.9971C37.1555 38.0019 37.2348 38.0971 37.2301 38.2018C37.2204 38.3064 37.129 38.3874 37.023 38.3801Z" fill="white"/>
<path d="M33.9569 43.296C33.9569 43.296 34.7007 42.9938 34.7681 42.7772L34.6695 42.5321C34.5996 42.3727 34.6093 42.1991 34.7441 42.1038L35.548 41.5541L36.891 41.8087C36.891 41.8087 36.6479 41.5089 36.672 41.1067L35.3915 40.8379L34.1833 41.566C33.6658 41.9492 33.6272 42.575 33.7981 42.9461L33.9569 43.296Z" fill="white"/>
<path d="M43.4492 46.7562C43.6899 46.7468 43.9546 46.742 44.246 46.742C44.246 46.742 44.9367 44.7455 44.9752 44.6813C44.5877 44.5123 43.7839 44.0911 43.4733 43.8984C43.678 44.2006 44.1761 44.5481 44.0775 44.8146L43.4492 46.7562Z" fill="white"/>
<path d="M50.0253 34.9141H30.9316V42.0148C30.9316 44.9178 33.0569 46.7358 36.1931 46.7358C38.8142 46.7358 39.5049 46.8358 40.4797 47.7924C41.1511 47.1309 41.7072 46.8835 42.848 46.7905L42.8746 46.6812L43.4762 44.8417C43.4425 44.8012 42.4582 43.6948 42.4582 43.6948C42.0683 43.8232 41.7409 43.8447 41.1898 43.8447C40.6241 43.8447 39.9863 43.7804 39.2956 43.6519C39.2257 43.6354 39.1608 43.6305 39.0957 43.6305C39.0115 43.6305 39.0042 43.6377 38.9826 43.6782L38.8622 43.8732L38.6432 44.2302L38.2317 44.1374L36.4 43.7115L36.1498 44.1207L36.1882 44.1635L36.4121 44.4062L36.3135 44.7228C36.1787 45.1369 35.7406 45.6198 35.6082 45.7531L35.151 46.2385L34.7345 45.7174L34.4216 45.3296C34.0919 44.9655 34.0148 44.4062 34.2003 43.8209C34.1953 43.8257 34.1882 43.8281 34.181 43.8281L33.6635 44.0398L33.43 43.5402L33.2663 43.1855C32.9847 42.5622 33.0883 41.6506 33.8463 41.101L35.3218 40.2776L36.7251 40.5514C36.7588 40.4181 36.8093 39.9422 36.8501 39.8208C36.8237 39.8185 36.7972 39.8112 36.7707 39.8112L35.962 40.1086L35.1822 39.5757C35.1822 39.5757 34.8766 39.2855 35.1532 38.9951L35.9091 37.8648L33.9957 35.4899L36.9368 36.6845L37.1317 36.4442L37.5289 35.9755L37.979 36.399C38.1066 36.5203 38.1787 36.6702 38.2148 36.8201C39.0258 37.1318 40.4773 38.0528 40.6048 39.5496L40.1499 39.7304V39.7423C40.2535 39.8636 40.3401 39.9137 40.3667 39.9183L42.4653 40.123C42.5183 40.1135 42.5857 40.0897 42.6603 40.0683C42.9204 39.9802 43.3126 39.8541 43.7772 39.8541C44.155 39.8541 44.5208 39.9398 44.8722 40.1016C45.0021 40.0539 45.161 40.0183 45.344 40.0064L45.4451 40.0041C46.569 40.0041 47.1274 40.8345 47.5752 41.4961C47.6498 41.6102 47.7243 41.7197 47.8014 41.8268C48.1936 42.3741 48.7064 43.1761 48.728 43.2094L48.959 43.5662L48.6751 43.8923C48.4561 44.1421 48.1287 44.4349 47.5655 44.4349C47.45 44.4349 47.3225 44.4229 47.1852 44.3968C47.0648 44.3752 46.9566 44.3397 46.8506 44.2969C46.8338 44.4062 46.8121 44.5371 46.7905 44.649L46.4222 46.5478C48.6245 46.0124 50.0229 44.3682 50.0229 42.0171L50.0253 34.9141Z" fill="#FFDD2D"/>
<path d="M30.9319 34.3435H45.7798C45.0384 33.5869 45.0481 32.628 45.2382 32.0044C45.0216 31.9021 44.8435 31.7784 44.6847 31.6451C44.1046 32.0687 42.3331 33.3441 41.871 33.663L41.7724 33.7296L35.9453 32.6874H35.8273C35.6878 32.6874 35.4832 32.6827 35.2594 32.6564C35.1968 32.9159 34.9705 33.0943 34.7106 33.0943C34.6817 33.0943 34.648 33.092 34.6167 33.0848C34.4651 33.0586 34.3327 32.9824 34.2436 32.8563C34.1522 32.7327 34.1162 32.5851 34.1426 32.4328L34.1643 32.309C33.5625 31.8902 33.009 30.955 33.2545 29.9699L33.2785 29.8651L33.3627 29.8057C33.3747 29.7962 33.4758 29.7296 33.6252 29.6439L33.2015 29.5796C33.0427 29.5511 32.9368 29.4059 32.9609 29.2513C32.9874 29.0942 33.1366 28.9823 33.293 29.0133L34.3015 29.1704L34.393 25.6581L35.8947 24.0875L36.831 26.0364L35.8419 29.4155L36.7324 29.5535C36.8888 29.5773 36.9972 29.7224 36.973 29.8819C36.949 30.0223 36.8287 30.1197 36.6866 30.1197C36.6722 30.1197 36.6553 30.1197 36.641 30.1175L35.9164 30.0009C35.9261 30.0223 35.9405 30.0341 35.9501 30.058C36.0272 30.2149 36.198 30.3293 36.2993 30.3768L40.7422 30.4459C40.93 30.265 41.3968 29.8128 41.8758 29.3346C40.7831 28.9253 40.386 27.9924 40.3185 27.3737C39.7073 27.1168 39.2861 26.7313 39.0526 26.2291C38.7685 25.6081 38.8697 24.987 38.9442 24.6848C38.3522 24.4707 37.7289 24.0804 37.0934 23.457H30.4023C30.6887 24.2184 30.9319 25.0441 30.9319 25.8651V34.3435Z" fill="#FFDD2D"/>
<path d="M37.0472 37.9969C36.9389 37.9872 36.8474 38.0706 36.8403 38.1752C36.833 38.2847 36.9148 38.3774 37.0256 38.3799C37.1314 38.3893 37.2253 38.3084 37.2349 38.2013C37.2349 38.0966 37.1579 37.9991 37.0472 37.9969Z" fill="black"/>
<path d="M49.9983 50.8725L48.8983 50.4561L49.2015 49.333L49.5362 48.1074C49.5362 48.1074 47.5866 49.1521 44.8404 49.9373C44.0604 50.1587 43.4708 50.2586 43.4708 50.2586V51.0914C43.4708 51.0914 42.0026 51.3437 40.5176 51.3437H40.5008H40.4792H40.4502H40.4334C38.9483 51.3437 37.4802 51.0914 37.4802 51.0914V50.2586C37.4802 50.2586 36.8881 50.1587 36.1107 49.9373C33.3644 49.1521 31.4172 48.1074 31.4172 48.1074L31.747 49.333L32.0575 50.4561L30.9551 50.8725L29.7324 51.3247C31.1357 51.9933 33.078 52.969 34.8567 53.4495L34.438 54.5824C34.438 54.5824 36.6931 55.5984 40.4502 55.6079V55.6102H40.4623H40.4792H40.4936H40.5033V55.6079C44.2651 55.5984 46.5179 54.5824 46.5179 54.5824L46.0967 53.4495C47.8755 52.969 49.8226 51.9933 51.2186 51.3247L49.9983 50.8725ZM31.0371 51.4008L32.847 50.8059L32.3127 49.0807C33.1094 49.5281 34.8976 50.1992 35.9325 50.5108L35.0588 52.8832C33.4608 52.4478 32.1298 51.941 31.0371 51.4008ZM40.4792 55.013C38.378 55.013 35.9783 54.5347 35.2731 54.2873L36.3465 51.4151C37.237 51.672 39.0903 51.9458 40.4358 51.9362H40.4383H40.4792H40.5152H40.5201C41.8655 51.9458 43.714 51.672 44.6093 51.4151L45.6803 54.2873C44.9751 54.5371 42.5778 55.013 40.4792 55.013ZM45.8946 52.8832L45.0233 50.5108C46.0607 50.1992 47.8441 49.5281 48.6431 49.0807L48.1113 50.8059L49.9188 51.4008C48.8237 51.941 47.4999 52.4478 45.8946 52.8832Z" fill="black"/>
<path d="M40.4767 6.04168C42.7151 6.04168 44.5059 6.77463 45.495 7.55751C45.495 7.55751 45.7886 5.80849 46.7923 4.26416L44.9896 4.46639L44.0461 2.48419L42.2337 3.40751L40.4767 1.68945L38.7245 3.40751L36.9097 2.48419L35.9687 4.46639L34.166 4.26416C35.1696 5.80849 35.4633 7.55751 35.4633 7.55751C36.4549 6.77463 38.2407 6.04168 40.4767 6.04168ZM35.8869 5.1613L36.3875 5.21367L36.6041 4.76381L37.2348 3.43124L38.4044 4.02852L38.8569 4.25707L39.2181 3.90484L40.4792 2.66745L41.7428 3.90484L42.1038 4.25707L42.5562 4.02852L43.7187 3.43124L44.3566 4.76381L44.5684 5.21367L45.0691 5.1613L45.5455 5.10416C45.3265 5.59195 45.1653 6.05355 45.0498 6.43672C43.7886 5.74182 42.1471 5.34689 40.4743 5.34689C38.8088 5.34689 37.1698 5.74182 35.9038 6.43672C35.7858 6.05355 35.627 5.58962 35.408 5.10416L35.8869 5.1613Z" fill="black"/>
<path d="M66.7382 29.2512C69.6338 29.2512 70.6013 26.3386 70.6422 26.2149L70.9648 25.1893L69.8791 25.2226H69.8744C69.4916 25.2226 66.2979 25.1393 64.0328 22.2933L63.8187 22.0292C62.3384 20.1684 60.9353 18.4004 58.4274 17.5937C58.4995 17.5294 58.6031 17.4485 58.7451 17.358C60.076 16.4919 60.8511 15.4401 61.046 14.2194C61.33 12.3823 60.1459 10.9188 60.0929 10.8594L59.2866 9.87428L58.7837 11.0427C58.75 11.1164 57.9027 12.9869 56.1216 12.9869H55.9892C55.8665 12.9796 55.751 12.9749 55.6354 12.9654C55.698 12.1301 55.5439 10.838 54.3599 9.62678C52.9374 8.16809 51.19 7.94922 50.2754 7.94922C49.7868 7.94922 49.4618 8.00867 49.4281 8.01344L48.2102 8.25139L48.9611 9.22941C49.551 9.98377 50.0852 11.3758 49.4522 12.104C49.25 12.3347 48.8337 12.5227 48.4341 12.7107C47.6134 13.0843 46.4941 13.6031 46.4941 14.926C46.4941 15.7827 47.1657 16.6776 48.3836 17.439C51.989 19.6806 54.213 22.0197 55.1733 24.6016C56.6584 28.5731 54.7208 30.8384 52.8386 32.0306L51.9939 32.5683L52.7327 33.2393C52.8314 33.3251 53.7364 34.1127 55.0722 34.227C55.3249 34.2436 55.568 34.2579 55.7942 34.2579C56.6511 34.2579 57.3804 34.1246 57.9725 33.9461C57.8088 34.2293 57.609 34.5172 57.3563 34.8076C56.2805 36.0401 54.9567 36.6017 53.0528 36.6304L52.3453 36.6423L52.29 37.3443C52.2826 37.4845 52.2297 38.7863 53.4765 39.8927C53.6666 40.064 53.8977 40.2045 54.1384 40.3211C53.2935 41.073 52.4343 42.3818 52.2683 44.6257C52.1285 46.4984 51.6762 47.1908 51.6713 47.1981L50.8891 48.3784L52.302 48.3973C54.6365 48.3973 56.4249 47.7597 57.6643 46.4984C58.3961 45.7513 58.8149 44.909 59.0627 44.1617C59.4695 44.5044 59.9943 44.8043 60.6778 44.9637C60.9378 45.0231 61.2217 45.0565 61.5274 45.0565C62.1869 45.0565 62.738 44.9184 62.8006 44.9041L63.7032 44.6661L63.3037 43.8333C63.2747 43.7667 62.5215 42.0963 63.3326 39.7119C63.6815 38.6816 63.8596 37.7583 63.9463 37.0396C64.5143 37.3324 65.2749 37.575 66.2592 37.5774C68.4928 37.5774 69.4773 35.9284 69.523 35.8593L69.9634 35.1026L69.1475 34.7696C66.4855 33.6772 65.8958 30.7432 65.7779 29.1537C66.0186 29.1989 66.2929 29.2417 66.6034 29.2512H66.7382ZM68.8491 35.4716C68.8491 35.4716 68.0692 36.8112 66.281 36.8112H66.2592C64.1123 36.7993 63.2459 35.5047 63.2459 35.5047C63.2459 35.5047 63.3711 37.1896 62.596 39.462C61.6647 42.2008 62.6032 44.1593 62.6032 44.1593C62.6032 44.1593 62.1027 44.2926 61.5249 44.2926C61.3037 44.2926 61.0726 44.2712 60.8559 44.214C59.0627 43.793 58.6152 42.1794 58.6152 42.1794C58.6152 42.1794 58.7812 47.6312 52.3525 47.6312H52.302C52.302 47.6312 52.8675 46.8697 53.036 44.678C53.3417 40.6328 56.112 40.0784 56.112 40.0784C56.112 40.0784 54.6342 39.8951 53.9939 39.3264C52.9927 38.4293 53.0625 37.3918 53.0625 37.3918C55.3249 37.3608 56.8051 36.5994 57.9339 35.3072C59.1567 33.908 59.3588 32.4018 59.3588 32.4018C59.3588 32.4018 58.1434 33.4917 55.7918 33.4917C55.5848 33.4917 55.3633 33.4821 55.1373 33.4607C54.0252 33.3727 53.2551 32.6731 53.2551 32.6731C55.7028 31.1216 57.4212 28.4137 55.8978 24.335C54.6775 21.0678 51.7459 18.6264 48.7951 16.7869C47.8132 16.1803 47.2668 15.5067 47.2668 14.926C47.2668 13.5603 49.2308 13.5174 50.037 12.5989C50.9662 11.5329 50.3837 9.80283 49.5773 8.76304C49.5773 8.76304 49.8493 8.70823 50.2778 8.70823C51.1273 8.70823 52.598 8.92001 53.8063 10.1574C55.4116 11.7993 54.7449 13.5864 54.7449 13.5864L55.1757 13.6697C55.4332 13.7244 55.6884 13.7339 55.9532 13.7458C56.011 13.7458 56.0686 13.7483 56.1264 13.7483C58.4586 13.7483 59.5007 11.3377 59.5007 11.3377C59.5007 11.3377 61.9799 14.3526 58.3311 16.7131C57.7029 17.1177 57.4262 17.4913 57.4983 17.8911L57.556 18.1529L57.8159 18.198C60.4611 18.9071 61.7995 20.711 63.4337 22.7621C65.9151 25.8818 69.4267 25.9817 69.86 25.9817H69.9057C69.9057 25.9817 69.1043 28.4826 66.7431 28.4826C66.7045 28.4826 66.6708 28.4826 66.6299 28.4803C65.5444 28.4421 64.9885 28.0305 64.9885 28.0305C64.9885 28.0305 64.5623 33.7105 68.8491 35.4716Z" fill="black"/>
<path d="M61.6529 17.9072C62.7336 18.4761 63.3618 19.2375 63.913 19.9132C64.4546 20.5724 64.9696 21.2077 65.7735 21.4718C66.0599 21.5695 66.3632 21.6146 66.6712 21.6146C67.8796 21.6146 69.0925 20.8841 69.5524 19.8728L70.0145 18.8591L68.8951 18.7924C68.8423 18.7901 67.403 18.6616 65.8 17.0411C65.1404 16.3772 64.3439 16.0273 63.4846 16.0273C62.4351 16.0273 61.6577 16.5462 61.5712 16.5984L60.541 17.3148L61.6529 17.9072ZM63.4871 16.7936C64.0261 16.7936 64.6544 16.9745 65.2488 17.5812C67.1141 19.4541 68.8494 19.5586 68.8494 19.5586C68.5341 20.2488 67.6196 20.8556 66.6736 20.8556C66.4546 20.8556 66.2356 20.8222 66.0166 20.7484C64.7337 20.32 64.274 18.4164 62.0188 17.2315C62.0188 17.2315 62.6494 16.7936 63.4871 16.7936Z" fill="black"/>
<path d="M62.1578 28.0177V28.0557C61.508 22.873 57.7003 19.1299 53.4643 16.8526C53.0718 16.6455 52.7108 16.4695 52.3595 16.3006C53.6496 16.498 55.7266 16.5219 57.3296 15.1465C57.3296 15.1465 54.877 16.9312 49.8516 15.3107C51.2426 16.203 53.9455 17.4619 56.4127 19.5011C62.5813 24.86 58.1671 30.0879 58.1671 30.0879C60.3839 27.8011 60.4753 25.3501 59.8231 23.349C60.9904 25.2692 61.7366 27.6012 61.6209 30.4758C61.4502 34.5948 59.1612 38.1571 56.7519 41.0197C55.5943 42.4093 55.3344 44.1155 55.3344 44.1155C55.3344 44.1155 55.8012 42.6092 57.1418 41.0601C59.7245 38.0714 61.9314 34.966 62.2203 30.4924C62.4876 31.3039 63.5875 33.5621 65.3324 34.4117C65.3372 34.414 63.1446 33.1075 62.1578 28.0177Z" fill="black"/>
<path d="M29.283 47.1941C29.2805 47.1869 28.833 46.4945 28.6886 44.6218C28.52 42.3778 27.6631 41.0691 26.816 40.3172C27.0615 40.2029 27.2877 40.0626 27.4778 39.8888C28.7223 38.7822 28.6693 37.4806 28.6621 37.3403L28.614 36.6383L27.9015 36.6265C26.0024 36.5955 24.6763 36.0339 23.6004 34.8036C23.3501 34.5133 23.1479 34.2253 22.9842 33.9422C23.5764 34.1207 24.3009 34.254 25.16 34.254C25.3911 34.254 25.6294 34.2396 25.8821 34.2231C27.2179 34.1087 28.123 33.3235 28.224 33.2354L28.9629 32.5643L28.1181 32.0267C26.2288 30.8321 24.2984 28.5667 25.781 24.5975C26.7414 22.0158 28.9629 19.6767 32.5731 17.4351C33.791 16.6736 34.4578 15.7788 34.4578 14.9221C34.4578 13.5992 33.3409 13.0781 32.5203 12.7068C32.1207 12.5188 31.7044 12.3308 31.5021 12.1001C30.8667 11.3742 31.4034 9.97988 31.9908 9.2255L32.7465 8.2475L31.5238 8.00954C31.4877 8.00476 31.1676 7.94531 30.6766 7.94531C29.762 7.94531 28.0194 8.16418 26.5945 9.62288C25.408 10.8365 25.2515 12.1286 25.3118 12.9615C25.1961 12.9709 25.0807 12.9756 24.9603 12.9829H24.8304C23.0445 12.9829 22.1997 11.1125 22.166 11.0387L21.663 9.87037L20.8493 10.8555C20.8037 10.9149 19.6147 12.3808 19.9034 14.2155C20.0961 15.4362 20.8711 16.488 22.2021 17.3541C22.3465 17.4445 22.4476 17.5255 22.5198 17.5898C20.0141 18.3965 18.6135 20.1668 17.1331 22.0276L16.919 22.2918C14.6565 25.1378 11.4555 25.2211 11.0728 25.2211L9.98242 25.1878L10.3146 26.2133C10.353 26.3371 11.3182 29.2496 14.2161 29.2496L14.3557 29.2448C14.6614 29.2354 14.9357 29.1949 15.1813 29.1474C15.0609 30.7345 14.4712 33.6686 11.8068 34.7632L10.9933 35.0963L11.4338 35.8529C11.4771 35.922 12.464 37.5711 14.7023 37.5711C15.6794 37.5687 16.44 37.326 17.0104 37.0334C17.0971 37.752 17.2751 38.6752 17.6242 39.7055C18.4353 42.0899 17.6797 43.7603 17.6507 43.8271L17.2513 44.6599L18.1561 44.8978C18.2163 44.9121 18.7723 45.0501 19.4294 45.0501C19.7374 45.0501 20.0215 45.0168 20.2766 44.9573C20.9625 44.7979 21.492 44.4981 21.894 44.1554C22.1394 44.9026 22.5607 45.7449 23.29 46.4922C24.5319 47.7533 26.3178 48.3911 28.6524 48.3911L30.0677 48.372L29.283 47.1941ZM28.5994 47.6296C22.1707 47.6296 22.3345 42.178 22.3345 42.178C22.3345 42.178 21.8867 43.7913 20.0936 44.2126C19.8794 44.2695 19.6507 44.2909 19.427 44.2909C18.8493 44.2909 18.3511 44.1578 18.3511 44.1578C18.3511 44.1578 19.285 42.1994 18.3534 39.4605C17.5833 37.188 17.7084 35.5032 17.7084 35.5032C17.7084 35.5032 16.8444 36.7978 14.6951 36.8095H14.6734C12.8851 36.8095 12.1052 35.4699 12.1052 35.4699C16.3895 33.7114 15.9683 28.0336 15.9683 28.0336C15.9683 28.0336 15.4124 28.4431 14.3244 28.4834C14.2859 28.4859 14.2498 28.4859 14.2113 28.4859C11.8478 28.4859 11.0487 25.9849 11.0487 25.9849H11.0968C11.5324 25.9849 15.0393 25.8849 17.5207 22.7653C19.1549 20.7141 20.4956 18.9127 23.136 18.2013L23.4008 18.1561L23.4583 17.8943C23.5307 17.4946 23.2563 17.1209 22.6281 16.7165C18.9792 14.3535 21.4583 11.3409 21.4583 11.3409C21.4583 11.3409 22.4957 13.7491 24.8329 13.7491C24.8904 13.7491 24.9434 13.7467 25.0036 13.7467C25.266 13.7323 25.526 13.7229 25.781 13.6681L26.2119 13.5848C26.2119 13.5848 25.5452 11.7978 27.153 10.1559C28.3613 8.9161 29.8318 8.70677 30.6789 8.70677C31.1098 8.70677 31.3771 8.76145 31.3771 8.76145C30.5731 9.8037 29.9907 11.5313 30.9197 12.5974C31.7235 13.5135 33.6852 13.5587 33.6852 14.9246C33.6852 15.5028 33.1388 16.1786 32.1568 16.7854C29.2035 18.6249 26.2721 21.0663 25.0541 24.3334C23.5331 28.4121 25.2492 31.1176 27.7018 32.6715C27.7018 32.6715 26.9315 33.3712 25.8172 33.4592C25.5909 33.4806 25.372 33.49 25.16 33.49C22.8109 33.49 21.5956 32.4002 21.5956 32.4002C21.5956 32.4002 21.7977 33.9065 23.0131 35.3058C24.1493 36.5978 25.6294 37.3593 27.8919 37.3902C27.8919 37.3902 27.9641 38.4276 26.9629 39.3248C26.3202 39.8912 24.8424 40.0767 24.8424 40.0767C24.8424 40.0767 27.6151 40.6312 27.9183 44.6765C28.0844 46.8681 28.6452 47.6296 28.6452 47.6296H28.5994Z" fill="black"/>
<path d="M14.2797 21.6162C14.5901 21.6162 14.8934 21.571 15.1799 21.4734C15.9885 21.2092 16.5012 20.5738 17.0428 19.9148C17.5963 19.239 18.2197 18.4775 19.3004 17.9088L20.4122 17.3185L19.3798 16.6024C19.2931 16.5477 18.5181 16.0312 17.4712 16.0312C16.6095 16.0312 15.8105 16.3788 15.1533 17.045C13.5504 18.6631 12.1136 18.7941 12.0605 18.7964L10.9414 18.8605L11.4011 19.8767C11.8631 20.8833 13.0738 21.6162 14.2797 21.6162ZM15.7045 17.5828C16.3015 16.9761 16.9296 16.7951 17.4712 16.7951C18.3039 16.7951 18.9346 17.2329 18.9346 17.2329C16.6816 18.4204 16.2195 20.3216 14.9319 20.7501C14.7201 20.8237 14.4987 20.8571 14.2797 20.8571C13.3338 20.8571 12.4191 20.2527 12.1063 19.5602C12.1063 19.5578 13.8392 19.4531 15.7045 17.5828Z" fill="black"/>
<path d="M19.333 30.4777C19.2125 27.6031 19.9587 25.2711 21.1283 23.3509C20.4762 25.3521 20.5652 27.803 22.7844 30.0898C22.7844 30.0898 18.3702 24.862 24.5413 19.503C27.0108 17.4638 29.7112 16.2049 31.1 15.3127C26.077 16.9331 23.6244 15.1484 23.6244 15.1484C25.2273 16.5238 27.3044 16.5 28.5945 16.3001C28.2456 16.469 27.8797 16.6453 27.4921 16.8522C23.2512 19.1295 19.446 22.8727 18.7939 28.0553V28.0148C17.8093 33.1048 15.6191 34.4111 15.6191 34.4111C17.3618 33.5616 18.4592 31.3058 18.7265 30.492C19.0176 34.9656 21.2247 38.0709 23.8072 41.0597C25.1478 42.6089 25.6196 44.115 25.6196 44.115C25.6196 44.115 25.3572 42.409 24.1947 41.0193C21.7903 38.1614 19.5013 34.5968 19.333 30.4777Z" fill="black"/>
<path d="M39.0254 19.9922V21.0202C39.3842 20.5894 40.0773 20.6775 40.0773 20.6775V22.16C40.0773 22.16 40.0532 22.8881 39.7909 23.2047H40.5417H41.2903C41.0328 22.8904 41.0063 22.16 41.0063 22.16V20.6775C41.0063 20.6775 41.6995 20.5894 42.0557 21.0202V19.9922H40.5417H39.0254Z" fill="black"/>
<path d="M38.3811 13.8935C38.86 14.2695 39.1368 14.3314 39.1464 14.3384L39.3342 14.4241V13.4556L37.5723 12.7227C37.5723 12.7251 37.5892 13.2843 38.3811 13.8935Z" fill="black"/>
<path d="M42.5718 13.8935C43.3686 13.2843 43.3829 12.7227 43.3829 12.7227L41.6211 13.4556V14.4241L41.8065 14.3384C41.8186 14.3314 42.0929 14.2695 42.5718 13.8935Z" fill="black"/>
<path d="M45.7456 9.95287C45.7456 8.48476 43.2448 7.16406 40.4842 7.16406H40.4818H40.4746H40.4673C37.7067 7.16406 35.2061 8.48476 35.2061 9.95287L35.2614 10.3147L36.3636 16.5705L35.2566 17.2058L32.3923 18.8597H32.4019C32.4019 18.8597 31.757 19.1857 31.4585 19.388C30.3682 20.1376 30.1371 21.2297 30.7702 21.682C30.9267 20.7918 31.639 19.8591 32.9725 19.8591C33.9328 19.8591 34.6645 20.3494 35.2566 21.0847C35.4081 21.2702 35.5525 21.4677 35.6873 21.682C35.8535 21.9508 36.0195 22.1863 36.1856 22.4148H28.8086C29.3502 23.4927 29.8651 24.6349 29.8651 25.8748V42.0177C29.8651 45.925 32.9051 47.7907 36.1928 47.7907C38.7345 47.7907 39.0762 47.6765 40.4793 49.0567C41.8753 47.6741 42.2171 47.7907 44.7611 47.7907C48.0514 47.7907 51.0863 45.925 51.0863 42.0177V25.8748C51.0863 24.6349 51.6015 23.4927 52.1453 22.4148H44.7661C44.9297 22.1888 45.0957 21.9508 45.2619 21.682C45.3989 21.4677 45.5409 21.2702 45.6903 21.0847C46.2872 20.3469 47.0163 19.8591 47.9767 19.8591C49.3101 19.8591 50.0201 20.7895 50.179 21.682C50.812 21.2297 50.5834 20.1376 49.4858 19.388C49.1922 19.1857 48.5472 18.8597 48.5472 18.8597H48.5567L45.6927 17.2058L44.5904 16.5705L45.6927 10.3147L45.7456 9.95287ZM36.2915 10.6811L40.1666 11.9803V17.9983L37.3144 16.5111L36.2915 10.6811ZM37.0929 23.4642C37.7283 24.09 38.3518 24.478 38.9439 24.6921C38.8668 24.9942 38.7657 25.6177 39.0521 26.2388C39.2856 26.7384 39.7092 27.124 40.3182 27.381C40.3856 27.9997 40.7803 28.9301 41.8753 29.3418C41.3963 29.8201 40.9294 30.2697 40.7394 30.453L36.2987 30.3841C36.1977 30.334 36.0267 30.2222 35.9497 30.0628C35.94 30.0414 35.9256 30.0295 35.9184 30.0056L36.6429 30.1222C36.6598 30.1247 36.6741 30.1247 36.6887 30.1247C36.8282 30.1247 36.9509 30.0295 36.975 29.8868C36.9992 29.7273 36.8909 29.5821 36.7344 29.5583L35.8439 29.4203L36.833 26.0437L35.8967 24.0948L34.3949 25.6653L34.3035 29.1776L33.2949 29.0205C33.1384 28.9896 32.9893 29.1038 32.9629 29.2585C32.9388 29.4131 33.0446 29.5583 33.2035 29.5869L33.6271 29.6511C33.4755 29.7368 33.3768 29.8034 33.3647 29.8129L33.2781 29.8724L33.254 29.9771C33.0085 30.9622 33.5645 31.8975 34.1638 32.3162L34.1421 32.4401C34.1182 32.5922 34.1518 32.7397 34.2432 32.8636C34.3298 32.9897 34.4646 33.0658 34.6139 33.092C34.6452 33.0968 34.6789 33.0991 34.7078 33.0991C34.9677 33.0991 35.194 32.9207 35.2589 32.6614C35.4828 32.6874 35.6873 32.6922 35.8269 32.6922H35.9449L41.7719 33.7321L41.8705 33.6678C42.3351 33.3465 44.1041 32.0711 44.6841 31.65C44.843 31.7856 45.0211 31.9093 45.2378 32.0117C45.05 32.6351 45.0379 33.5941 45.7816 34.3508H30.9314V25.877C30.9314 25.0561 30.6883 24.2304 30.4019 23.469H37.0929V23.4642ZM44.2943 31.2168C43.7046 31.6451 42.1883 32.7397 41.6395 33.1205L36.3444 32.1807C36.3565 32.133 36.3684 32.0878 36.3805 32.0402C36.4504 31.769 36.5201 31.3977 36.525 30.9622L40.9752 31.0337L41.0595 30.948C41.1269 30.8814 42.5372 29.5345 43.2569 28.7587C43.4277 28.9705 43.642 29.1729 43.9213 29.3512C43.8249 29.8654 43.8658 30.5982 44.2943 31.2168ZM35.4298 30.3103C35.555 30.5696 35.7812 30.7434 35.9377 30.8409C35.9329 31.0836 35.9088 31.462 35.8439 31.7951C35.8293 31.8689 35.8101 31.938 35.7884 32.0069C35.7764 32.0497 35.7644 32.0855 35.7547 32.114C35.5213 32.114 35.0616 32.0855 34.6861 31.9498C34.2698 31.7975 33.6487 31.0431 33.7931 30.2127C33.9737 30.1032 34.39 29.8724 34.7799 29.8724C35.0808 29.8701 35.2854 30.0104 35.4298 30.3103ZM34.8786 29.2656L34.9677 25.8937L35.7331 25.0918L36.2145 26.0865L35.2661 29.3227L34.8786 29.2656ZM44.2461 46.7461C43.9572 46.7461 43.6902 46.7509 43.4494 46.7603L44.08 44.821C44.1787 44.5521 43.6804 44.207 43.476 43.9048C43.7864 44.0976 44.5904 44.5187 44.9779 44.6877C44.9368 44.7496 44.2461 46.7461 44.2461 46.7461ZM46.2245 44.5425L45.813 46.6651C45.5505 46.7008 45.2715 46.72 44.9851 46.7317L45.4183 44.6901C45.5483 44.0833 43.8995 43.8952 43.086 42.7031C42.6889 43.1457 41.9404 43.2765 41.1894 43.2765C40.5035 43.2765 39.8176 43.1671 39.401 43.0862C39.2952 43.0696 39.1941 43.0577 39.0955 43.0577C38.8547 43.0577 38.6357 43.1315 38.4841 43.3837L38.3638 43.5835L36.1182 43.06L35.5597 43.9738C35.4804 44.1214 35.4755 44.2475 35.6031 44.3855L35.7547 44.5496C35.6513 44.8732 35.1844 45.3611 35.1844 45.3611L34.8498 44.9495C34.585 44.6567 34.6283 44.1238 34.9051 43.6288L35.7956 42.1416L37.6971 42.4128L37.401 41.7465C37.0039 40.8661 37.608 39.7453 37.673 39.1004C37.6513 39.2955 37.4709 39.3384 37.259 39.3384C37.0666 39.3384 36.8523 39.3028 36.7103 39.3028C36.655 39.3028 36.6067 39.3075 36.5803 39.3264L36.0652 39.6358L35.6584 39.2814C35.6103 39.2123 35.5934 39.0528 35.7138 38.9338L36.655 37.8916L35.5429 36.609L37.1002 37.3824L37.5743 36.8136C37.7043 36.9398 37.6489 37.2705 37.6489 37.2705C38.1351 37.2824 39.4974 38.0272 39.5696 39.7643C39.5745 39.8167 39.5745 39.8762 39.5745 39.9333C39.5745 39.9333 39.5866 39.9547 39.6104 39.9904C39.7068 40.1214 39.9716 40.4568 40.3085 40.4877L42.4602 40.6973H42.4698C42.7057 40.6973 43.175 40.4235 43.7768 40.4235C44.1041 40.4235 44.47 40.5068 44.8598 40.7495C44.8598 40.7495 45.0548 40.5973 45.3726 40.5804C45.3967 40.5782 45.4231 40.5782 45.4472 40.5782C46.4123 40.5782 46.8119 41.4396 47.3293 42.1557C47.7192 42.7007 48.239 43.5098 48.239 43.5098C48.0466 43.7358 47.8684 43.8596 47.57 43.8596C47.4881 43.8596 47.3943 43.8524 47.2931 43.8335C46.2582 43.6454 46.109 41.5418 45.5193 41.3754C45.4881 41.3658 45.4544 41.3635 45.4255 41.3635C45.2353 41.3635 45.1511 41.53 45.1511 41.53C45.4206 42.2463 45.2642 42.5365 45.553 43.0887C45.7698 43.4978 46.1548 43.8358 46.3136 43.9953C46.3136 44 46.2703 44.3094 46.2245 44.5425ZM34.6692 42.5342L34.7678 42.7793C34.7029 42.9935 33.9568 43.298 33.9568 43.298L33.7956 42.9507C33.6246 42.5795 33.6608 41.9535 34.1807 41.5704L35.3889 40.8423L36.6694 41.1112C36.6453 41.5134 36.8884 41.8133 36.8884 41.8133L35.5453 41.5585L34.7415 42.1082C34.6067 42.201 34.5971 42.3748 34.6692 42.5342ZM46.4267 46.5485L46.795 44.6496C46.8142 44.5378 46.8382 44.4069 46.8552 44.2975C46.9587 44.3403 47.0693 44.376 47.1898 44.3974C47.3269 44.4235 47.4544 44.4355 47.57 44.4355C48.1332 44.4355 48.4605 44.1428 48.6795 43.8929L48.9635 43.5669L48.7325 43.21C48.7108 43.1743 48.2006 42.3748 47.8059 41.8274C47.7289 41.7203 47.6542 41.6133 47.5795 41.4967C47.132 40.8353 46.5711 40.0048 45.4472 40.0048L45.3461 40.007C45.1608 40.0189 45.0019 40.0547 44.8743 40.1022C44.5205 39.9381 44.1571 39.8548 43.7793 39.8548C43.3147 39.8548 42.9223 39.9809 42.6624 40.069C42.5878 40.0904 42.5204 40.1141 42.4674 40.1236L40.3663 39.919C40.3398 39.9142 40.2531 39.8643 40.1497 39.7405V39.731L40.6046 39.5502C40.4771 38.0534 39.0232 37.1325 38.212 36.8208C38.1761 36.6709 38.1038 36.521 37.9763 36.3996L37.5237 35.9761L37.1266 36.4473L36.9318 36.6875L33.9905 35.493L35.904 37.8677L35.1482 38.9981C34.8714 39.2884 35.1771 39.5788 35.1771 39.5788L35.9568 40.1094L36.7656 39.812C36.7945 39.812 36.8186 39.819 36.8451 39.8215C36.8065 39.9428 36.7561 40.4188 36.7224 40.552L35.3191 40.2783L33.8436 41.1017C33.0855 41.6514 32.982 42.5627 33.2636 43.1862L33.4273 43.5407L33.6608 44.0404L34.1758 43.8287C34.1831 43.8262 34.1903 43.824 34.195 43.8191C34.0097 44.4045 34.0845 44.9614 34.4165 45.3277L34.7294 45.7181L35.1458 46.2393L35.6031 45.7537C35.7378 45.6205 36.1736 45.1374 36.3082 44.7234L36.4071 44.4069L36.1831 44.1642L36.1471 44.1214L36.3973 43.7121L38.229 44.138L38.6405 44.2308L38.8596 43.8738L38.9799 43.6787C39.0016 43.6383 39.0088 43.6311 39.093 43.6311C39.158 43.6311 39.2231 43.6383 39.2928 43.6527C39.9835 43.7811 40.6214 43.8454 41.187 43.8454C41.7357 43.8454 42.063 43.824 42.4555 43.6955C42.4555 43.6955 43.4398 44.7995 43.4735 44.8424L42.8718 46.6794L42.8452 46.7912C41.7045 46.8816 41.1485 47.1291 40.4771 47.7931C39.5021 46.8365 38.8114 46.7365 36.1904 46.7365C33.0542 46.7365 30.9289 44.9185 30.9289 42.0155V34.9171H50.0201L50.025 42.0155C50.0274 44.3711 48.629 46.0131 46.4267 46.5485ZM50.5546 23.4642C50.2632 24.2257 50.0201 25.0514 50.0201 25.8723L50.0226 31.1693C48.9035 30.9836 48.771 29.7915 48.7662 29.7391L48.7445 29.4964L48.5039 29.475C48.0177 29.4297 47.6952 29.2253 47.4231 28.9634C46.8744 28.4208 46.872 27.5404 46.8744 27.5334C46.8672 27.5784 46.2703 28.4042 46.9635 29.3061C47.2547 29.6868 47.6758 29.92 48.2222 30.0129C48.3498 30.6743 48.848 31.6071 50.0226 31.7498V34.3437H46.7204C45.1968 33.506 45.8419 32.0307 45.8731 31.9689L46.0031 31.688L45.7119 31.5787C44.0632 30.9741 44.5157 29.3465 44.5397 29.2776L44.6071 29.0396L44.3834 28.9349C43.021 28.3115 43.2064 26.6291 43.2232 26.56C42.8044 26.8956 42.6529 27.5809 42.9416 28.252C42.7852 28.4281 42.5758 28.6421 42.3472 28.8754C40.9367 28.5208 40.8934 27.2382 40.8934 27.1788L40.891 26.9812L40.7057 26.9098C40.1545 26.7075 39.7766 26.4054 39.5913 25.9984C39.3819 25.5487 39.4565 25.0775 39.5142 24.8515C39.6755 24.8871 39.8368 24.9134 39.9909 24.9252C40.1497 24.9418 40.3133 24.9514 40.4771 24.9514H40.4867H40.4987C40.6624 24.9514 40.8236 24.9418 40.9825 24.9252C41.8609 24.8396 42.8452 24.466 43.8706 23.4617H50.5546V23.4642ZM45.4086 18.1101L46.7131 18.8597H46.7324L47.0597 19.0477C46.3232 19.25 45.7599 19.6141 45.2883 20.0923C45.2715 20.1067 45.2546 20.1256 45.2378 20.1423C45.1294 20.2565 45.0211 20.3803 44.92 20.5063C44.9009 20.5302 44.8815 20.5563 44.8598 20.5825C44.7587 20.711 44.665 20.842 44.5734 20.98C44.559 21.0037 44.5421 21.0275 44.5253 21.0489C44.4171 21.2083 44.3135 21.3797 44.2099 21.5557C43.281 23.1382 41.7983 24.0829 40.4793 24.0853C39.1629 24.0829 37.6803 23.1382 36.7512 21.5557C36.65 21.3845 36.549 21.2178 36.4407 21.056C36.4189 21.0251 36.3998 20.9942 36.3805 20.9681C36.2891 20.8371 36.1977 20.7087 36.1037 20.5872C36.0797 20.554 36.058 20.5278 36.0339 20.4992C35.9329 20.3778 35.8293 20.2565 35.7258 20.1447C35.7041 20.1281 35.6898 20.1067 35.6682 20.0875C35.194 19.6093 34.6331 19.2475 33.8942 19.0477L34.2264 18.8597H34.2408L35.5453 18.1101L36.886 17.3511L40.4673 19.2784L40.4746 19.2714L40.4842 19.2784L44.0656 17.3511L45.4086 18.1101ZM43.642 16.5134L40.7874 18.0005V11.9803L44.66 10.6811L43.642 16.5134ZM40.4771 11.3188L36.2313 9.66023C36.5924 8.81545 38.2578 8.09681 40.4771 8.09449C42.6985 8.09681 44.364 8.81545 44.7227 9.66023L40.4771 11.3188Z" fill="black"/>
<path d="M7.63719 79.6795V72.2303H12.0566V69.5197H0V72.2303H4.41923V79.6795H7.63719ZM16.5623 69.5197H13.3444V79.6795H16.5623V69.5197ZM18.9172 69.5197V79.6795H21.8777V74.066L27.391 79.6795H30.1371V69.5197H27.1765V75.0904L21.7918 69.5197H18.9172ZM36.4617 75.8375L40.1729 79.6795H44.3134L39.1432 74.3862L44.1204 69.5197H40.2159L36.4617 73.3402H35.6035V69.5197H32.4928V79.6795H35.6035V75.8375H36.4617ZM50.714 69.2422C46.5308 69.2422 44.0207 71.59 44.0207 74.6209C44.0207 77.6517 46.5308 79.9995 50.714 79.9995C54.8759 79.9995 57.386 77.6517 57.386 74.6209C57.386 71.59 54.8759 69.2422 50.714 69.2422ZM50.714 77.5236C48.6332 77.5236 47.3031 76.2857 47.3031 74.6209C47.3031 72.9561 48.6332 71.7395 50.714 71.7395C52.7736 71.7395 54.125 72.9561 54.125 74.6209C54.125 76.2857 52.7736 77.5236 50.714 77.5236ZM69.1829 69.5197H58.8641V79.6795H61.9747V76.1363H68.7323V73.8951H61.9747V72.1022H69.1829V69.5197ZM80.8941 69.5197H70.5751V79.6795H73.6859V76.1363H80.4435V73.8951H73.6859V72.1022H80.8941V69.5197Z" fill="black"/>
</g>
<defs>
<clipPath id="clip0_2171_15696">
<rect width="81" height="80" fill="white"/>
</clipPath>
</defs>
</svg>
