<svg width="149" height="48" viewBox="0 0 149 48" fill="none" xmlns="http://www.w3.org/2000/svg">
<g clip-path="url(#clip0_2171_15305)">
<path d="M52.9192 22.4529L53.6152 20.2192L51.3126 20.2917C51.1181 20.2917 49.7041 20.2515 48.3323 19.2543C48.4346 19.2644 48.5368 19.2784 48.6412 19.2784C50.0531 19.2784 51.4189 18.426 51.9665 17.2076L52.9573 15.0062C51.7158 15.0222 50.5806 14.8654 50.5806 14.8654C50.5705 14.8634 49.676 14.7487 48.6412 13.6893C47.8989 12.9293 46.9805 12.5272 45.9855 12.5272C45.5504 12.5272 45.1613 12.6056 44.8264 12.7122C44.8785 12.5333 44.9286 12.3523 44.9568 12.1653C45.2736 10.1046 43.9499 8.53239 43.9499 8.53438L42.2191 6.38518L41.146 8.9104C41.142 8.91847 40.8712 9.50948 40.3859 9.79904C40.2394 9.05717 39.8805 8.22274 39.1123 7.42468C37.6642 5.92083 35.9013 5.69765 34.9786 5.69765C34.5513 5.69765 34.2466 5.74393 34.1723 5.75596L32.0825 6.16808C32.2028 5.69963 32.4595 4.88544 32.9288 4.15163L34.0821 2.35017L31.1799 2.6819L30.2553 0.71371L28.4663 1.63857L26.8117 0L25.1609 1.63857L23.3659 0.71371L22.4432 2.6819L19.5432 2.35017L20.6983 4.15163C21.1677 4.88544 21.4244 5.69765 21.5428 6.1661L19.549 5.77209L19.4809 5.75992C19.3806 5.74393 19.0778 5.69765 18.6486 5.69765C17.7259 5.69765 15.963 5.92282 14.5189 7.42468C13.7487 8.22076 13.3897 9.05717 13.2413 9.79904C12.76 9.51358 12.4912 8.9305 12.4912 8.9305L11.4162 6.39126L9.65729 8.55448C9.44259 8.83398 8.38168 10.3116 8.67044 12.1693C8.70059 12.3543 8.74869 12.5353 8.80086 12.7142C8.46793 12.6076 8.07878 12.5292 7.64362 12.5292C6.64878 12.5292 5.73023 12.9313 4.98613 13.6913C3.95511 14.7468 3.06461 14.8654 3.07273 14.8654C3.07273 14.8654 2.13202 15.0343 0.675941 15.0081L1.66069 17.2096C2.20831 18.4299 3.57605 19.2804 4.98613 19.2804C5.09243 19.2804 5.19466 19.2663 5.299 19.2563C3.93113 20.2535 2.51712 20.2937 2.34659 20.2957L0 20.2192L0.710018 22.4509C1.06706 23.6008 2.26034 25.5067 4.54691 25.7118C4.29813 26.7573 3.74658 27.9274 2.5352 28.4321L0.788268 29.1538L1.7409 30.8165C2.27843 31.7132 3.54 32.7626 5.337 32.7626C5.72616 32.7606 6.10116 32.7224 6.46226 32.646C6.55454 33.0561 6.6708 33.4662 6.80725 33.8724C7.34268 35.4687 6.88143 36.5825 6.8754 36.5945L6.01295 38.406L7.93841 38.9147C7.96252 38.9227 8.54408 39.0815 9.27219 39.0815C9.60315 39.0815 9.91795 39.0473 10.2149 38.9769C10.4394 38.9247 10.6541 38.8544 10.8606 38.7699C11.1093 39.2182 11.4122 39.6264 11.7652 39.9922C12.9987 41.2609 14.7457 41.9042 16.9598 41.9042H16.9679L18.5484 41.8841L15.2831 43.2432L17.7621 44.4435C18.6627 44.8838 19.7316 45.4044 20.8187 45.8025L20.5098 46.651L21.3643 47.041C21.4404 47.0751 23.083 47.813 25.8149 47.9698C25.8149 47.9698 26.4747 48 26.8376 48C27.2007 48 27.8525 47.9677 27.8525 47.9677C30.5663 47.807 32.1967 47.0771 32.273 47.041L33.1294 46.6489L32.8165 45.7984C33.9357 45.3883 35.0428 44.8475 35.9052 44.4254L38.3381 43.2412L35.0828 41.88L36.6693 41.9001C38.8857 41.9001 40.6346 41.2569 41.8659 39.9862C42.217 39.6223 42.5199 39.2141 42.7706 38.7659C42.9772 38.8503 43.1937 38.9206 43.4184 38.973C43.7132 39.0433 44.0282 39.0774 44.3591 39.0774C45.075 39.0774 45.6628 38.9186 45.6787 38.9147L47.6122 38.4019L46.7698 36.6247C46.7498 36.5785 46.2885 35.4667 46.824 33.8683C46.9603 33.4603 47.0746 33.0502 47.1669 32.642C47.5301 32.7184 47.909 32.7586 48.3002 32.7586C50.5885 32.7586 51.6857 31.1441 51.8983 30.7944L52.841 29.1497L51.094 28.4301C49.8806 27.9254 49.3311 26.7533 49.0844 25.7098C51.3387 25.5169 52.5501 23.6109 52.9192 22.4529ZM21.6951 6.93613L21.6712 6.94208L21.6912 6.91604L21.6951 6.93613Z" fill="white"/>
<path d="M26.8153 6.83594C24.9661 6.83792 23.5803 7.44507 23.2773 8.15878L26.8153 9.55803L30.3533 8.15878C30.0525 7.44507 28.6666 6.83792 26.8153 6.83594Z" fill="white"/>
<path d="M26.8491 43.8798H26.845H26.8149H26.7808H26.7788C25.6576 43.8879 24.1152 43.6566 23.3711 43.4395L22.4766 45.8661C23.0663 46.0772 25.064 46.4793 26.8149 46.4793C28.5618 46.4793 30.5614 46.0753 31.1491 45.8661L30.2565 43.4395C29.5105 43.6587 27.9701 43.8879 26.8491 43.8798Z" fill="white"/>
<path d="M33.6181 41.4688C32.9522 41.8467 31.466 42.4137 30.6016 42.6771L31.3276 44.6815C32.6653 44.3155 33.7684 43.8874 34.6811 43.429L33.1748 42.9263L33.6181 41.4688Z" fill="white"/>
<path d="M20.0103 41.4668L20.4555 42.9243L18.9473 43.427C19.8578 43.8854 20.9669 44.3135 22.2987 44.6795L23.0247 42.6751C22.1643 42.4117 20.6761 41.8428 20.0103 41.4668Z" fill="white"/>
<path d="M26.8137 4.5177C28.2076 4.5177 29.5755 4.85142 30.6264 5.43847C30.7227 5.1148 30.8571 4.72277 31.0396 4.31263L30.6425 4.36089L30.2254 4.40506L30.0488 4.02506L29.5173 2.89923L28.5485 3.40589L28.1715 3.59893L27.8706 3.3013L26.8177 2.25586L25.7667 3.3013L25.4659 3.59893L25.0889 3.40589L24.1141 2.89923L23.5887 4.02506L23.4081 4.40506L22.9909 4.36089L22.5938 4.31263C22.7764 4.72476 22.9087 5.1148 23.0069 5.43847C24.0599 4.85142 25.4237 4.5177 26.8137 4.5177Z" fill="white"/>
<path d="M48.095 17.5289C48.2757 17.5913 48.46 17.6195 48.6427 17.6195C49.4308 17.6195 50.193 17.1087 50.4557 16.5238C50.4557 16.5238 49.0096 16.4353 47.4552 14.8531C46.96 14.3403 46.4364 14.1875 45.9872 14.1875C45.2892 14.1875 44.7656 14.5574 44.7656 14.5574C46.643 15.5587 47.026 17.167 48.095 17.5289Z" fill="white"/>
<path d="M4.98498 17.6195C5.16744 17.6195 5.35199 17.5913 5.52855 17.5289C6.6015 17.167 6.98659 15.5587 8.86395 14.5574C8.86395 14.5574 8.33834 14.1875 7.64444 14.1875C7.19316 14.1875 6.66966 14.3403 6.17223 14.8531C4.61994 16.4353 3.17383 16.5238 3.17383 16.5238C3.43256 17.1087 4.19671 17.6195 4.98498 17.6195Z" fill="white"/>
<path d="M48.6062 24.0644C48.6383 24.0664 48.6664 24.0664 48.7005 24.0664C50.668 24.0664 51.336 21.9534 51.336 21.9534H51.2978C50.9368 21.9534 48.0105 21.8689 45.9427 19.2332C44.5809 17.5002 43.4656 15.9762 41.2614 15.3772L41.0449 15.339L40.9967 15.1178C40.9365 14.7799 41.1672 14.4643 41.6907 14.1226C44.7313 12.1262 42.6674 9.58092 42.6674 9.58092C42.6674 9.58092 41.799 11.6176 39.8556 11.6176C39.8094 11.6176 39.7592 11.6156 39.7111 11.6156C39.4905 11.6034 39.2779 11.5953 39.0632 11.5492L38.7042 11.4789C38.7042 11.4789 39.2579 9.96898 37.922 8.58175C36.9151 7.53433 35.6897 7.35742 34.9817 7.35742C34.6247 7.35742 34.398 7.40356 34.398 7.40356C35.07 8.28426 35.5553 9.74381 34.7792 10.6444C34.1094 11.4184 32.4727 11.4567 32.4727 12.6106C32.4727 13.0992 32.928 13.6702 33.7462 14.1828C36.2072 15.7369 38.6501 17.7977 39.6649 20.5601C40.9345 24.0061 39.5045 26.292 37.4629 27.6028C37.4629 27.6028 38.1026 28.1938 39.0313 28.2682C39.2197 28.2864 39.4043 28.2944 39.5768 28.2944C41.5363 28.2944 42.5491 27.3735 42.5491 27.3735C42.5491 27.3735 42.3826 28.6463 41.3617 29.8284C40.4211 30.92 39.1856 31.5614 37.3023 31.5895C37.3023 31.5895 37.2421 32.4661 38.0765 33.224C38.6099 33.7025 39.8435 33.8593 39.8435 33.8593C39.8435 33.8593 37.5349 34.3278 37.2803 37.7456C37.1419 39.5973 36.6705 40.2405 36.6705 40.2405H36.7127C42.0697 40.2405 41.9313 35.6346 41.9313 35.6346C41.9313 35.6346 42.3044 36.9976 43.7986 37.3536C43.979 37.4018 44.1716 37.4199 44.3561 37.4199C44.8376 37.4199 45.2547 37.3073 45.2547 37.3073C45.2547 37.3073 44.4725 35.6527 45.2486 33.3387C45.8925 31.4186 45.7882 29.9953 45.7882 29.9953C45.7882 29.9953 46.5102 31.089 48.2994 31.099H48.3173C49.8076 31.099 50.4573 29.9671 50.4573 29.9671C46.8853 28.4814 47.2384 23.6844 47.2384 23.6844C47.2384 23.6844 47.7017 24.0301 48.6062 24.0644ZM47.5311 29.0744C46.079 28.3567 45.1604 26.4508 44.9379 25.7632C44.6971 29.5428 42.8559 32.1665 40.7038 34.6916C39.5867 36.0005 39.1977 37.2732 39.1977 37.2732C39.1977 37.2732 39.4122 35.8316 40.3789 34.6575C42.3866 32.2389 44.2941 29.2292 44.4364 25.7491C44.5347 23.3205 43.9109 21.3502 42.9382 19.7278C43.4817 21.4186 43.4055 23.4894 41.5583 25.4215C41.5583 25.4215 45.2347 21.0043 40.0942 16.4768C38.0363 14.7539 35.786 13.6903 34.6268 12.9364C38.8146 14.3055 40.8584 12.7976 40.8584 12.7976C39.5205 13.9597 37.7897 13.9396 36.7166 13.7727C37.0074 13.9155 37.3104 14.0642 37.6372 14.2392C41.1672 16.1612 44.3402 19.3236 44.8816 23.7045V23.6702C45.704 27.9706 47.5311 29.0744 47.5311 29.0744Z" fill="white"/>
<path d="M13.7854 33.8593C13.7854 33.8593 15.0189 33.7045 15.5524 33.224C16.3847 32.4661 16.3267 31.5895 16.3267 31.5895C14.4413 31.5634 13.2078 30.92 12.2612 29.8304C11.2482 28.6482 11.0798 27.3756 11.0798 27.3756C11.0798 27.3756 12.0926 28.2964 14.0501 28.2964C14.2267 28.2964 14.4092 28.2883 14.5977 28.2702C15.5264 28.1959 16.1681 27.6048 16.1681 27.6048C14.1263 26.294 12.6944 24.0061 13.9619 20.5601C14.9788 17.7997 17.4196 15.7369 19.8807 14.1828C20.699 13.6702 21.1542 13.1013 21.1542 12.6106C21.1542 11.4567 19.5196 11.4184 18.8496 10.6444C18.0736 9.74381 18.5609 8.28215 19.2308 7.40356C19.2308 7.40356 19.0081 7.35742 18.6491 7.35742C17.9431 7.35742 16.7176 7.53433 15.7108 8.58175C14.371 9.96898 14.9267 11.4789 14.9267 11.4789L14.5676 11.5492C14.3531 11.5953 14.1384 11.6034 13.9198 11.6156C13.8697 11.6156 13.8255 11.6176 13.7774 11.6176C11.8299 11.6176 10.9655 9.5829 10.9655 9.5829C10.9655 9.5829 8.90164 12.1282 11.9402 14.1245C12.4637 14.4663 12.6924 14.7821 12.6322 15.1197L12.584 15.3409L12.3634 15.3791C10.1632 15.9782 9.04609 17.5022 7.68425 19.2351C5.62038 21.8669 2.69812 21.9534 2.33322 21.9534H2.29297C2.29297 21.9534 2.96092 24.0664 4.92844 24.0664C4.96056 24.0664 4.98861 24.0664 5.02269 24.0644C5.92722 24.0321 6.39252 23.6844 6.39252 23.6844C6.39252 23.6844 6.74157 28.4794 3.17352 29.9671C3.17352 29.9671 3.82338 31.099 5.31354 31.099H5.33162C7.12259 31.089 7.84271 29.9953 7.84271 29.9953C7.84271 29.9953 7.73837 31.4186 8.38024 33.3387C9.15632 35.6527 8.37814 37.3073 8.37814 37.3073C8.37814 37.3073 8.79535 37.4199 9.27468 37.4199C9.46119 37.4199 9.65178 37.4018 9.8303 37.3536C11.3224 36.9976 11.6975 35.6346 11.6975 35.6346C11.6975 35.6346 11.5611 40.2405 16.9183 40.2405H16.9563C16.9563 40.2405 16.4871 39.5973 16.3507 37.7456C16.094 34.3278 13.7854 33.8593 13.7854 33.8593ZM12.9251 34.6916C10.773 32.1665 8.93376 29.5428 8.69101 25.7632C8.46846 26.4488 7.55383 28.3567 6.10181 29.0744C6.10181 29.0744 7.92686 27.9706 8.74724 23.6702V23.7045C9.2908 19.3257 12.4617 16.1612 15.9936 14.2392C16.3166 14.0623 16.6234 13.9135 16.9122 13.7727C15.8392 13.9396 14.1083 13.9597 12.7705 12.7976C12.7705 12.7976 14.8143 14.3055 19.0001 12.9364C17.8409 13.6903 15.5925 14.7539 13.5347 16.4768C8.39216 21.0043 12.0705 25.4215 12.0705 25.4215C10.2214 23.4874 10.1472 21.4186 10.6907 19.7278C9.716 21.3522 9.09419 23.3205 9.19446 25.7491C9.33484 29.2292 11.2422 32.2389 13.2459 34.6575C14.2147 35.8296 14.4333 37.2732 14.4333 37.2732C14.4333 37.2732 14.04 36.0005 12.9251 34.6916Z" fill="white"/>
<path d="M22.8525 17.0204C22.9407 17.115 23.0269 17.2174 23.1093 17.32C23.1293 17.3441 23.1473 17.3663 23.1673 17.3945C23.2436 17.4969 23.3218 17.6055 23.3961 17.716C23.412 17.7382 23.4282 17.7643 23.4461 17.7905C23.5365 17.9272 23.6207 18.0678 23.7049 18.2126C24.477 19.5496 25.7146 20.3478 26.8116 20.3498C27.9107 20.3478 29.1443 19.5496 29.9205 18.2126C30.0067 18.0639 30.093 17.9191 30.1831 17.7844C30.1972 17.7643 30.2113 17.7463 30.2232 17.7261C30.2995 17.6116 30.3798 17.4989 30.464 17.3904C30.482 17.3663 30.498 17.3462 30.5141 17.3261C30.6003 17.2195 30.6886 17.115 30.7789 17.0184C30.7948 17.0023 30.8068 16.9883 30.8209 16.9763C31.214 16.5721 31.6834 16.2645 32.297 16.0936L32.0243 15.9348H32.0083L30.9211 15.3015L29.8041 14.6602L26.8197 16.2886L26.8116 16.2826L26.8056 16.2886L23.8192 14.6602L22.7041 15.2995L21.615 15.9328H21.603L21.3262 16.0916C21.9419 16.2625 22.4092 16.5661 22.8044 16.9702C22.8223 16.9863 22.8344 17.0044 22.8525 17.0204ZM25.6042 16.8898H26.8678H28.1293V17.7583C27.8326 17.3945 27.255 17.4688 27.255 17.4688V18.7213C27.255 18.7213 27.277 19.3365 27.4915 19.604H26.8678H26.242C26.4606 19.3386 26.4807 18.7213 26.4807 18.7213V17.4688C26.4807 17.4688 25.9051 17.3945 25.6042 17.7583V16.8898Z" fill="white"/>
<path d="M26.5533 15.2055V10.1211L23.3242 9.02344L24.1766 13.9511L26.5533 15.2055ZM25.8594 11.3696V12.1858L25.7029 12.1135C25.6949 12.1074 25.4663 12.0552 25.0651 11.7375C24.4033 11.2229 24.3913 10.7484 24.3913 10.7484L25.8594 11.3696Z" fill="white"/>
<path d="M29.4529 13.9511L30.3013 9.02344L27.0742 10.1211V15.2055L29.4529 13.9511ZM27.7683 11.3696L29.2362 10.7503C29.2362 10.7503 29.2243 11.2249 28.5604 11.7396C28.1613 12.0572 27.9306 12.1094 27.9226 12.1155L27.7662 12.1878V11.3696H27.7683Z" fill="white"/>
<path d="M21.9879 26.9933C22.3029 27.108 22.6839 27.1322 22.8784 27.1322C22.8866 27.108 22.8965 27.0778 22.9066 27.0416C22.9245 26.9833 22.9407 26.9271 22.9528 26.8627C23.0069 26.5812 23.0269 26.2615 23.0309 26.0564C22.8985 25.9741 22.712 25.8273 22.6078 25.6082C22.4874 25.3549 22.3169 25.2383 22.0661 25.2383C21.7413 25.2383 21.3923 25.4333 21.2438 25.5257C21.1256 26.2274 21.6409 26.8647 21.9879 26.9933Z" fill="white"/>
<path d="M29.1314 24.2949C28.5317 24.9484 27.3584 26.0864 27.3002 26.1447L27.23 26.217L23.5216 26.1587C23.5195 26.5266 23.4593 26.8403 23.4012 27.0694C23.3912 27.1076 23.3812 27.1478 23.3711 27.1881L27.7835 27.9822C28.2428 27.6605 29.5064 26.7357 29.9958 26.3738C29.6387 25.8511 29.6046 25.2318 29.6848 24.7956C29.4523 24.6448 29.2737 24.4759 29.1314 24.2949Z" fill="white"/>
<path d="M29.6341 19.8245C28.7796 20.6749 27.9593 20.9885 27.2273 21.0609C27.0949 21.075 26.9605 21.0831 26.8241 21.0831H26.814H26.806C26.6697 21.0831 26.5333 21.075 26.4008 21.0609C26.2726 21.0488 26.1382 21.0287 26.0039 20.9986C25.9556 21.1895 25.8954 21.5896 26.0679 21.9676C26.2224 22.3114 26.5373 22.5667 26.9966 22.7357L27.151 22.7959L27.1531 22.9628C27.1531 23.013 27.1891 24.0947 28.3665 24.3942C28.559 24.1952 28.7335 24.0163 28.8619 23.8676C28.6211 23.3006 28.7474 22.7215 29.0965 22.438C29.0805 22.4983 28.9281 23.9178 30.0633 24.4446L30.2498 24.533L30.1936 24.732C30.1755 24.7923 29.7965 26.1655 31.1704 26.6761L31.413 26.7686L31.3047 27.0059C31.2807 27.0581 30.7412 28.3047 32.0108 29.0123H34.7645V26.8209C33.7858 26.7002 33.3705 25.9122 33.2643 25.3533C32.809 25.2749 32.456 25.0778 32.2152 24.7562C31.6376 23.9942 32.135 23.2965 32.1411 23.2583C32.1391 23.2644 32.1411 24.0082 32.5984 24.4666C32.825 24.6878 33.0939 24.8587 33.5009 24.8969L33.7015 24.915L33.7196 25.1201C33.7235 25.1642 33.8339 26.1695 34.7664 26.3283L34.7645 21.853C34.7645 21.1594 34.9671 20.4618 35.2098 19.8184H29.6341V19.8245Z" fill="white"/>
<path d="M22.2226 21.873L22.1484 24.7237L22.4712 24.772L23.2615 22.0377L22.8604 21.1973L22.2226 21.873Z" fill="white"/>
<path d="M30.9371 34.9486C30.9613 34.9486 30.9893 34.9526 31.0154 34.9587C31.5068 35.0993 31.6311 36.8766 32.4935 37.0355C32.5777 37.0535 32.656 37.0576 32.7242 37.0576C32.9729 37.0576 33.1213 36.951 33.2817 36.7621C33.2817 36.7621 32.8486 36.0785 32.5236 35.618C32.0924 35.015 31.7575 34.2851 30.9552 34.2851C30.9371 34.2851 30.9131 34.2851 30.8931 34.2871C30.6283 34.3013 30.4658 34.4299 30.4658 34.4299C30.1408 34.2249 29.8381 34.1545 29.5632 34.1545C29.0599 34.1545 28.6688 34.3856 28.4741 34.3856H28.4662L26.673 34.2087C26.3923 34.1827 26.1717 33.8992 26.0915 33.7885C26.0715 33.7584 26.0614 33.7403 26.0614 33.7403C26.0614 33.692 26.0614 33.6418 26.0574 33.5976C25.9972 32.1279 24.862 31.4987 24.4589 31.4886C24.4589 31.4886 24.507 31.2091 24.3967 31.1025L24.0016 31.583L22.7039 30.9297L23.6285 32.0134L22.8443 32.8959C22.746 32.9964 22.758 33.1331 22.7982 33.1895L23.1371 33.4891L23.5664 33.2277C23.5884 33.2115 23.6265 33.2076 23.6746 33.2076C23.793 33.2076 23.9715 33.2377 24.1319 33.2377C24.3064 33.2377 24.4589 33.1995 24.4769 33.0346C24.4228 33.5795 23.9194 34.5264 24.2503 35.2703L24.4951 35.8312L22.9105 35.602L22.1684 36.8585C21.9398 37.2767 21.9037 37.7291 22.1244 37.9744L22.401 38.3221C22.401 38.3221 22.7901 37.908 22.8784 37.6366L22.752 37.4979C22.6457 37.3813 22.6518 37.2767 22.716 37.15L23.1813 36.376L25.0525 36.8183L25.1508 36.6495C25.2771 36.4383 25.4597 36.374 25.6603 36.374C25.7425 36.374 25.8267 36.3841 25.9149 36.3981C26.262 36.4665 26.8336 36.559 27.4052 36.559C28.0329 36.559 28.6547 36.4464 28.9855 36.0744C29.6635 37.0817 31.0374 37.2426 30.9291 37.7532L30.5681 39.4783C30.8068 39.4682 31.0374 39.4521 31.256 39.4219L31.599 37.6265C31.6372 37.4315 31.6732 37.1681 31.6732 37.1681C31.5408 37.0334 31.22 36.748 31.0395 36.4022C30.7967 35.9357 30.9291 35.6925 30.7025 35.0853C30.7105 35.0893 30.7787 34.9486 30.9371 34.9486ZM23.9374 32.4275C23.8451 32.4255 23.779 32.3471 23.7829 32.2545C23.791 32.1661 23.8653 32.0957 23.9554 32.1038C24.0477 32.1078 24.1139 32.1882 24.1099 32.2766C24.1018 32.3652 24.0257 32.4336 23.9374 32.4275Z" fill="white"/>
<path d="M21.3822 36.5808C21.3822 36.5808 22.0019 36.3254 22.058 36.1425L21.9758 35.9354C21.9176 35.8007 21.9257 35.6539 22.038 35.5735L22.7078 35.1091L23.8271 35.3242C23.8271 35.3242 23.6244 35.0708 23.6446 34.7312L22.5776 34.5039L21.5707 35.1191C21.1394 35.4428 21.1073 35.9716 21.2498 36.2853L21.3822 36.5808Z" fill="white"/>
<path d="M29.2891 39.5026C29.4896 39.4945 29.7102 39.4904 29.953 39.4904C29.953 39.4904 30.5286 37.8037 30.5606 37.7494C30.2378 37.6067 29.5678 37.2508 29.3091 37.0879C29.4796 37.3434 29.8948 37.6369 29.8126 37.862L29.2891 39.5026Z" fill="white"/>
<path d="M34.7703 29.5H18.8594V35.4992C18.8594 37.952 20.6305 39.4879 23.2438 39.4879C25.428 39.4879 26.0035 39.5724 26.8159 40.3807C27.3755 39.8216 27.8388 39.6126 28.7894 39.5342L28.8114 39.4418L29.3128 37.8877C29.2848 37.8535 28.4646 36.9185 28.4646 36.9185C28.1396 37.0271 27.8669 37.0452 27.4076 37.0452C26.9362 37.0452 26.4048 36.991 25.8291 36.8825C25.7709 36.8683 25.7168 36.8643 25.6625 36.8643C25.5924 36.8643 25.5864 36.8703 25.5684 36.9045L25.468 37.0694L25.2855 37.371L24.9426 37.2926L23.4163 36.9327L23.2076 37.2784L23.2397 37.3147L23.4263 37.5197L23.3441 37.7871C23.2317 38.1369 22.8667 38.5451 22.7564 38.6576L22.3753 39.0677L22.0284 38.6275L21.7677 38.2998C21.4928 37.9922 21.4287 37.5197 21.5831 37.0251C21.579 37.0292 21.573 37.0312 21.5671 37.0312L21.1359 37.2101L20.9412 36.7879L20.8049 36.4883C20.5703 35.9616 20.6564 35.1917 21.2884 34.7272L22.5178 34.0316L23.6871 34.2628C23.7152 34.1502 23.7572 33.7481 23.7913 33.6455C23.7693 33.6435 23.7473 33.6376 23.7251 33.6376L23.0513 33.8888L22.4013 33.4385C22.4013 33.4385 22.1467 33.1932 22.3772 32.9479L23.007 31.9929L21.4126 29.9865L23.8635 30.9957L24.026 30.7926L24.3568 30.3967L24.732 30.7544C24.8382 30.857 24.8984 30.9837 24.9285 31.1104C25.6043 31.3737 26.8138 32.1517 26.9201 33.4164L26.5411 33.5692V33.5793C26.6273 33.6817 26.6995 33.7239 26.7215 33.728L28.4705 33.9008C28.5146 33.8929 28.5708 33.8728 28.633 33.8547C28.8496 33.7802 29.1765 33.6737 29.5636 33.6737C29.8785 33.6737 30.1832 33.7461 30.4761 33.8828C30.5844 33.8426 30.7169 33.8124 30.8693 33.8023L30.9534 33.8003C31.8901 33.8003 32.3554 34.502 32.7286 35.0609C32.7907 35.1574 32.8528 35.25 32.9171 35.3404C33.2439 35.8028 33.6711 36.4804 33.6892 36.5084L33.8817 36.81L33.645 37.0854C33.4626 37.2966 33.1898 37.5438 32.7205 37.5438C32.6242 37.5438 32.5179 37.5338 32.4036 37.5117C32.3034 37.4936 32.2131 37.4634 32.1249 37.4272C32.1108 37.5197 32.0928 37.6303 32.0746 37.7248L31.7678 39.3291C33.603 38.8768 34.7683 37.4876 34.7683 35.5012L34.7703 29.5Z" fill="#FFDD2D"/>
<path d="M18.8611 29.0182H31.234C30.6162 28.3789 30.6243 27.5687 30.7827 27.0419C30.6022 26.9554 30.4538 26.8508 30.3214 26.7383C29.8381 27.0961 28.3619 28.1738 27.9768 28.4431L27.8946 28.4995L23.0389 27.6189H22.9406C22.8243 27.6189 22.6538 27.6149 22.4673 27.5927C22.4151 27.8119 22.2267 27.9627 22.01 27.9627C21.9859 27.9627 21.9578 27.9607 21.9317 27.9546C21.8053 27.9325 21.6952 27.8681 21.621 27.7617C21.5447 27.6571 21.5147 27.5324 21.5367 27.4038L21.5547 27.2992C21.0533 26.9454 20.592 26.1552 20.7966 25.3229L20.8166 25.2345L20.8869 25.1842C20.8969 25.1762 20.981 25.1199 21.1055 25.0475L20.7524 24.9932C20.6201 24.9691 20.5319 24.8464 20.552 24.7158C20.574 24.5831 20.6983 24.4886 20.8287 24.5147L21.669 24.6474L21.7453 21.6799L22.9968 20.353L23.777 21.9997L22.9526 24.8545L23.6948 24.9711C23.8251 24.9912 23.9154 25.1139 23.8954 25.2485C23.8753 25.3671 23.775 25.4496 23.6567 25.4496C23.6446 25.4496 23.6306 25.4496 23.6185 25.4476L23.0148 25.3491C23.0229 25.3671 23.0348 25.3772 23.0429 25.3974C23.1071 25.53 23.2495 25.6265 23.3337 25.6667L27.0362 25.725C27.1926 25.5722 27.5818 25.1902 27.9809 24.7861C27.0703 24.4404 26.7393 23.6522 26.6831 23.1295C26.1738 22.9123 25.8227 22.5867 25.6282 22.1624C25.3915 21.6378 25.4758 21.113 25.5379 20.8577C25.0445 20.6767 24.5252 20.3471 23.9956 19.8203H18.4199C18.6586 20.4637 18.8611 21.1613 18.8611 21.8549V29.0182Z" fill="#FFDD2D"/>
<path d="M23.9561 32.1022C23.8658 32.0941 23.7896 32.1644 23.7836 32.2529C23.7775 32.3453 23.8457 32.4237 23.938 32.4258C24.0262 32.4338 24.1045 32.3654 24.1124 32.275C24.1124 32.1865 24.0484 32.1041 23.9561 32.1022Z" fill="black"/>
<path d="M34.749 42.9806L33.8324 42.6288L34.0851 41.6799L34.3639 40.6445C34.3639 40.6445 32.7392 41.527 30.4508 42.1905C29.801 42.3774 29.3096 42.4619 29.3096 42.4619V43.1656C29.3096 43.1656 28.0862 43.3787 26.8487 43.3787H26.8345H26.8166H26.7925H26.7784C25.541 43.3787 24.3175 43.1656 24.3175 43.1656V42.4619C24.3175 42.4619 23.824 42.3774 23.1763 42.1905C20.8878 41.527 19.2653 40.6445 19.2653 40.6445L19.54 41.6799L19.7987 42.6288L18.8801 42.9806L17.8613 43.3626C19.0306 43.9276 20.6491 44.7518 22.1314 45.158L21.7824 46.115C21.7824 46.115 23.6617 46.9735 26.7925 46.9814V46.9835H26.8026H26.8166H26.8287H26.8366V46.9814C29.9715 46.9735 31.8487 46.115 31.8487 46.115L31.4977 45.158C32.9798 44.7518 34.6026 43.9276 35.7658 43.3626L34.749 42.9806ZM18.9483 43.427L20.4566 42.9243L20.0113 41.4667C20.6751 41.8447 22.1655 42.4117 23.0278 42.6751L22.2999 44.6795C20.968 44.3115 19.8589 43.8833 18.9483 43.427ZM26.8166 46.4788C25.0656 46.4788 23.066 46.0748 22.4784 45.8656L23.3728 43.439C24.1149 43.6561 25.6593 43.8874 26.7804 43.8793H26.7825H26.8166H26.8466H26.8507C27.9719 43.8874 29.5121 43.6561 30.2583 43.439L31.1507 45.8656C30.5632 46.0768 28.5655 46.4788 26.8166 46.4788ZM31.3293 44.6795L30.6033 42.6751C31.4677 42.4117 32.9538 41.8447 33.6198 41.4667L33.1765 42.9243L34.6828 43.427C33.7701 43.8833 32.667 44.3115 31.3293 44.6795Z" fill="black"/>
<path d="M26.8135 5.10484C28.6788 5.10484 30.1709 5.72401 30.9953 6.3855C30.9953 6.3855 31.24 4.90783 32.0764 3.60298L30.5741 3.77394L29.788 2.09913L28.2777 2.87922L26.8135 1.42773L25.3534 2.87922L23.8412 2.09913L23.057 3.77394L21.5547 3.60298C22.391 4.90783 22.6357 6.3855 22.6357 6.3855C23.462 5.72401 24.9502 5.10484 26.8135 5.10484ZM22.9887 4.36098L23.4059 4.40514L23.5864 4.02528L24.1118 2.89932L25.0866 3.40399L25.4637 3.59703L25.7646 3.29941L26.8155 2.25396L27.8685 3.29941L28.1694 3.59703L28.5464 3.40399L29.5152 2.89932L30.0467 4.02528L30.2232 4.40514L30.6403 4.36098L31.0374 4.31272C30.8549 4.72484 30.7205 5.11489 30.6242 5.43855C29.5732 4.85151 28.2054 4.51779 26.8116 4.51779C25.4237 4.51779 24.0577 4.85151 23.0027 5.43855C22.9046 5.11489 22.7722 4.72286 22.5895 4.31272L22.9887 4.36098Z" fill="black"/>
<path d="M48.6957 24.7127C51.1086 24.7127 51.9149 22.2519 51.9489 22.1473L52.2176 21.2808L51.3131 21.3089H51.3092C50.9902 21.3089 48.3287 21.2386 46.4414 18.8341L46.2628 18.6109C45.0294 17.0387 43.8601 15.5449 41.7702 14.8633C41.8304 14.8091 41.9166 14.7407 42.035 14.6643C43.1441 13.9325 43.79 13.0439 43.9523 12.0126C44.1891 10.4605 43.2023 9.22394 43.1582 9.17369L42.4862 8.34138L42.0671 9.32852C42.039 9.39079 41.3329 10.9711 39.8488 10.9711H39.7384C39.6362 10.965 39.5399 10.961 39.4437 10.953C39.4959 10.2473 39.3674 9.15558 38.3807 8.13235C37.1953 6.89982 35.7392 6.71484 34.9771 6.71484C34.5699 6.71484 34.2993 6.76522 34.271 6.76918L33.2563 6.97029L33.882 7.79651C34.3734 8.4338 34.8186 9.61001 34.2911 10.2252C34.1227 10.4203 33.7757 10.5791 33.4427 10.7379C32.7588 11.0536 31.8262 11.4918 31.8262 12.6097C31.8262 13.3334 32.3858 14.0893 33.4006 14.7327C36.4052 16.6266 38.2583 18.6028 39.0586 20.7841C40.2961 24.1397 38.6815 26.0537 37.1131 27.0609L36.4091 27.5152L37.0249 28.0822C37.107 28.1546 37.8612 28.8201 38.9743 28.9166C39.185 28.9306 39.3874 28.9428 39.5761 28.9428C40.29 28.9428 40.8978 28.8301 41.3911 28.6794C41.2547 28.9186 41.0883 29.1618 40.8777 29.4071C39.9812 30.4486 38.8781 30.923 37.2916 30.9472L36.7019 30.9572L36.6558 31.5502C36.6497 31.669 36.6057 32.7686 37.6445 33.7035C37.8031 33.8483 37.9956 33.9669 38.1961 34.0654C37.4922 34.7007 36.7761 35.8064 36.6378 37.7023C36.5215 39.2846 36.1443 39.8696 36.1404 39.8757L35.4886 40.8729L36.6659 40.8889C38.6114 40.8889 40.1016 40.3501 41.1344 39.2846C41.7441 38.6532 42.0932 37.9416 42.2998 37.3103C42.6387 37.5998 43.076 37.8532 43.6455 37.9878C43.8621 38.038 44.0989 38.0662 44.3535 38.0662C44.9031 38.0662 45.3624 37.9496 45.4146 37.9375L46.1667 37.7366L45.8337 37.0329C45.8096 36.9766 45.1819 35.5651 45.8577 33.5507C46.1485 32.6802 46.2969 31.9001 46.3691 31.2929C46.8425 31.5402 47.4763 31.7452 48.2966 31.7474C50.1578 31.7474 50.9782 30.3541 51.0163 30.2957L51.3833 29.6565L50.7035 29.375C48.4852 28.4521 47.9938 25.9733 47.8955 24.6302C48.096 24.6684 48.3247 24.7047 48.5834 24.7127H48.6957ZM50.4547 29.968C50.4547 29.968 49.8048 31.0999 48.3146 31.0999H48.2966C46.5076 31.0898 45.7855 29.9961 45.7855 29.9961C45.7855 29.9961 45.8898 31.4196 45.244 33.3397C44.4678 35.6536 45.2501 37.3083 45.2501 37.3083C45.2501 37.3083 44.8328 37.4208 44.3515 37.4208C44.1671 37.4208 43.9744 37.4027 43.794 37.3544C42.2998 36.9986 41.9267 35.6356 41.9267 35.6356C41.9267 35.6356 42.065 40.2415 36.7079 40.2415H36.6659C36.6659 40.2415 37.1372 39.5982 37.2775 37.7466C37.5322 34.3288 39.8409 33.8603 39.8409 33.8603C39.8409 33.8603 38.6093 33.7055 38.0758 33.225C37.2414 32.467 37.2996 31.5905 37.2996 31.5905C39.185 31.5644 40.4185 30.921 41.3591 29.8293C42.378 28.6471 42.5464 27.3745 42.5464 27.3745C42.5464 27.3745 41.5335 28.2953 39.5741 28.2953C39.4016 28.2953 39.2171 28.2872 39.0284 28.2692C38.1018 28.1948 37.4601 27.6037 37.4601 27.6037C39.4997 26.2929 40.9319 24.005 39.6623 20.559C38.6455 17.7987 36.2025 15.7359 33.7436 14.1819C32.9253 13.6691 32.4699 13.1002 32.4699 12.6097C32.4699 11.4557 34.1066 11.4194 34.7786 10.6435C35.5526 9.74262 35.0673 8.28109 34.3954 7.40251C34.3954 7.40251 34.622 7.35623 34.9791 7.35623C35.687 7.35623 36.9125 7.53512 37.9193 8.58057C39.2572 9.96779 38.7015 11.4777 38.7015 11.4777L39.0606 11.5481C39.2753 11.5944 39.4878 11.6024 39.7084 11.6125C39.7566 11.6125 39.8047 11.6145 39.8527 11.6145C41.7963 11.6145 42.6648 9.57775 42.6648 9.57775C42.6648 9.57775 44.7306 12.1251 41.69 14.1195C41.1665 14.4612 40.9358 14.777 40.9961 15.1147L41.0442 15.3359L41.2607 15.3741C43.465 15.9731 44.5801 17.4971 45.9419 19.2301C48.0098 21.8658 50.9361 21.9503 51.2971 21.9503H51.3352C51.3352 21.9503 50.6673 24.0633 48.6998 24.0633C48.6676 24.0633 48.6396 24.0633 48.6055 24.0613C47.701 24.0292 47.2376 23.6813 47.2376 23.6813C47.2376 23.6813 46.8827 28.4803 50.4547 29.968Z" fill="black"/>
<path d="M44.458 15.1275C45.3584 15.6079 45.8819 16.2513 46.3412 16.8224C46.7925 17.3793 47.2217 17.9159 47.8915 18.1391C48.1302 18.2216 48.3829 18.2598 48.6396 18.2598C49.6464 18.2598 50.6574 17.6425 51.0404 16.7881L51.4255 15.9316L50.4929 15.8754C50.4487 15.8733 49.2494 15.7647 47.9137 14.3956C47.3641 13.8348 46.7002 13.5391 45.9841 13.5391C45.1098 13.5391 44.4618 13.9774 44.3897 14.0217L43.5312 14.6269L44.458 15.1275ZM45.9862 14.1866C46.4354 14.1866 46.9589 14.3393 47.4544 14.852C49.0086 16.4343 50.4548 16.5227 50.4548 16.5227C50.1921 17.1058 49.4299 17.6184 48.6416 17.6184C48.4592 17.6184 48.2766 17.5903 48.0941 17.528C47.0251 17.1661 46.642 15.5577 44.7627 14.5565C44.7627 14.5565 45.2883 14.1866 45.9862 14.1866Z" fill="black"/>
<path d="M44.8819 23.6715V23.7037C44.3404 19.3249 41.1674 16.1624 37.6375 14.2383C37.3106 14.0634 37.0097 13.9147 36.7169 13.7719C37.7919 13.9387 39.5228 13.9588 40.8585 12.7969C40.8585 12.7969 38.8148 14.3047 34.627 12.9356C35.7863 13.6895 38.0386 14.7531 40.0944 16.476C45.235 21.0035 41.5565 25.4206 41.5565 25.4206C43.4038 23.4885 43.4799 21.4178 42.9365 19.727C43.9092 21.3494 44.5309 23.3196 44.4346 25.7483C44.2923 29.2284 42.3849 32.238 40.3771 34.6567C39.4124 35.8308 39.1959 37.2724 39.1959 37.2724C39.1959 37.2724 39.5849 35.9996 40.7021 34.6908C42.8542 32.1657 44.6933 29.542 44.934 25.7624C45.1567 26.448 46.0733 28.3559 47.5273 29.0735C47.5313 29.0757 45.7042 27.9719 44.8819 23.6715Z" fill="black"/>
<path d="M17.4836 39.8736C17.4816 39.8676 17.1086 39.2826 16.9883 37.7003C16.848 35.8044 16.1338 34.6987 15.4279 34.0634C15.6325 33.9669 15.8209 33.8483 15.9795 33.7015C17.0164 32.7666 16.9722 31.6668 16.9661 31.5482L16.9261 30.9551L16.3324 30.945C14.75 30.919 13.6448 30.4445 12.7483 29.4051C12.5397 29.1598 12.3713 28.9166 12.2349 28.6773C12.7282 28.8281 13.3319 28.9406 14.0479 28.9406C14.2406 28.9406 14.4391 28.9286 14.6497 28.9146C15.7628 28.8181 16.517 28.1546 16.6011 28.0802L17.2169 27.5132L16.5129 27.0589C14.9385 26.0496 13.3299 24.1357 14.5654 20.7821C15.3656 18.6008 17.2169 16.6246 20.2254 14.7307C21.2403 14.0873 21.7957 13.3314 21.7957 12.6077C21.7957 11.4898 20.8652 11.0495 20.1813 10.7359C19.8483 10.5771 19.5014 10.4183 19.333 10.2232C18.8034 9.61004 19.2506 8.43185 19.74 7.79456L20.3698 6.9682L19.3509 6.76723C19.3209 6.76313 19.0541 6.71289 18.645 6.71289C17.8827 6.71289 16.4307 6.89786 15.2433 8.13026C14.2545 9.15561 14.1243 10.2473 14.1743 10.951C14.0781 10.959 13.9818 10.963 13.8815 10.9691H13.7732C12.285 10.9691 11.5811 9.38884 11.553 9.32657L11.1337 8.33943L10.4558 9.17174C10.4178 9.22198 9.427 10.4604 9.66765 12.0106C9.82808 13.0419 10.4739 13.9305 11.583 14.6623C11.7033 14.7387 11.7876 14.8071 11.8478 14.8613C9.75993 15.5429 8.5926 17.0387 7.35907 18.6109L7.18055 18.8341C5.29533 21.2386 2.62775 21.3089 2.30885 21.3089L1.40039 21.2807L1.67708 22.1473C1.70919 22.2519 2.51346 24.7127 4.9282 24.7127L5.04459 24.7086C5.29927 24.7005 5.52799 24.6664 5.73259 24.6262C5.63219 25.9672 5.1408 28.4461 2.92057 29.3709L2.24266 29.6524L2.60979 30.2918C2.64584 30.3501 3.46819 31.7432 5.33335 31.7432C6.1477 31.7413 6.78144 31.5362 7.25684 31.2889C7.32905 31.8961 7.47743 32.6762 7.76828 33.5467C8.44422 35.5612 7.81441 36.9725 7.7903 37.0288L7.45737 37.7324L8.21157 37.9335C8.26164 37.9456 8.72498 38.0622 9.27247 38.0622C9.52923 38.0622 9.76595 38.034 9.97859 37.9838C10.5502 37.8491 10.9913 37.5957 11.3262 37.3063C11.5308 37.9375 11.8819 38.6492 12.4896 39.2806C13.5244 40.3461 15.0126 40.8849 16.9582 40.8849L18.1375 40.8688L17.4836 39.8736ZM16.914 40.2415C11.5569 40.2415 11.6934 35.6356 11.6934 35.6356C11.6934 35.6356 11.3204 36.9986 9.82612 37.3544C9.6476 37.4027 9.45701 37.4208 9.2705 37.4208C8.7892 37.4208 8.37397 37.3083 8.37397 37.3083C8.37397 37.3083 9.15215 35.6536 8.37593 33.3396C7.73421 31.4196 7.83853 29.9961 7.83853 29.9961C7.83853 29.9961 7.11842 31.0898 5.32745 31.0999H5.30936C3.8192 31.0999 3.16935 29.968 3.16935 29.968C6.73937 28.4822 6.38835 23.6852 6.38835 23.6852C6.38835 23.6852 5.92514 24.0311 5.01851 24.0652C4.9864 24.0674 4.95638 24.0674 4.92427 24.0674C2.95464 24.0674 2.2888 21.9543 2.2888 21.9543H2.32891C2.69198 21.9543 5.61424 21.8699 7.68203 19.2341C9.04387 17.5012 10.161 15.9792 12.3612 15.378L12.5817 15.3398L12.63 15.1187C12.6902 14.7809 12.4615 14.4653 11.9381 14.1235C8.89747 12.127 10.9633 9.58188 10.9633 9.58188C10.9633 9.58188 11.8277 11.6164 13.7752 11.6164C13.8233 11.6164 13.8675 11.6144 13.9176 11.6144C14.1362 11.6024 14.3529 11.5943 14.5654 11.5481L14.9245 11.4777C14.9245 11.4777 14.3688 9.96783 15.7086 8.58073C16.7155 7.53317 17.9409 7.35626 18.6469 7.35626C19.0059 7.35626 19.2286 7.40254 19.2286 7.40254C18.5587 8.28311 18.0734 9.74266 18.8474 10.6434C19.5174 11.4174 21.152 11.4556 21.152 12.6096C21.152 13.0982 20.6967 13.6691 19.8785 14.1818C17.4174 15.7359 14.9746 17.7987 13.9597 20.559C12.6922 24.0049 14.1222 26.2909 16.1659 27.6036C16.1659 27.6036 15.5241 28.1948 14.5956 28.2692C14.407 28.2872 14.2245 28.2953 14.0479 28.2953C12.0904 28.2953 11.0776 27.3745 11.0776 27.3745C11.0776 27.3745 11.246 28.6471 12.259 29.8293C13.2056 30.921 14.4391 31.5644 16.3244 31.5905C16.3244 31.5905 16.3846 32.467 15.5502 33.225C15.0148 33.7035 13.7831 33.8603 13.7831 33.8603C13.7831 33.8603 16.0938 34.3288 16.3465 37.7466C16.4848 39.5982 16.9522 40.2415 16.9522 40.2415H16.914Z" fill="black"/>
<path d="M4.985 18.2616C5.24374 18.2616 5.49644 18.2234 5.735 18.141C6.40897 17.9178 6.83614 17.381 7.28742 16.8241C7.7488 16.2532 8.26824 15.6099 9.1687 15.1294L10.0954 14.6308L9.23489 14.0256C9.16267 13.9793 8.51687 13.543 7.64446 13.543C6.92645 13.543 6.2606 13.8366 5.71298 14.3995C4.37722 15.7667 3.17987 15.8772 3.1357 15.8792L2.20312 15.9335L2.58625 16.792C2.9712 17.6424 3.98007 18.2616 4.985 18.2616ZM6.17226 14.8538C6.66967 14.3412 7.19318 14.1884 7.64446 14.1884C8.33835 14.1884 8.86382 14.5583 8.86382 14.5583C6.9866 15.5616 6.60152 17.1679 5.52843 17.5298C5.35201 17.5922 5.16746 17.6204 4.985 17.6204C4.19673 17.6204 3.43455 17.1096 3.17384 16.5245C3.17384 16.5226 4.61787 16.4341 6.17226 14.8538Z" fill="black"/>
<path d="M9.19241 25.7502C9.09214 23.3216 9.71395 21.3513 10.6886 19.7289C10.1451 21.4197 10.2193 23.4905 12.0686 25.4226C12.0686 25.4226 8.39012 21.0056 13.5326 16.4779C15.5905 14.755 17.8408 13.6914 18.9981 12.9375C14.8123 14.3066 12.7684 12.7988 12.7684 12.7988C14.1042 13.9609 15.8352 13.9407 16.9103 13.7718C16.6194 13.9146 16.3145 14.0634 15.9915 14.2383C12.4577 16.1623 9.28666 19.3248 8.74309 23.7036V23.6694C7.92285 27.9697 6.09766 29.0735 6.09766 29.0735C7.54981 28.3558 8.46444 26.4499 8.68699 25.7622C8.92974 29.5419 10.7688 32.1657 12.9209 34.6907C14.0381 35.9996 14.4312 37.2722 14.4312 37.2722C14.4312 37.2722 14.2126 35.8307 13.2439 34.6566C11.2402 32.2421 9.33279 29.2303 9.19241 25.7502Z" fill="black"/>
<path d="M25.6035 16.8906V17.7591C25.9024 17.3952 26.4801 17.4695 26.4801 17.4695V18.722C26.4801 18.722 26.4599 19.3372 26.2413 19.6047H26.8671H27.4908C27.2763 19.3394 27.2541 18.722 27.2541 18.722V17.4695C27.2541 17.4695 27.8317 17.3952 28.1287 17.7591V16.8906H26.8671H25.6035Z" fill="black"/>
<path d="M25.0683 11.7391C25.4675 12.0567 25.6981 12.1091 25.7062 12.115L25.8626 12.1875V11.3692L24.3945 10.75C24.3945 10.752 24.4085 11.2244 25.0683 11.7391Z" fill="black"/>
<path d="M28.5578 11.7391C29.2217 11.2244 29.2337 10.75 29.2337 10.75L27.7656 11.3692V12.1875L27.92 12.115C27.9301 12.1091 28.1587 12.0567 28.5578 11.7391Z" fill="black"/>
<path d="M31.2035 8.40911C31.2035 7.16865 29.1196 6.05273 26.8191 6.05273H26.8172H26.8112H26.8052C24.5047 6.05273 22.4208 7.16865 22.4208 8.40911L22.467 8.71467L23.3854 14.0002L22.463 14.537L20.0762 15.9343H20.0843C20.0843 15.9343 19.5468 16.2097 19.298 16.3805C18.3895 17.0139 18.197 17.9367 18.7244 18.3187C18.8548 17.5668 19.4484 16.7786 20.5595 16.7786C21.3598 16.7786 21.9695 17.1929 22.463 17.814C22.5893 17.9709 22.7096 18.1377 22.822 18.3187C22.9603 18.5459 23.0986 18.7449 23.2371 18.9379H17.0898C17.5411 19.8486 17.9703 20.8137 17.9703 21.8611V35.5001C17.9703 38.8013 20.5034 40.3776 23.2431 40.3776C25.3611 40.3776 25.646 40.2811 26.8153 41.4471C27.9785 40.2791 28.2633 40.3776 30.3833 40.3776C33.125 40.3776 35.6542 38.8013 35.6542 35.5001V21.8611C35.6542 20.8137 36.0834 19.8486 36.5366 18.9379H30.3873C30.5237 18.747 30.6621 18.5459 30.8004 18.3187C30.9148 18.1377 31.033 17.9709 31.1574 17.814C31.6548 17.1908 32.2625 16.7786 33.0628 16.7786C34.1739 16.7786 34.7656 17.5648 34.898 18.3187C35.4256 17.9367 35.2349 17.0139 34.3203 16.3805C34.0756 16.2097 33.538 15.9343 33.538 15.9343H33.5462L31.1594 14.537L30.2409 14.0002L31.1594 8.71467L31.2035 8.40911ZM23.3253 9.02432L26.5545 10.122V15.2064L24.1778 13.95L23.3253 9.02432ZM23.9932 19.8245C24.5228 20.3533 25.0423 20.6811 25.5356 20.8619C25.4713 21.1172 25.3873 21.644 25.6259 22.1688C25.8204 22.5909 26.1734 22.9166 26.6808 23.1338C26.737 23.6565 27.0659 24.4426 27.9785 24.7904C27.5794 25.1946 27.1902 25.5744 27.0318 25.7292L23.3313 25.6709C23.2471 25.6288 23.1047 25.5342 23.0407 25.3996C23.0325 25.3815 23.0205 25.3715 23.0146 25.3514L23.6181 25.4499C23.6323 25.4519 23.6442 25.4519 23.6563 25.4519C23.7727 25.4519 23.8749 25.3715 23.895 25.2508C23.915 25.1162 23.8248 24.9935 23.6944 24.9734L22.9523 24.8567L23.7766 22.0039L22.9964 20.3572L21.745 21.6842L21.6686 24.6517L20.8284 24.5189C20.6979 24.4929 20.5736 24.5894 20.5516 24.72C20.5315 24.8507 20.6197 24.9734 20.752 24.9974L21.1051 25.0518C20.9788 25.1241 20.8966 25.1804 20.8865 25.1885L20.8142 25.2387L20.7942 25.3272C20.5897 26.1595 21.0529 26.9496 21.5525 27.3034L21.5343 27.408C21.5143 27.5367 21.5423 27.6613 21.6186 27.7659C21.6907 27.8725 21.8031 27.9368 21.9274 27.959C21.9536 27.9629 21.9815 27.9649 22.0057 27.9649C22.2222 27.9649 22.4109 27.8142 22.465 27.595C22.6515 27.6172 22.822 27.6211 22.9382 27.6211H23.0366L27.8923 28.4997L27.9745 28.4454C28.3615 28.1741 29.8357 27.0964 30.3191 26.7406C30.4514 26.8552 30.5998 26.9597 30.7803 27.0461C30.6239 27.5729 30.6139 28.3831 31.2337 29.0224H18.8588V21.8632C18.8588 21.1696 18.6563 20.4719 18.4175 19.8285H23.9932V19.8245ZM29.9941 26.3746C29.5028 26.7365 28.2392 27.6613 27.7819 27.983L23.3695 27.1889C23.3796 27.1487 23.3895 27.1105 23.3996 27.0703C23.4577 26.8411 23.5159 26.5274 23.52 26.1595L27.2284 26.2199L27.2986 26.1475C27.3548 26.0911 28.5301 24.9533 29.1298 24.2979C29.2721 24.4768 29.4506 24.6477 29.6832 24.7984C29.603 25.2326 29.6371 25.8519 29.9941 26.3746ZM22.6073 25.6087C22.7116 25.8278 22.9001 25.9745 23.0305 26.057C23.0265 26.2621 23.0065 26.5818 22.9523 26.8631C22.9402 26.9256 22.9243 26.9839 22.9061 27.0422C22.8962 27.0783 22.8861 27.1084 22.8781 27.1326C22.6836 27.1326 22.3004 27.1084 21.9876 26.9939C21.6407 26.8653 21.1232 26.2278 21.2435 25.5263C21.3939 25.4337 21.7409 25.2387 22.0659 25.2387C22.3166 25.2367 22.487 25.3553 22.6073 25.6087ZM22.1481 24.7261L22.2222 21.8772L22.86 21.1997L23.2612 22.0401L22.4709 24.7744L22.1481 24.7261ZM29.9541 39.4949C29.7134 39.4949 29.4907 39.499 29.2902 39.507L29.8157 37.8685C29.8979 37.6414 29.4827 37.3498 29.3122 37.0945C29.5709 37.2573 30.2409 37.6132 30.5638 37.7559C30.5297 37.8082 29.9541 39.4949 29.9541 39.4949ZM31.6027 37.6333L31.2597 39.4266C31.0412 39.4567 30.8085 39.4729 30.5698 39.4829L30.9308 37.7579C31.0391 37.2453 29.6653 37.0865 28.9874 36.0792C28.6564 36.4531 28.0326 36.5637 27.4069 36.5637C26.8353 36.5637 26.2637 36.4713 25.9166 36.4029C25.8284 36.3888 25.7441 36.3787 25.662 36.3787C25.4614 36.3787 25.2788 36.4411 25.1525 36.6541L25.0522 36.8231L23.181 36.3808L22.7157 37.1528C22.6495 37.2774 22.6454 37.384 22.7518 37.5006L22.8781 37.6393C22.7918 37.9127 22.4028 38.3248 22.4028 38.3248L22.1241 37.9771C21.9033 37.7298 21.9395 37.2794 22.1702 36.8613L22.9122 35.6047L24.4967 35.834L24.25 35.271C23.9191 34.5271 24.4225 33.5802 24.4766 33.0353C24.4586 33.2002 24.3081 33.2364 24.1316 33.2364C23.9712 33.2364 23.7927 33.2063 23.6743 33.2063C23.6282 33.2063 23.5881 33.2103 23.5661 33.2264L23.1368 33.4876L22.7979 33.1882C22.7577 33.1299 22.7437 32.9951 22.844 32.8946L23.6282 32.0141L22.7017 30.9304L23.9993 31.5838L24.3943 31.1032C24.5028 31.2098 24.4566 31.4893 24.4566 31.4893C24.8617 31.4994 25.9968 32.1286 26.0571 33.5963C26.0611 33.6405 26.0611 33.6907 26.0611 33.739C26.0611 33.739 26.0712 33.7571 26.0912 33.7872C26.1714 33.8978 26.392 34.1813 26.6727 34.2074L28.4659 34.3843H28.4738C28.6705 34.3843 29.0616 34.1532 29.5629 34.1532C29.8357 34.1532 30.1405 34.2236 30.4655 34.4286C30.4655 34.4286 30.6279 34.3 30.8927 34.2858C30.9127 34.2839 30.9349 34.2839 30.9549 34.2839C31.7592 34.2839 32.0921 35.0116 32.5233 35.6167C32.8483 36.0771 33.2815 36.7607 33.2815 36.7607C33.121 36.9517 32.9725 37.0563 32.7239 37.0563C32.6558 37.0563 32.5774 37.0502 32.4932 37.0341C31.6307 36.8753 31.5065 35.0981 31.0151 34.9574C30.989 34.9493 30.961 34.9473 30.9368 34.9473C30.7784 34.9473 30.7083 35.088 30.7083 35.088C30.9327 35.6932 30.8024 35.9384 31.0431 36.4049C31.2236 36.7506 31.5445 37.0362 31.6768 37.1708C31.6768 37.1749 31.6408 37.4363 31.6027 37.6333ZM21.9736 35.9364L22.0558 36.1435C22.0016 36.3245 21.38 36.5818 21.38 36.5818L21.2454 36.2883C21.1031 35.9747 21.1331 35.4459 21.5664 35.1222L22.5732 34.507L23.6403 34.7342C23.6202 35.074 23.8227 35.3273 23.8227 35.3273L22.7036 35.1122L22.0338 35.5765C21.9214 35.655 21.9134 35.8017 21.9736 35.9364ZM31.7712 39.3281L32.0781 37.7238C32.0941 37.6292 32.1141 37.5187 32.1282 37.4263C32.2144 37.4624 32.3067 37.4925 32.4069 37.5106C32.5212 37.5327 32.6275 37.5428 32.7239 37.5428C33.1933 37.5428 33.466 37.2955 33.6485 37.0845L33.8851 36.8089L33.6926 36.5074C33.6746 36.4772 33.2494 35.8017 32.9204 35.3393C32.8562 35.2489 32.7939 35.1583 32.7319 35.0598C32.3588 34.501 31.8915 33.7993 30.9549 33.7993L30.8706 33.8013C30.7162 33.8114 30.5839 33.8416 30.4776 33.8818C30.1827 33.7431 29.8798 33.6726 29.5649 33.6726C29.1778 33.6726 28.8509 33.7792 28.6343 33.8536C28.5721 33.8717 28.516 33.8918 28.4719 33.8999L26.7209 33.727C26.6989 33.7229 26.6266 33.6807 26.5404 33.5761V33.5682L26.9195 33.4153C26.8131 32.1508 25.6018 31.3727 24.9259 31.1093C24.8958 30.9826 24.8357 30.856 24.7294 30.7535L24.3523 30.3956L24.0213 30.7937L23.8589 30.9967L21.408 29.9874L23.0025 31.994L22.3727 32.9489C22.142 33.1941 22.3968 33.4394 22.3968 33.4394L23.0465 33.8877L23.7205 33.6365C23.7445 33.6365 23.7646 33.6425 23.7866 33.6445C23.7546 33.7471 23.7125 34.1491 23.6843 34.2618L22.515 34.0305L21.2856 34.7261C20.6538 35.1906 20.5676 35.9606 20.8023 36.4873L20.9386 36.7869L21.1331 37.209L21.5624 37.0301C21.5684 37.0282 21.5745 37.0262 21.5783 37.0221C21.424 37.5167 21.4862 37.9871 21.7629 38.2968L22.0236 38.6264L22.3707 39.0667L22.7518 38.6566C22.8641 38.544 23.2271 38.1359 23.3394 37.786L23.4216 37.5187L23.2352 37.3136L23.205 37.2774L23.4137 36.9316L24.9399 37.2915L25.2829 37.3699L25.4654 37.0684L25.5657 36.9035C25.5837 36.8694 25.5897 36.8633 25.66 36.8633C25.7141 36.8633 25.7682 36.8694 25.8264 36.8814C26.402 36.99 26.9334 37.0442 27.4048 37.0442C27.8621 37.0442 28.1348 37.0262 28.4618 36.9175C28.4618 36.9175 29.2821 37.8504 29.3102 37.8867L28.8089 39.4386L28.7867 39.5332C27.8361 39.6096 27.3728 39.8186 26.8132 40.3796C26.0009 39.5714 25.4252 39.4869 23.2412 39.4869C20.6277 39.4869 18.8568 37.9509 18.8568 35.4981V29.5009H34.7656L34.7697 35.4981C34.7716 37.4885 33.6063 38.8758 31.7712 39.3281ZM35.2108 19.8245C34.9683 20.4679 34.7656 21.1655 34.7656 21.8591L34.7677 26.3344C33.835 26.1776 33.7247 25.1704 33.7206 25.1262L33.7026 24.9211L33.5021 24.903C33.0969 24.8648 32.8281 24.6919 32.6015 24.4707C32.1442 24.0124 32.1421 23.2684 32.1442 23.2625C32.1383 23.3007 31.6408 23.9983 32.2185 24.7602C32.4611 25.0819 32.8121 25.2789 33.2674 25.3573C33.3737 25.9162 33.7889 26.7044 34.7677 26.8249V29.0164H32.0158C30.7462 28.3087 31.2837 27.0623 31.3098 27.0099L31.4182 26.7727L31.1755 26.6803C29.8016 26.1695 30.1787 24.7945 30.1987 24.7362L30.2548 24.5351L30.0684 24.4466C28.9331 23.9199 29.0876 22.4985 29.1017 22.4402C28.7527 22.7237 28.6263 23.3027 28.867 23.8696C28.7366 24.0184 28.5622 24.1994 28.3716 24.3964C27.1963 24.0968 27.1603 23.0131 27.1603 22.9629L27.1581 22.796L27.0037 22.7357C26.5444 22.5648 26.2295 22.3094 26.075 21.9657C25.9007 21.5857 25.9627 21.1876 26.011 20.9967C26.1453 21.0268 26.2797 21.0489 26.408 21.0589C26.5404 21.0731 26.6768 21.0811 26.8132 21.0811H26.8212H26.8312C26.9676 21.0811 27.1021 21.0731 27.2344 21.0589C27.9664 20.9866 28.7868 20.671 29.6412 19.8226H35.2108V19.8245ZM30.9228 15.301L32.0098 15.9343H32.0259L32.2987 16.0931C31.6849 16.2641 31.2156 16.5716 30.8226 16.9757C30.8085 16.9878 30.7945 17.0038 30.7803 17.018C30.6901 17.1145 30.5998 17.2189 30.5156 17.3255C30.4996 17.3456 30.4835 17.3677 30.4655 17.3899C30.3812 17.4984 30.3031 17.609 30.2268 17.7256C30.2148 17.7457 30.2007 17.7658 30.1867 17.7839C30.0964 17.9186 30.0103 18.0634 29.924 18.2122C29.1498 19.5491 27.9143 20.3472 26.8153 20.3493C25.7182 20.3472 24.4827 19.5491 23.7084 18.2122C23.6242 18.0674 23.54 17.9267 23.4497 17.79C23.4316 17.7638 23.4156 17.7376 23.3996 17.7155C23.3234 17.605 23.2471 17.4965 23.1689 17.3939C23.1489 17.3657 23.1308 17.3436 23.1107 17.3196C23.0265 17.2169 22.9402 17.1145 22.854 17.0199C22.836 17.0058 22.8239 16.9878 22.8059 16.9717C22.4109 16.5676 21.9434 16.2619 21.3277 16.0931L21.6045 15.9343H21.6165L22.7036 15.301L23.8207 14.6596L26.8052 16.2881L26.8112 16.282L26.8191 16.2881L29.8036 14.6596L30.9228 15.301ZM29.4506 13.952L27.0719 15.2084V10.122L30.299 9.02432L29.4506 13.952ZM26.8132 9.56311L23.2752 8.16174C23.5761 7.44802 24.964 6.84088 26.8132 6.8389C28.6644 6.84088 30.0523 7.44802 30.3512 8.16174L26.8132 9.56311Z" fill="black"/>
<path d="M70.6269 30.84V22.7898H75.3375V19.8604H62.4863V22.7898H67.1969V30.84H70.6269ZM80.1403 19.8604H76.7103V30.84H80.1403V19.8604ZM82.6502 19.8604V30.84H85.8059V24.7736L91.6827 30.84H94.6096V19.8604H91.4539V25.8808L85.7144 19.8604H82.6502ZM101.351 26.6881L105.307 30.84H109.72L104.209 25.1195L109.514 19.8604H105.352L101.351 23.9893H100.436V19.8604H97.1205V30.84H100.436V26.6881H101.351ZM116.543 19.5605C112.084 19.5605 109.408 22.0978 109.408 25.3732C109.408 28.6487 112.084 31.186 116.543 31.186C120.98 31.186 123.655 28.6487 123.655 25.3732C123.655 22.0978 120.98 19.5605 116.543 19.5605ZM116.543 28.5103C114.325 28.5103 112.906 27.1724 112.906 25.3732C112.906 23.5741 114.325 22.2592 116.543 22.2592C118.738 22.2592 120.179 23.5741 120.179 25.3732C120.179 27.1724 118.738 28.5103 116.543 28.5103ZM136.229 19.8604H125.23V30.84H128.545V27.011H135.749V24.589H128.545V22.6514H136.229V19.8604ZM148.712 19.8604H137.712V30.84H141.028V27.011H148.232V24.589H141.028V22.6514H148.712V19.8604Z" fill="black"/>
</g>
<defs>
<clipPath id="clip0_2171_15305">
<rect width="148.8" height="48" fill="white"/>
</clipPath>
</defs>
</svg>
