<svg width="192" height="48" viewBox="0 0 192 48" fill="none" xmlns="http://www.w3.org/2000/svg">
<path d="M66.7198 28.3643C66.7036 26.9678 66.3928 25.5906 65.8076 24.3226C65.2225 23.0545 64.3763 21.9243 63.3243 21.0058C63.6649 20.0775 63.838 19.096 63.8355 18.1071C63.8355 17.5642 63.7808 17.0286 63.6814 16.513C62.9384 12.5804 59.491 9.59961 55.3597 9.59961H45.3402V28.0618C45.3402 31.6158 42.3018 34.5102 38.5664 34.5102C38.4488 34.5093 38.3311 34.5064 38.2136 34.5015C34.6424 34.3287 31.7912 31.5049 31.7912 28.0647V15.05C31.7912 14.1889 32.5011 13.489 33.3723 13.489H37.2949C37.5523 13.4913 37.8077 13.4428 38.0463 13.3463C38.285 13.2498 38.5023 13.1072 38.6858 12.9267C38.8693 12.7461 39.0154 12.5312 39.1157 12.2941C39.2161 12.057 39.2687 11.8025 39.2706 11.545C39.2706 10.4722 38.385 9.60105 37.2949 9.60105H33.3738C30.321 9.60105 27.8398 12.0447 27.8398 15.05V16.7953H27.8413H27.8398V28.0647L27.8413 28.2073C27.9262 33.8406 32.7013 38.3996 38.5678 38.3996C44.4819 38.3996 49.2944 33.7628 49.2944 28.0647V13.4876H55.3611C55.4014 13.4876 55.4403 13.489 55.4763 13.4948C57.9171 13.5567 59.8827 15.6015 59.8827 18.1071C59.8883 19.0285 59.6174 19.9304 59.1051 20.6962C58.5118 21.6121 58.6616 22.6201 59.5731 23.1298C60.541 23.649 61.3496 24.4213 61.9127 25.3643C62.4757 26.3073 62.772 27.3855 62.7699 28.4838C62.7699 31.5841 60.4573 34.143 57.4995 34.4756C57.2838 34.4982 57.067 34.5098 56.8501 34.5102H50.4622C49.3736 34.5102 48.4894 35.3828 48.4894 36.4556C48.4894 37.5313 49.3736 38.3996 50.4622 38.3996H56.8486C62.2875 38.3996 66.717 33.95 66.717 28.4852C66.7213 28.4434 66.7198 28.4046 66.7198 28.3643Z" fill="#CC163F"/>
<path d="M91.5652 13.98C91.905 13.98 92.0202 14.1787 91.905 14.4638L86.0773 30.635C85.0549 33.5078 83.4623 34.474 80.5348 34.474C79.7673 34.474 78.7722 34.3876 77.806 34.0766C77.3221 33.934 77.2084 33.8505 77.2948 33.4516L77.7498 31.0929C77.8333 30.6667 77.9759 30.7243 78.4036 30.7804C79.0285 30.8654 79.4836 30.8956 79.9674 30.8956C81.2476 30.8668 81.8423 30.7516 82.2973 29.4729L82.7538 28.1942H82.0137C81.1021 28.1942 80.8199 27.9955 80.421 26.9731L75.417 14.5214C75.2471 14.1528 75.4746 13.9828 75.8145 13.9828H79.1121C79.7644 13.9828 79.9069 14.098 80.0495 14.5502L82.1533 20.3188L83.746 25.0104H83.9447L85.4495 20.0928L87.2409 14.5776C87.4122 14.0952 87.526 13.98 88.1207 13.98H91.5652V13.9785V13.98ZM94.3473 32.2564V15.9974C94.3473 14.6899 94.8023 14.0649 96.166 14.0649H107.253C107.679 14.0649 107.764 14.206 107.764 14.6899V17.2185C107.764 17.6174 107.649 17.7585 107.253 17.7585H98.6673V21.2836H102.816C109.58 21.2836 110.036 25.7736 110.036 27.706C110.036 31.3161 107.051 33.9585 103.213 33.9585H96.0537C94.6597 33.9614 94.3473 33.4776 94.3473 32.2564ZM102.819 24.8952H98.6687V30.18H102.79C104.95 30.18 105.548 28.5614 105.548 27.48C105.548 26.004 104.581 24.8952 102.819 24.8952ZM117.57 33.3652C117.57 33.8764 117.455 33.9628 116.888 33.9628H113.902C113.447 33.9628 113.249 33.8203 113.249 33.3652V15.7713C113.249 14.7201 113.589 14.0361 114.954 14.0361H121.918C126.039 14.0361 128.57 16.6512 128.57 20.2612C128.57 22.1937 127.745 26.7412 121.35 26.7412H117.57V33.3652ZM121.264 17.8464H117.567V23.2464H121.291C123.225 23.2464 124.105 22.054 124.105 20.5449C124.108 19.4664 123.568 17.8464 121.264 17.8464ZM131.269 19.4923C131.269 19.1524 131.411 19.0387 131.78 19.0387H134.821C135.276 19.0387 135.361 19.1251 135.361 19.4937V28.1913H135.504C136.981 25.7462 137.239 25.2912 137.722 24.5524C138.431 23.4436 139.314 21.9936 140.563 19.9761C141.103 19.2086 141.359 19.0387 142.325 19.0387H143.718C144.769 19.0387 145.31 19.3785 145.31 20.6299V33.5064C145.31 33.875 145.166 33.9614 144.799 33.9614H141.729C141.301 33.9614 141.189 33.9052 141.189 33.5064V24.9801H141.046C140.194 26.2876 139.426 27.6225 138.601 28.9027C137.723 30.2664 136.868 31.6603 135.959 33.024C135.448 33.8188 135.106 33.9614 134.196 33.9614H132.86C131.553 33.9614 131.269 33.4228 131.269 32.3702V19.4923ZM153.638 33.3652C153.638 33.8764 153.523 33.9628 152.955 33.9628H149.972C149.517 33.9628 149.318 33.8203 149.318 33.3652V15.7713C149.318 14.7201 149.659 14.0361 151.023 14.0361H157.988C162.108 14.0361 164.639 16.6512 164.639 20.2612C164.639 22.1937 163.814 26.7412 157.421 26.7412H153.638V33.3652H153.636H153.638ZM157.331 17.8464H153.638V23.2464H157.362C159.294 23.2464 160.175 22.054 160.175 20.5449C160.175 19.4664 159.635 17.8464 157.333 17.8464H157.331Z" fill="black" fill-opacity="0.85"/>
</svg>
