<svg width="40" height="40" viewBox="0 0 40 40" fill="none" xmlns="http://www.w3.org/2000/svg">
<circle cx="20" cy="20" r="20" fill="#FFC900"/>
<path fill-rule="evenodd" clip-rule="evenodd" d="M29.8396 23.8418C29.2887 23.9173 29.0965 24.1809 28.519 24.4418C27.169 23.7519 25.805 23.0764 24.7996 22.0414C25.2775 20.8885 24.7811 19.4858 24.9197 18.4414C24.8253 18.2135 24.2717 18.1813 24.4398 17.4813C24.0322 17.7713 24.3224 17.2938 24.5592 17.2414C24.6681 17.0298 25.0012 17.0434 25.0391 16.7615C25.5097 16.407 25.4132 15.9565 25.8795 15.8014C25.6509 16.361 24.4036 17.8324 25.6396 16.5215C25.859 16.2889 26.1965 16.0686 26.0001 15.8014C27.2675 16.3699 27.0367 16.0865 28.5195 16.0414C28.4824 16.2043 28.219 16.1409 28.0396 16.1615C29.3085 16.6961 30.5452 15.2055 31.5195 14.9615C31.707 14.0304 32.552 13.4199 32.48 12.2014C32.378 10.486 30.8485 9.23242 29.84 8.48128C28.5909 8.34177 27.536 8.40717 26.84 9.08128C26.515 8.9728 27.1146 8.81275 27.0795 8.60137C25.2211 8.77927 23.4376 12.0598 25.0396 14.2413C24.4505 14.9324 23.6791 15.4409 23.2396 16.2813C21.9166 15.3022 19.1517 15.0973 17.4796 16.2813C15.9055 14.7353 14.3791 13.1418 12.7997 11.6014C13.6747 9.61143 12.4787 8.04177 10.9997 7.52148H9.6796C8.68006 7.92193 7.79166 8.43354 7.75949 9.80137C7.63895 9.80137 7.61641 9.70427 7.51953 9.68128V10.6413C7.72042 12.5423 10.026 13.6357 11.7195 12.9212C13.3376 14.4632 14.9829 15.9777 16.3994 17.7212C14.7648 19.5208 15.9793 22.5543 17.1195 23.9612C16.7579 24.7197 16.2405 25.3221 15.9195 26.1208C13.2764 24.8075 10.751 27.0929 10.7595 29.2409C10.7784 34.0131 18.9309 34.2469 17.8395 28.401C17.7116 27.7155 17.2629 27.3769 16.8794 26.7211C17.2654 25.9077 17.8375 25.2792 18.1995 24.4412C20.427 25.4013 22.9584 24.3747 24.0795 23.1207C25.2795 24.0006 26.694 24.6667 27.9199 25.5207C27.5853 27.2841 28.432 28.4542 29.48 28.7607C33.2574 29.8669 34.3135 23.2285 29.8398 23.8419L29.8396 23.8418ZM29.3596 10.4018C30.2867 11.5349 30.9811 13.1389 29.5992 14.122C27.9568 15.2909 25.7672 13.7264 25.8797 12.2018C26.0016 10.5398 28.1827 8.99892 29.3596 10.4018ZM10.8796 11.722C7.70867 11.9478 8.89056 8.7675 11.1196 9.44207C11.6915 10.045 11.5031 11.3313 10.8796 11.722ZM16.0395 30.682C15.5245 30.3449 15.37 31.123 14.8395 31.282C12.7931 31.8965 11.45 29.459 12.6794 27.442C14.2948 26.3614 16.7664 27.2521 16.8794 29.1215C16.6781 29.7204 16.3475 30.1898 16.0395 30.682V30.682ZM23.7189 20.842C23.483 22.869 20.9379 24.6476 18.9189 23.3621C18.8729 22.8842 18.7823 23.2005 18.3189 22.8822C18.5443 22.4442 17.6745 21.6851 17.1189 20.962C17.3443 20.1084 17.5265 18.4031 18.439 17.602C18.8511 17.494 19.4084 17.5315 19.5189 17.1221C21.6432 16.9544 24.0443 18.0471 23.7189 20.842ZM30.4395 27.802C29.6504 27.7794 29.4725 26.783 29.3596 25.762C31.129 23.381 33.018 27.875 30.4395 27.802Z" fill="black"/>
</svg>
