<svg width="40" height="40" viewBox="0 0 40 40" fill="none" xmlns="http://www.w3.org/2000/svg">
<circle cx="20" cy="20" r="20" fill="#FFC900"/>
<path d="M25.6849 17.5936C25.5003 17.2896 26.6595 18.0287 27.005 17.5936C27.0646 18.0537 27.4599 18.1787 27.7251 18.4336C27.5787 18.447 27.4412 18.4695 27.4852 18.6736C28.8122 19.6995 29.4187 17.5937 29.8852 16.8735C30.0832 16.8751 29.9526 17.2066 30.1251 17.2336C32.1912 15.1681 30.6162 11.6045 27.4852 11.9536C26.8687 11.2112 26.9263 10.344 27.6053 9.79357C28.9758 9.6545 29.7617 9.92549 30.8448 9.43352C31.3122 7.89802 29.8193 8.18642 28.8053 8.2335C28.6303 7.9681 28.7243 7.43441 28.4448 7.27344H28.2053C28.1847 7.41339 28.0153 7.40402 27.8448 7.39353C27.6718 7.6605 27.5432 7.97211 27.6053 8.47343C25.8077 8.72544 25.2944 10.9884 25.8053 12.0735C26.4879 13.5235 30.2803 13.0344 29.6452 15.4336C29.2122 17.0686 26.7792 15.8936 25.5653 16.3936C25.6839 16.9077 25.2714 17.8517 25.685 17.5936L25.6849 17.5936Z" fill="black"/>
<path d="M30.9644 31.3942C30.9229 29.7026 30.626 27.7042 30.8443 26.2345C30.9688 25.397 31.0644 25.8519 30.9644 25.0345C30.9034 24.5361 30.9264 24.0776 31.2043 23.8345C30.9818 24.1901 30.8398 23.03 30.8438 22.8744C30.9709 22.8914 31.0389 22.9684 31.0697 23.0814C31.0912 22.3818 31.5101 21.6708 30.8438 20.9543C30.4273 21.3624 29.6044 20.7478 29.0438 20.8342C28.6463 20.8963 28.5043 21.2072 28.2039 21.1947C28.143 21.1918 27.8459 20.8532 27.724 20.8342C27.343 20.7746 26.078 20.7786 25.9235 20.8342C24.641 21.3007 25.509 23.4472 25.0836 24.0742C25.2081 24.7568 25.4787 25.6521 25.5635 26.2343C25.4514 26.1459 25.382 26.0158 25.3235 25.8738C25.1101 27.1307 25.2606 29.5327 25.3235 30.7939C24.7369 31.302 23.8186 30.7955 23.2841 31.0339C22.4506 28.933 23.7881 25.4193 22.4437 24.0738C21.0006 24.2993 19.4276 23.8767 17.7638 24.1939C17.1243 24.6805 17.2548 25.6035 17.5238 26.3535C17.3214 27.6656 17.3149 29.2835 17.4037 31.0335C16.6037 31.1931 15.7093 31.0469 15.0037 31.0335C14.9158 29.8165 15.0633 28.402 14.7638 27.5536C14.4883 26.7721 11.0187 27.4225 9.60371 27.5536C9.56778 28.9716 9.64679 29.6971 9.60371 31.3935C8.86668 31.4971 7.58028 31.05 7.6836 31.9936C8.38114 32.7165 9.97714 32.4735 11.4037 32.4735C12.8118 32.4735 14.3077 32.3404 15.3638 32.5936H15.4839C21.1684 32.0025 27.497 32.8206 32.6439 32.1136V31.6337C32.414 31.2248 31.545 31.4542 30.9644 31.3942ZM13.3244 31.0348C12.4034 31.3214 11.8308 31.3038 10.9244 31.3949C10.4974 30.7419 10.7543 29.4049 10.6844 28.3948C12.2155 28.4553 12.1534 28.9602 13.2045 28.9948C13.3083 29.3602 13.3284 30.0308 13.3244 31.0348ZM18.7244 31.2743C18.7958 29.2969 18.6945 27.5738 18.7244 25.3943C19.7614 25.3007 20.4628 25.8423 21.0043 25.6342C21.3232 26.5742 21.3067 29.1278 21.3643 31.0343C20.4889 31.0412 19.6594 31.4082 18.7244 31.2742L18.7244 31.2743ZM29.4044 25.0348C29.066 26.7748 29.4258 29.378 29.4044 31.0349C28.6849 31.0858 27.3399 31.176 26.6443 31.2744C27.0512 28.6018 26.4262 25.2269 26.7644 22.3943C27.9019 22.4354 28.4153 22.4762 29.2845 22.8742C29.0019 23.0642 29.1385 23.2653 29.4039 23.3541C28.9528 23.6771 29.0535 24.6142 29.4044 25.0347L29.4044 25.0348Z" fill="black"/>
<path d="M31.0713 23.0801C31.0684 23.1716 31.0713 23.262 31.0854 23.3531C31.0988 23.2446 31.0919 23.1555 31.0713 23.0801Z" fill="black"/>
</svg>
