<svg width="40" height="40" viewBox="0 0 40 40" fill="none" xmlns="http://www.w3.org/2000/svg">
<circle cx="20" cy="20" r="20" fill="#FFC900"/>
<path d="M16.7044 26.144C19.6384 26.144 21.8344 23.804 21.8344 19.7C21.8344 15.596 19.6384 13.256 16.7044 13.256C13.7524 13.256 11.5564 15.596 11.5564 19.7C11.5564 23.804 13.7524 26.144 16.7044 26.144ZM16.7044 24.542C14.7244 24.542 13.3564 22.922 13.3564 19.7C13.3564 16.478 14.7244 14.858 16.7044 14.858C18.6664 14.858 20.0344 16.478 20.0344 19.7C20.0344 22.922 18.6664 24.542 16.7044 24.542ZM22.7895 13.4V14.966H25.6335V26H27.4155V13.4H22.7895Z" fill="black"/>
</svg>
