<svg width="40" height="40" viewBox="0 0 40 40" fill="none" xmlns="http://www.w3.org/2000/svg">
<circle cx="20" cy="20" r="20" fill="#FFC900"/>
<path d="M13.9886 26.144C16.9226 26.144 19.1186 23.804 19.1186 19.7C19.1186 15.596 16.9226 13.256 13.9886 13.256C11.0366 13.256 8.84056 15.596 8.84056 19.7C8.84056 23.804 11.0366 26.144 13.9886 26.144ZM13.9886 24.542C12.0086 24.542 10.6406 22.922 10.6406 19.7C10.6406 16.478 12.0086 14.858 13.9886 14.858C15.9506 14.858 17.3186 16.478 17.3186 19.7C17.3186 22.922 15.9506 24.542 13.9886 24.542ZM31.8084 21.356H29.4144V18.62H27.7224V21.356H22.8804L29.0544 13.4H27.1104L20.6664 21.644V22.904H27.6684V26H29.4144V22.904H31.8084V21.356Z" fill="black"/>
</svg>
