<svg width="40" height="40" viewBox="0 0 40 40" fill="none" xmlns="http://www.w3.org/2000/svg">
<circle cx="20" cy="20" r="20" fill="#FFC900"/>
<path d="M14.8675 26.144C17.8015 26.144 19.9975 23.804 19.9975 19.7C19.9975 15.596 17.8015 13.256 14.8675 13.256C11.9155 13.256 9.71947 15.596 9.71947 19.7C9.71947 23.804 11.9155 26.144 14.8675 26.144ZM14.8675 24.542C12.8875 24.542 11.5195 22.922 11.5195 19.7C11.5195 16.478 12.8875 14.858 14.8675 14.858C16.8295 14.858 18.1975 16.478 18.1975 19.7C18.1975 22.922 16.8295 24.542 14.8675 24.542ZM24.0666 24.434L27.9186 20.726C29.6286 19.088 29.9886 17.99 29.9886 16.766C29.9886 14.606 28.2966 13.256 25.6686 13.256C23.7066 13.256 22.0326 13.958 21.0606 15.164L22.2846 16.226C23.0586 15.29 24.1566 14.858 25.5066 14.858C27.2706 14.858 28.1886 15.65 28.1886 16.946C28.1886 17.738 27.9366 18.53 26.6046 19.826L21.4746 24.776V26H30.5286V24.434H24.0666Z" fill="black"/>
</svg>
