<svg width="40" height="40" viewBox="0 0 40 40" fill="none" xmlns="http://www.w3.org/2000/svg">
<circle cx="20" cy="20" r="20" fill="#FFC900"/>
<path d="M14.9466 26.144C17.8806 26.144 20.0766 23.804 20.0766 19.7C20.0766 15.596 17.8806 13.256 14.9466 13.256C11.9946 13.256 9.79857 15.596 9.79857 19.7C9.79857 23.804 11.9946 26.144 14.9466 26.144ZM14.9466 24.542C12.9666 24.542 11.5986 22.922 11.5986 19.7C11.5986 16.478 12.9666 14.858 14.9466 14.858C16.9086 14.858 18.2766 16.478 18.2766 19.7C18.2766 22.922 16.9086 24.542 14.9466 24.542ZM26.4526 18.692L29.7466 14.624V13.4H21.4306V14.966H27.4966L24.3286 18.854V20.114H25.3366C27.4966 20.114 28.4506 20.978 28.4506 22.31C28.4506 23.678 27.3706 24.542 25.4806 24.542C23.9326 24.542 22.5286 23.984 21.6826 23.192L20.8546 24.614C21.9166 25.568 23.6806 26.144 25.4806 26.144C28.6846 26.144 30.2506 24.416 30.2506 22.292C30.2506 20.348 28.9726 18.926 26.4526 18.692Z" fill="black"/>
</svg>
