<svg width="40" height="40" viewBox="0 0 40 40" fill="none" xmlns="http://www.w3.org/2000/svg">
<circle cx="20" cy="20" r="20" fill="#FFC900"/>
<path fill-rule="evenodd" clip-rule="evenodd" d="M22.2806 11.6727C22.6181 11.726 22.6211 11.4477 22.9556 11.5039C23.2812 11.2937 23.7697 11.2464 24.0539 10.9977C24.495 10.903 24.6874 10.5625 25.1522 10.4915C25.6347 10.4382 26.0995 10.3671 26.1646 9.89941C26.3452 9.56784 26.2475 8.88695 26.0817 8.63236C26.0492 8.24159 25.7147 8.15279 25.6584 7.78866C25.5045 7.54887 25.1788 7.48078 25.0693 7.19659C24.942 7.06929 24.714 7.04561 24.646 6.8591C24.4239 6.77029 24.1279 6.75846 23.8023 6.77326C23.6365 6.91536 23.2812 6.87095 23.1273 7.02785C22.9556 6.77621 23.0621 6.2463 22.7898 6.09829C22.627 5.86442 22.4612 5.63943 22.1977 5.50621C20.7442 5.32859 19.4357 5.00295 17.7216 5.08288C17.624 5.09768 17.5707 5.06513 17.5529 5H17.4671C17.4848 5.07993 17.4315 5.07104 17.3842 5.08288C17.0082 5.19241 16.6914 5.39965 16.5405 5.75785C16.2207 5.94436 16.4635 6.69332 16.1171 6.85614C14.6429 6.79101 13.6008 7.15514 12.9939 7.95444C12.9407 8.65309 13.435 8.80703 13.7547 9.13563C14.0804 9.45831 14.4771 9.70698 14.936 9.89644C15.309 10.1688 15.7797 10.3494 16.1171 10.6573C16.4665 10.8349 16.9283 11.2849 17.47 10.9947C17.8874 10.0089 16.9105 9.77803 16.5405 9.30437C16.1852 9.20964 15.9928 8.94912 15.6968 8.79814C15.5695 8.70045 15.3504 8.69453 15.2734 8.54355C15.1994 8.49323 14.7909 8.36593 15.0188 8.28896H15.9484C16.2059 8.23568 16.6766 8.39849 16.7921 8.20607C17.1651 8.09653 17.1384 8.20903 17.3842 8.37481C17.5174 8.585 17.9763 8.41033 18.145 8.37481C18.367 8.14686 18.367 7.58736 18.145 7.36237C18.0621 7.15218 17.6713 6.68147 18.0621 6.51865C18.7607 6.60746 19.5156 6.64003 20.2587 6.6874C20.2676 6.8739 20.6169 6.72293 20.7649 6.77326C20.8656 6.87095 21.0639 6.86798 21.2711 6.8591C21.6471 6.87686 21.6175 7.3002 21.8632 7.45118C22.0171 7.74129 22.4967 7.57846 22.7928 7.53702C22.849 7.8745 23.2102 7.90707 23.6365 7.87451C23.9414 7.57551 24.196 8.04325 24.3114 8.21199C24.5423 8.37777 24.7733 8.54058 24.8177 8.88695C24.8828 9.28956 24.2907 9.03498 24.2256 9.3103C23.9266 9.34878 23.7638 9.52343 23.5506 9.64776C22.997 9.76914 22.6418 10.0918 22.1149 10.2398C21.659 10.2842 21.4517 10.9533 21.6915 11.421C22.0053 11.3855 21.9106 11.7615 22.2806 11.6727ZM31.067 28.9879V27.2146C30.9486 26.1518 30.8953 25.021 30.7295 24.0056C30.3062 23.2447 30.1789 22.1908 29.7171 21.4715C29.3677 20.6396 28.971 19.8522 28.45 19.192C28.1037 18.3572 27.5116 17.7651 27.0142 17.0813C26.363 16.5514 25.8331 15.9001 25.241 15.308C24.646 14.713 23.9384 14.26 23.299 13.7035C22.9378 13.4726 22.4908 13.3305 22.1178 13.1114C21.7507 13.1676 21.8898 12.7206 21.8632 12.4364C21.9224 12.096 21.7803 11.9539 21.7774 11.6756C21.733 11.6075 21.6885 11.5395 21.6915 11.421H21.4369C21.2711 11.2789 20.91 11.3293 20.6761 11.2523H19.7466C19.2315 11.1487 18.5979 11.1605 17.9733 11.1694C17.4789 11.0273 17.1118 11.4033 16.4517 11.3381C16.0816 11.2789 15.975 11.4832 15.6079 11.421C15.2557 11.5099 15.0366 11.2434 14.8471 11.421C14.6192 11.5335 14.3972 11.649 14.1722 11.7585C13.1212 12.1138 12.8104 13.2121 12.2302 14.038C11.6411 14.2097 11.2296 14.5561 10.7115 14.7988C10.1254 14.9735 9.37045 14.9764 9.44446 15.8113C9.56584 15.9149 9.57176 16.1339 9.69905 16.2346C9.8974 16.2316 9.94771 16.3797 10.2053 16.3204C10.4687 16.1902 10.9128 16.2376 11.052 15.983C11.6588 15.7757 12.1295 15.4264 12.6565 15.1393C12.7808 15.0949 12.8696 15.0149 12.9939 14.9705C13.4972 14.4317 13.7814 13.6739 14.261 13.1114C14.7702 12.7117 15.7353 12.3447 16.6263 12.6052C16.9076 12.546 16.7625 12.7798 16.7092 12.8598C16.5523 12.8716 16.428 12.916 16.3717 13.0285C16.1586 13.1529 15.907 13.2387 15.7797 13.4518C15.3445 13.6916 14.9655 13.9877 14.6813 14.3814C13.9235 14.9735 13.3699 15.7728 12.7394 16.4921C12.2095 17.3122 11.5966 18.0523 11.1348 18.9404C10.6641 19.8226 10.1757 20.684 9.78195 21.6432C9.38526 22.5964 9.15435 23.7184 8.85239 24.7664C8.57412 25.1631 8.57412 25.838 8.26032 26.2022C8.2544 26.8712 8.02349 27.3153 8.00573 27.9754C8.00277 28.6533 7.94652 29.3875 8.26032 29.7487C8.4113 30.2727 8.52084 30.8411 8.93529 31.1016C9.19284 31.519 9.48888 31.8979 9.86485 32.1998C10.0336 32.3686 10.2645 32.4752 10.3711 32.7061C10.5043 32.8837 10.8418 32.8541 10.9631 33.0436C11.2236 33.0347 11.3657 33.1472 11.5552 33.2123C11.7772 33.2449 12.02 33.2567 12.1473 33.3811C12.6594 33.3426 12.8992 33.5291 13.2456 33.2982C13.6985 33.2982 14.181 33.3307 14.4297 33.1294C14.9123 33.3781 15.3326 33.6889 15.6968 34.059C15.9573 34.1655 16.1408 34.3461 16.3717 34.4823C16.573 34.6185 16.8572 34.6718 17.0467 34.8198C17.5233 34.879 17.8904 35.0448 18.4825 34.9885C19.1338 34.9382 19.7584 34.8553 20.087 34.4823C20.2261 34.284 20.5814 34.2988 20.9307 34.3136C21.1675 34.2129 21.4162 34.1241 21.6915 34.059C22.8016 33.8162 23.524 33.1886 24.3085 32.6232C24.6075 32.635 24.3322 32.7446 24.4772 32.9607C24.4861 33.1738 24.6016 33.2893 24.8147 33.2982C25.09 33.4728 25.4275 33.5853 25.7442 33.7215C26.5583 33.9139 27.3073 33.9346 28.1954 33.8902C28.7757 33.5883 29.3145 33.1916 29.8 32.7919C29.9539 32.6646 30.1078 32.6557 30.2233 32.5373C30.318 32.4396 30.3595 32.2591 30.4749 32.114C30.6585 31.889 30.9811 31.7351 30.9811 31.3532C31.0848 31.1193 31.2269 30.9239 31.2357 30.5924C31.2505 29.9855 30.9545 29.6895 31.067 28.9879ZM9.52736 27.4662C9.72275 27.7238 9.55694 28.3366 9.61319 28.7333C9.57174 28.9997 9.76418 29.0323 9.69609 29.3253C9.35861 28.9879 9.60433 28.0672 9.52736 27.4662ZM9.69905 29.4082C9.82339 29.4793 9.87965 29.6214 9.86781 29.8316C9.74052 29.7575 9.68425 29.6184 9.69905 29.4082ZM11.2177 27.2975C11.0963 27.3508 11.2266 27.3981 11.2177 27.2975C11.1378 26.9452 11.4694 27.2797 11.2177 27.2975ZM20.1699 13.363H19.4949C19.4831 13.0048 20.1551 13.0581 20.1699 13.363ZM18.0591 12.1789C18.2071 11.9509 18.6571 12.3595 18.7341 12.1789C18.9976 12.3388 18.6009 12.546 18.6482 12.771C18.5979 13.0759 18.9058 13.0196 18.9028 13.2772C18.6157 13.2535 18.4173 13.144 18.0591 13.1943C18.2131 12.8124 18.2545 12.5371 18.0591 12.1789ZM24.4772 32.2798C24.4151 32.0489 24.646 32.1081 24.646 31.9423C24.8532 31.9956 24.6933 32.3686 24.4772 32.2798ZM29.0391 30.9299C28.8378 31.066 28.5537 31.1193 28.3642 31.2673C27.112 31.2377 26.1913 31.371 25.1551 31.1815C25.0397 30.9032 24.9864 30.5628 24.6489 30.5065C23.7874 30.4059 23.6898 31.066 23.299 31.4361C23.0385 31.4568 22.9704 31.67 22.7928 31.7736C22.5352 31.7706 22.4642 31.9512 22.2865 32.0252C21.9491 32.1939 21.6116 32.3627 21.2741 32.5314C19.714 32.5699 18.4825 32.2828 17.3043 31.9394C16.9313 31.9038 16.7122 32.0222 16.5434 32.191C16.1734 31.9956 16.0283 31.5811 15.6997 31.3473C15.7264 31.0394 15.6849 30.7966 15.6168 30.5865C15.4836 30.3822 15.3149 30.2134 15.1106 30.0802C14.2018 29.8493 13.6778 30.5006 13.8436 31.6019C13.7133 31.4213 13.5387 31.2881 13.4203 31.0956C13.5061 30.8736 13.5209 30.5776 13.5031 30.2519C13.5594 29.799 13.7755 29.5119 13.8406 29.0708C12.9762 28.8073 12.6772 29.8108 12.4048 30.4207C12.1532 30.2786 12.0052 30.0329 11.8128 29.8286C11.7565 28.2803 12.3752 27.407 12.6565 26.1962C12.4137 25.9772 12.1591 26.2584 11.9815 26.365C11.9016 26.4627 11.57 26.9926 11.5582 26.6196C11.8216 26.3206 11.795 25.7315 12.0644 25.4384C12.1502 24.9914 12.3812 24.6835 12.4848 24.2542C12.695 23.9286 12.7778 23.4786 12.991 23.1559C13.1124 22.8273 13.3936 22.3004 13.1597 21.8889C12.2864 21.9155 12.0555 22.5875 11.7239 23.1559C11.4782 23.0849 11.7743 22.8836 11.7239 22.7326C11.7121 22.5224 11.8572 22.4721 11.8927 22.3093C11.9371 21.9895 12.1562 21.8415 12.1473 21.4656C12.2716 21.3945 12.2686 21.1932 12.316 21.0422C12.4403 20.9712 12.4966 20.8291 12.4848 20.6189C12.6446 20.4117 12.8045 20.2074 12.8223 19.8581C12.766 19.6065 12.6417 19.938 12.4848 19.8581C13.0768 18.7035 13.8495 17.7296 14.5955 16.7319C15.3445 15.7639 16.2326 14.935 16.875 13.8604C17.0171 13.8633 17.094 13.7982 17.1296 13.6916C17.917 13.8041 18.6749 13.9462 19.4091 14.115C19.7318 14.2156 20.1432 14.2275 20.4215 14.3696C20.7531 14.4288 21.1053 14.4732 21.3511 14.6212C21.5376 14.5561 21.6797 14.4436 21.9431 14.4525C22.5974 14.784 23 15.3642 23.6306 15.7195C23.8259 16.2287 24.3677 16.3915 24.5601 16.9036C25.087 17.0783 25.2144 17.6556 25.6584 17.9161C25.6939 18.2476 26.0314 18.2772 26.0817 18.591C26.2534 18.7568 26.36 18.9907 26.5021 19.1831C26.7863 19.5739 27.0142 20.0239 27.2629 20.4502C27.5471 20.8676 27.7277 21.3945 28.0237 21.8001C27.9912 22.1701 28.2635 22.2323 28.2783 22.5609C28.5033 22.6734 28.4204 23.0938 28.6158 23.2359C28.6721 23.8842 29.0658 24.195 29.0391 24.9262C29.2197 25.4206 29.1428 26.1726 29.2938 26.6995C29.2257 28.1323 29.4773 29.876 29.0391 30.9299ZM21.0165 22.4839C20.4777 22.5165 20.2498 22.2382 19.6637 22.3152C19.6341 21.7527 19.3439 21.4537 19.3262 20.8794C19.0775 20.8468 19.2581 20.385 19.0716 20.2873C18.9887 20.0623 18.8969 19.8433 18.9028 19.5265C19.8857 19.3548 21.3244 19.639 21.3511 18.5141C21.1053 17.623 19.2166 17.8954 18.3937 18.0907C18.2664 17.7385 18.2989 17.2293 17.8874 17.1612C17.8697 17.0961 17.8164 17.0635 17.7187 17.0753C17.6299 17.2678 17.5263 17.4483 17.3812 17.5816C17.3812 17.9457 17.5766 18.1174 17.55 18.5111C17.3901 18.6058 17.1503 18.6177 16.9579 18.6799C16.6885 18.2447 16.8128 17.4158 16.197 17.327C16.0076 17.5046 15.7471 17.6082 15.7767 18.0019C15.8211 18.3513 15.901 18.668 15.9454 19.0144C15.6879 19.4051 15.2823 19.6449 14.933 19.9439C14.8264 20.2311 14.6814 20.4798 14.5097 20.7048C14.4948 20.832 14.5392 21.0156 14.4268 21.0422V22.3093C14.5185 22.4691 14.637 22.6053 14.6784 22.8155C15.3001 23.3188 16.1971 23.5497 17.2125 23.6592C17.4523 24.3194 17.624 25.0506 17.8874 25.687C18.0591 26.4449 18.447 26.9866 18.5624 27.7978C17.6417 28.0376 16.6145 27.9725 15.7767 27.7119C15.5576 28.0761 15.605 28.5083 15.7767 28.8931C16.2977 29.6717 18.1805 29.5622 19.0686 29.3165C19.4209 29.4734 19.3647 30.0358 19.9982 29.9085C20.1669 29.5118 19.9982 28.7806 20.5903 28.8102C20.9929 28.9997 20.9662 29.6155 21.1823 29.9914C21.3215 30.4444 21.3807 30.9772 21.9431 31.0039C22.3813 30.1069 21.7922 29.1004 21.6885 28.2152C22.0053 27.9961 22.3161 27.7741 22.6181 27.5402C22.8076 27.2235 22.9645 26.8742 23.2102 26.6107C23.1717 26.1222 23.3523 25.8499 23.3789 25.4295C23.2161 23.8309 22.0586 23.2122 21.0165 22.4839ZM17.3842 20.2015C17.5115 20.1038 17.7305 20.0949 17.8075 19.9469C17.9052 19.9321 17.9585 19.9647 17.9762 20.0327C18.1094 20.8587 18.4795 21.4419 18.4825 22.3981H17.8904C17.8075 21.581 17.4167 21.0689 17.3842 20.2015ZM19.7495 27.4662C19.3883 27.0932 19.2729 26.4775 19.0746 25.9476C18.8999 25.391 18.6364 24.9203 18.5683 24.2572C18.4677 24.2454 18.4973 24.1032 18.4825 24.0056C18.6808 24.0322 18.7992 24.1388 19.0746 24.0914C19.4357 25.166 19.8442 26.1933 20.1728 27.3004C20.0189 27.3448 19.8205 27.3419 19.7495 27.4662ZM21.354 26.7054C21.0905 26.6847 21.0905 26.4064 21.0165 26.1992C20.8478 26.0867 20.8271 25.8232 20.7619 25.6071C20.5814 25.2519 20.5251 24.7753 20.3416 24.4259C20.3268 24.3549 20.3741 24.346 20.4245 24.3401C20.9544 24.4585 21.4487 24.6095 21.8602 24.8463C22.2332 25.5094 21.8484 26.4034 21.354 26.7054Z" fill="black"/>
</svg>
