<svg width="40" height="40" viewBox="0 0 40 40" fill="none" xmlns="http://www.w3.org/2000/svg">
<circle cx="20" cy="20" r="20" fill="#FFC900"/>
<path fill-rule="evenodd" clip-rule="evenodd" d="M14.8338 27.3745C14.7149 28.5281 11.7823 33.3071 14.5939 32.6544C15.114 30.5653 16.3718 28.6039 16.514 26.5344C15.3633 25.9625 15.2705 27.4975 14.8339 27.3746L14.8338 27.3745Z" fill="black"/>
<path fill-rule="evenodd" clip-rule="evenodd" d="M29.5931 15.973C29.3811 14.8286 28.354 14.202 27.9132 13.4529C28.4193 12.7513 27.8402 12.4723 28.1532 11.2928C27.8221 11.8582 27.9597 11.0678 27.5532 11.0529C27.5311 10.5928 27.6512 11.0093 27.9132 10.9328C27.5217 10.4468 27.6181 9.8227 26.5931 9.73275C26.6282 9.48275 26.9177 9.91066 26.9532 9.4928C25.7942 9.3678 25.1502 8.42021 23.5931 8.77268C22.9065 8.12713 22.4375 7.50723 21.5532 7.69278C22.2601 7.22581 20.9971 7.29768 20.833 6.97266H19.6335C18.3855 7.36507 17.3835 8.00324 16.6335 8.89279C13.7259 8.41288 11.6594 10.8832 12.1936 13.4529C11.1145 14.5364 10.6061 15.0558 10.2734 16.6929V17.413C10.5145 18.5065 11.1815 19.638 12.1936 20.2929C11.8694 23.1425 13.7616 25.1075 16.7536 24.6131C17.6351 25.3325 18.3846 26.4586 19.8737 26.5332C21.4097 26.6098 22.6557 25.7191 23.3532 24.6131C26.4057 25.2486 28.3968 22.8131 27.6737 20.053C29.0481 19.4844 29.9416 17.8594 29.5931 15.973ZM26.473 19.5731C26.51 20.0557 26.4114 20.6751 26.833 20.7731C26.6371 21.3932 26.2585 23.3077 25.3931 22.813C25.5641 23.6236 24.3866 23.0865 24.1936 23.5325C23.5992 22.7334 23.4281 22.8849 22.5137 23.1724C22.5916 23.0503 22.7896 23.0483 22.7536 22.8124C22.3181 23.0314 21.8211 23.5983 22.1536 24.0119C21.6681 24.0329 20.817 24.8289 20.4737 24.972C19.4217 24.995 19.4523 24.5466 18.6737 24.8526C18.7963 24.4095 18.2088 23.3541 17.5938 22.9325C15.4429 23.5675 13.9468 23.0744 13.6338 21.0119C14.2972 20.3474 14.0499 18.651 12.7938 18.8518C11.8305 17.8123 11.7458 16.1728 12.5539 15.2518C13.1753 15.1134 13.6865 14.8643 13.9938 14.4119C12.9769 11.9344 14.7514 9.67072 17.4737 10.5719C18.0443 8.16179 22.1688 7.8723 22.6338 10.5719C24.9954 9.51826 27.7922 11.4989 26.4737 14.0518C27.1887 14.9469 28.5108 15.2998 28.6338 16.6918C28.7606 18.1369 27.7318 19.0049 26.4731 19.5731L26.473 19.5731Z" fill="black"/>
<path fill-rule="evenodd" clip-rule="evenodd" d="M23.3501 13.4531C21.9941 13.8647 21.58 14.9127 21.0702 15.6132C20.9892 15.5208 20.6711 15.4306 20.5903 15.7333C20.6508 16.1603 19.5028 17.3954 18.9104 18.4934C18.4589 17.4693 16.1749 16.4313 16.2705 18.1333C16.2725 18.1728 16.354 18.4534 16.3906 18.4934C16.9966 19.1693 18.1495 20.3378 19.1506 20.6535C19.2656 20.449 19.5277 20.3905 19.7506 20.2934C20.7886 17.851 22.7256 16.3079 23.5906 13.6933C23.4555 13.6677 23.4035 13.5601 23.3502 13.4532L23.3501 13.4531Z" fill="black"/>
<path fill-rule="evenodd" clip-rule="evenodd" d="M23.4723 26.1738C22.5174 27.2129 24.1272 29.3748 24.6723 30.7339C26.9457 30.2574 24.4857 27.731 24.4323 26.2939C23.7528 25.9174 23.6165 26.5993 23.4723 26.1738Z" fill="black"/>
</svg>
