<svg width="40" height="40" viewBox="0 0 40 40" fill="none" xmlns="http://www.w3.org/2000/svg">
<circle cx="20" cy="20" r="20" fill="#FFC900"/>
<path fill-rule="evenodd" clip-rule="evenodd" d="M7.51315 21.4314C7.99445 21.7295 8.44509 21.8785 8.95091 21.7946C9.07353 21.776 9.13178 21.6581 9.22068 21.6115C9.3433 21.5525 9.47512 21.596 9.57935 21.5215C9.66518 21.4594 9.75715 21.2669 9.84912 21.1582C10.2017 20.7485 10.4346 20.3697 10.4776 19.7923C11.5536 19.9631 13.2734 20.0158 13.7148 19.2459C13.9386 19.6557 14.3525 19.873 14.8828 19.9755C15.8791 20.0407 16.3911 19.6216 16.7712 19.0659C16.9735 18.1594 16.667 17.3926 16.3206 16.7904C16.6332 16.3806 17.041 16.0639 17.3107 15.6076C17.7093 15.2816 17.8809 14.7259 18.3009 14.4248C18.8987 14.8222 19.7387 14.4434 20.2782 14.2416C20.4989 14.6266 20.7564 14.9712 20.9986 15.3344C21.1856 15.4461 21.3358 15.5983 21.4462 15.7907C21.5014 16.036 21.8233 16.0174 21.8079 16.3371C21.7742 17.405 22.0011 18.2029 22.4364 18.7958C23.0955 19.159 23.8925 19.0348 24.5056 18.7058C24.6436 18.4512 24.7785 18.1935 24.9563 17.9793C24.9839 17.405 24.941 16.9021 24.8674 16.4302C26.0231 15.173 27.0961 13.8319 28.5553 12.8788C28.6779 13.1799 29.0304 13.2482 29.3646 13.3351C30.6613 13.4034 31.3358 12.8447 31.7925 12.0592C31.9366 10.7709 31.6944 9.54157 30.8054 9.05418C30.1126 9.07902 29.7509 8.92069 29.0948 9.05418C28.4357 9.45155 27.9575 10.0259 27.5682 10.6933V11.6029C26.9489 12.1617 26.3327 12.7205 25.6798 13.242C25.1188 13.9188 24.5762 14.6111 23.9722 15.2444C23.7638 15.0208 23.2641 14.9556 22.9821 15.0612C22.9054 14.8346 22.6479 14.7911 22.5345 14.6049C22.4425 14.3658 22.1758 14.2975 22.0838 14.0585C21.719 13.7884 21.4186 13.4562 21.1856 13.0558C21.4247 12.3697 21.2623 11.3514 20.8239 11.0534C20.5081 10.8827 20.0636 11.0162 19.6559 10.9634C19.3953 10.9292 19.1777 10.7585 18.9355 10.7802C18.4941 10.9106 18.1507 11.1403 17.8564 11.4166C17.7307 11.9568 17.5652 12.4597 17.5866 13.1458C17.2126 13.5618 16.9245 14.0399 16.5965 14.5117C16.2776 14.9712 15.9741 15.4586 15.6063 15.8777C15.3488 15.5921 15.0146 15.3841 14.4383 15.4213C13.3163 15.6293 12.7951 16.7966 13.0894 18.1532C12.2035 18.2277 11.2041 18.1842 10.3917 18.3332C10.2078 17.9731 10.03 17.6099 9.58242 17.5137C8.43895 17.4485 7.97605 18.0725 7.24645 18.4233C7.04105 18.9231 6.80807 19.4912 6.88471 20.1524C6.94602 20.6833 7.28936 21.121 7.51315 21.4314ZM29.3615 10.5971C29.6497 10.4636 29.8612 10.2525 30.3517 10.3239C30.4958 10.6995 30.6368 11.3359 30.4406 11.7798C30.1341 11.8637 29.9133 12.0344 29.4504 11.963C29.3523 11.575 29.3462 11.0938 29.3615 10.5971ZM23.3377 16.7873C23.5461 16.8804 23.5247 17.2063 23.5185 17.5168C23.3101 17.4205 23.3315 17.0977 23.3377 16.7873ZM19.8306 12.4162C19.7632 12.7112 19.5823 12.8912 19.2911 12.9626C19.242 12.5497 19.4229 12.3666 19.8306 12.4162ZM14.6161 17.0604C14.8337 17.3243 15.0851 17.5571 15.1556 17.97C15.2108 18.1035 15.2629 17.9607 15.1556 17.97C15.033 17.9421 14.984 17.8396 14.7939 17.88C14.6989 17.6441 14.5762 17.433 14.6161 17.0604ZM8.68113 19.1528C9.05513 19.1807 8.84054 19.9879 8.68113 20.0624C8.35312 19.9879 8.49107 19.2584 8.68113 19.1528ZM35.5663 16.8773C33.9538 16.2502 32.6509 17.3367 32.8685 19.1528C31.4461 20.6864 29.7263 21.9188 28.1016 23.2506C27.9176 23.0426 27.3566 23.2165 27.0225 23.1606C27.0041 23.2941 26.8048 23.2444 26.6607 23.2506C26.5105 23.4027 26.2285 23.4183 26.1212 23.6138C25.8606 23.6542 25.8392 23.9367 25.4928 23.887C23.9937 23.6418 22.6448 23.2506 21.5351 22.6142C21.4186 22.0337 21.2285 21.5308 20.9067 21.1582C20.6829 21.1117 20.5388 20.9844 20.3671 20.8851H19.1072C18.8589 21.0279 18.6075 21.1676 18.2979 21.2483C18.1875 21.4376 18.0373 21.5898 17.8472 21.7046C17.7307 21.9219 17.6173 22.1392 17.4885 22.341C17.4671 22.816 17.4885 23.2506 17.5774 23.6169C16.3022 24.48 15.1556 25.4765 14.0704 26.532C13.8773 26.7307 13.8221 27.069 13.6198 27.2584C13.0465 26.9355 11.9582 27.0628 11.4616 27.3484C10.8393 26.948 10.1894 26.5723 9.57322 26.1657C9.02755 25.6845 8.41136 25.2778 7.86569 24.7997C7.93313 24.0329 7.76146 23.5083 7.59592 22.9774C7.4457 22.9526 7.30162 22.7167 7.14528 22.6142C7.13608 22.608 6.94602 22.518 6.96441 22.5242C5.95583 22.2324 4.58859 22.8067 4.1778 23.3438C4.1686 23.6697 4.03679 23.8684 4 24.1633C4.01533 24.6631 4.16553 25.0263 4.26976 25.4392C4.49048 25.7621 4.50275 26.296 4.80931 26.532C4.87982 26.5506 4.98711 26.5351 4.99018 26.622C5.98342 26.6872 6.52604 26.296 7.23725 26.0756C7.60205 26.2526 7.69708 26.7027 8.13546 26.8052C8.35925 27.1249 8.64741 27.3764 9.03367 27.5347C9.58548 28.0687 10.453 28.2829 11.011 28.8106C10.9527 29.565 11.106 30.1114 11.3696 30.5398C12.1176 31.232 14.2728 31.1917 14.518 30.0865C14.5211 30.0306 14.5303 29.9779 14.6069 29.9965C14.5916 29.5277 14.6621 28.9689 14.518 28.6306C14.7387 28.4288 14.9104 28.1804 15.2384 28.0842C15.407 27.8451 15.0024 27.7768 15.3273 27.5378C15.6216 27.3826 15.7504 27.0566 16.0477 26.9014C16.3604 26.7307 16.4646 26.3519 16.857 26.265C16.995 25.9204 17.4364 25.8831 17.5774 25.5386C17.9821 25.4609 18.0741 25.0698 18.4757 24.9922C18.8589 24.9984 19.1041 25.1443 19.5547 25.0822C19.754 25.0108 19.9042 24.8897 20.1832 24.8991C20.2813 24.6942 20.6246 24.7376 20.7227 24.5358C20.968 24.48 20.9465 24.1571 21.2623 24.1726C22.4333 24.8991 24.0213 25.2033 25.4897 25.6286C25.7319 25.7776 25.9158 25.9856 26.0292 26.265C26.1365 26.5537 26.4952 26.5816 26.6577 26.8114C28.3989 26.9976 29.2174 26.2464 28.9967 24.4458C29.3002 24.0857 29.7938 23.9181 30.0758 23.5362C30.5847 23.3872 30.7717 22.906 31.2438 22.7167C31.5565 22.3659 31.9274 22.074 32.3229 21.8071C32.4302 21.5804 32.6294 21.4501 32.8624 21.3507C33.0126 21.1676 33.1046 20.9285 33.402 20.8944C33.6533 21.0962 33.8894 21.3104 34.3921 21.2576C34.9838 21.1924 35.367 20.9099 35.741 20.6212C36.4215 19.752 36.3143 17.5758 35.5663 16.8773ZM12.8166 29.3508C12.6143 29.3104 12.7798 28.9037 12.7277 28.7144H12.9975C13.0557 29.0465 12.9362 29.1987 12.8166 29.3508ZM27.2923 24.7997C27.1482 24.8246 27.139 24.7128 27.0225 24.7097C26.9949 24.5979 27.2831 24.3961 27.2923 24.6197V24.7997ZM34.5761 18.5164C34.6987 18.5443 34.6496 18.743 34.665 18.8796C34.4565 18.8548 34.4596 18.6375 34.5761 18.5164Z" fill="black"/>
</svg>
