<svg width="40" height="40" viewBox="0 0 40 40" fill="none" xmlns="http://www.w3.org/2000/svg">
<circle cx="20" cy="20" r="20" fill="#FFC900"/>
<path fill-rule="evenodd" clip-rule="evenodd" d="M29.9973 11.3158C29.9137 10.7367 29.2203 10.7457 28.5083 10.7757C27.9945 10.5807 27.4156 10.4517 26.8337 10.3256C27.3011 9.72557 27.818 9.17351 28.4186 8.70245C28.5857 8.38441 28.8024 8.11138 28.9758 7.79934C29.2203 7.55331 29.6104 7.45129 29.6289 6.98624C29.2451 6.39517 28.14 6.50317 27.4868 6.17313C26.4932 6.17313 25.8895 5.79809 24.9732 5.72308C23.2862 5.40204 21.435 5.24303 19.6675 5H18.8286C18.6707 5.12001 18.516 5.24002 18.1755 5.18001C17.835 6.26314 17.2313 7.09425 16.6865 7.97635C16.0798 8.80145 15.6 9.75258 14.9159 10.5027C14.6961 10.9797 14.337 11.3248 14.077 11.7658C13.7612 12.1799 13.4486 12.5999 13.1452 13.029C12.8728 13.455 12.5509 13.8361 12.3063 14.2921C12.0711 14.7872 11.5913 15.0422 11.6532 15.8253C11.7801 15.9123 11.8389 16.0653 11.9318 16.1853C12.1608 16.1733 12.3806 16.1733 12.492 16.2754C12.913 16.2874 13.1328 16.4974 13.5167 16.5454C14.1482 16.7734 14.9158 16.8754 15.4699 17.1755C14.5753 18.4146 13.7891 19.7558 12.8635 20.9649C12.4828 21.649 11.9844 22.2161 11.5603 22.8611C11.2972 23.6592 10.6812 24.1123 10.5357 25.0274C10.8978 25.3964 11.6655 25.3754 12.2104 25.5675C12.7645 25.7835 13.6498 25.6755 14.0708 26.0175C13.7086 26.7496 13.3185 27.4547 12.9533 28.1838C12.2351 29.684 11.486 31.1511 10.7183 32.6063C10.5697 33.3684 9.52962 34.1815 10.254 34.9526C11.356 35.2136 12.0091 34.3285 12.7675 33.9595C13.0431 33.6264 13.4269 33.3954 13.7891 33.1464C13.8665 32.9213 14.1141 32.8613 14.2565 32.6963C14.5072 32.6393 14.4887 32.3183 14.8137 32.3363C16.0922 31.1391 17.3768 29.948 18.7234 28.8169C19.2929 28.1658 20.1071 27.7517 20.7695 27.1937C21.4072 26.5786 22.1161 26.0325 22.7259 25.3904C24.0198 24.2083 25.2952 23.0082 26.4498 21.691C26.8151 21.565 26.9915 21.253 27.2856 21.0609C27.5302 20.8179 27.9883 20.7789 28.2174 20.5209C28.2669 20.3888 28.109 20.0558 28.3102 20.0708C28.301 19.7168 27.8552 19.7888 27.8459 19.4377C26.357 19.2577 25.2302 18.7266 23.7505 18.5346C24.5584 17.7245 25.2611 16.8094 26.0784 16.0083C26.5489 15.6513 26.8522 15.1352 27.1958 14.6552C27.4992 14.1391 27.9233 13.737 28.2205 13.212C28.5145 13.047 28.6631 12.7379 29.0594 12.6719C29.2048 12.4529 29.2513 12.1378 29.4308 11.9488C29.8363 11.9398 30.0252 11.7358 29.9973 11.3158ZM25.6233 20.5209H25.9948C25.6728 20.6889 25.5645 21.0639 25.1559 21.1539C24.9052 21.421 24.7256 21.76 24.317 21.874C24.6111 21.2829 25.2178 21.0009 25.6233 20.5209ZM26.1805 13.302C25.3571 14.1871 24.447 14.9912 23.6669 15.9183C23.1066 16.4884 22.5959 17.1035 22.0851 17.7215C21.8158 18.0306 21.5651 18.3606 21.3391 18.7147C21.1998 18.8497 21.0574 18.9847 20.8748 19.0747C20.8067 19.2817 20.7912 19.5367 20.689 19.7078C20.881 19.9118 21.3793 19.8188 21.6208 19.9778C21.8406 20.1548 22.2461 20.1518 22.4566 20.3378C23.3512 20.3138 24.1189 20.4099 24.317 21.0609C24.3789 22.0541 23.5338 22.1651 23.0138 22.5941C21.3205 23.7493 20.0885 25.3514 18.6398 26.7436C17.9804 27.5177 17.157 28.1358 16.4977 28.9099C16.2531 29.1229 15.9374 29.2669 15.8476 29.6329C15.2966 30.032 14.9097 30.5871 14.3587 30.9861C14.0801 31.1691 13.8974 31.4422 13.6126 31.6162C13.3928 31.8532 13.2443 32.1593 12.8666 32.2493C13.5538 31.0821 14.2163 29.888 14.9128 28.7299C15.213 28.0878 15.5969 27.5267 15.8445 26.8366C16.1726 26.2516 16.5689 25.7355 16.4946 24.7604C16.3398 24.2803 15.9064 24.0703 15.2842 24.0373C14.8818 23.8273 14.2782 23.8092 13.7024 23.7672C14.0305 23.1552 14.4887 22.6661 14.8199 22.0541C15.2749 21.562 15.5442 20.8929 16.0302 20.4308C16.0891 20.0948 16.2531 19.8638 16.3088 19.5277C16.671 19.2187 16.9125 18.7897 17.1477 18.3546C17.1106 17.7905 17.092 17.2055 16.962 16.7314C16.7174 16.3354 16.1355 16.2693 15.6588 16.0983C15.1883 15.9543 14.7797 15.7473 14.1698 15.7383C14.433 14.7602 15.1078 14.1841 15.473 13.302C15.8383 13.023 15.925 12.4769 16.3119 12.2189C16.4358 11.7388 16.8691 11.5558 16.962 11.0457C17.5625 10.3947 17.9897 9.57855 18.4509 8.78946C18.9215 8.04237 19.3456 7.25327 19.7542 6.44317C19.8037 6.37116 19.8501 6.29615 19.847 6.17313C21.1348 6.36816 22.4071 6.57819 23.6638 6.80622C25.0661 6.83023 25.8988 7.40929 27.2949 7.43929C27.5209 7.64932 27.1494 7.67932 27.1092 7.88935C26.8275 8.03637 26.6727 8.30639 26.4591 8.52242C26.2703 8.70844 25.9329 8.83147 25.8988 9.15251C25.5181 9.32653 25.4035 9.75557 25.0599 9.96559C24.9206 10.1006 24.8928 10.3466 24.6885 10.4156C24.6575 10.6257 24.6296 10.8387 24.317 10.7757C24.3851 11.2317 24.0601 11.3098 24.0384 11.6788C24.4315 11.8978 25.0259 11.9248 25.4345 12.1289C25.9917 12.1889 26.4313 12.3659 27.0163 12.3989C26.8677 12.8249 26.487 13.026 26.1805 13.302ZM26.3662 11.1357C26.3631 11.2227 26.2517 11.2047 26.1805 11.2257C26.1836 11.1387 26.295 11.1567 26.3662 11.1357Z" fill="black"/>
</svg>
