<svg width="40" height="40" viewBox="0 0 40 40" fill="none" xmlns="http://www.w3.org/2000/svg">
<circle cx="20" cy="20" r="20" fill="#FFC900"/>
<path fill-rule="evenodd" clip-rule="evenodd" d="M32.7143 9.60854C28.7679 9.18756 24.7097 9.463 21.4337 9.12863C21.5768 9.24716 20.2152 9.35653 20.2337 9.36859C20.3462 9.04447 20.7748 9.15363 20.3538 8.88867H20.2337V9.00876C20.2487 9.5398 19.6087 9.11569 19.5136 9.00876V8.88867H18.5536C18.8551 9.15118 17.8027 9.39917 17.5935 9.24872C17.5065 9.18577 18.3964 9.0072 17.8335 8.88867H17.5935C17.2286 9.42127 16.2705 8.73867 15.9136 9.36859C15.6641 9.25653 15.685 8.99514 15.1935 8.88867H15.0734C14.8513 9.06658 14.5033 9.11858 14.1134 9.12863V8.88867H13.0335C11.2955 9.36814 9.45444 8.77059 7.99353 9.24872C7.67143 9.40676 7.79442 10.0092 7.63348 10.3286C7.38192 10.1436 7.59107 9.61524 7.27344 10.0887V13.5686C7.72143 17.6746 6.97947 23.5858 7.75335 26.7687C11.2504 26.9598 15.9905 26.7861 19.5133 26.8888C19.3464 27.5214 19.7339 28.6928 19.2734 29.2888C17.8424 29.2522 15.9229 28.9694 14.7133 29.4083C14.6033 29.8967 14.4544 29.9878 14.5932 30.4882C18.1082 31.2332 22.1281 30.4132 25.7532 30.4882V29.6482C24.4476 28.9687 22.2713 29.8491 20.8327 29.4082V26.8888C24.6227 26.0823 28.859 27.0678 32.7133 26.4082C32.9146 21.0872 32.9131 14.9304 32.7142 9.6086L32.7143 9.60854ZM31.7543 25.5687C28.3873 25.5897 25.9451 24.9477 22.9937 25.4486C22.8642 25.1781 22.5437 25.0991 22.3937 24.8491C20.2997 25.554 17.1901 24.5591 14.2337 25.329C14.2636 25.1984 14.4721 25.2475 14.4736 25.089C12.9386 25.0801 11.1911 25.1435 9.19375 25.089C9.09531 19.6281 9.18973 15.5878 9.07365 11.0489C10.8596 10.5933 13.8451 10.9094 16.2737 10.8089C19.8531 10.4629 26.8719 10.5105 31.7537 10.6888C31.7543 15.6485 31.7543 20.6084 31.7543 25.5684L31.7543 25.5687Z" fill="black"/>
<path fill-rule="evenodd" clip-rule="evenodd" d="M22.514 16.6884C21.5854 18.676 21.8874 21.3704 20.2341 22.4485C19.4111 21.3485 19.2922 19.775 19.0341 18.1283C18.7587 16.3694 18.7192 12.5042 17.3542 12.4883C15.9368 12.4714 16.0062 16.0058 15.7942 17.4085C15.4817 19.476 15.2886 21.3311 14.3542 22.4485C13.7638 22.778 12.4247 22.359 11.8341 22.6885C11.8131 24.1554 14.2962 23.5481 15.1942 23.4079C15.7652 22.5793 16.4451 21.8588 16.3942 20.4079C16.4982 20.232 16.5736 20.0273 16.8741 20.0478C16.714 19.3692 16.7705 17.6054 17.354 17.1679C17.198 17.3208 16.9326 18.411 17.2339 18.2478C17.3029 18.0369 17.0888 17.5429 17.354 17.5277C17.341 18.3312 17.8669 19.4523 18.0741 20.1676C17.9156 20.1661 17.9645 19.9572 17.8342 19.9277C17.9931 21.7467 18.7967 24.2737 20.714 24.0076C21.2774 23.9297 22.66 22.6 22.6342 21.848C22.6321 21.8004 22.3431 21.8674 22.3942 21.7279C22.4583 21.5525 22.8022 21.425 22.8741 21.248C23.1516 20.5645 22.8797 19.6924 23.4741 19.208C23.8386 20.677 24.0736 23.4472 25.8741 23.888C26.7991 24.1145 27.3527 23.596 28.3942 23.888C28.8491 23.5884 29.2538 23.1315 28.9942 22.4475C28.4826 22.0625 27.0393 22.162 26.3543 22.3281C25.0547 21.1906 25.1983 17.9941 23.9543 16.4481C23.1996 16.3704 22.855 16.6554 22.5141 16.6882L22.514 16.6884Z" fill="black"/>
</svg>
