<svg width="20" height="27" viewBox="0 0 20 27" fill="none" xmlns="http://www.w3.org/2000/svg">
<path fill-rule="evenodd" clip-rule="evenodd" d="M4.83383 21.3745C4.71486 22.5281 1.78229 27.3071 4.59388 26.6544C5.11397 24.5653 6.37177 22.6039 6.51399 20.5344C5.36331 19.9625 5.27045 21.4975 4.83388 21.3746L4.83383 21.3745Z" fill="black"/>
<path fill-rule="evenodd" clip-rule="evenodd" d="M19.5931 9.97304C19.3811 8.82862 18.354 8.20205 17.9132 7.4529C18.4193 6.75135 17.8402 6.47231 18.1532 5.29282C17.8221 5.85822 17.9597 5.06781 17.5532 5.05286C17.5311 4.59281 17.6512 5.00933 17.9132 4.93277C17.5217 4.44682 17.6181 3.8227 16.5931 3.73275C16.6282 3.48275 16.9177 3.91066 16.9532 3.4928C15.7942 3.3678 15.1502 2.42021 13.5931 2.77268C12.9065 2.12713 12.4375 1.50723 11.5532 1.69278C12.2601 1.22581 10.9971 1.29768 10.833 0.972656H9.6335C8.3855 1.36507 7.3835 2.00324 6.6335 2.89279C3.7259 2.41288 1.65938 4.88321 2.19355 7.4529C1.11452 8.53639 0.606066 9.05583 0.273438 10.6929V11.413C0.514512 12.5065 1.1815 13.638 2.19355 14.2929C1.86944 17.1425 3.76161 19.1075 6.75361 18.6131C7.6351 19.3325 8.38464 20.4586 9.87372 20.5332C11.4097 20.6098 12.6557 19.7191 13.3532 18.6131C16.4057 19.2486 18.3968 16.8131 17.6737 14.053C19.0481 13.4844 19.9416 11.8594 19.5931 9.97304ZM16.473 13.5731C16.51 14.0557 16.4114 14.6751 16.833 14.7731C16.6371 15.3932 16.2585 17.3077 15.3931 16.8131C15.5641 17.6236 14.3866 17.0865 14.1936 17.5325C13.5992 16.7334 13.4281 16.8849 12.5137 17.1724C12.5916 17.0503 12.7896 17.0483 12.7536 16.8124C12.3181 17.0314 11.8211 17.5983 12.1536 18.0119C11.6681 18.0329 10.817 18.8289 10.4737 18.972C9.42174 18.995 9.45231 18.5466 8.67374 18.8526C8.79628 18.4095 8.20878 17.3541 7.59385 16.9325C5.44293 17.5675 3.94676 17.0744 3.63379 15.0119C4.29716 14.3474 4.04986 12.651 2.79385 12.8518C1.83048 11.8123 1.74585 10.1728 2.5539 9.25181C3.17532 9.11341 3.68647 8.86431 3.99384 8.41185C2.97687 5.9344 4.75144 3.67072 7.47372 4.57187C8.04426 2.16179 12.1688 1.8723 12.6338 4.57187C14.9954 3.51826 17.7922 5.49891 16.4737 8.05179C17.1887 8.94689 18.5108 9.29981 18.6338 10.6918C18.7606 12.1369 17.7318 13.0049 16.4731 13.5731L16.473 13.5731Z" fill="black"/>
<path fill-rule="evenodd" clip-rule="evenodd" d="M13.3501 7.45312C11.9941 7.86474 11.58 8.91274 11.0702 9.6132C10.9892 9.52079 10.6711 9.43061 10.5903 9.7333C10.6508 10.1603 9.50283 11.3954 8.91043 12.4934C8.45887 11.4693 6.17495 10.4313 6.27049 12.1333C6.2725 12.1728 6.35397 12.4534 6.39058 12.4934C6.99658 13.1693 8.1495 14.3378 9.15064 14.6535C9.26559 14.449 9.52765 14.3905 9.75064 14.2934C10.7886 11.851 12.7256 10.3079 13.5906 7.69334C13.4555 7.66767 13.4035 7.56009 13.3502 7.45317L13.3501 7.45312Z" fill="black"/>
<path fill-rule="evenodd" clip-rule="evenodd" d="M13.4723 20.1738C12.5174 21.2129 14.1272 23.3748 14.6723 24.7339C16.9457 24.2574 14.4857 21.731 14.4323 20.2939C13.7528 19.9174 13.6165 20.5993 13.4723 20.1738Z" fill="black"/>
</svg>
