<svg width="394" height="358" viewBox="0 0 394 358" fill="none" xmlns="http://www.w3.org/2000/svg">
<path fill-rule="evenodd" clip-rule="evenodd" d="M192.427 7.46831C239.594 -2.61267 299.274 -8.22581 329.832 29.4945C360.052 66.7977 329.739 120.773 322.885 168.502C317.59 205.372 316.027 241.677 294.973 272.245C268.627 310.495 238.445 360.401 192.427 357.91C146.612 355.431 133.18 294.077 100.296 261.709C66.473 228.416 -0.685355 216.239 0.00528599 168.502C0.696997 120.692 66.5355 108.463 102.954 77.9854C133.238 52.6415 153.973 15.6871 192.427 7.46831Z" fill="#D8E6FF" fill-opacity="0.6"/>
<path opacity="0.1" fill-rule="evenodd" clip-rule="evenodd" d="M191.829 42.064C223.252 35.1181 251.009 -1.03522 281.197 10.1208C309.67 20.643 303.792 65.4863 321.665 90.0448C342.467 118.626 394.909 129.743 393.988 165.095C393.057 200.842 339.427 209.45 317.813 237.918C299.868 261.556 300.58 295.958 279.097 316.427C255.361 339.042 224.576 359.088 191.829 357.954C159.186 356.824 134.321 329.836 107.979 310.501C84.0886 292.965 50.5329 279.167 44.8385 250.061C38.862 219.514 84.1735 195.873 79.5308 165.095C73.5055 125.151 3.08567 101.904 16.7568 63.8963C29.1143 29.5405 86.4768 49.6768 122.669 45.1634C145.966 42.2583 168.905 47.1314 191.829 42.064Z" fill="#E84563"/>
</svg>
