<svg width="402" height="402" viewBox="0 0 402 402" fill="none" xmlns="http://www.w3.org/2000/svg">
<g clip-path="url(#clip0_2171_15481)">
<path d="M229.243 217.708C229.243 217.708 243.795 211.611 230.237 199.551C230.237 199.551 189.405 160.703 177.938 172.009" stroke="#FF002E" stroke-width="5.39346"/>
<path d="M229.243 217.708C229.243 217.708 243.795 211.611 230.237 199.551C230.237 199.551 189.405 160.703 177.938 172.009" stroke="#FF002E" stroke-width="5.39346" stroke-linecap="round"/>
<path d="M186.358 160.732C186.358 160.732 191.726 135.633 168.495 128.713C153.961 123.237 147.056 120.243 146.167 111.751C145.273 103.263 152.537 102.049 154.599 105.139" stroke="#FF002E" stroke-width="4.71927" stroke-linecap="round"/>
<path d="M220.667 179.729C220.667 179.729 232.016 163.75 229.175 148.122C227.124 138.005 232.118 133.624 236.178 127.001C240.243 120.381 240.244 101.844 227.792 90.477C215.341 79.1105 202.024 84.3568 202.024 84.3568C202.024 84.3568 195.261 86.9779 206.515 91.858C217.765 96.7422 218.572 108.302 219.166 119.647" stroke="#FF002E" stroke-width="5.39346" stroke-linecap="round"/>
<path d="M202.277 109.678C202.277 109.678 198.039 128.34 220.235 140.11" stroke="#FF002E" stroke-width="5.39346" stroke-linecap="round"/>
<path d="M252.074 216.004L236.479 231.381" stroke="#FF002E" stroke-width="5.39346" stroke-linecap="round"/>
<path d="M258.381 227.039L245.103 240.13" stroke="#FF002E" stroke-width="5.39346" stroke-linecap="round"/>
<path d="M264.408 238.35L253.729 248.879" stroke="#FF002E" stroke-width="5.39346" stroke-linecap="round"/>
<path d="M271.56 248.201C271.56 248.201 316.505 260.117 290.292 285.962" stroke="#FF002E" stroke-width="5.39346" stroke-linecap="round"/>
<path d="M222.969 223.901C222.969 223.901 216.667 238.365 204.799 224.638C204.799 224.638 166.533 183.261 178 171.955" stroke="#FF002E" stroke-width="5.39346"/>
<path d="M222.969 223.901C222.969 223.901 216.667 238.365 204.799 224.638C204.799 224.638 166.533 183.261 178 171.955" stroke="#FF002E" stroke-width="5.39346" stroke-linecap="round"/>
<path d="M166.605 180.214C166.605 180.214 141.433 185.227 134.842 161.9C129.572 147.29 126.676 140.343 118.197 139.334C109.718 138.325 108.407 145.567 111.467 147.672" stroke="#FF002E" stroke-width="4.71927" stroke-linecap="round"/>
<path d="M185.115 214.789C185.115 214.789 168.978 225.912 153.391 222.85C143.305 220.656 138.853 225.588 132.173 229.554C125.497 233.525 106.961 233.264 95.7719 220.653C84.5825 208.042 90.0164 194.8 90.0164 194.8C90.0164 194.8 92.7328 188.076 97.4534 199.398C102.178 210.716 113.726 211.686 125.061 212.44" stroke="#FF002E" stroke-width="5.39346" stroke-linecap="round"/>
<path d="M115.336 195.406C115.336 195.406 134.056 191.432 145.511 213.792" stroke="#FF002E" stroke-width="5.39346" stroke-linecap="round"/>
<path d="M220.936 246.689L236.527 231.316" stroke="#FF002E" stroke-width="5.39346" stroke-linecap="round"/>
<path d="M231.889 253.169L245.166 240.078" stroke="#FF002E" stroke-width="5.39346" stroke-linecap="round"/>
<path d="M243.211 259.256L253.791 248.824" stroke="#FF002E" stroke-width="5.39346" stroke-linecap="round"/>
<path d="M252.857 266.639C252.857 266.639 264.136 311.748 290.349 285.903" stroke="#FF002E" stroke-width="5.39346" stroke-linecap="round"/>
</g>
<defs>
<clipPath id="clip0_2171_15481">
<rect width="258.123" height="309.424" fill="white" transform="matrix(-0.712086 0.702092 0.702092 0.712086 184.756 0)"/>
</clipPath>
</defs>
</svg>
