<svg width="121" height="72" viewBox="0 0 121 72" fill="none" xmlns="http://www.w3.org/2000/svg">
<path d="M13.7122 71C19.0037 59.581 26.2916 46.9875 25.5535 33.8988C25.1077 25.9941 21.5954 18.1848 17.0648 11.7959C12.7731 5.74394 4.72103 -0.35236 2.26317 10.0019C0.627566 16.8922 6.95266 22.6814 11.9288 26.5072C19.3959 32.2481 29.0195 31.3737 37.3948 28.1578C43.4362 25.838 49.9384 21.4086 53.4448 15.8146C54.8167 13.6259 57.8063 7.38257 54.4434 5.40908C48.4648 1.90057 53.3534 14.0282 54.6574 15.5276C61.9638 23.9279 75.5808 11.8985 79.8737 5.66024C80.4479 4.82595 81.9221 0.404034 82.5487 2.61034C83.7949 6.99814 87.5895 10.8192 91.715 12.5853C99.1542 15.77 112.862 15.1724 119 8.9972" stroke="#FFC900" stroke-width="3"/>
</svg>
