<svg width="231" height="18" viewBox="0 0 231 18" fill="none" xmlns="http://www.w3.org/2000/svg">
<path d="M221.33 2.76547C220.466 2.84927 219.689 2.84927 218.826 2.93308C217.703 3.01688 216.581 3.18448 215.372 3.26828C213.472 3.43589 211.573 3.7711 209.76 4.19011C207.774 4.69292 205.874 5.36334 204.061 6.28516C203.716 6.45277 203.37 6.70417 202.939 6.78798C202.507 6.95558 202.161 7.12318 201.73 7.29079C201.125 7.54219 200.607 7.7098 200.003 7.8774C199.312 8.04501 198.621 8.21261 197.931 8.29641C197.326 8.38022 196.722 8.38022 196.117 8.38022C195.513 8.38022 194.995 8.29641 194.391 8.29641C193.613 8.21261 192.836 8.04501 192.059 7.7936C191.282 7.54219 190.505 7.29079 189.728 6.95558C188.433 6.36896 187.138 5.69855 185.843 5.02813C185.238 4.69292 184.72 4.35771 184.116 3.9387C183.425 3.51969 182.734 3.10068 182.044 2.68167C181.525 2.34646 180.921 2.09505 180.317 1.84365C179.971 1.67604 179.54 1.59224 179.108 1.50844C178.676 1.42464 178.331 1.42464 177.899 1.34083C177.64 1.34083 177.381 1.34083 177.208 1.42464C176.863 1.50844 176.518 1.59224 176.172 1.67604C175.654 1.84365 175.136 2.09505 174.618 2.34646C173.582 2.84927 172.632 3.35209 171.596 3.8549C170.301 4.52532 169.092 5.11193 167.711 5.69855C166.933 6.03376 166.07 6.28516 165.293 6.53657C164.17 6.87178 163.134 7.03938 162.012 7.20698C160.976 7.37459 159.853 7.37459 158.817 7.45839C157.608 7.45839 156.4 7.37459 155.191 7.20698C153.637 6.95558 152.169 6.70417 150.615 6.36896C149.233 6.03376 147.852 5.61474 146.557 5.11193C145.261 4.52532 143.966 3.9387 142.671 3.26828C141.203 2.51406 139.735 1.75985 138.181 1.25703C137.577 1.00563 136.972 0.921824 136.282 0.754219C135.591 0.586615 134.814 0.586615 134.037 0.586615C133.26 0.586615 132.569 0.754219 131.792 0.921824C131.015 1.08943 130.324 1.42464 129.633 1.75985C127.993 2.59787 126.525 3.68729 125.057 4.77672C124.194 5.44714 123.33 6.11756 122.467 6.78798C121.776 7.29079 120.999 7.8774 120.222 8.38022C119.445 8.88303 118.581 9.30204 117.718 9.72105C117.286 9.88865 116.941 10.0563 116.509 10.1401C115.991 10.3077 115.387 10.3915 114.869 10.4753C114.61 10.4753 114.437 10.4753 114.178 10.4753C114.005 10.4753 113.833 10.4753 113.66 10.4753C113.228 10.3915 112.796 10.2239 112.365 10.0563C110.811 9.30204 109.343 8.38022 107.961 7.37459C107.27 6.87178 106.666 6.36896 106.062 5.78235C105.63 5.36334 105.198 5.02813 104.766 4.60912C103.644 3.60349 102.608 2.43026 101.399 1.50844C100.881 1.17323 100.363 0.838022 99.7586 0.502813C99.4132 0.335209 99.0678 0.251406 98.7225 0.167604C98.6361 0.167604 98.4634 0.0838022 98.3771 0.0838022C98.1181 0.0838022 97.859 0 97.6863 0C97.6 0 97.4273 0 97.341 0H97.2546C97.0819 0 96.8229 0 96.6502 0.0838022C96.2185 0.167604 95.8731 0.251406 95.4414 0.335209C94.6643 0.586615 93.8873 0.838022 93.1102 1.17323C92.5058 1.42464 91.9014 1.67604 91.297 2.01125C90.8652 2.17886 90.4335 2.43026 90.0018 2.59787C89.3111 2.93308 88.7067 3.26828 88.0159 3.60349C87.6706 3.7711 87.3252 3.9387 87.0662 4.10631C86.4618 4.44151 85.8574 4.86053 85.3393 5.19573C84.9076 5.44714 84.4759 5.69855 84.0442 6.03376C82.9217 6.70417 81.8856 7.45839 80.7631 8.12881C78.4319 9.63725 76.0142 11.1457 73.424 12.2351C72.8196 12.4865 72.3015 12.6541 71.6971 12.9055C71.0063 13.1569 70.2293 13.3245 69.4522 13.4083C69.1068 13.4083 68.8478 13.4921 68.5024 13.4921C67.9843 13.4921 67.5526 13.4921 67.0346 13.4083C66.3438 13.3245 65.6531 13.1569 65.0487 12.9055C64.3579 12.5703 63.6672 12.1513 63.0628 11.7323C62.0267 10.9781 61.1632 10.0563 60.2998 9.13443C59.8681 8.71542 59.4364 8.21261 59.0047 7.7936C58.4866 7.29079 57.8822 6.78797 57.3642 6.28516C56.8461 5.86615 56.4144 5.53094 55.81 5.27954C55.2919 5.44714 54.9465 5.27954 54.6012 5.19573C54.2558 5.11193 53.9104 5.02813 53.5651 5.02813C53.306 5.02813 53.1333 5.02813 52.8743 5.11193C52.5289 5.19573 52.2699 5.27954 51.9245 5.44714C51.6655 5.61474 51.3201 5.78235 51.0611 5.94995C50.8021 6.20136 50.543 6.45277 50.3704 6.70417C49.9386 7.20699 49.5069 7.7098 49.1616 8.21261C48.8162 8.63162 48.4708 8.96683 48.2118 9.38584C47.8664 9.80485 47.4347 10.3077 47.0893 10.7267C46.3122 11.6485 45.4488 12.4027 44.499 13.1569C43.8083 13.6598 43.0312 14.0788 42.2541 14.4978C41.477 14.7492 40.7863 14.9168 40.0092 15.0844C38.8867 15.1682 37.8506 15.1682 36.7282 15.0844C35.0013 14.833 33.3608 14.3302 31.7203 13.6598C30.2524 12.9893 28.871 12.3189 27.4895 11.4809C26.7987 11.0619 26.108 10.6429 25.4172 10.1401C24.7265 9.72105 24.0357 9.21824 23.345 8.79923C22.6543 8.29641 21.9635 7.8774 21.2728 7.45839C20.582 7.03938 19.8049 6.62037 19.0278 6.28516C17.56 5.61474 16.0058 5.19573 14.4517 5.27954C14.1063 5.27954 13.6746 5.36334 13.3292 5.36334C12.8975 5.44714 12.5521 5.53094 12.2067 5.61474C11.8614 5.69855 11.516 5.86615 11.257 5.94995C10.9116 6.11756 10.5662 6.28516 10.2209 6.36896C8.40765 6.95558 6.93982 7.7936 5.55833 8.71542C4.34953 9.55345 3.14073 10.4753 2.10461 11.5647C1.58655 12.0675 1.15484 12.5703 0.723123 13.0731C0.550437 13.3245 0.377751 13.5759 0.291408 13.9112C0.291408 13.995 0.205065 14.1626 0.205065 14.2464C0.118722 14.4978 0.118722 14.7492 0.0323786 15.0006C-0.0539644 15.3358 0.0323786 15.671 0.291408 15.9224C0.550437 16.09 0.895809 16.1738 1.24118 16.09C1.50021 16.0062 1.6729 15.9224 1.93193 15.9224C2.2773 15.8386 2.53633 15.671 2.8817 15.5034C3.31341 15.252 3.4861 14.6654 3.22707 14.2464C3.05438 13.995 2.8817 13.9112 2.62267 13.8274C3.4861 12.9055 4.43587 12.0675 5.38565 11.2295C7.02616 10.0563 8.75303 9.13443 10.5662 8.29641C10.9979 8.12881 11.4297 7.96121 11.8614 7.7936C12.3794 7.7098 12.9838 7.54219 13.5019 7.45839C14.02 7.37459 14.4517 7.37459 14.9697 7.45839C15.3151 7.54219 15.5741 7.54219 15.9195 7.626C16.4376 7.7936 16.8693 7.96121 17.301 8.12881C18.1644 8.54782 19.0278 8.96683 19.8049 9.46964C20.7547 10.0563 21.6181 10.7267 22.5679 11.3971C23.4313 11.9837 24.3811 12.6541 25.3309 13.2407C26.2807 13.8274 27.2304 14.414 28.1802 14.9168C30.0798 15.9224 32.0656 16.7604 34.0515 17.347C36.1238 17.9337 38.3687 18.1851 40.6136 17.8499C41.6497 17.6823 42.5995 17.4309 43.5493 17.0956C44.499 16.6766 45.3625 16.2576 46.1396 15.671C47.003 15.0844 47.7801 14.3302 48.5572 13.576C48.9889 13.1569 49.3342 12.7379 49.6796 12.3189C50.1977 11.6485 50.7157 11.0619 51.2338 10.3915C51.8382 9.63725 52.4426 8.79923 53.2197 8.04501C53.306 8.04501 53.306 7.96121 53.3924 7.96121C53.4787 7.96121 53.5651 7.8774 53.6514 7.8774H53.7377C53.9104 7.8774 53.9968 7.96121 54.1695 7.96121C54.5148 8.12881 54.8602 8.29641 55.2056 8.54782C56.1553 9.21824 56.9324 10.0563 57.7095 10.8943C58.7456 11.8999 59.7818 12.9893 60.9042 13.9112C61.4223 14.3302 61.9403 14.6654 62.4584 15.0006C63.0628 15.4196 63.7535 15.671 64.4443 15.9224C65.0487 16.1738 65.7394 16.2576 66.4302 16.4252C67.2073 16.509 68.0707 16.5928 68.8478 16.509C69.5385 16.509 70.2293 16.3414 70.8337 16.2576C71.6107 16.09 72.3878 15.8386 73.1649 15.5872C74.6328 15.0844 76.0142 14.414 77.3094 13.7436C79.2953 12.7379 81.1085 11.4809 82.9217 10.3077C83.7851 9.72105 84.6485 9.13443 85.5983 8.54782C86.6344 7.8774 87.6706 7.29079 88.7067 6.62037C88.793 6.53657 88.9657 6.45277 89.052 6.45277C89.3974 6.28516 89.7428 6.11756 90.0882 5.86615C90.6062 5.61474 91.1243 5.27954 91.7287 5.02813C91.815 4.94433 91.9877 4.94433 92.0741 4.86053C92.4194 4.69292 92.8511 4.52532 93.1965 4.35771C93.8009 4.10631 94.4917 3.7711 95.0961 3.51969C95.7005 3.26828 96.3912 3.10068 97.0819 2.93308C97.2546 2.93308 97.341 2.93308 97.5137 2.93308C97.6 2.93308 97.7727 2.93308 97.859 2.93308C98.1181 3.01688 98.3771 3.10068 98.7225 3.18448C99.1542 3.43589 99.5859 3.68729 100.018 4.0225C101.313 5.11193 102.435 6.28516 103.644 7.37459C104.421 8.04501 105.198 8.71542 105.975 9.38584C106.752 9.97246 107.529 10.4753 108.307 11.0619C109.17 11.6485 110.033 12.0675 110.897 12.5703C111.674 12.9893 112.624 13.2407 113.487 13.4083C113.919 13.4921 114.264 13.4921 114.696 13.4083C115.214 13.4083 115.732 13.3245 116.25 13.1569C117.114 12.9893 117.977 12.7379 118.754 12.4027C119.704 11.9837 120.567 11.5647 121.431 11.0619C122.639 10.3077 123.676 9.46964 124.798 8.63162C125.402 8.12881 126.093 7.626 126.698 7.12318C127.216 6.70417 127.734 6.36896 128.252 5.94995C129.374 5.11193 130.497 4.44151 131.792 3.8549C132.396 3.60349 133.001 3.43589 133.691 3.35209C134.037 3.35209 134.296 3.26828 134.641 3.26828C134.9 3.26828 135.159 3.26828 135.505 3.35209C136.541 3.51969 137.49 3.7711 138.44 4.10631C139.217 4.44151 140.081 4.86053 140.858 5.19573C141.376 5.44714 141.808 5.69855 142.326 5.94995C142.757 6.20136 143.275 6.45277 143.794 6.70417C144.743 7.12318 145.693 7.54219 146.643 7.96121C147.679 8.38022 148.715 8.63162 149.751 8.88303C151.996 9.46964 154.241 9.80485 156.486 10.0563C157.608 10.2239 158.817 10.2239 159.94 10.2239C161.062 10.2239 162.185 10.0563 163.307 9.88865C165.293 9.63725 167.279 9.05063 169.178 8.29641C170.387 7.7936 171.51 7.20698 172.718 6.62037C174.1 5.94995 175.481 5.19573 176.949 4.52532C177.208 4.44151 177.554 4.35771 177.813 4.27391C177.985 4.27391 178.158 4.27391 178.331 4.27391C178.762 4.35771 179.108 4.44151 179.54 4.60912C180.835 5.19573 181.957 6.03376 183.166 6.78798C184.375 7.626 185.67 8.29641 186.965 8.96683C188.26 9.63725 189.642 10.1401 191.023 10.6429C192.577 11.1457 194.218 11.3971 195.858 11.4809C197.326 11.5647 198.794 11.3971 200.176 11.0619C201.384 10.8105 202.593 10.3077 203.716 9.80485C204.234 9.55345 204.665 9.38584 205.183 9.13443C205.529 8.96683 205.788 8.79923 206.133 8.63162C206.565 8.38022 207.083 8.21261 207.515 7.96121C209.846 7.03938 212.264 6.53657 214.768 6.20136C216.063 6.03375 217.444 5.94995 218.826 5.78235C219.948 5.69855 221.157 5.61474 222.279 5.53094C224.611 5.36334 227.028 5.19573 229.359 5.27954C230.309 5.27954 231 4.52532 231 3.68729C231 2.84927 230.223 2.09505 229.359 2.09505C227.546 2.09505 225.733 2.26266 224.006 2.34646C223.056 2.59787 222.193 2.68167 221.33 2.76547ZM177.554 4.35771C177.64 4.35771 177.64 4.35771 177.726 4.35771C177.64 4.35771 177.554 4.35771 177.554 4.35771Z" fill="#FFC900"/>
</svg>
