<svg width="22" height="22" viewBox="0 0 22 22" fill="none" xmlns="http://www.w3.org/2000/svg">
<g clip-path="url(#clip0_2393_17226)">
<path d="M11 16.498C14.0376 16.498 16.5 14.0356 16.5 10.998C16.5 7.96048 14.0376 5.49805 11 5.49805C7.96243 5.49805 5.5 7.96048 5.5 10.998C5.5 14.0356 7.96243 16.498 11 16.498Z" fill="white"/>
<path d="M11 5.50002H20.5247C19.5596 3.82774 18.1711 2.43904 16.499 1.47356C14.8269 0.508087 12.9301 -0.000134691 10.9993 2.67758e-08C9.06847 0.000134744 7.17171 0.508621 5.49975 1.47433C3.82778 2.44004 2.43954 3.82893 1.47461 5.50135L6.23697 13.75L6.24123 13.7489C5.75677 12.9135 5.50111 11.9651 5.50003 10.9994C5.49894 10.0337 5.75247 9.08474 6.23505 8.24823C6.71763 7.41173 7.4122 6.71723 8.24876 6.23474C9.08532 5.75225 10.0343 5.49883 11 5.50002Z" fill="url(#paint0_linear_2393_17226)"/>
<path d="M11.0007 15.3538C13.4054 15.3538 15.3548 13.4044 15.3548 10.9997C15.3548 8.59493 13.4054 6.64551 11.0007 6.64551C8.59591 6.64551 6.64648 8.59493 6.64648 10.9997C6.64648 13.4044 8.59591 15.3538 11.0007 15.3538Z" fill="#1A73E8"/>
<path d="M15.7624 13.7509L11 21.9996C12.9308 21.9998 14.8277 21.4917 16.4998 20.5264C18.172 19.561 19.5605 18.1724 20.5258 16.5002C21.4911 14.828 21.9991 12.9312 21.9988 11.0003C21.9984 9.06953 21.4897 7.17284 20.5239 5.50098H10.9992L10.998 5.50524C11.9638 5.50338 12.9129 5.75614 13.7498 6.23806C14.5867 6.71998 15.2818 7.41401 15.7649 8.25019C16.248 9.08637 16.5022 10.0351 16.5018 11.0009C16.5013 11.9666 16.2463 12.9151 15.7624 13.7509Z" fill="url(#paint1_linear_2393_17226)"/>
<path d="M6.23651 13.7516L1.47415 5.50293C0.508495 7.17493 7.19635e-05 9.0717 7.63886e-09 11.0025C-7.19482e-05 12.9333 0.508209 14.8301 1.47374 16.5022C2.43926 18.1743 3.828 19.5627 5.50031 20.5278C7.17262 21.4929 9.06956 22.0007 11.0004 22.0002L15.7627 13.7515L15.7597 13.7484C15.2784 14.5857 14.5849 15.2812 13.7491 15.7651C12.9133 16.2489 11.9647 16.5038 10.999 16.5041C10.0333 16.5044 9.08454 16.2501 8.24841 15.7669C7.41229 15.2837 6.71833 14.5885 6.23651 13.7516Z" fill="url(#paint2_linear_2393_17226)"/>
</g>
<defs>
<linearGradient id="paint0_linear_2393_17226" x1="1.47461" y1="6.87502" x2="20.5247" y2="6.87502" gradientUnits="userSpaceOnUse">
<stop stop-color="#D93025"/>
<stop offset="1" stop-color="#EA4335"/>
</linearGradient>
<linearGradient id="paint1_linear_2393_17226" x1="9.49723" y1="21.8525" x2="19.0223" y2="5.35459" gradientUnits="userSpaceOnUse">
<stop stop-color="#FCC934"/>
<stop offset="1" stop-color="#FBBC04"/>
</linearGradient>
<linearGradient id="paint2_linear_2393_17226" x1="12.19" y1="21.3134" x2="2.66494" y2="4.81543" gradientUnits="userSpaceOnUse">
<stop stop-color="#1E8E3E"/>
<stop offset="1" stop-color="#34A853"/>
</linearGradient>
<clipPath id="clip0_2393_17226">
<rect width="22" height="22" fill="white"/>
</clipPath>
</defs>
</svg>
