<svg width="32" height="32" viewBox="0 0 32 32" fill="none" xmlns="http://www.w3.org/2000/svg">
<g clip-path="url(#clip0_2319_17099)">
<g opacity="0.53" filter="url(#filter0_f_2319_17099)">
<path d="M30.5948 16.5087C30.5948 18.3644 30.2173 20.2019 29.4839 21.9163C28.7505 23.6307 27.6755 25.1885 26.3203 26.5006C24.965 27.8128 23.3562 28.8537 21.5855 29.5638C19.8149 30.2739 17.9171 30.6394 16.0005 30.6394C14.084 30.6394 12.1862 30.2739 10.4155 29.5638C8.64488 28.8537 7.03602 27.8128 5.68082 26.5006C4.32561 25.1885 3.25061 23.6307 2.51717 21.9163C1.78374 20.2019 1.40625 18.3644 1.40625 16.5087C1.40625 12.761 2.94386 9.16676 5.68082 6.51673C8.41778 3.8667 12.1299 2.37793 16.0005 2.37793C17.9171 2.37793 19.8149 2.74343 21.5855 3.45357C23.3562 4.16371 24.965 5.20457 26.3203 6.51673C27.6755 7.82889 28.7505 9.38666 29.4839 11.1011C30.2173 12.8155 30.5948 14.653 30.5948 16.5087Z" fill="black"/>
</g>
<path d="M31.1494 15.2608C31.1494 17.2613 30.7575 19.2422 29.9962 21.0904C29.2348 22.9385 28.1189 24.6178 26.7121 26.0324C25.3053 27.4469 23.6352 28.569 21.7971 29.3345C19.9591 30.1001 17.989 30.4941 15.9995 30.4941C11.9815 30.4941 8.12807 28.8892 5.28691 26.0324C2.44575 23.1756 0.849609 19.301 0.849609 15.2608C0.849609 11.2207 2.44575 7.3461 5.28691 4.48931C8.12807 1.63252 11.9815 0.0275889 15.9995 0.0275879C17.989 0.0275878 19.9591 0.421609 21.7971 1.18715C23.6352 1.95269 25.3053 3.07477 26.7121 4.48931C28.1189 5.90385 29.2348 7.58314 29.9962 9.43133C30.7575 11.2795 31.1494 13.2604 31.1494 15.2608Z" fill="url(#paint0_linear_2319_17099)" stroke="#CDCDCD" stroke-width="0.0449838" stroke-linecap="round" stroke-linejoin="round"/>
<path d="M29.9607 15.261C29.9607 18.9846 28.4896 22.5556 25.8711 25.1885C23.2526 27.8214 19.7011 29.3006 15.9979 29.3006C12.2948 29.3006 8.74328 27.8214 6.12476 25.1885C3.50623 22.5556 2.03516 18.9846 2.03516 15.261C2.03516 11.5375 3.50623 7.96647 6.12476 5.33354C8.74328 2.7006 12.2948 1.22144 15.9979 1.22144C19.7011 1.22144 23.2526 2.7006 25.8711 5.33354C28.4896 7.96647 29.9607 11.5375 29.9607 15.261Z" fill="url(#paint1_radial_2319_17099)"/>
<path d="M15.9992 1.95361C15.8864 1.95361 15.7956 2.0449 15.7956 2.1583V4.51935C15.7956 4.63275 15.8864 4.72404 15.9992 4.72404C16.112 4.72404 16.2027 4.63275 16.2027 4.51935V2.1583C16.2027 2.0449 16.112 1.95361 15.9992 1.95361ZM14.6674 2.03825C14.6539 2.03679 14.64 2.03679 14.626 2.03842C14.5138 2.05019 14.433 2.15046 14.4447 2.26325L14.5473 3.25101C14.559 3.3638 14.6587 3.44513 14.7709 3.43335C14.8831 3.42158 14.9639 3.32131 14.9522 3.20851L14.8497 2.22076C14.8394 2.12207 14.7618 2.04746 14.6674 2.03825ZM17.3403 2.03922C17.2459 2.04836 17.1682 2.12297 17.1579 2.22164L17.0545 3.20932C17.0427 3.3221 17.1236 3.42246 17.2358 3.43433C17.348 3.44619 17.4477 3.36494 17.4595 3.25216L17.5628 2.2644C17.5746 2.15162 17.4937 2.05134 17.3815 2.03948C17.3675 2.03802 17.3537 2.03801 17.3403 2.03922ZM13.2994 2.23773C13.2858 2.23783 13.272 2.23918 13.2582 2.2421C13.1479 2.26559 13.0779 2.37383 13.1012 2.48478L13.5875 4.79458C13.6109 4.90553 13.7185 4.97594 13.8289 4.95245C13.9392 4.92897 14.0092 4.8208 13.9859 4.70986L13.4996 2.39997C13.4791 2.30289 13.3942 2.23698 13.2994 2.23773ZM18.7082 2.23967C18.6134 2.2387 18.5284 2.30481 18.5079 2.40186L18.0199 4.7114C17.9965 4.82233 18.0665 4.9306 18.1768 4.95416C18.2871 4.97775 18.3948 4.90738 18.4182 4.79647L18.9062 2.48693C18.9296 2.37601 18.8596 2.26773 18.7493 2.24417C18.7356 2.24125 18.7218 2.23967 18.7082 2.23967ZM11.9938 2.60788C11.9674 2.60545 11.9402 2.60836 11.9134 2.61731C11.8061 2.65237 11.7478 2.76733 11.7826 2.87518L12.0879 3.81974C12.1227 3.9276 12.2371 3.98624 12.3444 3.9512C12.4517 3.91614 12.5099 3.80109 12.4751 3.69324L12.1698 2.74868C12.1437 2.66779 12.0728 2.61464 11.9938 2.60788ZM20.0064 2.60836C19.9274 2.61512 19.8565 2.6683 19.8304 2.74918L19.525 3.69365C19.4901 3.8015 19.5484 3.91655 19.6556 3.95161C19.7629 3.98667 19.8773 3.92807 19.9122 3.82025L20.2176 2.87569C20.2524 2.76784 20.1941 2.65279 20.0869 2.61773C20.0601 2.60898 20.0328 2.60613 20.0064 2.60836ZM10.7027 3.08294C10.6762 3.08343 10.6495 3.08926 10.6237 3.10079C10.5207 3.14684 10.4746 3.26731 10.5204 3.37094L11.4741 5.52844C11.5199 5.63206 11.6397 5.67839 11.7427 5.63233C11.8458 5.58628 11.892 5.4658 11.8462 5.36218L10.8924 3.20468C10.858 3.12695 10.782 3.08139 10.7027 3.08294ZM21.3121 3.09018C21.2328 3.08873 21.1567 3.134 21.1222 3.21166L20.1656 5.36784C20.1197 5.4714 20.1656 5.59196 20.2686 5.63816C20.3716 5.68436 20.4915 5.63819 20.5375 5.53463L21.4941 3.37845C21.54 3.27488 21.4941 3.15432 21.3911 3.10812C21.3654 3.09659 21.3385 3.09077 21.3121 3.09018ZM9.50427 3.72051C9.46519 3.71759 9.42493 3.72635 9.3883 3.74765C9.29063 3.80435 9.25741 3.92904 9.31379 4.02725L9.80766 4.88735C9.86405 4.98556 9.98805 5.01897 10.0857 4.96227C10.1834 4.90557 10.2166 4.78087 10.1602 4.68266L9.66637 3.82256C9.63111 3.76118 9.56942 3.72509 9.50427 3.72051ZM22.4941 3.72051C22.4289 3.72489 22.3673 3.76116 22.3321 3.82255L21.8381 4.68265C21.7817 4.78086 21.815 4.90555 21.9127 4.96225C22.0104 5.01895 22.1344 4.98555 22.1908 4.88734L22.6846 4.02723C22.741 3.92903 22.7078 3.80433 22.6101 3.74763C22.5735 3.72638 22.5332 3.71779 22.4941 3.72051ZM8.34058 4.45031C8.30141 4.45176 8.26218 4.46441 8.22794 4.48936C8.13666 4.55594 8.11648 4.68344 8.18272 4.77523L9.5615 6.68635C9.62772 6.77814 9.75461 6.79843 9.8459 6.73186C9.93719 6.66527 9.95737 6.53778 9.89112 6.44598L8.51226 4.53487C8.47086 4.4775 8.40584 4.44806 8.34058 4.45031ZM23.6723 4.46071C23.6071 4.45828 23.5421 4.4877 23.5006 4.54499L22.1192 6.45425C22.0528 6.54595 22.0728 6.6735 22.1641 6.74022C22.2553 6.80693 22.3821 6.78685 22.4485 6.69519L23.8298 4.78593C23.8961 4.69422 23.8761 4.56668 23.7849 4.49996C23.7507 4.47497 23.7115 4.46212 23.6723 4.46071ZM7.30041 5.32744C7.24845 5.32452 7.19543 5.34198 7.15351 5.37992C7.06969 5.45579 7.06295 5.58469 7.13842 5.66897L7.7993 6.40716C7.87475 6.49145 8.00295 6.49823 8.08678 6.42234C8.1706 6.34646 8.17734 6.21747 8.10187 6.13319L7.44108 5.39509C7.40335 5.35293 7.35238 5.33019 7.30041 5.32744ZM24.6994 5.3289C24.6475 5.33182 24.5965 5.35443 24.5588 5.39657L23.8979 6.13458C23.8224 6.21886 23.8291 6.34785 23.9129 6.42373C23.9967 6.49961 24.1249 6.4928 24.2004 6.40855L24.8614 5.67054C24.9368 5.58626 24.9301 5.45728 24.8463 5.3814C24.8043 5.34347 24.7514 5.32616 24.6994 5.3289ZM6.30348 6.29033C6.25151 6.29324 6.20063 6.31586 6.1629 6.358C6.08745 6.44228 6.09419 6.57119 6.17799 6.64706L7.92314 8.22671C8.00696 8.30258 8.13516 8.29579 8.21061 8.21153C8.28607 8.12725 8.27941 7.99835 8.19557 7.92247L6.45034 6.34283C6.40841 6.3049 6.35545 6.28758 6.30348 6.29033ZM25.7012 6.29723C25.6492 6.29431 25.5961 6.31172 25.5542 6.34962L23.808 7.92804C23.7241 8.00385 23.7172 8.13275 23.7926 8.21709C23.868 8.30142 23.9963 8.30828 24.0802 8.23246L25.8265 6.65405C25.9103 6.57823 25.9172 6.44933 25.8418 6.36499C25.804 6.32283 25.7532 6.30001 25.7012 6.29723ZM5.47444 7.36221C5.40918 7.35978 5.34411 7.38934 5.30268 7.44666C5.23639 7.53841 5.25649 7.66588 5.34775 7.73254L6.14683 8.31631C6.23807 8.38297 6.36485 8.36284 6.43114 8.27108C6.49744 8.17934 6.47738 8.05177 6.38616 7.98512L5.58708 7.40135C5.55289 7.37635 5.5136 7.36362 5.47444 7.36221ZM26.5294 7.36965C26.4903 7.37111 26.451 7.3837 26.4168 7.4087L25.6174 7.99194C25.5261 8.05853 25.5059 8.18611 25.5721 8.2779C25.6383 8.36969 25.7651 8.3899 25.8564 8.32332L26.6559 7.74009C26.7472 7.67349 26.7673 7.546 26.7011 7.45421C26.6597 7.39684 26.5947 7.3674 26.5294 7.36965ZM4.6997 8.50556C4.63456 8.50993 4.57293 8.54621 4.53769 8.60759C4.48129 8.7058 4.51452 8.83049 4.61219 8.8872L6.64569 10.0677C6.74336 10.1244 6.86737 10.091 6.92376 9.9928C6.98016 9.89459 6.94693 9.7699 6.84926 9.7132L4.81576 8.53267C4.77915 8.51142 4.73878 8.50283 4.6997 8.50556ZM27.2986 8.50556C27.2596 8.50264 27.2192 8.51139 27.1826 8.53269L25.1491 9.71321C25.0514 9.76992 25.0182 9.89461 25.0746 9.99282C25.131 10.091 25.255 10.1244 25.3527 10.0677L27.3862 8.88721C27.4839 8.83051 27.5171 8.70582 27.4607 8.60761C27.4255 8.54623 27.3638 8.51013 27.2986 8.50556ZM4.11394 9.72424C4.03461 9.72229 3.95854 9.76796 3.92408 9.84562C3.87813 9.94919 3.92405 10.0698 4.02705 10.1159L4.92918 10.5206C5.03219 10.5668 5.15209 10.5206 5.19804 10.417C5.24398 10.3135 5.19798 10.1929 5.09498 10.1467L4.19293 9.74209C4.1672 9.73051 4.14038 9.72477 4.11394 9.72424ZM27.8884 9.73265C27.8619 9.73314 27.835 9.73897 27.8093 9.7505L26.907 10.1544C26.8039 10.2005 26.7579 10.321 26.8037 10.4246C26.8496 10.5282 26.9696 10.5746 27.0726 10.5284L27.9749 10.1244C28.0779 10.0783 28.1239 9.95781 28.078 9.85421C28.0437 9.77651 27.9677 9.73107 27.8884 9.73265ZM3.59188 10.998C3.51281 11.0046 3.44193 11.0578 3.41573 11.1386C3.38081 11.2464 3.43894 11.3615 3.54619 11.3967L5.77879 12.1281C5.88601 12.1633 6.00048 12.1048 6.03542 11.997C6.07034 11.8891 6.01221 11.774 5.90495 11.7389L3.67237 11.0074C3.64557 10.9986 3.61824 10.9957 3.59188 10.998ZM28.4095 11.0067C28.3831 11.0043 28.3559 11.0072 28.3291 11.0162L26.0959 11.7461C25.9887 11.7811 25.9304 11.8962 25.9653 12.004C26.0002 12.1119 26.1146 12.1704 26.2218 12.1354L28.4549 11.4055C28.5621 11.3704 28.6205 11.2554 28.5856 11.1475C28.5594 11.0667 28.4885 11.0135 28.4095 11.0067ZM3.26663 12.3351C3.17179 12.3341 3.08674 12.4003 3.06622 12.4973C3.04277 12.6083 3.11275 12.7165 3.22305 12.7401L4.18924 12.9466C4.29956 12.9701 4.40722 12.8998 4.43067 12.7889C4.45413 12.6779 4.38415 12.5697 4.27385 12.5461L3.30774 12.3397C3.29396 12.3367 3.28017 12.3351 3.26663 12.3351ZM28.7322 12.337C28.7186 12.3371 28.7049 12.339 28.6911 12.3414L27.725 12.5478C27.6146 12.5713 27.5447 12.6795 27.5681 12.7904C27.5916 12.9014 27.6992 12.9718 27.8096 12.9482L28.7757 12.7418C28.886 12.7183 28.956 12.61 28.9326 12.4991C28.9121 12.402 28.827 12.3362 28.7322 12.337ZM3.02045 13.68C2.92604 13.6891 2.84834 13.7636 2.83797 13.8622C2.82612 13.975 2.9068 14.0754 3.01895 14.0873L5.35407 14.3356C5.46623 14.3475 5.56609 14.2663 5.57794 14.1535C5.58979 14.0407 5.50902 13.9403 5.39686 13.9284L3.06174 13.6802C3.04772 13.6787 3.03394 13.6787 3.02045 13.68ZM28.9801 13.6976C28.9666 13.6962 28.9527 13.6962 28.9387 13.6978L26.6033 13.9429C26.4911 13.9546 26.4103 14.0549 26.422 14.1677C26.4337 14.2805 26.5334 14.3618 26.6456 14.35L28.981 14.105C29.0931 14.0932 29.174 13.9929 29.1623 13.8801C29.152 13.7815 29.0745 13.7069 28.9801 13.6976ZM2.98091 15.0567C2.86813 15.0567 2.77734 15.148 2.77734 15.2614C2.77734 15.3748 2.86813 15.4661 2.98091 15.4661H3.96862C4.0814 15.4661 4.17228 15.3748 4.17228 15.2614C4.17228 15.148 4.0814 15.0567 3.96862 15.0567H2.98091ZM28.0297 15.0567C27.9169 15.0567 27.8261 15.148 27.8261 15.2614C27.8262 15.3748 27.9169 15.4661 28.0297 15.4661H29.0174C29.1302 15.4661 29.221 15.3748 29.221 15.2614C29.221 15.148 29.1302 15.0567 29.0174 15.0567H28.0297ZM5.39414 16.1726C5.38065 16.1711 5.36686 16.1711 5.35284 16.1727L3.01736 16.4178C2.90519 16.4296 2.82433 16.5298 2.83602 16.6426C2.84773 16.7554 2.94745 16.8367 3.05962 16.825L5.3951 16.5799C5.50727 16.5681 5.58813 16.4679 5.57643 16.3551C5.56618 16.2564 5.48853 16.1818 5.39414 16.1726ZM26.603 16.187C26.5086 16.1961 26.4309 16.2706 26.4205 16.3693C26.4086 16.4821 26.4893 16.5825 26.6015 16.5944L28.9366 16.8426C29.0488 16.8546 29.1486 16.7733 29.1605 16.6606C29.1723 16.5478 29.0915 16.4474 28.9794 16.4355L26.6444 16.1872C26.6303 16.1858 26.6165 16.1858 26.603 16.187ZM4.23 17.5699C4.21646 17.57 4.20268 17.5713 4.1889 17.5743L3.22271 17.7806C3.11239 17.8042 3.04245 17.9125 3.06588 18.0234C3.08934 18.1343 3.197 18.2046 3.30732 18.1811L4.27351 17.9748C4.38382 17.9512 4.45376 17.843 4.43033 17.732C4.40982 17.635 4.32484 17.5691 4.23 17.5699ZM27.7681 17.5718C27.6732 17.5708 27.5883 17.637 27.5678 17.734C27.5443 17.8449 27.6142 17.9532 27.7245 17.9768L28.6907 18.1832C28.801 18.2068 28.9087 18.1366 28.9321 18.0256C28.9556 17.9147 28.8856 17.8064 28.7753 17.7828L27.8092 17.5763C27.7954 17.5734 27.7816 17.5718 27.7681 17.5718ZM5.85698 18.378C5.83062 18.3756 5.8034 18.3785 5.77659 18.3875L3.54348 19.1174C3.43622 19.1524 3.37796 19.2675 3.41283 19.3753C3.4477 19.4832 3.56212 19.5417 3.66938 19.5067L5.9024 18.7768C6.00966 18.7417 6.068 18.6267 6.03314 18.5188C6.00697 18.4379 5.93604 18.3848 5.85698 18.378ZM26.1392 18.3853C26.0601 18.3919 25.9892 18.4451 25.963 18.5259C25.9281 18.6337 25.9862 18.7488 26.0935 18.784L28.3261 19.5154C28.4333 19.5506 28.5478 19.4921 28.5827 19.3843C28.6177 19.2764 28.5595 19.1613 28.4522 19.1262L26.2196 18.3947C26.1929 18.3859 26.1655 18.383 26.1392 18.3853ZM5.00483 19.9767C4.97838 19.9772 4.9516 19.9829 4.92585 19.9944L4.02345 20.3984C3.92042 20.4445 3.87443 20.5651 3.9203 20.6687C3.9662 20.7723 4.08603 20.8185 4.18906 20.7724L5.09147 20.3685C5.19449 20.3224 5.24048 20.2018 5.19461 20.0982C5.16022 20.0205 5.08416 19.9751 5.00483 19.9767ZM26.9903 19.9845C26.9109 19.9825 26.8349 20.0282 26.8004 20.1058C26.7545 20.2094 26.8004 20.33 26.9034 20.3762L27.8054 20.7808C27.9084 20.827 28.0283 20.7808 28.0743 20.6772C28.1202 20.5737 28.0743 20.4531 27.9713 20.4069L27.0692 20.0023C27.0435 19.9907 27.0167 19.985 26.9903 19.9845ZM6.76175 20.428C6.72267 20.4251 6.68232 20.4339 6.64569 20.4552L4.61219 21.6357C4.51452 21.6924 4.48129 21.8171 4.53769 21.9153C4.59408 22.0135 4.71809 22.0469 4.81576 21.9902L6.84926 20.8098C6.94693 20.7531 6.98015 20.6283 6.92376 20.5301C6.88851 20.4687 6.82689 20.4326 6.76175 20.428ZM25.2367 20.428C25.1715 20.4324 25.1098 20.4687 25.0746 20.5301C25.0182 20.6283 25.0514 20.7531 25.1491 20.8098L27.1826 21.9902C27.2803 22.0469 27.4044 22.0135 27.4607 21.9153C27.5171 21.8171 27.4839 21.6924 27.3862 21.6357L25.3527 20.4552C25.316 20.4339 25.2758 20.4253 25.2367 20.428ZM6.25454 22.1604C6.21537 22.1619 6.17614 22.1746 6.1419 22.1996L5.34248 22.7828C5.25119 22.8494 5.231 22.9769 5.29721 23.0687C5.36344 23.1605 5.49024 23.1808 5.58152 23.1142L6.38104 22.5309C6.47233 22.4643 6.49252 22.3368 6.4263 22.245C6.38491 22.1877 6.3198 22.1582 6.25454 22.1604ZM25.739 22.1673C25.6737 22.1649 25.6086 22.1945 25.5672 22.2518C25.5009 22.3435 25.521 22.4711 25.6123 22.5378L26.4114 23.1215C26.5026 23.1882 26.6294 23.168 26.6957 23.0762C26.762 22.9844 26.7419 22.857 26.6507 22.7903L25.8516 22.2066C25.8174 22.1816 25.7781 22.1687 25.739 22.1673ZM8.06514 22.238C8.01318 22.2351 7.96018 22.2525 7.91824 22.2904L6.17196 23.8688C6.08808 23.9446 6.08127 24.0735 6.15667 24.1579C6.23207 24.2422 6.36027 24.249 6.44415 24.1732L8.19043 22.5948C8.27431 22.519 8.28112 22.3901 8.20572 22.3058C8.16804 22.2636 8.11711 22.2408 8.06514 22.238ZM23.9284 22.2436C23.8764 22.2466 23.8254 22.2692 23.7877 22.3113C23.7122 22.3956 23.719 22.5245 23.8028 22.6004L25.5479 24.18C25.6318 24.2559 25.7601 24.2491 25.8355 24.1648C25.911 24.0806 25.9042 23.9517 25.8204 23.8758L24.0752 22.2961C24.0332 22.2582 23.9803 22.2409 23.9284 22.2436ZM9.72182 23.7432C9.65656 23.7407 9.59143 23.7701 9.54996 23.8274L8.16864 25.7367C8.10229 25.8284 8.12226 25.956 8.21343 26.0227C8.30462 26.0894 8.43148 26.0693 8.49783 25.9776L9.87915 24.0683C9.94549 23.9766 9.92553 23.8491 9.83436 23.7824C9.80017 23.7574 9.76097 23.7445 9.72182 23.7432ZM22.2652 23.7517C22.226 23.7532 22.1868 23.7658 22.1526 23.7908C22.0613 23.8574 22.0411 23.9849 22.1073 24.0767L23.4861 25.9878C23.5523 26.0796 23.6791 26.0999 23.7704 26.0333C23.8617 25.9667 23.8818 25.8392 23.8156 25.7474L22.4369 23.8363C22.3955 23.7789 22.3305 23.7495 22.2652 23.7517ZM7.93862 24.0466C7.88666 24.0495 7.8357 24.0721 7.79797 24.1143L7.13708 24.8523C7.06161 24.9366 7.0683 25.0656 7.15213 25.1414C7.23594 25.2173 7.36414 25.2105 7.4396 25.1262L8.10056 24.3882C8.17604 24.3039 8.16927 24.1749 8.08547 24.0991C8.04354 24.0611 7.9906 24.0439 7.93862 24.0466ZM24.0585 24.0476C24.0065 24.0447 23.9536 24.0621 23.9117 24.1001C23.8279 24.1759 23.8211 24.3048 23.8965 24.3891L24.5573 25.1273C24.6328 25.2116 24.761 25.2184 24.8448 25.1425C24.9286 25.0666 24.9354 24.9376 24.8599 24.8533L24.1991 24.1152C24.1614 24.0731 24.1105 24.0503 24.0585 24.0476ZM11.6508 24.8663C11.5714 24.8644 11.4954 24.9101 11.461 24.9877L10.5043 27.1439C10.4583 27.2475 10.5043 27.368 10.6073 27.4142C10.7103 27.4604 10.8302 27.4143 10.8761 27.3107L11.8328 25.1545C11.8788 25.051 11.8328 24.9304 11.7298 24.8842C11.7041 24.8726 11.6772 24.8669 11.6508 24.8663ZM20.3347 24.8723C20.3082 24.8728 20.2814 24.8785 20.2556 24.89C20.1526 24.9361 20.1065 25.0566 20.1523 25.1602L21.106 27.3177C21.1518 27.4212 21.2717 27.4676 21.3747 27.4216C21.4777 27.3755 21.5239 27.255 21.4781 27.1514L20.5244 24.9939C20.49 24.9162 20.414 24.8708 20.3347 24.8723ZM9.96966 25.533C9.90453 25.5374 9.84289 25.5736 9.80766 25.635L9.31379 26.4951C9.25741 26.5933 9.29063 26.718 9.3883 26.7747C9.48597 26.8314 9.60998 26.798 9.66637 26.6998L10.1602 25.8397C10.2166 25.7415 10.1834 25.6168 10.0857 25.5601C10.0491 25.5389 10.0087 25.5303 9.96966 25.533ZM22.0287 25.533C21.9896 25.5301 21.9493 25.5389 21.9127 25.5601C21.815 25.6168 21.7818 25.7415 21.8382 25.8397L22.3321 26.6998C22.3885 26.798 22.5125 26.8314 22.6101 26.7747C22.7078 26.718 22.741 26.5933 22.6846 26.4951L22.1908 25.635C22.1555 25.5737 22.0938 25.5376 22.0287 25.533ZM13.7806 25.5638C13.6857 25.5629 13.6007 25.629 13.5802 25.726L13.0923 28.0356C13.0688 28.1465 13.1388 28.2548 13.2491 28.2783C13.3594 28.3019 13.4671 28.2315 13.4905 28.1206L13.9785 25.8111C14.002 25.7002 13.932 25.5919 13.8217 25.5683C13.8079 25.5654 13.7941 25.5638 13.7806 25.5638ZM18.2106 25.5653C18.197 25.5654 18.1834 25.5667 18.1696 25.5697C18.0592 25.5931 17.9892 25.7013 18.0126 25.8122L18.4989 28.1221C18.5222 28.2331 18.6299 28.3035 18.7402 28.28C18.8506 28.2565 18.9206 28.1483 18.8972 28.0373L18.4108 25.7276C18.3904 25.6305 18.3054 25.5645 18.2106 25.5653ZM15.9992 25.7982C15.8864 25.7982 15.7956 25.8895 15.7956 26.0029V28.364C15.7956 28.4774 15.8864 28.5687 15.9992 28.5687C16.112 28.5687 16.2027 28.4774 16.2027 28.364V26.0029C16.2027 25.8895 16.112 25.7982 15.9992 25.7982ZM12.2623 26.5612C12.1833 26.5679 12.1123 26.6211 12.0862 26.702L11.7809 27.6465C11.746 27.7544 11.8043 27.8694 11.9115 27.9045C12.0188 27.9396 12.1332 27.8809 12.1681 27.7731L12.4734 26.8286C12.5083 26.7207 12.45 26.6057 12.3427 26.5706C12.3159 26.5619 12.2887 26.5589 12.2623 26.5612ZM19.7344 26.5617C19.7081 26.5592 19.6808 26.5621 19.654 26.571C19.5468 26.6061 19.4884 26.7211 19.5233 26.829L19.8285 27.7736C19.8634 27.8814 19.9778 27.94 20.0851 27.9049C20.1923 27.8699 20.2506 27.7549 20.2158 27.6471L19.9105 26.7025C19.8843 26.6216 19.8135 26.5684 19.7344 26.5617ZM14.7214 27.0877C14.6269 27.0969 14.5492 27.1714 14.5389 27.2701L14.4356 28.2578C14.4238 28.3706 14.5046 28.4709 14.6168 28.4827C14.729 28.4946 14.8288 28.4134 14.8406 28.3006L14.9438 27.3129C14.9556 27.2001 14.8748 27.0998 14.7626 27.0879C14.7486 27.0864 14.7348 27.0864 14.7214 27.0877ZM17.2688 27.0887C17.2553 27.0872 17.2414 27.0872 17.2274 27.0889C17.1153 27.1006 17.0344 27.2009 17.0461 27.3137L17.1487 28.3016C17.1604 28.4143 17.2601 28.4956 17.3723 28.4838C17.4845 28.472 17.5654 28.3718 17.5536 28.259L17.4511 27.2712C17.4409 27.1725 17.3632 27.0979 17.2688 27.0887Z" fill="#F4F2F3"/>
<g opacity="0.409" filter="url(#filter1_f_2319_17099)">
<path d="M25.5391 7.07324L14.4014 13.5799L7.35938 24.7271L17.6613 17.0545L25.5391 7.07324Z" fill="black"/>
</g>
<path d="M17.5948 16.9419L14.4023 13.5803L25.7271 5.92017L17.5948 16.9419Z" fill="#FF5150"/>
<path d="M17.5943 16.9417L14.4019 13.5801L6.26953 24.6018L17.5943 16.9417Z" fill="#F1F1F1"/>
<path opacity="0.243" d="M6.26953 24.602L17.5943 16.9419L25.7267 5.92017L6.26953 24.602Z" fill="black"/>
</g>
<defs>
<filter id="filter0_f_2319_17099" x="0.260546" y="1.23223" width="31.4809" height="30.5529" filterUnits="userSpaceOnUse" color-interpolation-filters="sRGB">
<feFlood flood-opacity="0" result="BackgroundImageFix"/>
<feBlend mode="normal" in="SourceGraphic" in2="BackgroundImageFix" result="shape"/>
<feGaussianBlur stdDeviation="0.572852" result="effect1_foregroundBlur_2319_17099"/>
</filter>
<filter id="filter1_f_2319_17099" x="7.03373" y="6.7476" width="18.831" height="18.3051" filterUnits="userSpaceOnUse" color-interpolation-filters="sRGB">
<feFlood flood-opacity="0" result="BackgroundImageFix"/>
<feBlend mode="normal" in="SourceGraphic" in2="BackgroundImageFix" result="shape"/>
<feGaussianBlur stdDeviation="0.16282" result="effect1_foregroundBlur_2319_17099"/>
</filter>
<linearGradient id="paint0_linear_2319_17099" x1="15.999" y1="30.4938" x2="15.999" y2="0.027508" gradientUnits="userSpaceOnUse">
<stop stop-color="#BDBDBD"/>
<stop offset="1" stop-color="white"/>
</linearGradient>
<radialGradient id="paint1_radial_2319_17099" cx="0" cy="0" r="1" gradientUnits="userSpaceOnUse" gradientTransform="translate(16.0609 13.2139) scale(15.1499 15.2332)">
<stop stop-color="#06C2E7"/>
<stop offset="0.25" stop-color="#0DB8EC"/>
<stop offset="0.5" stop-color="#12AEF1"/>
<stop offset="0.75" stop-color="#1F86F9"/>
<stop offset="1" stop-color="#107DDD"/>
</radialGradient>
<clipPath id="clip0_2319_17099">
<rect width="32" height="32" fill="white"/>
</clipPath>
</defs>
</svg>
