<svg width="32" height="32" viewBox="0 0 32 32" fill="none" xmlns="http://www.w3.org/2000/svg">
<rect x="0.5" y="0.5" width="31" height="31" rx="5.5" stroke="#F5F5F6"/>
<path d="M24.5256 7.63411C24.3113 7.64351 24.1027 7.70315 23.9146 7.77848C23.7284 7.85331 22.6565 8.31083 21.0735 8.98762C19.4906 9.66441 17.4328 10.5457 15.3931 11.4197C11.3135 13.1675 7.30461 14.8872 7.30461 14.8872L7.33383 14.8761C7.33383 14.8761 7.09188 14.9569 6.84657 15.1279C6.72391 15.2133 6.59195 15.3236 6.48391 15.4845C6.37587 15.6453 6.29688 15.8733 6.32664 16.1144C6.4312 16.9613 7.30891 17.2015 7.30891 17.2015L7.31235 17.2032L11.2294 18.5439C11.3292 18.877 12.4174 22.509 12.6568 23.2782C12.789 23.7034 12.9127 23.9487 13.0418 24.1161C13.1064 24.1998 13.1741 24.2646 13.2489 24.312C13.2786 24.3308 13.3099 24.345 13.3409 24.3575H13.3426C13.3464 24.3592 13.35 24.3594 13.3538 24.361L13.3434 24.3584C13.3506 24.3613 13.3577 24.3662 13.3649 24.3687C13.3789 24.3736 13.3874 24.3734 13.4053 24.3773C13.8539 24.5339 14.2252 24.2432 14.2252 24.2432L14.2406 24.2312L16.6469 21.9994L20.5519 25.0442L20.6009 25.0665C21.2844 25.37 21.9025 25.2007 22.2448 24.9222C22.5872 24.6436 22.7218 24.2845 22.7218 24.2845L22.7364 24.2467L25.6059 9.29098C25.6793 8.95639 25.6897 8.66717 25.6205 8.40583C25.5512 8.14448 25.383 7.91729 25.1719 7.79137C24.9608 7.66545 24.7399 7.62471 24.5256 7.63411ZM24.5488 8.52872C24.6359 8.52469 24.7004 8.53464 24.7207 8.54676C24.741 8.55889 24.7502 8.5573 24.7697 8.63098C24.7892 8.70467 24.7998 8.85987 24.7465 9.10278L24.7448 9.10794L21.8916 23.9768C21.8849 23.9918 21.8254 24.1294 21.6897 24.2398C21.5512 24.3525 21.3972 24.4404 20.9884 24.269L16.7182 20.939L16.5979 20.8444L16.5953 20.847L15.3183 19.8888L22.4949 11.4454C22.5501 11.3807 22.5853 11.3014 22.5963 11.2171C22.6074 11.1328 22.5937 11.0471 22.5571 10.9704C22.5205 10.8937 22.4624 10.8292 22.3899 10.7848C22.3174 10.7404 22.2336 10.7179 22.1486 10.7201C22.0655 10.7223 21.9848 10.7479 21.9157 10.794L11.531 17.7172L7.60797 16.374C7.60797 16.374 7.21842 16.1572 7.19977 16.0061C7.19874 15.9978 7.19414 16.0053 7.21438 15.9752C7.23462 15.9451 7.28551 15.8942 7.3493 15.8497C7.47689 15.7608 7.62258 15.7071 7.62258 15.7071L7.63719 15.7019L7.6518 15.6959C7.6518 15.6959 11.6609 13.9761 15.7402 12.2283C17.7799 11.3545 19.8373 10.4738 21.4198 9.79715C23.002 9.12071 24.1452 8.6338 24.242 8.59489C24.3522 8.55076 24.4618 8.53275 24.5488 8.52872ZM19.7896 13.269L14.3472 19.6722L14.3446 19.6748C14.3361 19.685 14.3281 19.6957 14.3206 19.7066C14.3119 19.7185 14.3039 19.7308 14.2965 19.7436C14.2659 19.7955 14.2463 19.8531 14.2389 19.9129C14.2389 19.914 14.2389 19.9151 14.2389 19.9163L13.5299 23.1046C13.5181 23.0701 13.5099 23.0575 13.4973 23.0169V23.0161C13.2721 22.2925 12.2454 18.8672 12.1034 18.3935L19.7896 13.269ZM14.9616 20.7215L15.9396 21.4554L14.5027 22.7875L14.9616 20.7215Z" fill="white"/>
</svg>
