<svg width="44" height="45" viewBox="0 0 44 45" fill="none" xmlns="http://www.w3.org/2000/svg">
<path d="M15.8555 32.1448L33.6227 22.8722L15.8555 13.5996V32.1448Z" fill="black"/>
<path d="M37.1634 36.5041C36.5603 36.6822 36.2271 37.3544 35.9399 37.8714C35.6814 38.3425 35.1816 38.8941 35.1816 39.4456C35.1816 39.6237 35.3655 39.7673 35.5378 39.7156C36.072 39.5663 36.4684 38.94 36.8532 38.5666C37.2783 38.153 37.847 37.6474 37.8585 37.0269C37.87 36.6822 37.5081 36.4007 37.1634 36.5041Z" fill="black"/>
<path d="M43.6078 24.4341C46.2157 13.8975 35.3302 3.24037 25.427 1.36747C19.9813 0.339097 14.3174 1.31576 9.67598 4.34343C5.68941 6.94022 1.61093 11.5535 1.10543 16.4369C1.09394 16.546 1.12841 16.6322 1.17436 16.7069C-1.96779 24.7673 1.45584 34.9016 8.3433 40.0205C15.1733 45.0935 26.4035 46.8687 33.6701 41.5717C34.2847 41.1236 33.7735 40.2331 33.0727 40.5606C32.8084 40.6812 32.5442 40.8019 32.2857 40.9225C32.1536 40.6927 31.8778 40.5433 31.5332 40.7099C26.6964 43.0022 19.9813 41.8417 15.202 40.1412C14.6621 39.9516 14.2944 40.8076 14.8114 41.0604C17.3562 42.2956 20.1249 43.0195 22.9626 43.1688C24.146 43.232 25.335 43.1918 26.5184 43.0654C24.7147 43.5193 22.8535 43.7261 20.8487 43.548C16.776 43.1803 13.18 41.6636 9.81385 39.4115C5.86749 36.7745 3.17339 33.563 1.89815 28.9669C0.789495 24.9856 0.732051 20.7917 1.95559 16.8505C2.00729 16.8103 2.05899 16.7643 2.08771 16.7012C2.30025 16.299 2.50705 15.9026 2.71385 15.5119C1.50179 18.6315 1.14564 22.0901 1.69136 25.3877C2.71959 31.6442 6.24661 35.7749 11.4337 39.1703C12.0541 39.5782 12.6803 38.5325 12.0197 38.1821C7.41271 35.7404 3.75932 30.1849 2.98383 25.1062C2.12792 19.499 4.16716 14.2365 7.50462 9.77255C7.79184 9.39337 7.18868 8.97399 6.86126 9.27848C6.31555 9.78979 5.81004 10.3413 5.33901 10.9216C6.103 9.77255 6.95891 8.69248 7.98715 7.68708C7.75163 8.0835 8.13076 8.68099 8.60179 8.37649C9.81385 7.60091 10.9857 6.77361 12.2437 6.06122C13.1398 5.55565 14.0934 5.15349 15.0125 4.68814C15.1618 4.7341 15.3342 4.74559 15.5352 4.69388C22.2101 2.99908 28.8563 3.7287 34.0549 8.6063C34.256 8.79588 34.503 8.70971 34.6294 8.53736C34.5834 8.77865 34.7155 9.06591 35.0372 9.06591C35.6002 9.06591 35.6002 8.1984 35.0372 8.1984C34.8764 8.1984 34.7672 8.26734 34.6983 8.37075C34.7098 8.27309 34.6811 8.16967 34.5949 8.07201C32.8601 6.23932 30.6715 4.71112 28.2647 3.64253C35.2957 6.21633 41.1435 12.513 41.9879 19.7805C41.4651 17.4595 40.4943 15.2132 39.0755 13.1851C38.7136 12.6738 37.9151 13.1162 38.2196 13.6792C40.1095 17.1378 40.9998 20.9181 41.1262 24.8362C41.2583 28.9267 39.6672 32.4198 37.4901 35.7921C37.266 36.1368 37.783 36.5562 38.0645 36.269C38.1966 36.3379 38.3574 36.3379 38.4953 36.2115C41.6375 33.2815 43.9352 28.8923 43.625 24.4973C43.6193 24.4743 43.6078 24.457 43.6078 24.4341Z" fill="black"/>
<path d="M13.0815 39.6811C12.9436 40.0028 13.1274 40.3245 13.4491 40.4337C13.6846 40.5141 13.8972 40.5945 14.1442 40.629C14.5693 40.6807 14.7301 40.1004 14.4716 39.8419C14.305 39.6696 14.081 39.5489 13.8799 39.4168C13.6042 39.2272 13.2078 39.3938 13.0815 39.6811Z" fill="black"/>
</svg>
