<svg width="102" height="95" viewBox="0 0 102 95" fill="none" xmlns="http://www.w3.org/2000/svg">
<path d="M65.0886 6.5767C66.5128 8.00182 67.8637 9.16964 69.0215 10.5239C76.827 19.8764 78.617 30.5295 75.7139 42.1691C74.1828 48.372 71.0273 53.7147 66.0854 57.9164C61.3929 61.8992 55.9768 63.9774 49.82 63.8612C39.0798 63.6195 30.6316 55.2373 30.3262 44.5512C30.1912 39.7597 31.3801 35.1778 33.2232 30.8175C37.7112 20.3604 44.9419 12.44 55.0929 7.1037C55.7132 6.7456 56.2771 6.42006 57.1229 5.93174C56.4926 5.6214 56.0964 5.32576 55.6198 5.15142C49.2229 2.9265 42.7363 3.1506 36.4574 5.42727C18.9909 11.7659 8.10967 24.0412 4.33815 42.2503C2.2693 52.2096 3.70947 61.8661 9.35074 70.5953C13.4519 76.9175 18.5511 82.3638 24.5594 86.9107C25.1093 87.3423 25.6832 87.6852 26.2895 88.0843C26.5321 88.2439 26.7985 88.3148 27.2751 88.4891C27.2411 87.9094 27.2721 87.4421 27.1338 87.0724C26.3437 84.532 25.4733 82.1129 24.6833 79.5725C24.4392 78.8894 24.2191 78.1175 24.233 77.3603C24.2076 76.9255 24.6571 76.1416 25.0039 76.0912C25.4635 75.9757 26.1262 76.3422 26.6352 76.5727C26.8453 76.6762 26.8947 77.0222 26.9681 77.2795C28.4903 81.8693 29.9562 86.4918 31.422 91.1142C32.1711 93.4534 31.5524 94.3351 29.1163 94.543C28.5354 94.5787 28.0434 94.638 27.4301 94.6175C22.0797 94.3354 16.7294 94.0533 11.4593 93.65C9.82104 93.547 8.16582 93.1542 6.56697 92.7289C5.85637 92.5398 5.10484 92.1497 4.57886 91.6293C4.27145 91.3573 4.10773 90.5529 4.3163 90.1328C4.46847 89.7453 5.12965 89.5883 5.58074 89.3279C5.74989 89.2302 5.95999 89.3336 6.17008 89.4371C10.9836 91.003 16.0505 90.9243 20.9653 91.2332C22.2807 91.2978 23.5072 91.3387 25.3471 91.4002C24.8211 90.8798 24.635 90.6877 24.4249 90.5842C18.0628 86.4663 12.9636 81.02 8.55655 74.9493C-0.945779 62.0067 -1.72151 47.7715 3.71441 33.0963C8.1739 21.1574 16.3616 12.1602 27.5431 6.00419C32.7955 3.12153 38.4542 1.20295 44.553 0.828153C49.7806 0.50689 54.8421 1.33032 59.5529 3.62978C60.9023 4.27409 62.04 4.29144 63.5076 3.96854C66.3539 3.2991 69.2326 2.68584 72.0805 2.53992C84.625 1.73991 94.6814 8.21971 98.9036 20.0905C102.938 31.2456 101.493 41.8939 94.3075 51.5859C92.9572 53.4143 91.1459 54.8346 89.4319 56.4235C88.8526 56.9827 87.9983 57.3261 87.2568 57.6044C86.6281 57.8176 85.9175 57.6285 85.7298 56.9128C85.6155 56.4544 85.872 55.8569 85.9917 55.4132C86.0396 55.2357 86.2976 55.1616 86.4667 55.064C92.032 51.5512 95.0183 46.3061 96.7355 40.2955C98.9796 32.3325 98.3195 24.548 94.2153 17.1788C90.6949 10.8209 85.262 7.14048 78.214 5.74099C73.9998 4.95275 68.8849 5.2089 65.0886 6.5767ZM54.6595 10.6502C47.4745 14.8733 41.8675 20.6576 37.9511 27.938C35.5032 32.4227 33.7984 37.1527 33.3695 42.2697C32.453 54.4854 43.0214 62.2428 53.4411 60.497C58.9252 59.5782 63.4925 56.9413 66.9978 52.5952C73.6785 44.2432 75.2808 34.7779 72.903 24.5391C71.4156 18.0563 67.8983 12.7455 62.6176 8.67754C61.5177 7.81427 60.5491 7.69926 59.389 8.29416C57.7777 9.14951 56.2468 9.88356 54.6595 10.6502Z" fill="#E30029"/>
</svg>
