<svg width="122" height="68" viewBox="0 0 122 68" fill="none" xmlns="http://www.w3.org/2000/svg">
<path d="M107.808 59.0109C108.142 58.4996 108.346 58.3751 108.435 58.1528C111.023 42.1933 108.066 27.3932 98.2206 14.4016C95.7425 11.1148 92.4641 8.5393 88.6567 6.70635C80.5303 2.70681 71.1603 4.39909 64.9359 10.9348C61.6726 14.3226 59.1431 18.1331 58.4685 22.9179C59.9499 24.568 61.4803 26.1603 62.7482 27.8282C64.8037 30.5591 65.7607 33.6499 65.0279 37.0961C64.5439 39.6619 63.0767 41.3959 61.369 41.5378C59.1276 41.7241 57.5084 40.3541 56.8141 38.4773C55.8438 35.8712 55.1849 33.1318 54.6904 30.4324C54.3831 28.6847 54.4937 26.7947 54.5066 25.0204C47.1405 20.4741 39.132 24.31 35.5903 34.0081C36.3199 35.0221 37.1074 36.0851 37.7881 37.157C40.222 41.1998 41.0148 45.5401 39.295 50.0356C38.6328 51.7564 37.5837 53.3482 35.3912 53.4767C33.7324 53.5609 32.1132 52.1908 31.2764 49.896C30.0035 46.2404 30.118 42.4694 30.6106 38.7207C30.8237 37.4134 31.0368 36.106 31.3077 34.8476C20.2096 27.4411 5.36087 30.4485 1.87769 42.7746C1.17482 42.0808 0.489795 41.6004 0.338437 41.0756C0.178154 40.4441 0.484782 39.6126 0.809259 38.9945C4.04083 33.2987 8.48253 29.2218 15.2467 28.4984C20.3031 27.9169 25.1554 28.7495 29.9323 30.6094C30.5995 30.8763 31.2667 31.1433 31.9827 31.3525C32.0406 31.4014 32.1962 31.3347 32.5653 31.2503C32.9476 30.6812 33.4856 30.0454 33.9078 29.3117C39.2466 20.5391 44.7517 18.2545 55.0123 20.787C55.3679 19.8977 55.8212 18.8928 56.1678 17.8968C58.4299 12.1741 62.0798 7.62561 67.3979 4.38938C76.0375 -0.896177 86.351 -0.30252 94.7715 5.92945C99.3532 9.3101 102.881 13.5844 105.609 18.57C112.154 30.6537 114.564 43.4036 111.673 57.024C111.57 57.731 111.362 58.4469 111.26 59.1539C111.268 59.2607 111.335 59.4163 111.535 59.8833C113.661 58.3095 115.052 56.3131 116.502 54.3657C117.96 52.525 119.351 50.5286 120.898 48.4656C122.255 49.9111 122.149 51.2096 121.664 52.4858C121.033 53.9353 120.518 55.4828 119.598 56.6877C117.072 59.9067 114.44 63.1346 111.577 66.1668C109.301 68.5054 107.384 68.0737 106.289 65.263C104.015 59.2725 101.79 53.2241 99.5641 47.1758C99.2125 46.1841 99.0744 45.1746 98.8027 43.8538C101.004 43.832 101.538 45.0773 102.063 46.2158C103.817 50.4764 105.717 54.5635 107.808 59.0109ZM35.1235 50.2749C37.9774 45.8463 37.5358 41.2081 34.0971 38.0011C33.5824 42.1277 32.992 45.992 35.1235 50.2749ZM60.6165 38.3225C62.6922 34.2273 61.7484 30.6518 57.9274 28.0139C57.9196 31.776 58.0406 35.1513 60.6165 38.3225Z" fill="black"/>
</svg>
