<svg width="78" height="139" viewBox="0 0 78 139" fill="none" xmlns="http://www.w3.org/2000/svg">
<path d="M10.7024 122.585C11.2778 122.976 11.4151 123.212 11.6666 123.318C29.7984 126.626 46.7313 123.588 61.7555 112.659C65.5562 109.908 68.564 106.23 70.7372 101.932C75.475 92.7603 73.7534 82.0438 66.4423 74.8036C62.6533 71.0085 58.3664 68.0403 52.9281 67.1641C51.0147 68.8154 49.1661 70.5237 47.2372 71.9314C44.0795 74.2126 40.5357 75.2339 36.6242 74.3215C33.7107 73.7123 31.7669 72.0014 31.6429 70.052C31.4801 67.4934 33.0773 65.6788 35.2316 64.9296C38.2232 63.8823 41.3599 63.1928 44.4474 62.6899C46.446 62.3788 48.5975 62.5473 50.6194 62.6017C55.9637 54.309 51.7689 45.0961 40.7943 40.8421C39.6225 41.6509 38.3936 42.5245 37.1569 43.2763C32.4956 45.9593 27.5313 46.7655 22.4458 44.7047C20.4993 43.9114 18.7083 42.6801 18.6103 40.1785C18.5511 38.2862 20.1483 36.4716 22.7821 35.5695C26.9766 34.2007 31.2719 34.4159 35.5333 35.0614C37.0186 35.3335 38.5039 35.6057 39.9321 35.9427C48.6186 23.4609 45.5193 6.47107 31.5482 2.22494C32.3545 1.43948 32.9172 0.669566 33.5186 0.508844C34.2419 0.340344 35.1828 0.708447 35.88 1.0921C42.3001 4.90274 46.8484 10.0562 47.5233 17.7812C48.0742 23.5568 47.0181 29.068 44.7928 34.4703C44.4738 35.2247 44.1548 35.979 43.9006 36.7904C43.8436 36.8552 43.9161 37.0341 44.0042 37.4566C44.6444 37.9051 45.3571 38.5324 46.1839 39.0301C56.0641 45.3112 58.5461 51.6364 55.433 63.2731C56.4387 63.6983 57.574 64.2374 58.7015 64.6548C65.1737 67.3611 70.2769 71.6228 73.8477 77.7562C79.6807 87.7209 78.7761 99.4613 71.4874 108.918C67.5332 114.064 62.5839 117.988 56.8415 120.985C42.925 128.173 28.3407 130.634 12.8815 127.033C12.078 126.901 11.2667 126.647 10.4631 126.514C10.3413 126.522 10.1624 126.595 9.62575 126.813C11.3724 129.27 13.6169 130.901 15.8044 132.596C17.87 134.299 20.1145 135.93 22.4316 137.739C20.7541 139.253 19.2766 139.103 17.8329 138.522C16.1947 137.77 14.4425 137.148 13.0896 136.072C9.47669 133.122 5.85602 130.05 2.46351 126.719C-0.151484 124.073 0.382966 121.898 3.61052 120.713C10.4882 118.255 17.4306 115.855 24.373 113.455C25.5111 113.076 26.6647 112.941 28.176 112.661C28.1521 115.171 26.7211 115.751 25.4119 116.324C20.5174 118.227 15.8173 120.301 10.7024 122.585ZM22.2654 39.9452C27.2495 43.297 32.5455 42.8978 36.2765 39.0509C31.5847 38.3717 27.1936 37.6122 22.2654 39.9452ZM35.324 69.2665C39.9454 71.724 44.0413 70.7285 47.1321 66.4331C42.8446 66.3398 38.9952 66.402 35.324 69.2665Z" fill="#FFC900"/>
</svg>
