<svg width="98" height="103" viewBox="0 0 98 103" fill="none" xmlns="http://www.w3.org/2000/svg">
<path d="M41.6859 6.98625C40.014 8.11067 38.4636 8.99671 37.0669 10.1028C27.6075 17.7785 23.801 27.888 24.41 39.8688C24.7188 46.2504 26.7872 52.1005 30.8282 57.1746C34.6666 61.9859 39.5815 65.0675 45.6456 66.1383C56.2316 67.9679 66.1349 61.3681 68.491 50.9404C69.5455 46.2645 69.2605 41.5394 68.291 36.9059C65.8991 25.7806 60.3277 16.6169 51.3932 9.4269C50.8535 8.95614 50.3628 8.52817 49.6268 7.88622C50.305 7.70297 50.7507 7.4891 51.2519 7.40973C57.9574 6.45737 64.2797 7.92552 70.0031 11.3679C85.9234 20.9492 94.2391 35.089 94.4361 53.6835C94.5497 63.8548 91.2783 73.0537 84.0626 80.5342C78.8215 85.949 72.7696 90.3123 65.9986 93.618C65.3759 93.9357 64.7467 94.1618 64.0749 94.4367C63.8062 94.5467 63.5311 94.565 63.0299 94.6443C63.1748 94.082 63.2344 93.6175 63.4412 93.2813C64.7053 90.9404 66.025 88.734 67.2891 86.3931C67.6601 85.7697 68.0246 85.0546 68.1567 84.3089C68.2653 83.8871 67.975 83.0313 67.6444 82.9151C67.2156 82.7133 66.4948 82.9455 65.9509 83.0738C65.7249 83.1348 65.6098 83.4649 65.4883 83.7033C63.1112 87.9144 60.7833 92.1683 58.4554 96.4223C57.2701 98.5737 57.7076 99.5579 60.0582 100.231C60.6213 100.378 61.0927 100.53 61.6985 100.628C67.0031 101.381 72.3078 102.134 77.557 102.752C79.1844 102.966 80.8843 102.899 82.5351 102.79C83.2688 102.741 84.0814 102.503 84.6977 102.093C85.0517 101.886 85.3671 101.128 85.2433 100.675C85.1685 100.266 84.5499 99.9845 84.1574 99.6421C84.0102 99.5137 83.7841 99.5748 83.5581 99.6359C78.5332 100.246 73.5761 99.194 68.6937 98.5513C67.3905 98.3616 66.179 98.1657 64.3617 97.872C64.978 97.4626 65.1976 97.3098 65.4237 97.2487C72.4593 94.4321 78.5112 90.0688 84.0041 84.9597C95.8194 74.0875 99.32 60.2676 96.8097 44.8207C94.731 32.2468 88.4276 21.842 78.6398 13.6494C74.0402 9.80993 68.8565 6.83829 62.9438 5.29687C57.8757 3.97565 52.7504 3.80969 47.6852 5.15966C46.237 5.53227 45.1172 5.33036 43.7392 4.73108C41.0749 3.52643 38.368 2.37067 35.6015 1.67945C23.4453 -1.5196 12.33 2.90391 5.90228 13.7404C-0.203518 23.9106 -0.834071 34.638 4.35178 45.5316C5.32493 47.5856 6.82908 49.3279 8.2053 51.2169C8.66618 51.8772 9.43841 52.3785 10.1125 52.7943C10.6885 53.1245 11.4222 53.0757 11.7441 52.4095C11.9444 51.9817 11.8078 51.3459 11.7756 50.8875C11.7628 50.7041 11.5239 50.5818 11.3767 50.4534C6.59141 45.9354 4.67027 40.2137 4.14175 33.9849C3.47193 25.7389 5.61769 18.2269 11.0633 11.7853C15.7413 6.22365 21.7809 3.65745 28.9666 3.6404C33.2537 3.67784 38.2236 4.91347 41.6859 6.98625ZM51.1361 12.9905C57.3742 18.5174 61.7633 25.2725 64.2055 33.1704C65.7446 38.0424 66.5074 43.0121 65.9436 48.116C64.4922 60.2797 52.6286 65.8584 42.7395 62.1402C37.5348 60.1832 33.5603 56.7167 30.9568 51.7772C26.0081 42.2958 26.2572 32.6991 30.5609 23.1092C33.268 17.0338 37.7415 12.4991 43.7064 9.52333C44.9518 8.88785 45.9244 8.96137 46.9484 9.76841C48.365 10.9178 49.726 11.9328 51.1361 12.9905Z" fill="#F44968"/>
</svg>
