<svg width="86" height="36" viewBox="0 0 86 36" fill="none" xmlns="http://www.w3.org/2000/svg">
<path d="M5.76053 13.7726C8.08586 15.2452 9.9841 16.3129 11.7889 17.5026C12.8286 18.2221 13.9905 19.0353 12.8026 20.991C8.88102 19.0695 4.9249 17.5475 1.40886 15.0461C-0.0895924 14.0136 -0.171534 12.9051 0.705743 11.2536C1.01926 10.6418 1.45502 10.1237 1.82893 9.63565C3.9775 6.9833 6.12608 4.33094 8.36669 1.7104C9.08288 0.826283 9.95295 -0.0560929 11.1451 0.818989C12.215 1.60037 12.1114 2.79916 11.5477 3.83885C10.8904 5.00055 10.0807 6.00668 9.30127 7.07469C8.7404 7.80673 8.11769 8.56885 7.86168 9.61205C8.23271 9.43167 8.60376 9.25128 8.97479 9.07089C13.118 7.05661 15.0852 7.32516 18.5653 10.3801C21.312 12.8728 23.4704 15.728 24.7919 19.2199C25.1227 20.0544 25.4534 20.8889 25.754 21.6615C27.2308 25.0013 29.0729 25.4838 31.8039 23.0842C33.2003 21.8694 34.3537 20.3133 35.5977 18.9429C39.2693 14.708 42.505 14.2833 47.1527 17.5361C50.6386 19.9757 53.5031 23.0236 55.6228 26.7399C56.2584 27.8856 56.9242 29.0931 57.7151 30.0867C59.0539 31.7327 60.223 31.7767 61.4699 30.0987C62.8405 28.3605 63.8745 26.4031 65.0006 24.4776C65.8131 23.1638 66.4114 21.7245 67.316 20.4425C69.187 17.8486 71.7555 16.3702 75.0429 16.9922C77.5006 17.4817 79.987 18.1869 82.38 19.0141C83.9446 19.555 85.1957 20.7077 85.2042 23.0769C84.4061 22.8525 83.7618 22.6298 83.0557 22.4371C80.5391 21.67 78.0225 20.9029 75.4426 20.3197C72.9547 19.7683 71.1585 20.9478 69.9692 23.0573C68.9668 24.9227 68.1485 26.8518 67.1159 28.6553C66.1466 30.275 65.2074 31.9566 63.9333 33.2651C61.2281 36.188 57.5668 36.054 55.0416 32.9177C53.8854 31.4892 52.9162 29.8167 52.039 28.176C50.2228 24.9246 47.6617 22.3417 44.6648 20.2769C42.1568 18.5869 40.9546 18.7886 38.9642 20.9812C37.3161 22.7777 35.8204 24.7299 33.9595 26.2471C32.7803 27.2798 31.1121 27.9377 29.5086 28.2579C26.7331 28.8416 24.5285 27.6165 23.2286 25.1095C22.5642 23.7482 21.9315 22.2949 21.5145 20.8132C20.4691 17.4169 18.2157 14.8374 15.7135 12.5321C14.4926 11.4413 13.2041 10.9959 11.5345 11.8076C9.86486 12.6194 8.07586 13.0297 5.76053 13.7726Z" fill="black"/>
</svg>
