<svg width="106" height="158" viewBox="0 0 106 158" fill="none" xmlns="http://www.w3.org/2000/svg">
<path d="M11.4018 76.7573C5.82549 64.8363 8.84173 51.904 19.7486 45.607L78.9942 11.4015C89.901 5.10441 103.848 8.84136 110.145 19.7482L144.35 78.9938C150.647 89.9007 156.892 100.717 137.63 111.838L76.7577 144.35C65.8509 150.647 55.7905 147.958 49.4934 137.051L11.4018 76.7573Z" fill="#5F95FF"/>
<mask id="mask0_2171_15123" style="mask-type:alpha" maskUnits="userSpaceOnUse" x="8" y="8" width="143" height="140">
<path d="M11.4018 76.7573C5.82549 64.8363 8.84173 51.904 19.7486 45.607L78.9942 11.4015C89.901 5.10441 103.848 8.84136 110.145 19.7482L144.35 78.9938C150.647 89.9007 156.892 100.717 137.63 111.838L76.7577 144.35C65.8509 150.647 55.7905 147.958 49.4934 137.051L11.4018 76.7573Z" fill="#3F80FF"/>
</mask>
<g mask="url(#mask0_2171_15123)">
<path d="M55.3398 88.2205C60.6406 108.003 62.3048 126.706 60.7417 140.935C59.9597 148.053 58.376 153.998 56.0781 158.389C53.7807 162.779 50.8234 165.523 47.3171 166.463C43.8107 167.403 39.8771 166.504 35.6926 163.851C31.5071 161.197 27.1633 156.841 22.9272 151.068C14.459 139.527 6.54875 122.497 1.24794 102.714C-4.05286 82.9315 -5.71704 64.2285 -4.15393 49.9996C-3.372 42.8817 -1.78824 36.9373 0.50966 32.5463C2.807 28.1564 5.76429 25.4114 9.27067 24.4719C12.777 23.5324 16.7106 24.4309 20.8951 27.084C25.0807 29.7378 29.4244 34.0939 33.6605 39.8672C42.1287 51.4083 50.039 68.4376 55.3398 88.2205Z" stroke="black" stroke-width="2"/>
<path d="M23.3398 92.2205C28.6406 112.003 30.3048 130.706 28.7417 144.935C27.9597 152.053 26.376 157.998 24.0781 162.389C21.7807 166.779 18.8234 169.523 15.3171 170.463C11.8107 171.403 7.87713 170.504 3.69261 167.851C-0.492942 165.197 -4.83671 160.841 -9.07281 155.068C-17.541 143.527 -25.4512 126.497 -30.7521 106.714C-36.0529 86.9315 -37.717 68.2285 -36.1539 53.9996C-35.372 46.8817 -33.7882 40.9373 -31.4903 36.5463C-29.193 32.1564 -26.2357 29.4114 -22.7293 28.4719C-19.223 27.5324 -15.2894 28.4309 -11.1049 31.084C-6.91933 33.7378 -2.57555 38.0939 1.66054 43.8672C10.1287 55.4083 18.039 72.4376 23.3398 92.2205Z" stroke="black" stroke-width="2"/>
<path d="M89.3398 79.2205C94.6406 99.0034 96.3048 117.706 94.7417 131.935C93.9597 139.053 92.376 144.998 90.0781 149.389C87.7807 153.779 84.8234 156.523 81.3171 157.463C77.8107 158.403 73.8771 157.504 69.6926 154.851C65.5071 152.197 61.1633 147.841 56.9272 142.068C48.459 130.527 40.5488 113.497 35.2479 93.7144C29.9471 73.9315 28.283 55.2285 29.8461 40.9996C30.628 33.8817 32.2118 27.9373 34.5097 23.5463C36.807 19.1564 39.7643 16.4114 43.2707 15.4719C46.777 14.5324 50.7106 15.4309 54.8951 18.084C59.0807 20.7378 63.4244 25.0939 67.6605 30.8672C76.1287 42.4083 84.039 59.4376 89.3398 79.2205Z" stroke="black" stroke-width="2"/>
<path d="M120.34 65.2205C125.641 85.0034 127.305 103.706 125.742 117.935C124.96 125.053 123.376 130.998 121.078 135.389C118.781 139.779 115.823 142.523 112.317 143.463C108.811 144.403 104.877 143.504 100.693 140.851C96.5071 138.197 92.1633 133.841 87.9272 128.068C79.459 116.527 71.5488 99.4973 66.2479 79.7144C60.9471 59.9315 59.283 41.2285 60.8461 26.9996C61.628 19.8817 63.2118 13.9373 65.5097 9.5463C67.807 5.15637 70.7643 2.41142 74.2707 1.47189C77.777 0.532362 81.7106 1.4309 85.8951 4.08403C90.0807 6.73781 94.4244 11.0939 98.6605 16.8672C107.129 28.4083 115.039 45.4376 120.34 65.2205Z" stroke="black" stroke-width="2"/>
<path d="M156.34 59.2205C161.641 79.0034 163.305 97.7064 161.742 111.935C160.96 119.053 159.376 124.998 157.078 129.389C154.781 133.779 151.823 136.523 148.317 137.463C144.811 138.403 140.877 137.504 136.693 134.851C132.507 132.197 128.163 127.841 123.927 122.068C115.459 110.527 107.549 93.4973 102.248 73.7144C96.9471 53.9315 95.283 35.2285 96.8461 20.9996C97.628 13.8817 99.2118 7.93731 101.51 3.5463C103.807 -0.843634 106.764 -3.58858 110.271 -4.52811C113.777 -5.46764 117.711 -4.5691 121.895 -1.91597C126.081 0.73781 130.424 5.09393 134.661 10.8672C143.129 22.4083 151.039 39.4376 156.34 59.2205Z" stroke="black" stroke-width="2"/>
</g>
</svg>
