<svg width="104" height="138" viewBox="0 0 104 138" fill="none" xmlns="http://www.w3.org/2000/svg">
<path d="M90.4104 46.9957C116.355 72.9408 131.298 100.063 118.018 113.343C104.738 126.623 72.9401 116.356 46.9951 90.4111C21.05 64.4661 19.6885 25.0917 24.0629 19.3881C28.8134 13.194 64.4654 21.0507 90.4104 46.9957Z" fill="#FFC900"/>
<mask id="mask0_2171_15132" style="mask-type:alpha" maskUnits="userSpaceOnUse" x="22" y="17" width="101" height="103">
<path d="M90.4104 46.9948C116.355 72.9398 131.298 100.062 118.018 113.342C104.738 126.622 72.9401 116.355 46.9951 90.4101C21.05 64.4651 19.6885 25.0907 24.0629 19.3871C28.8134 13.193 64.4654 21.0498 90.4104 46.9948Z" fill="#FFC900"/>
</mask>
<g mask="url(#mask0_2171_15132)">
<path d="M132.898 93.5452C131.756 93.0307 130.674 92.5069 129.531 91.9924C128.257 91.4354 126.983 90.8784 125.656 90.392C124.128 89.8111 122.573 89.2656 120.957 88.7294C119.833 88.3373 118.657 88.0158 117.533 87.6238C116.971 87.4277 116.4 87.1705 115.828 86.9133C115.389 86.6985 114.958 86.545 114.519 86.3303C114.413 86.2525 114.272 86.1488 114.166 86.071C114.305 85.9558 114.506 85.8313 114.645 85.7161C114.81 85.5656 114.984 85.4764 115.149 85.3259C115.653 84.9357 116.184 84.5103 116.688 84.1201C117.018 83.8192 117.348 83.5182 117.652 83.2526C117.817 83.1021 117.947 82.9257 118.103 82.714C118.233 82.5376 118.327 82.3353 118.422 82.133C118.594 81.8248 118.687 81.4035 118.728 81.0528C118.726 80.8339 118.724 80.615 118.625 80.3795C118.527 80.144 118.403 79.9438 118.252 79.7788C118.137 79.6398 117.961 79.5101 117.811 79.3452C117.67 79.2414 117.494 79.1118 117.353 79.008C116.939 78.758 116.473 78.5786 115.982 78.4344C115.622 78.3328 115.288 78.1959 114.919 78.033C114.321 77.8111 113.724 77.5891 113.101 77.4024C111.784 76.9772 110.493 76.5167 109.15 76.1267C107.508 75.6258 105.902 75.1508 104.26 74.6499C102.75 74.1915 101.24 73.733 99.7819 73.2041C98.86 72.9064 97.99 72.5382 97.0588 72.1793C96.1628 71.8464 95.2575 71.4522 94.4042 70.9875C93.5508 70.5228 92.7141 69.9616 91.9553 69.2945C91.7345 69.0777 91.5397 68.8256 91.3801 68.5995C91.291 68.4252 91.2019 68.2509 91.1388 68.0413C91.1109 67.8576 91.0571 67.7093 91.0292 67.5256C91.0199 67.4644 91.0366 67.3679 91.0626 67.3326C91.1478 67.0691 91.2943 66.7962 91.4147 66.5586C91.691 66.1093 92.0025 65.686 92.288 65.2979C92.5735 64.9098 92.8591 64.5217 93.1093 64.1077C93.5506 63.5079 93.9307 62.9175 94.3014 62.2659C94.7408 61.4472 95.1709 60.5673 95.2411 59.5858C95.2391 59.3669 95.2372 59.148 95.2 58.9031C95.1629 58.6583 95.0998 58.4487 95.0366 58.2391C94.9104 57.82 94.697 57.4454 94.4576 57.1062C94.3073 56.9412 94.1311 56.8116 93.9808 56.6466C93.9455 56.6207 93.9103 56.5947 93.875 56.5688C93.734 56.4651 93.6283 56.3873 93.4613 56.3188C93.0124 56.0429 92.5375 55.8022 92.0366 55.5968C91.571 55.4174 91.1147 55.2992 90.6231 55.155C90.1668 55.0368 89.7012 54.8574 89.2448 54.7391C88.2617 54.4508 87.2267 54.2331 86.1916 54.0153C85.253 53.8141 84.2884 53.6483 83.3239 53.4824C82.7804 53.4088 82.2629 53.2999 81.7194 53.2263C80.8865 53.1029 80.0889 53.0055 79.2561 52.8821C78.0115 52.7277 76.7316 52.5473 75.487 52.3929C74.0847 52.2312 72.6471 52.0436 71.2708 51.8466C69.5179 51.6445 67.7205 51.3553 66.001 50.9602C65.3165 50.7828 64.632 50.6055 63.9735 50.3929C63.315 50.1803 62.6564 49.9676 62.0405 49.6233C61.5916 49.3473 61.1426 49.0714 60.7104 48.699C60.5953 48.5599 60.4803 48.4209 60.3652 48.2819C60.3207 48.1948 60.2669 48.0464 60.2223 47.9593C60.1945 47.7756 60.1759 47.6532 60.148 47.4695C60.1387 47.4083 60.1647 47.3731 60.1554 47.3118C60.2666 47.013 60.4037 46.6789 60.5502 46.406C60.8005 45.992 61.0507 45.578 61.3363 45.1899C61.5865 44.7759 61.8368 44.3619 62.0964 44.0091C62.5024 43.3834 62.8991 42.6965 63.2347 42.0189C63.4237 41.6143 63.5516 41.2189 63.7054 40.7883C63.85 40.2965 63.9685 39.84 64.0166 39.3316C64.048 38.9197 63.983 38.4912 63.9532 38.0886C63.8881 37.6601 63.7266 37.215 63.5744 36.8312C63.5539 36.4898 63.3146 36.1506 63.0399 35.7854C62.7208 35.3331 62.3237 34.9866 61.9267 34.6401C60.3738 33.28 58.4575 32.4139 56.6118 31.5997C54.6955 30.7336 52.7366 29.9992 50.787 29.3261C49.891 28.9932 49.0302 28.6861 48.1083 28.3885C46.6689 27.9819 45.1941 27.5495 43.7547 27.1429C41.3673 26.474 38.9281 25.8756 36.524 25.3032C35.8748 25.1518 35.2256 25.0004 34.5764 24.849C33.9883 24.6883 33.4096 24.5887 32.7956 24.4633C31.5064 24.2217 30.2525 24.006 28.9633 23.7644C31.054 24.5413 33.1353 25.2569 35.1906 26.0079C36.8509 26.6312 38.5111 27.2546 40.1973 27.8427C42.0505 28.4992 43.9296 29.1205 45.8087 29.7417C46.3356 29.9118 46.8976 30.1079 47.4504 30.2427C48.4335 30.531 49.3648 30.8899 50.3219 31.2135C51.7447 31.7165 53.1675 32.2195 54.5644 32.7578C55.2674 33.0576 55.9353 33.3314 56.6383 33.6312C57.3766 33.9569 58.1149 34.2826 58.8626 34.6695C59.7512 35.1601 60.5878 35.7214 61.3207 36.4237C61.5248 36.737 61.7197 36.9891 61.9238 37.3024C62.0574 37.5639 62.2003 37.8865 62.2727 38.1573C62.3452 38.4281 62.3916 38.7342 62.4288 38.979C62.414 39.2944 62.364 39.5839 62.314 39.8734C62.1362 40.5582 61.8878 41.1911 61.6042 41.7981C61.1129 42.6874 60.5252 43.56 59.9987 44.4233C59.8689 44.5997 59.8003 44.7668 59.6706 44.9432C59.411 45.296 59.196 45.7359 58.9716 46.1147C58.8771 46.317 58.8085 46.484 58.714 46.6864C58.6194 46.8887 58.5861 47.0817 58.588 47.3006C58.5547 47.4936 58.5919 47.7385 58.5938 47.9574C58.5864 48.1151 58.6403 48.2635 58.6588 48.3859C58.7127 48.5342 58.7313 48.6567 58.7851 48.805C58.9373 49.1889 59.1507 49.5634 59.416 49.8674C59.7166 50.1973 60.0432 50.4919 60.3604 50.7253C61.1711 51.3218 62.1116 51.7419 63.0076 52.0749C63.4732 52.2543 63.9296 52.3725 64.3859 52.4907C64.8422 52.609 65.3338 52.7531 65.7901 52.8713C66.8251 53.0891 67.8602 53.3069 68.9212 53.4893C69.3682 53.5463 69.8505 53.6293 70.2975 53.6863C70.6481 53.7267 70.9634 53.7412 71.2881 53.8169C72.2786 53.9475 73.295 54.0428 74.3208 54.1994C75.469 54.3372 76.6524 54.501 77.8006 54.6389C79.0452 54.7933 80.2286 54.9571 81.4733 55.1115C82.0779 55.1758 82.6567 55.2753 83.2707 55.4008C84.5858 55.6071 85.875 55.8487 87.1475 56.1868C87.9896 56.3714 88.8058 56.5912 89.6313 56.8723C90.4215 57.1274 91.2729 57.3732 92.0206 57.7601C92.3637 57.9583 92.6717 58.1305 92.9277 58.3732C92.963 58.3991 92.9723 58.4604 93.0428 58.5122C93.1226 58.6253 93.1411 58.7477 93.1857 58.8349C93.2136 59.0185 93.2414 59.2022 93.2693 59.3858C93.2879 59.5082 93.2453 59.64 93.2379 59.7977C93.0934 60.2895 92.8524 60.7648 92.6114 61.24C92.2925 61.8211 91.8772 62.3855 91.4879 62.9147C91.2023 63.3028 90.9168 63.6909 90.6313 64.079C90.3198 64.5023 90.0083 64.9257 89.6709 65.3843C89.5411 65.5607 89.4206 65.7983 89.3261 66.0007C89.2315 66.203 89.1629 66.37 89.0684 66.5724C88.9739 66.7747 88.9498 67.0289 88.9165 67.2219C88.8739 67.3537 88.8925 67.4761 88.911 67.5985C88.9037 67.7562 88.8963 67.9139 88.9242 68.0976C88.9261 68.3165 89.0152 68.4908 89.043 68.6744C89.1062 68.884 89.1693 69.0936 89.2677 69.3291C89.3568 69.5034 89.4458 69.6777 89.5349 69.852C89.6593 70.0522 89.7836 70.2525 89.9079 70.4527C90.1825 70.8179 90.5443 71.1384 90.9061 71.459C91.3031 71.8055 91.7521 72.0814 92.1751 72.3926C92.9765 72.9279 93.8558 73.3573 94.6999 73.7608C95.6404 74.1809 96.6328 74.5305 97.6253 74.88C99.5489 75.5884 101.48 76.1391 103.446 76.7157C104.034 76.8765 104.658 77.0632 105.246 77.2239C106.589 77.6138 107.958 77.9685 109.275 78.3938C110.389 78.7246 111.504 79.0554 112.593 79.4215C113.12 79.5916 113.621 79.797 114.148 79.9671C114.411 80.0522 114.71 80.1631 114.973 80.2482C115.403 80.4017 115.834 80.5552 116.274 80.7699C116.415 80.8736 116.556 80.9774 116.697 81.0811C116.732 81.1071 116.732 81.107 116.767 81.133C116.724 81.2648 116.672 81.3353 116.63 81.4671C116.526 81.6082 116.448 81.714 116.344 81.8552C115.684 82.457 114.979 82.9717 114.249 83.5217C113.884 83.7967 113.518 84.0717 113.118 84.3208C113.005 84.4007 112.891 84.4806 112.743 84.5346C112.543 84.6591 112.413 84.8355 112.283 85.0119C112.231 85.0824 112.215 85.1789 112.137 85.2848C112.059 85.3906 112.042 85.4871 112 85.6189C111.905 85.8212 111.907 86.0401 111.848 86.2684C111.857 86.3296 111.866 86.3908 111.84 86.4261C111.833 86.5838 111.852 86.7062 111.905 86.8546C111.978 87.1254 112.067 87.2997 112.226 87.5259C112.501 87.891 112.863 88.2116 113.241 88.4357C113.62 88.6597 114.024 88.8485 114.429 89.0373C114.798 89.2001 115.202 89.3889 115.571 89.5518C116.512 89.9719 117.495 90.2602 118.478 90.5485C120.409 91.0992 122.305 91.624 124.227 92.1134C126.894 92.7709 129.58 93.5508 132.196 94.2789C132.88 94.4562 133.565 94.6335 134.258 94.8721C135.11 95.1179 135.987 95.3284 136.813 95.6095C135.623 94.7889 134.278 94.18 132.898 93.5452ZM116.774 80.9753C116.81 81.0012 116.784 81.0365 116.819 81.0624C116.81 81.0012 116.774 80.9753 116.774 80.9753ZM114.211 86.1581C114.246 86.1841 114.246 86.1841 114.255 86.2453C114.246 86.1841 114.246 86.1841 114.211 86.1581Z" fill="black"/>
<path d="M115.822 110.62C114.679 110.106 113.598 109.582 112.455 109.068C111.181 108.511 109.906 107.954 108.58 107.467C107.051 106.886 105.497 106.341 103.881 105.805C102.757 105.413 101.581 105.091 100.457 104.699C99.8949 104.503 99.3235 104.246 98.7521 103.988C98.3125 103.774 97.8821 103.62 97.4425 103.406C97.3367 103.328 97.1957 103.224 97.09 103.146C97.229 103.031 97.4293 102.906 97.5684 102.791C97.7334 102.641 97.9078 102.552 98.0728 102.401C98.5772 102.011 99.1076 101.585 99.612 101.195C99.942 100.894 100.272 100.593 100.576 100.328C100.741 100.177 100.871 100.001 101.027 99.7892C101.157 99.6128 101.251 99.4105 101.346 99.2082C101.518 98.9 101.611 98.4787 101.651 98.128C101.649 97.9091 101.648 97.6902 101.549 97.4547C101.451 97.2192 101.326 97.0189 101.176 96.854C101.061 96.715 100.885 96.5853 100.735 96.4204C100.594 96.3166 100.417 96.1869 100.276 96.0832C99.8626 95.8332 99.397 95.6538 98.9055 95.5096C98.5456 95.408 98.2117 95.2711 97.8425 95.1082C97.2452 94.8863 96.6479 94.6643 96.0246 94.4776C94.7076 94.0524 93.4165 93.5919 92.0735 93.2019C90.4318 92.701 88.8254 92.226 87.1837 91.7251C85.6738 91.2667 84.1638 90.8082 82.7058 90.2793C81.7838 89.9816 80.9138 89.6134 79.9826 89.2545C79.0866 88.9216 78.1813 88.5274 77.328 88.0627C76.4746 87.598 75.6379 87.0368 74.8791 86.3697C74.6583 86.1529 74.4635 85.9008 74.3039 85.6746C74.2149 85.5004 74.1258 85.3261 74.0626 85.1165C74.0348 84.9328 73.9809 84.7845 73.9531 84.6008C73.9438 84.5396 73.9604 84.4431 73.9864 84.4078C74.0716 84.1443 74.2181 83.8714 74.3386 83.6338C74.6148 83.1845 74.9263 82.7611 75.2118 82.3731C75.4974 81.985 75.7829 81.5969 76.0332 81.1829C76.4744 80.5831 76.8545 79.9927 77.2253 79.3411C77.6646 78.5224 78.0947 77.6425 78.1649 76.661C78.163 76.4421 78.161 76.2232 78.1239 75.9783C78.0867 75.7335 78.0236 75.5239 77.9605 75.3143C77.8342 74.8952 77.6208 74.5206 77.3814 74.1814C77.2311 74.0164 77.0549 73.8868 76.9046 73.7218C76.8693 73.6959 76.8341 73.6699 76.7988 73.644C76.6578 73.5403 76.5521 73.4625 76.3851 73.394C75.9362 73.1181 75.4613 72.8774 74.9604 72.672C74.4948 72.4926 74.0385 72.3744 73.5469 72.2302C73.0906 72.112 72.625 71.9326 72.1687 71.8143C71.1855 71.526 70.1505 71.3083 69.1154 71.0905C68.1768 70.8893 67.2123 70.7235 66.2477 70.5576C65.7042 70.484 65.1867 70.3751 64.6432 70.3015C63.8104 70.1781 63.0128 70.0807 62.1799 69.9573C60.9353 69.8029 59.6554 69.6225 58.4108 69.4681C57.0085 69.3064 55.5709 69.1188 54.1946 68.9218C52.4417 68.7197 50.6443 68.4304 48.9248 68.0354C48.2403 67.858 47.5558 67.6807 46.8973 67.4681C46.2388 67.2555 45.5803 67.0428 44.9644 66.6984C44.5154 66.4225 44.0665 66.1466 43.6342 65.7742C43.5191 65.6351 43.4041 65.4961 43.2891 65.3571C43.2445 65.27 43.1907 65.1216 43.1462 65.0345C43.1183 64.8508 43.0997 64.7284 43.0718 64.5447C43.0625 64.4835 43.0885 64.4482 43.0792 64.387C43.1904 64.0882 43.3276 63.7541 43.474 63.4812C43.7243 63.0672 43.9746 62.6532 44.2601 62.2651C44.5104 61.8511 44.7606 61.4371 45.0202 61.0843C45.4262 60.4586 45.823 59.7717 46.1585 59.0941C46.3476 58.6895 46.4754 58.2941 46.6293 57.8635C46.7738 57.3717 46.8924 56.9152 46.9404 56.4068C46.9719 55.9949 46.9068 55.5664 46.877 55.1638C46.812 54.7353 46.6505 54.2902 46.4983 53.9064C46.4778 53.565 46.2384 53.2258 45.9638 52.8606C45.6446 52.4082 45.2476 52.0618 44.8505 51.7153C43.2977 50.3552 41.3814 49.4891 39.5356 48.6749C37.6193 47.8088 35.6604 47.0744 33.7108 46.4013C32.8148 46.0684 31.9541 45.7613 31.0321 45.4637C29.5927 45.0571 28.118 44.6247 26.6785 44.2181C24.2912 43.5492 21.8519 42.9508 19.4479 42.3784C18.7986 42.227 18.1494 42.0756 17.5002 41.9242C16.9122 41.7635 16.3334 41.6639 15.7194 41.5385C14.4303 41.2969 13.1763 41.0812 11.8872 40.8396C13.9778 41.6165 16.0591 42.3321 18.1145 43.0831C19.7747 43.7064 21.435 44.3298 23.1212 44.9179C24.9743 45.5744 26.8534 46.1957 28.7326 46.8169C29.2594 46.987 29.8214 47.183 30.3742 47.3179C31.3574 47.6062 32.2886 47.9651 33.2458 48.2886C34.6686 48.7917 36.0914 49.2947 37.4882 49.833C38.1913 50.1328 38.8591 50.4066 39.5621 50.7064C40.3005 51.0321 41.0388 51.3578 41.7864 51.7447C42.675 52.2353 43.5117 52.7966 44.2445 53.4989C44.4487 53.8122 44.6435 54.0643 44.8476 54.3776C44.9812 54.6391 45.1242 54.9617 45.1966 55.2325C45.269 55.5033 45.3154 55.8094 45.3526 56.0542C45.3379 56.3696 45.2879 56.6591 45.2379 56.9486C45.06 57.6334 44.8117 58.2663 44.528 58.8733C44.0368 59.7626 43.4491 60.6352 42.9225 61.4985C42.7928 61.6749 42.7242 61.842 42.5944 62.0184C42.3348 62.3712 42.1198 62.8111 41.8955 63.1898C41.8009 63.3922 41.7324 63.5592 41.6378 63.7616C41.5433 63.9639 41.5099 64.1569 41.5119 64.3758C41.4785 64.5688 41.5157 64.8137 41.5176 65.0326C41.5103 65.1903 41.5641 65.3386 41.5827 65.4611C41.6365 65.6094 41.6551 65.7319 41.7089 65.8802C41.8611 66.2641 42.0745 66.6386 42.3399 66.9426C42.6404 67.2725 42.967 67.5671 43.2842 67.8005C44.095 68.397 45.0355 68.8171 45.9315 69.1501C46.3971 69.3295 46.8534 69.4477 47.3097 69.5659C47.766 69.6842 48.2576 69.8283 48.7139 69.9465C49.749 70.1643 50.784 70.3821 51.845 70.5645C52.2921 70.6215 52.7743 70.7045 53.2214 70.7615C53.5719 70.8019 53.8873 70.8164 54.2119 70.8921C55.2024 71.0227 56.2189 71.118 57.2446 71.2746C58.3928 71.4124 59.5762 71.5762 60.7244 71.7141C61.969 71.8685 63.1525 72.0323 64.3971 72.1867C65.0018 72.251 65.5805 72.3505 66.1945 72.476C67.5096 72.6823 68.7988 72.9239 70.0713 73.262C70.9134 73.4466 71.7296 73.6664 72.5551 73.9475C73.3453 74.2026 74.1968 74.4484 74.9444 74.8353C75.2876 75.0335 75.5955 75.2057 75.8516 75.4484C75.8868 75.4743 75.8961 75.5356 75.9666 75.5874C76.0464 75.7005 76.065 75.8229 76.1095 75.9101C76.1374 76.0937 76.1653 76.2774 76.1931 76.461C76.2117 76.5834 76.1691 76.7152 76.1617 76.8729C76.0172 77.3647 75.7762 77.84 75.5352 78.3152C75.2164 78.8962 74.8011 79.4607 74.4117 79.9899C74.1262 80.378 73.8406 80.7661 73.5551 81.1542C73.2436 81.5775 72.9321 82.0009 72.5947 82.4595C72.4649 82.6359 72.3444 82.8735 72.2499 83.0759C72.1553 83.2782 72.0868 83.4452 71.9922 83.6476C71.8977 83.8499 71.8737 84.1041 71.8403 84.2971C71.7977 84.4289 71.8163 84.5513 71.8349 84.6737C71.8275 84.8314 71.8201 84.9891 71.848 85.1728C71.8499 85.3917 71.939 85.566 71.9669 85.7496C72.03 85.9592 72.0931 86.1688 72.1915 86.4043C72.2806 86.5786 72.3697 86.7529 72.4588 86.9272C72.5831 87.1274 72.7074 87.3277 72.8317 87.5279C73.1064 87.8931 73.4682 88.2136 73.8299 88.5342C74.227 88.8807 74.6759 89.1566 75.0989 89.4678C75.9003 90.0031 76.7797 90.4325 77.6237 90.836C78.5642 91.2561 79.5567 91.6057 80.5491 91.9552C82.4728 92.6636 84.4038 93.2143 86.3701 93.7909C86.9581 93.9517 87.5814 94.1383 88.1694 94.2991C89.5124 94.689 90.8814 95.0437 92.1984 95.4689C93.3133 95.7998 94.4281 96.1306 95.517 96.4967C96.0438 96.6668 96.5447 96.8722 97.0715 97.0423C97.3349 97.1273 97.6336 97.2383 97.897 97.3234C98.3273 97.4769 98.7577 97.6304 99.1973 97.8451C99.3383 97.9488 99.4793 98.0526 99.6203 98.1563C99.6556 98.1822 99.6556 98.1822 99.6908 98.2082C99.6482 98.34 99.5963 98.4105 99.5537 98.5423C99.4498 98.6834 99.372 98.7892 99.2681 98.9304C98.608 99.5322 97.9033 100.047 97.1727 100.597C96.8074 100.872 96.442 101.147 96.0415 101.396C95.9284 101.476 95.8152 101.556 95.6669 101.61C95.4666 101.734 95.3368 101.911 95.207 102.087C95.1551 102.158 95.1384 102.254 95.0606 102.36C94.9827 102.466 94.966 102.562 94.9234 102.694C94.8289 102.896 94.8308 103.115 94.7715 103.344C94.7808 103.405 94.7901 103.466 94.7641 103.501C94.7568 103.659 94.7753 103.781 94.8292 103.93C94.9016 104.201 94.9907 104.375 95.1503 104.601C95.4249 104.966 95.7867 105.287 96.1651 105.511C96.5436 105.735 96.948 105.924 97.3524 106.112C97.7215 106.275 98.1259 106.464 98.4951 106.627C99.4356 107.047 100.419 107.335 101.402 107.624C103.333 108.174 105.229 108.699 107.15 109.189C109.818 109.846 112.504 110.626 115.119 111.354C115.804 111.531 116.488 111.709 117.182 111.947C118.034 112.193 118.911 112.404 119.736 112.685C118.547 111.864 117.202 111.255 115.822 110.62ZM99.6982 98.0505C99.7335 98.0764 99.7075 98.1117 99.7427 98.1376C99.7335 98.0764 99.6982 98.0505 99.6982 98.0505ZM97.1345 103.233C97.1698 103.259 97.1698 103.259 97.1791 103.32C97.1698 103.259 97.1698 103.259 97.1345 103.233Z" fill="black"/>
<path d="M101.76 128.7C100.617 128.186 99.5354 127.662 98.3927 127.148C97.1183 126.591 95.8438 126.034 94.5175 125.547C92.989 124.966 91.4345 124.421 89.8187 123.885C88.6946 123.493 87.5186 123.171 86.3944 122.779C85.8324 122.583 85.261 122.326 84.6896 122.069C84.25 121.854 83.8196 121.7 83.38 121.486C83.2742 121.408 83.1332 121.304 83.0275 121.226C83.1665 121.111 83.3668 120.987 83.5059 120.871C83.6709 120.721 83.8453 120.632 84.0103 120.481C84.5147 120.091 85.0451 119.666 85.5495 119.275C85.8795 118.974 86.2096 118.674 86.5137 118.408C86.6787 118.257 86.8085 118.081 86.9643 117.869C87.0941 117.693 87.1886 117.491 87.2831 117.288C87.4555 116.98 87.5482 116.559 87.5889 116.208C87.5869 115.989 87.585 115.77 87.4866 115.535C87.3883 115.299 87.2639 115.099 87.1136 114.934C86.9986 114.795 86.8224 114.665 86.6721 114.5C86.5311 114.397 86.3548 114.267 86.2138 114.163C85.8001 113.913 85.3345 113.734 84.843 113.59C84.4831 113.488 84.1492 113.351 83.78 113.188C83.1827 112.966 82.5854 112.744 81.9621 112.558C80.6451 112.132 79.354 111.672 78.011 111.282C76.3693 110.781 74.7629 110.306 73.1212 109.805C71.6113 109.347 70.1013 108.888 68.6433 108.359C67.7213 108.062 66.8513 107.693 65.9201 107.335C65.0241 107.002 64.1188 106.607 63.2655 106.143C62.4121 105.678 61.5754 105.117 60.8166 104.45C60.5958 104.233 60.401 103.981 60.2414 103.755C60.1524 103.58 60.0633 103.406 60.0001 103.197C59.9723 103.013 59.9184 102.865 59.8906 102.681C59.8813 102.62 59.8979 102.523 59.9239 102.488C60.0091 102.224 60.1556 101.951 60.2761 101.714C60.5523 101.265 60.8638 100.841 61.1493 100.453C61.4349 100.065 61.7204 99.677 61.9707 99.263C62.4119 98.6632 62.792 98.0728 63.1628 97.4212C63.6021 96.6025 64.0322 95.7226 64.1024 94.7411C64.1005 94.5222 64.0985 94.3032 64.0614 94.0584C64.0242 93.8135 63.9611 93.604 63.898 93.3944C63.7717 92.9752 63.5583 92.6007 63.3189 92.2614C63.1686 92.0965 62.9924 91.9668 62.8421 91.8019C62.8068 91.7759 62.7716 91.75 62.7363 91.7241C62.5953 91.6203 62.4896 91.5425 62.3226 91.4741C61.8737 91.1981 61.3988 90.9575 60.8979 90.7521C60.4323 90.5727 59.976 90.4545 59.4844 90.3103C59.0281 90.1921 58.5625 90.0126 58.1062 89.8944C57.123 89.6061 56.088 89.3883 55.0529 89.1706C54.1143 88.9694 53.1498 88.8035 52.1852 88.6376C51.6417 88.564 51.1242 88.4552 50.5807 88.3816C49.7479 88.2582 48.9503 88.1608 48.1174 88.0374C46.8728 87.883 45.5929 87.7026 44.3483 87.5482C42.946 87.3865 41.5084 87.1988 40.1321 87.0019C38.3792 86.7998 36.5818 86.5105 34.8623 86.1154C34.1778 85.9381 33.4933 85.7608 32.8348 85.5481C32.1763 85.3355 31.5178 85.1229 30.9019 84.7785C30.4529 84.5026 30.004 84.2267 29.5717 83.8542C29.4566 83.7152 29.3416 83.5762 29.2266 83.4372C29.182 83.35 29.1282 83.2017 29.0837 83.1145C29.0558 82.9309 29.0372 82.8085 29.0093 82.6248C29 82.5636 29.026 82.5283 29.0167 82.4671C29.1279 82.1683 29.2651 81.8342 29.4115 81.5613C29.6618 81.1473 29.9121 80.7333 30.1976 80.3452C30.4479 79.9312 30.6981 79.5172 30.9577 79.1644C31.3637 78.5387 31.7605 77.8518 32.096 77.1742C32.2851 76.7695 32.4129 76.3742 32.5668 75.9436C32.7113 75.4518 32.8299 74.9953 32.8779 74.4869C32.9094 74.075 32.8443 73.6465 32.8145 73.2439C32.7495 72.8154 32.588 72.3703 32.4358 71.9864C32.4153 71.6451 32.1759 71.3058 31.9013 70.9407C31.5821 70.4883 31.1851 70.1418 30.788 69.7953C29.2352 68.4353 27.3189 67.5692 25.4731 66.755C23.5568 65.8888 21.5979 65.1545 19.6483 64.4814C18.7523 64.1484 17.8916 63.8414 16.9696 63.5438C15.5302 63.1372 14.0555 62.7047 12.616 62.2982C10.2287 61.6293 7.78939 61.0309 5.38538 60.4585C4.73615 60.3071 4.08691 60.1557 3.43768 60.0043C2.84966 59.8435 2.27092 59.744 1.65694 59.6185C0.36777 59.377 -0.886153 59.1613 -2.17532 58.9197C-0.0847132 59.6966 1.99661 60.4122 4.05197 61.1632C5.71222 61.7865 7.37246 62.4099 9.05867 62.998C10.9118 63.6545 12.7909 64.2757 14.6701 64.897C15.1969 65.0671 15.7589 65.2631 16.3117 65.3979C17.2949 65.6863 18.2261 66.0451 19.1833 66.3687C20.6061 66.8718 22.0289 67.3748 23.4257 67.9131C24.1288 68.2129 24.7966 68.4867 25.4996 68.7865C26.238 69.1122 26.9763 69.4379 27.7239 69.8248C28.6125 70.3154 29.4492 70.8766 30.182 71.579C30.3862 71.8923 30.581 72.1444 30.7851 72.4577C30.9187 72.7191 31.0617 73.0418 31.1341 73.3126C31.2065 73.5834 31.2529 73.8894 31.2901 74.1343C31.2754 74.4497 31.2254 74.7392 31.1754 75.0287C30.9975 75.7135 30.7492 76.3464 30.4655 76.9534C29.9743 77.8426 29.3866 78.7153 28.86 79.5786C28.7303 79.755 28.6617 79.9221 28.5319 80.0984C28.2723 80.4512 28.0573 80.8912 27.833 81.2699C27.7384 81.4723 27.6699 81.6393 27.5753 81.8416C27.4808 82.044 27.4474 82.237 27.4494 82.4559C27.416 82.6489 27.4532 82.8937 27.4551 83.1127C27.4478 83.2704 27.5016 83.4187 27.5202 83.5412C27.574 83.6895 27.5926 83.8119 27.6464 83.9603C27.7986 84.3442 28.012 84.7187 28.2774 85.0227C28.5779 85.3526 28.9045 85.6472 29.2217 85.8806C30.0325 86.4771 30.973 86.8972 31.869 87.2301C32.3346 87.4096 32.7909 87.5278 33.2472 87.646C33.7035 87.7642 34.1951 87.9084 34.6514 88.0266C35.6865 88.2444 36.7215 88.4621 37.7825 88.6446C38.2296 88.7016 38.7118 88.7846 39.1589 88.8416C39.5094 88.882 39.8248 88.8965 40.1494 88.9722C41.1399 89.1028 42.1564 89.1981 43.1821 89.3547C44.3303 89.4925 45.5137 89.6563 46.6619 89.7942C47.9065 89.9486 49.09 90.1124 50.3346 90.2668C50.9393 90.3311 51.518 90.4306 52.132 90.5561C53.4471 90.7624 54.7363 91.004 56.0088 91.3421C56.8509 91.5266 57.6671 91.7465 58.4926 92.0276C59.2828 92.2827 60.1343 92.5285 60.8819 92.9154C61.2251 93.1135 61.533 93.2857 61.7891 93.5285C61.8243 93.5544 61.8336 93.6156 61.9041 93.6675C61.9839 93.7806 62.0025 93.903 62.047 93.9902C62.0749 94.1738 62.1028 94.3574 62.1306 94.5411C62.1492 94.6635 62.1066 94.7953 62.0992 94.953C61.9547 95.4448 61.7137 95.92 61.4727 96.3953C61.1539 96.9763 60.7386 97.5408 60.3492 98.07C60.0637 98.4581 59.7781 98.8462 59.4926 99.2342C59.1811 99.6576 58.8696 100.081 58.5322 100.54C58.4024 100.716 58.2819 100.954 58.1874 101.156C58.0928 101.358 58.0243 101.525 57.9297 101.728C57.8352 101.93 57.8112 102.184 57.7778 102.377C57.7352 102.509 57.7538 102.631 57.7724 102.754C57.765 102.912 57.7576 103.069 57.7855 103.253C57.7874 103.472 57.8765 103.646 57.9044 103.83C57.9675 104.039 58.0306 104.249 58.129 104.484C58.2181 104.659 58.3072 104.833 58.3963 105.007C58.5206 105.208 58.6449 105.408 58.7692 105.608C59.0439 105.973 59.4057 106.294 59.7674 106.614C60.1645 106.961 60.6134 107.237 61.0364 107.548C61.8378 108.083 62.7172 108.513 63.5612 108.916C64.5017 109.336 65.4942 109.686 66.4866 110.035C68.4103 110.744 70.3413 111.294 72.3076 111.871C72.8956 112.032 73.5189 112.218 74.1069 112.379C75.4499 112.769 76.8189 113.124 78.1359 113.549C79.2508 113.88 80.3656 114.211 81.4545 114.577C81.9813 114.747 82.4822 114.952 83.009 115.122C83.2724 115.207 83.5711 115.318 83.8345 115.403C84.2648 115.557 84.6952 115.71 85.1348 115.925C85.2758 116.029 85.4168 116.133 85.5578 116.236C85.5931 116.262 85.5931 116.262 85.6283 116.288C85.5857 116.42 85.5338 116.491 85.4912 116.622C85.3873 116.763 85.3095 116.869 85.2056 117.01C84.5455 117.612 83.8408 118.127 83.1102 118.677C82.7449 118.952 82.3795 119.227 81.979 119.476C81.8659 119.556 81.7527 119.636 81.6044 119.69C81.4041 119.814 81.2743 119.991 81.1445 120.167C81.0926 120.238 81.0759 120.334 80.9981 120.44C80.9202 120.546 80.9035 120.642 80.8609 120.774C80.7664 120.976 80.7683 121.195 80.709 121.424C80.7183 121.485 80.7276 121.546 80.7016 121.581C80.6943 121.739 80.7128 121.862 80.7667 122.01C80.8391 122.281 80.9282 122.455 81.0878 122.681C81.3624 123.046 81.7242 123.367 82.1026 123.591C82.4811 123.815 82.8855 124.004 83.2899 124.193C83.659 124.355 84.0634 124.544 84.4326 124.707C85.3731 125.127 86.3562 125.415 87.3394 125.704C89.2704 126.254 91.1662 126.779 93.0879 127.269C95.7554 127.926 98.4414 128.706 101.057 129.434C101.741 129.611 102.426 129.789 103.12 130.027C103.971 130.273 104.848 130.484 105.674 130.765C104.485 129.944 103.14 129.335 101.76 128.7ZM85.6357 116.131C85.671 116.156 85.645 116.192 85.6802 116.218C85.671 116.156 85.6357 116.131 85.6357 116.131ZM83.072 121.313C83.1073 121.339 83.1073 121.339 83.1166 121.401C83.1073 121.339 83.1073 121.339 83.072 121.313Z" fill="black"/>
</g>
</svg>
