<svg width="118" height="208" viewBox="0 0 118 208" fill="none" xmlns="http://www.w3.org/2000/svg">
<path d="M154.01 71.3422C161.933 126.674 191.378 144.891 135.959 176.888C103.241 195.778 91.0977 141.43 50.2697 131.237C8.16458 120.724 20.8613 53.0925 53.5794 34.2027C86.2975 15.3128 131.262 31.9408 154.01 71.3422Z" fill="#FF90E7"/>
<mask id="mask0_2171_15173" style="mask-type:alpha" maskUnits="userSpaceOnUse" x="23" y="26" width="146" height="155">
<path d="M154.01 71.3422C161.933 126.674 191.378 144.891 135.959 176.888C103.241 195.778 91.0977 141.43 50.2697 131.237C8.16458 120.724 20.8613 53.0925 53.5794 34.2027C86.2975 15.3128 131.262 31.9408 154.01 71.3422Z" fill="#FF90E7"/>
</mask>
<g mask="url(#mask0_2171_15173)">
<path d="M25.0586 65.1602C29.6645 75.3912 36.1067 86.2454 36.2868 97.8212C36.3639 102.77 36.4996 108.957 34.6554 113.624C33.3191 117.005 30.7775 120.254 28.7694 123.285C28.1128 124.276 27.7977 125.012 27.6497 126.196" stroke="black" stroke-width="2" stroke-linecap="round"/>
<path d="M34.8477 47.3105C37.3118 51.0348 39.5615 54.8762 41.9653 58.6348C45.1014 63.5385 47.0276 69.1013 48.747 74.6454C51.6006 83.8468 53.4152 94.1683 51.61 103.74C50.1226 111.627 46.5186 119.955 42.4771 126.836C41.4194 128.637 40.1411 129.881 39.3262 131.858C38.7158 133.339 38.1369 136.224 36.5751 136.849" stroke="black" stroke-width="2" stroke-linecap="round"/>
<path d="M50.3945 34.6426C54.2771 48.0822 61.7279 60.6103 64.2139 74.4213C65.1035 79.3634 65.622 84.3843 65.6534 89.4083C65.6808 93.7819 66.2048 98.2599 65.8933 102.62C65.6452 106.094 64.4229 109.505 63.7661 112.92C62.9982 116.913 61.4621 120.722 60.6951 124.756C60.333 126.661 59.6373 128.363 59.1916 130.227C58.8388 131.702 59.0054 133.42 57.88 134.545" stroke="black" stroke-width="2" stroke-linecap="round"/>
<path d="M67.0938 23.125C72.1824 29.6448 73.5688 38.473 76.3706 46.0933C79.1032 53.5252 83.0071 60.5677 84.304 68.4538C85.4267 75.2804 85.0388 81.7225 84.432 88.5431C83.8082 95.5544 83.8687 102.31 82.1927 109.208C81.0904 113.745 80.4313 118.402 79.1857 122.9C78.2682 126.213 76.9165 129.374 76.0188 132.688C75.4303 134.861 74.3608 136.908 73.8435 139.086C73.6367 139.957 73.5234 140.686 73.1397 141.453" stroke="black" stroke-width="2" stroke-linecap="round"/>
<path d="M91.8909 26.3047C93.8757 30.0467 95.8379 33.751 97.0817 37.6887C98.4937 42.1592 98.8066 46.7325 99.2878 51.303C100.368 61.5641 103.124 71.8832 103.395 82.1781C103.567 88.731 101.634 94.5095 101.537 101.055C101.441 107.551 98.8834 115.551 97.0817 121.82C95.5721 127.072 94.5996 134.82 91.8909 139.753C89.7037 143.736 89.2897 148.72 86.2233 151.551C85.4133 154.11 83.0448 153.538 81.4011 155.857C81.0153 156.401 80.6503 156.922 79.8223 156.922" stroke="black" stroke-width="2" stroke-linecap="round"/>
<path d="M114.136 33.4902C116.754 45.4806 119.778 57.3348 119.894 69.6701C119.938 74.3228 119.823 78.959 120.214 83.6015C120.521 87.2336 121.025 90.8426 121.046 94.4938C121.071 98.8219 120.342 103.35 119.607 107.609C118.69 112.917 118.073 118.308 116.28 123.412C114.326 128.973 112.599 134.845 110.122 140.191C108.18 144.38 105.44 148.03 103.964 152.458C101.712 159.213 98.5108 165.99 95.1348 172.26" stroke="black" stroke-width="2" stroke-linecap="round"/>
<path d="M127.895 123.361C126.792 130.6 127.362 137.958 124.744 144.842C122.215 151.492 120.21 158.239 117.201 164.686C114.587 170.287 111.979 175.434 108.25 180.285C107.1 181.781 105.431 185.042 103.404 185.042" stroke="black" stroke-width="2" stroke-linecap="round"/>
</g>
</svg>
