<svg width="88" height="123" viewBox="0 0 88 123" fill="none" xmlns="http://www.w3.org/2000/svg">
<ellipse cx="26.091" cy="61.0916" rx="49.8806" ry="49.8812" transform="rotate(15 26.091 61.0916)" fill="#FF90E7"/>
<mask id="mask0_2171_15220" style="mask-type:alpha" maskUnits="userSpaceOnUse" x="-24" y="11" width="100" height="100">
<ellipse cx="26.091" cy="61.0916" rx="49.8806" ry="49.8812" transform="rotate(15 26.091 61.0916)" fill="#FF90E7"/>
</mask>
<g mask="url(#mask0_2171_15220)">
<path d="M59.4271 17.0317C57.9301 26.3505 56.3152 35.6667 55.5918 45.0866C55.2415 49.6491 55.2055 54.1821 54.6287 58.7288C54.5433 59.4018 54.6205 61.2415 54.1909 60.7164C53.7691 60.201 53.6488 58.9496 53.5867 58.6325C52.3531 52.3336 51.46 45.9648 50.3731 39.6402C48.4098 28.2151 46.1106 16.8167 41.9146 5.97261C41.2912 4.36139 40.5519 2.81029 39.8657 1.22675C39.6549 0.740396 39.4758 -0.337617 39.2177 0.622569C38.8432 2.01595 38.8409 3.48158 38.8149 4.91311C38.677 12.5145 38.8217 20.1208 38.7537 27.723C38.6299 41.5368 37.2429 55.28 37.2038 69.0961C37.1971 71.4681 37.2711 73.852 37.2038 76.2237C37.2004 76.3439 37.2395 76.4855 37.1688 76.5827C37.1302 76.6357 37.0791 76.4801 37.0637 76.4163C36.4221 73.7536 36.1875 70.8653 35.8203 68.1767C34.6027 59.2623 33.6432 50.2493 31.8012 41.4353C30.2366 33.9481 27.8954 26.637 25.9433 19.247C25.1871 16.3841 24.6634 13.4628 23.8593 10.6134C23.5262 9.43294 23.2393 8.56154 22.8173 7.42614C22.6763 7.04663 22.5462 6.6615 22.3708 6.29659C22.2565 6.0589 21.9579 5.45727 21.8629 6.17401C21.7518 7.01305 21.7605 10.8228 21.7578 11.0249C21.6889 16.3093 21.6389 19.2614 21.4076 24.8598C20.8502 38.3513 19.915 51.8079 18.4042 65.2259C17.9329 69.412 17.3649 73.5991 17.1433 77.8086C17.04 79.7708 17.2789 81.8986 16.9244 83.8416C16.9104 83.9185 16.3004 85.9057 16.0838 85.5753C15.5239 84.7212 15.5906 83.5902 15.4359 82.5807C14.747 78.0862 14.1686 73.5863 13.3344 69.1137C12.0594 62.2781 10.494 55.5124 9.3503 48.6504C8.26729 42.1523 7.17644 35.679 5.78652 29.2379C5.26301 26.8119 4.79803 24.2532 3.87766 21.9352C2.95349 19.6076 2.67585 26.8154 2.43289 29.3079C1.31585 40.7672 -0.0437667 52.1458 -1.73507 63.5359C-3.3775 74.597 -4.76414 85.6524 -5.82422 96.7833" stroke="white" stroke-width="2" stroke-linecap="round"/>
</g>
<path fill-rule="evenodd" clip-rule="evenodd" d="M-13.811 91.0926C-7.33829 99.8344 2.02578 106.53 13.3487 109.564C39.9583 116.694 67.3097 100.902 74.4398 74.2923C77.4738 62.9692 76.3575 51.5119 72.0234 41.5354L-13.811 91.0926Z" fill="#FFC900"/>
</svg>
