<svg width="97" height="171" viewBox="0 0 97 171" fill="none" xmlns="http://www.w3.org/2000/svg">
<path d="M48.2504 63.5289C74.4962 28.4429 104.008 6.16061 121.967 19.5945C139.926 33.0284 133.208 72.3616 106.962 107.448C80.716 142.534 34.4091 150.851 26.9224 146.652C18.7919 142.092 22.0045 98.6148 48.2504 63.5289Z" fill="#FFC900"/>
<mask id="mask0_2171_15290" style="mask-type:alpha" maskUnits="userSpaceOnUse" x="22" y="15" width="111" height="133">
<path d="M48.2504 63.5289C74.4962 28.4429 104.008 6.16061 121.967 19.5945C139.926 33.0284 133.208 72.3616 106.962 107.448C80.716 142.534 34.4091 150.851 26.9224 146.652C18.7919 142.092 22.0045 98.6148 48.2504 63.5289Z" fill="#FFC900"/>
</mask>
<g mask="url(#mask0_2171_15290)">
<path d="M35.7744 152.44C36.5358 141.902 36.8206 131.328 36.1807 120.774C35.8275 114.951 35.336 109.115 34.687 103.317C34.2056 99.0154 33.6613 94.5899 32.2135 90.4834C31.7278 89.1056 31.0713 87.8179 30.3495 86.5522C29.9953 85.9311 29.9152 85.8252 30.0388 86.6597C31.1288 94.0174 33.6761 101.221 35.9417 108.276C38.5109 116.276 41.2907 124.214 43.6847 132.27C44.3777 134.602 45.0292 136.946 45.7041 139.284C45.9237 140.044 46.1125 141.585 46.6361 142.283C46.9092 142.647 46.8951 142.952 47.0782 143.37C47.2633 143.793 47.4514 143.124 47.4845 143C48.2718 140.053 48.3054 136.792 48.4166 133.775C49.056 116.41 48.3379 98.8018 46.0267 81.5813C45.0104 74.0087 43.4863 66.5449 41.3905 59.2006C40.627 56.5253 40.1547 55.0486 39.2635 52.6167C39.0224 51.9586 38.9491 51.1468 38.4151 50.6929C37.6777 50.066 38.2728 52.641 38.4271 53.5965C39.324 59.1495 40.7704 64.6777 42.0357 70.146C46.3233 88.6763 50.4832 107.334 56.757 125.315C57.6834 127.97 58.6553 130.613 59.6965 133.225C60.0003 133.988 60.9098 135.992 61.1543 135.209C62.2729 131.626 62.0682 126.447 62.2178 122.937C62.9063 106.78 63.0015 90.5931 63.1737 74.4238C63.2746 64.9529 63.9293 55.1641 62.6838 45.734C62.6364 45.3755 62.5999 45.0153 62.5404 44.6586C62.5073 44.4596 62.4357 45.0546 62.4448 45.256C62.9315 55.9954 64.811 66.7516 66.2924 77.3753C68.0419 89.9216 69.7519 102.481 71.6695 115.003C72.536 120.661 73.4173 126.348 74.8958 131.887C75.4148 133.832 76.112 135.705 76.9032 137.551C77.1446 138.114 77.6802 139.798 77.7397 139.188C78.488 131.518 79.0999 123.951 79.2333 116.222C79.4437 104.035 79.2837 91.8284 78.361 79.6695C77.6295 70.029 76.0796 60.5082 74.5851 50.9677C73.9899 47.1679 71.7133 35.9059 72.96 39.5444C74.133 42.9674 75.0432 46.5621 76.0071 50.0357C79.4908 62.5906 82.3057 75.2178 84.2639 88.1056C86.0717 100.004 86.8443 112.095 89.6769 123.821C89.9 124.745 90.2118 126.65 90.8598 127.514C91.0312 127.742 91.1596 127.009 91.1944 126.725C91.4027 125.026 91.6805 120.914 91.7441 119.771C92.9214 98.5791 92.5167 77.3226 90.6925 56.1775C89.9258 47.29 88.7152 38.491 87.2392 29.6983C86.3605 24.4632 85.0919 19.1411 84.6224 13.8418C84.5264 12.7591 85.3691 15.8866 85.65 16.9366C86.9319 21.7284 88.1562 26.5321 89.0316 31.4189C90.8989 41.8432 91.8438 52.3836 92.8434 62.9168C93.6924 71.8634 94.2178 80.9402 95.9501 89.7784C96.2862 91.4932 96.7054 93.2522 97.2526 94.9166C97.4168 95.4159 97.685 96.1885 98.1249 95.275C99.3363 92.759 99.9227 89.6297 100.515 86.9584C102.602 77.5417 103.15 67.9299 103.55 58.3164C104.049 46.3184 104.505 34.1294 103.239 22.1584C103.039 20.269 103.379 19.1484 104.386 17.5819" stroke="white" stroke-width="2" stroke-linecap="round"/>
</g>
</svg>
