<svg width="121" height="158" viewBox="0 0 121 158" fill="none" xmlns="http://www.w3.org/2000/svg">
<path d="M109.491 76.7583C115.067 64.8373 112.051 51.905 101.144 45.6079L41.8984 11.4024C30.9916 5.10538 17.0451 8.84234 10.748 19.7492L-23.4575 78.9948C-29.7546 89.9016 -35.9995 100.718 -16.737 111.839L44.1349 144.351C55.0417 150.648 65.1021 147.959 71.3992 137.052L109.491 76.7583Z" fill="#5F95FF"/>
<mask id="mask0_2171_15819" style="mask-type:alpha" maskUnits="userSpaceOnUse" x="-30" y="8" width="143" height="140">
<path d="M109.491 76.7583C115.067 64.8373 112.051 51.905 101.144 45.6079L41.8984 11.4024C30.9916 5.10538 17.0451 8.84234 10.748 19.7492L-23.4575 78.9948C-29.7546 89.9016 -35.9995 100.718 -16.737 111.839L44.1349 144.351C55.0417 150.648 65.1021 147.959 71.3992 137.052L109.491 76.7583Z" fill="#3F80FF"/>
</mask>
<g mask="url(#mask0_2171_15819)">
<path d="M65.5528 88.2205C60.252 108.003 58.5878 126.706 60.1509 140.935C60.9328 148.053 62.5166 153.998 64.8145 158.389C67.1118 162.779 70.0691 165.523 73.5755 166.463C77.0819 167.403 81.0154 166.504 85.2 163.851C89.3855 161.197 93.7293 156.841 97.9654 151.068C106.434 139.527 114.344 122.497 119.645 102.714C124.945 82.9315 126.61 64.2285 125.047 49.9996C124.265 42.8817 122.681 36.9373 120.383 32.5463C118.086 28.1564 115.128 25.4114 111.622 24.4719C108.116 23.5324 104.182 24.4309 99.9975 27.084C95.8119 29.7378 91.4681 34.0939 87.232 39.8672C78.7639 51.4083 70.8536 68.4376 65.5528 88.2205Z" stroke="black" stroke-width="2"/>
<path d="M97.5528 92.2205C92.252 112.003 90.5878 130.706 92.1509 144.935C92.9328 152.053 94.5166 157.998 96.8145 162.389C99.1118 166.779 102.069 169.523 105.576 170.463C109.082 171.403 113.015 170.504 117.2 167.851C121.386 165.197 125.729 160.841 129.965 155.068C138.434 143.527 146.344 126.497 151.645 106.714C156.945 86.9315 158.61 68.2285 157.047 53.9996C156.265 46.8817 154.681 40.9373 152.383 36.5463C150.086 32.1564 147.128 29.4114 143.622 28.4719C140.116 27.5324 136.182 28.4309 131.997 31.084C127.812 33.7378 123.468 38.0939 119.232 43.8672C110.764 55.4083 102.854 72.4376 97.5528 92.2205Z" stroke="black" stroke-width="2"/>
<path d="M31.5528 79.2205C26.252 99.0034 24.5878 117.706 26.1509 131.935C26.9328 139.053 28.5166 144.998 30.8145 149.389C33.1118 153.779 36.0691 156.523 39.5755 157.463C43.0819 158.403 47.0154 157.504 51.2 154.851C55.3855 152.197 59.7293 147.841 63.9654 142.068C72.4336 130.527 80.3438 113.497 85.6446 93.7144C90.9454 73.9315 92.6096 55.2285 91.0465 40.9996C90.2646 33.8817 88.6808 27.9373 86.3829 23.5463C84.0856 19.1564 81.1283 16.4114 77.6219 15.4719C74.1155 14.5324 70.182 15.4309 65.9975 18.084C61.8119 20.7378 57.4681 25.0939 53.232 30.8672C44.7639 42.4083 36.8536 59.4376 31.5528 79.2205Z" stroke="black" stroke-width="2"/>
<path d="M0.552788 65.2205C-4.74802 85.0034 -6.4122 103.706 -4.84908 117.935C-4.06715 125.053 -2.4834 130.998 -0.185497 135.389C2.11184 139.779 5.06914 142.523 8.57551 143.463C12.0819 144.403 16.0154 143.504 20.2 140.851C24.3855 138.197 28.7293 133.841 32.9654 128.068C41.4336 116.527 49.3438 99.4973 54.6446 79.7144C59.9454 59.9315 61.6096 41.2285 60.0465 26.9996C59.2646 19.8817 57.6808 13.9373 55.3829 9.5463C53.0856 5.15637 50.1283 2.41142 46.6219 1.47189C43.1155 0.532362 39.182 1.4309 34.9975 4.08403C30.8119 6.73781 26.4681 11.0939 22.232 16.8672C13.7639 28.4083 5.8536 45.4376 0.552788 65.2205Z" stroke="black" stroke-width="2"/>
<path d="M-35.4472 59.2205C-40.748 79.0034 -42.4122 97.7064 -40.8491 111.935C-40.0672 119.053 -38.4834 124.998 -36.1855 129.389C-33.8882 133.779 -30.9309 136.523 -27.4245 137.463C-23.9181 138.403 -19.9846 137.504 -15.8 134.851C-11.6145 132.197 -7.27071 127.841 -3.03461 122.068C5.43356 110.527 13.3438 93.4973 18.6446 73.7144C23.9454 53.9315 25.6096 35.2285 24.0465 20.9996C23.2646 13.8817 21.6808 7.93731 19.3829 3.5463C17.0856 -0.843634 14.1283 -3.58858 10.6219 -4.52811C7.11554 -5.46764 3.18197 -4.5691 -1.00255 -1.91597C-5.1881 0.73781 -9.53187 5.09393 -13.768 10.8672C-22.2361 22.4083 -30.1464 39.4376 -35.4472 59.2205Z" stroke="black" stroke-width="2"/>
</g>
</svg>
