<svg width="121" height="164" viewBox="0 0 121 164" fill="none" xmlns="http://www.w3.org/2000/svg">
<path fill-rule="evenodd" clip-rule="evenodd" d="M27.6367 16.2054C37.4739 20.7984 43.3557 31.7352 53.7904 34.7125C69.4144 39.1705 88.2157 28.0894 101.615 37.3135C114.615 46.263 121.952 64.5326 119.919 80.2362C117.881 95.98 98.7644 103.181 91.2778 117.161C83.46 131.76 91.2678 158.838 75.3998 163.374C57.3602 168.53 45.7316 140.308 27.6367 135.352C16.1237 132.198 3.11469 146.902 -7.13775 140.765C-17.4311 134.604 -11.7465 116.854 -19.1216 107.366C-28.3595 95.4809 -49.7384 94.6394 -54.1861 80.2362C-58.3528 66.743 -45.46 54.0747 -39.534 41.2633C-33.0532 27.2525 -32.1044 6.71472 -17.691 1.33782C-2.53257 -4.31699 12.9729 9.3589 27.6367 16.2054Z" fill="#F44968"/>
<path d="M13.333 35.7739C13.333 37.5499 11.0893 38.5876 9.31334 38.5876C7.53737 38.5876 6.09766 37.1479 6.09766 35.3719C6.09766 33.596 7.53737 32.1562 9.31334 32.1562C11.0893 32.1562 13.333 33.9979 13.333 35.7739Z" fill="white"/>
<path fill-rule="evenodd" clip-rule="evenodd" d="M29.2204 46.6539C31.2296 46.4945 33.6452 47.0195 34.1653 48.8218C34.6496 50.5 32.4901 51.5251 30.8875 52.4304C29.78 53.056 28.4326 53.353 27.3748 52.6578C26.2855 51.9418 25.9763 50.6317 26.3418 49.4428C26.7619 48.076 27.6898 46.7754 29.2204 46.6539Z" fill="white"/>
<path fill-rule="evenodd" clip-rule="evenodd" d="M45.789 91.6797C47.5072 91.598 49.6714 91.5371 50.2124 93.1699C50.7574 94.815 49.0135 96.0994 47.5718 97.0609C46.3625 97.8674 44.851 98.3707 43.6569 97.5418C42.3947 96.6655 41.9705 94.9812 42.4957 93.5371C42.972 92.2277 44.3972 91.746 45.789 91.6797Z" fill="white"/>
<path fill-rule="evenodd" clip-rule="evenodd" d="M69.0166 142.295C70.5747 142.331 72.0877 143.067 72.6015 144.539C73.1492 146.107 72.6762 147.915 71.308 148.857C70.0262 149.74 68.3945 149.207 67.1197 148.314C65.7506 147.355 64.3894 145.957 64.8918 144.363C65.4029 142.741 67.3166 142.256 69.0166 142.295Z" fill="white"/>
<path fill-rule="evenodd" clip-rule="evenodd" d="M42.4815 119.787C44.0124 119.81 45.7965 120.119 46.2254 121.588C46.6342 122.989 45.1621 124.014 43.9534 124.831C42.9168 125.532 41.6761 126.034 40.6043 125.389C39.1809 124.531 37.8457 123.046 38.3737 121.47C38.8936 119.919 40.8458 119.763 42.4815 119.787Z" fill="white"/>
<path fill-rule="evenodd" clip-rule="evenodd" d="M13.5729 62.7122C15.6991 62.6023 17.5582 64.2639 18.0784 66.3284C18.5176 68.0716 17.0262 69.4892 15.5324 70.4892C14.2559 71.3438 12.6242 71.7114 11.377 70.8147C10.1133 69.9062 9.89666 68.2323 10.3038 66.7301C10.8031 64.8876 11.6665 62.8107 13.5729 62.7122Z" fill="white"/>
<path fill-rule="evenodd" clip-rule="evenodd" d="M13.369 114.963C14.8883 114.966 16.7817 114.882 17.2604 116.324C17.7433 117.779 16.2556 118.957 14.9741 119.798C13.9261 120.485 12.6433 120.715 11.5827 120.047C10.2378 119.201 8.90551 117.809 9.43231 116.309C9.94058 114.863 11.8358 114.96 13.369 114.963Z" fill="white"/>
<path fill-rule="evenodd" clip-rule="evenodd" d="M65.0302 119.793C66.5306 119.824 68.3023 120.053 68.7316 121.491C69.1452 122.876 67.7265 123.951 66.5002 124.717C65.5804 125.291 64.4885 125.276 63.5579 124.72C62.1836 123.898 60.3799 122.865 60.8384 121.331C61.3096 119.755 63.3851 119.76 65.0302 119.793Z" fill="white"/>
<path fill-rule="evenodd" clip-rule="evenodd" d="M91.044 80.3946C92.9977 80.329 94.5999 81.8626 95.1652 83.7338C95.695 85.4871 94.9378 87.3162 93.464 88.4037C91.9527 89.5188 89.8698 89.8833 88.3788 88.7412C86.9729 87.6643 87.1558 85.6716 87.6945 83.9846C88.2449 82.2609 89.2356 80.4553 91.044 80.3946Z" fill="white"/>
<path fill-rule="evenodd" clip-rule="evenodd" d="M54.4001 48.2359C56.1042 48.2839 57.1839 49.8176 57.7507 51.4254C58.38 53.2109 58.8694 55.4448 57.3289 56.5453C55.8073 57.6324 53.91 56.3689 52.4284 55.2278C51.1183 54.2188 49.9643 52.8102 50.4131 51.2186C50.9111 49.4525 52.5658 48.1842 54.4001 48.2359Z" fill="white"/>
<path fill-rule="evenodd" clip-rule="evenodd" d="M75.0053 99.6866C76.5399 99.6715 78.29 99.7947 78.8805 101.211C79.6091 102.959 79.2959 105.156 77.7283 106.218C76.2652 107.209 74.4486 106.242 73.0515 105.16C71.8196 104.206 70.8349 102.753 71.3587 101.286C71.852 99.9036 73.538 99.7011 75.0053 99.6866Z" fill="white"/>
<path fill-rule="evenodd" clip-rule="evenodd" d="M41.0141 70.7502C42.5773 70.7951 44.1838 71.499 44.6097 73.0037C45.0019 74.3894 43.8076 75.5699 42.6008 76.3558C41.6111 77.0003 40.405 77.013 39.3961 76.3989C37.9789 75.5363 36.2649 74.3722 36.7218 72.7773C37.2035 71.0955 39.2655 70.7 41.0141 70.7502Z" fill="white"/>
<path fill-rule="evenodd" clip-rule="evenodd" d="M73.0665 70.7466C75.0823 70.7821 76.15 72.9097 76.679 74.8552C77.1169 76.4658 76.6843 78.17 75.362 79.1885C73.9098 80.307 71.9095 80.7396 70.4126 79.6818C68.8633 78.587 68.4996 76.5391 69.0397 74.7206C69.6334 72.722 70.9818 70.7099 73.0665 70.7466Z" fill="white"/>
<path fill-rule="evenodd" clip-rule="evenodd" d="M80.7136 45.8255C83.0225 45.7573 84.0649 48.459 84.6677 50.6888C85.158 52.5025 84.8468 54.4675 83.3604 55.6165C81.7283 56.8782 79.3931 57.2977 77.7769 56.0157C76.2971 54.8418 76.895 52.7178 77.418 50.9028C78.0358 48.7593 78.4839 45.8913 80.7136 45.8255Z" fill="white"/>
<path fill-rule="evenodd" clip-rule="evenodd" d="M104.228 61.904C105.966 61.9601 106.778 63.7974 107.356 65.4377C108.006 67.282 108.87 69.5208 107.345 70.7443C105.689 72.072 103.289 71.3526 101.63 70.0293C100.199 68.8878 99.8514 66.9574 100.409 65.2134C100.976 63.4396 102.366 61.8439 104.228 61.904Z" fill="white"/>
<path fill-rule="evenodd" clip-rule="evenodd" d="M14.2616 89.2493C15.7346 89.2573 17.5902 89.0881 18.0637 90.483C18.5452 91.9019 17.0538 93.0126 15.8342 93.883C14.6617 94.7197 13.253 95.5513 12.0316 94.7876C10.573 93.8755 9.68713 92.0367 10.3297 90.4409C10.8952 89.0364 12.7475 89.2411 14.2616 89.2493Z" fill="white"/>
</svg>
