<svg width="66" height="22" viewBox="0 0 66 22" fill="none" xmlns="http://www.w3.org/2000/svg">
<path d="M0.878196 0.554842C0.664292 3.3205 2.20493 5.11876 3.84028 6.59088C6.1424 8.60835 8.68664 10.401 11.3256 11.8675C23.6607 18.3048 36.6341 19.0946 49.8845 15.0755C53.2497 14.0416 56.5237 12.5103 60.1942 11.0343C60.1242 14.7249 57.7768 17.9366 57.4963 21.7433C59.0929 21.3194 59.6192 20.1162 60.0824 19.1304C61.9665 15.0786 63.8121 10.9568 65.5489 6.80359C66.3665 4.80072 66.005 3.81312 64.0468 3.2494C59.9831 2.02061 55.9371 2.15163 52.0174 3.67375C51.8771 3.75114 51.7823 4.07726 51.5858 4.5508C54.0178 7.13577 57.4918 4.30731 60.3238 6.12392C56.0989 9.91422 51.0037 11.628 45.8172 12.8443C40.3816 14.1067 34.9249 14.8329 29.3804 14.2381C23.9447 13.6745 18.8949 11.9851 13.8626 9.82958C8.79878 7.78275 4.58761 4.62668 0.878196 0.554842Z" fill="#E30029"/>
</svg>
