<svg width="67" height="21" viewBox="0 0 67 21" fill="none" xmlns="http://www.w3.org/2000/svg">
<path d="M0.868489 20.3393C0.709095 17.57 2.28484 15.8024 3.94887 14.3628C6.29029 12.391 8.86934 10.6488 11.5367 9.23456C23.9961 3.04149 36.9826 2.50731 50.1513 6.78667C53.4955 7.88657 56.7386 9.48204 60.3794 11.0301C60.3821 7.33881 58.0984 4.08155 57.8929 0.270067C59.4808 0.725288 59.9833 1.93863 60.427 2.93335C62.231 7.02149 63.9951 11.1789 65.6498 15.3654C66.4277 17.384 66.0468 18.3643 64.0779 18.8894C59.9908 20.0379 55.9481 19.8272 52.0592 18.2282C51.9204 18.148 51.8321 17.8201 51.645 17.3428C54.1274 14.8062 57.545 17.7025 60.4122 15.9421C56.2628 12.0693 51.2024 10.2555 46.0409 8.93726C40.6311 7.56806 35.1898 6.73452 29.6347 7.22009C24.1889 7.67649 19.1068 9.26609 14.0331 11.3221C8.92989 13.2688 4.65738 16.3413 0.868489 20.3393Z" fill="#E30029"/>
</svg>
