<svg width="258" height="16" viewBox="0 0 258 16" fill="none" xmlns="http://www.w3.org/2000/svg">
<g clip-path="url(#clip0_2171_15297)">
<path d="M5.59766 6.5101C7.61765 6.5101 9.73382 6.44228 11.7538 6.37447C12.6195 6.37447 13.389 6.30666 14.2548 6.30666C17.91 6.17103 21.5652 6.0354 25.2204 5.89978C29.6451 5.76415 33.9737 5.56071 38.3984 5.42508C44.6508 5.15383 50.9031 4.95039 57.1555 4.67913C58.5983 4.61132 60.0412 4.61132 61.484 4.54351C65.1392 4.40788 68.7944 4.27225 72.4497 4.20444C76.1049 4.06881 79.7601 3.93318 83.4153 3.86537C84.8581 3.79756 86.301 3.72974 87.7438 3.72974C93.5152 3.59412 99.3828 3.45849 105.154 3.32286C108.713 3.25505 112.272 3.18723 115.927 3.05161C117.37 3.05161 118.717 2.98379 120.16 2.98379C125.739 2.91598 131.414 2.84817 136.993 2.78035C142.572 2.71254 148.055 2.64473 153.634 2.57691C155.077 2.57691 156.52 2.57691 158.059 2.57691C161.714 2.57691 165.273 2.57691 168.928 2.57691C174.603 2.57691 180.182 2.57691 185.858 2.5091C187.685 2.5091 189.513 2.5091 191.34 2.5091C195.188 2.5091 199.036 2.5091 202.883 2.5091C203.172 2.5091 203.557 2.5091 203.845 2.5091C195.188 2.57691 186.435 2.64473 177.778 2.78035C174.122 2.84817 170.563 2.84817 166.908 2.91598C165.369 2.91598 163.734 2.91598 162.195 2.98379C156.904 3.05161 151.71 3.18723 146.42 3.25505C140.36 3.39068 134.3 3.45849 128.24 3.59412C127.182 3.59412 126.22 3.66193 125.162 3.66193C121.891 3.79756 118.717 3.86537 115.447 4.001C108.906 4.20444 102.365 4.40788 95.8238 4.61132C94.8619 4.61132 93.9 4.67913 92.9381 4.74695C89.7638 4.88257 86.4934 5.08601 83.3191 5.22164C77.5477 5.49289 71.8725 5.76415 66.1011 6.0354C64.5621 6.10322 62.9268 6.23884 61.3878 6.30666C57.7326 6.5101 54.0774 6.71354 50.4222 6.98479C45.805 7.25605 41.0917 7.5273 36.4746 7.79855C30.0299 8.20543 23.489 8.61232 17.0443 9.0192C15.5052 9.08701 13.9662 9.22264 12.331 9.29045C9.54144 9.49389 6.75194 9.69733 3.96243 9.90077C3.67386 9.90077 3.38529 10.0364 3.38529 10.3077C3.38529 10.5111 3.67386 10.7145 3.96243 10.7145C5.02052 10.7145 5.98242 10.7823 7.04051 10.7823C6.84813 11.1214 6.75194 11.3249 6.75194 11.5283C6.75194 12.2742 7.61765 12.9524 8.77193 12.9524C16.7557 12.6133 24.6433 12.2064 32.627 11.9352C39.5527 11.7317 46.4784 11.4605 53.404 11.257C61.0031 10.9858 68.6982 10.7145 76.2972 10.5111C78.702 10.4433 81.1067 10.3755 83.5115 10.2398C84.1848 10.2398 84.8581 10.172 85.6277 10.172C97.94 9.96859 110.252 9.69733 122.565 9.49389C129.106 9.35826 135.743 9.22264 142.284 9.15482C144.688 9.08701 146.997 9.08701 149.402 9.0192C162.002 8.88357 174.603 8.74794 187.204 8.61232C192.591 8.5445 197.977 8.47669 203.364 8.40887C207.981 8.34106 212.598 8.34106 217.215 8.20543C221.063 8.13762 224.814 8.00199 228.662 7.93418C230.586 7.86637 232.51 7.86637 234.337 7.79855C238.666 7.59511 242.994 7.39167 247.323 7.18823C247.034 7.45949 247.034 7.86637 247.131 8.13762C247.227 8.47669 247.515 8.74794 247.996 8.88357C248.381 9.0192 248.958 9.15482 249.343 9.0192C250.305 8.74794 251.267 8.47669 252.132 8.20543C252.132 8.20543 252.132 8.20543 252.036 8.20543C252.132 8.20543 252.132 8.13762 252.229 8.13762C252.325 8.13762 252.421 8.06981 252.421 8.06981H252.325C252.806 7.93418 253.287 7.79855 253.864 7.59511C254.345 7.45949 254.922 7.25605 255.403 7.12042C255.98 6.91698 256.461 6.71354 257.038 6.5101C257.615 6.30666 258 5.76415 258 5.28945C258 5.0182 257.904 4.81476 257.711 4.54351C257.519 4.27225 257.038 3.93318 256.557 3.86537C256.076 3.79756 255.595 3.72974 255.114 3.72974C255.018 3.72974 254.922 3.72974 254.826 3.72974C254.537 3.72974 254.152 3.72974 253.864 3.79756C253.094 3.86537 252.421 3.93318 251.651 3.93318C251.074 3.93318 250.497 4.001 249.824 4.001C248.189 4.06881 246.65 4.13662 245.014 4.27225C244.63 4.27225 244.149 4.34006 243.764 4.34006C243.956 4.20444 244.052 4.06881 244.052 3.93318C244.149 3.79756 244.149 3.66193 244.149 3.5263C244.149 3.45849 244.149 3.32286 244.245 3.25505C244.245 3.11942 244.245 2.98379 244.149 2.91598C244.149 2.91598 244.245 2.91598 244.245 2.84817C244.533 2.71254 244.822 2.57691 245.014 2.30566C245.207 2.10222 245.303 1.83096 245.303 1.55971C245.303 1.28846 245.207 1.08502 245.014 0.813762C244.918 0.745949 244.822 0.610322 244.726 0.542508C244.437 0.339068 244.149 0.271254 243.86 0.203441C243.283 0.0678135 242.61 0 241.936 0C241.359 0 240.878 0 240.301 0C239.532 0 238.762 0 237.992 0C236.934 0 235.78 0 234.722 0C231.836 0 228.951 0 226.065 0C223.372 0 220.582 0 217.889 0C215.388 0 212.983 0 210.482 0C200.575 0 190.763 0.0678135 180.856 0.135627C173.449 0.203441 166.042 0.271254 158.636 0.271254C155.365 0.271254 151.999 0.339068 148.728 0.406881C141.322 0.542508 133.915 0.610322 126.508 0.745949C124.392 0.745949 122.276 0.813762 120.16 0.813762C118.909 0.813762 117.755 0.881576 116.505 0.881576C109.194 1.08502 101.884 1.28846 94.5733 1.4919C92.361 1.55971 90.1486 1.62752 87.84 1.69534C86.5896 1.69534 85.3391 1.76315 84.0886 1.83096C76.7782 2.10222 69.5639 2.37347 62.2535 2.64473C58.5021 2.78035 54.7507 2.91598 50.9993 3.11942C44.5546 3.39068 38.1099 3.66193 31.7613 4.001C26.1823 4.27225 20.6033 4.47569 15.0243 4.67913C14.1586 4.74695 13.2929 4.74695 12.331 4.81476C10.8881 4.88257 9.44526 4.88257 8.00241 4.95039C6.75194 5.22164 5.40528 5.22164 4.15481 5.22164C4.05862 4.95039 3.67386 4.74695 3.38529 4.81476C2.51958 4.81476 1.75006 4.88257 0.884352 4.95039C0.499593 5.0182 0.114833 5.15383 0.018643 5.42508C-0.0775469 5.76415 0.211023 6.10322 0.595783 6.17103C0.980542 6.23884 1.3653 6.30666 1.75006 6.37447C2.13482 6.44228 2.42339 6.44228 2.80815 6.44228C3.77005 6.5101 4.63576 6.5101 5.59766 6.5101ZM230.682 4.34006C231.836 4.34006 233.087 4.34006 234.241 4.34006C234.337 4.5435 234.53 4.67913 234.722 4.81476C234.241 4.81476 233.76 4.88257 233.375 4.88257C232.51 4.88257 231.644 4.95039 230.778 4.95039C226.931 5.0182 223.179 5.15383 219.332 5.22164C217.6 5.28945 215.869 5.35727 214.137 5.35727C211.444 5.35727 208.655 5.42508 205.961 5.42508C199.709 5.49289 193.553 5.56071 187.3 5.62852C175.18 5.76415 163.157 5.89978 151.037 6.0354C142.38 6.10322 133.723 6.30666 125.066 6.5101C112.08 6.78135 98.9981 6.98479 86.0124 7.25605C83.4153 7.32386 80.8182 7.39167 78.221 7.5273C70.8144 7.79855 63.4078 8.00199 56.0012 8.27325C48.7869 8.5445 41.4765 8.74794 34.2623 9.0192C33.5889 9.0192 32.9156 9.08701 32.2423 9.08701C34.1661 8.95138 36.1861 8.88357 38.1098 8.74794C44.9393 8.40887 51.7688 8.00199 58.5983 7.66293C61.0031 7.5273 63.4078 7.39167 65.7164 7.25605C66.9668 7.18823 68.2173 7.12042 69.3716 7.12042C76.5858 6.84916 83.7039 6.5101 90.8219 6.23884C92.1686 6.17103 93.6114 6.10322 94.9581 6.0354C96.9781 5.96759 98.9981 5.89978 100.922 5.89978C108.232 5.69633 115.543 5.49289 122.853 5.28945C124.488 5.22164 126.124 5.22164 127.663 5.15383C128.047 5.15383 128.528 5.15383 128.913 5.15383C130.067 5.15383 131.222 5.15383 132.28 5.08601C139.59 4.95039 146.997 4.88257 154.307 4.74695C157.674 4.67913 161.041 4.61132 164.407 4.61132C175.277 4.54351 186.242 4.47569 197.112 4.40788C208.462 4.40788 219.62 4.34006 230.682 4.34006Z" fill="#FFC900"/>
<path d="M20.007 16.0002C20.2978 16.0002 20.5335 15.8296 20.5335 15.6192C20.5335 15.4088 20.2978 15.2383 20.007 15.2383C19.7162 15.2383 19.4805 15.4088 19.4805 15.6192C19.4805 15.8296 19.7162 16.0002 20.007 16.0002Z" fill="#FFC900"/>
</g>
<defs>
<clipPath id="clip0_2171_15297">
<rect width="258" height="16" fill="white"/>
</clipPath>
</defs>
</svg>
