<svg width="64" height="72" viewBox="0 0 64 72" fill="none" xmlns="http://www.w3.org/2000/svg">
<path d="M33.7215 40.2717C38.8127 30.655 20.0508 21.4155 10.0334 17.9978C15.8082 21.8869 28.0647 31.0793 29.4789 33.2006C33.7215 37.4432 28.4182 40.6252 26.6507 47.3425C25.59 57.5956 33.3682 61.1311 40.0857 64.3131C46.8032 67.4951 55.2885 66.0809 49.6314 63.9598C30.186 57.9493 27.3576 52.2925 33.7215 40.2717Z" fill="#3C2E37"/>
<path d="M42.8094 28.3547C39.4153 19.8694 20.182 9.26283 10.9896 5.02019C11.1072 5.60967 13.6052 8.34427 22.6562 14.5668C33.9699 22.345 42.913 26.1298 41.3945 39.6691C40.6615 46.2048 39.22 51.0359 40.7927 53.706C42.2723 56.2181 46.9483 59.0727 53.8738 58.3025C57.0562 57.9486 55.8908 56.2855 54.123 55.932C54.3587 55.932 53.9109 55.8612 50.234 55.5783C43.2665 53.3534 43.2665 51.9392 43.6201 43.8075C45.1379 34.5115 44.0855 31.545 42.8094 28.3547Z" fill="#3C2E37"/>
</svg>
